<?xml version="1.0" encoding="UTF-8" standalone="no"?>
<!-- Created with Inkscape (http://www.inkscape.org/) -->

<svg
   version="1.1"
   id="svg1729"
   width="729.7356"
   height="440.99997"
   viewBox="0 0 729.7356 440.99997"
   xmlns="http://www.w3.org/2000/svg"
   xmlns:svg="http://www.w3.org/2000/svg">
  <defs
     id="defs1733">
    <clipPath
       clipPathUnits="userSpaceOnUse"
       id="clipPath1747">
      <path
         d="M 221.477,0 H 541.61 V 329.391 H 221.477 Z"
         id="path1745" />
    </clipPath>
    <clipPath
       clipPathUnits="userSpaceOnUse"
       id="clipPath1757">
      <path
         d="M 0,0 H 548 V 331 H 0 Z"
         id="path1755" />
    </clipPath>
    <clipPath
       clipPathUnits="userSpaceOnUse"
       id="clipPath1769">
      <path
         d="M 215.723,0 H 548 V 331 H 215.723 Z"
         id="path1767" />
    </clipPath>
    <clipPath
       clipPathUnits="userSpaceOnUse"
       id="clipPath1779">
      <path
         d="M 0,0 H 548 V 331 H 0 Z"
         id="path1777" />
    </clipPath>
    <clipPath
       clipPathUnits="userSpaceOnUse"
       id="clipPath1789">
      <path
         d="M 221.477,0 H 541.61 V 329.391 H 221.477 Z"
         id="path1787" />
    </clipPath>
    <clipPath
       clipPathUnits="userSpaceOnUse"
       id="clipPath1799">
      <path
         d="M 0,0 H 548 V 331 H 0 Z"
         id="path1797" />
    </clipPath>
    <clipPath
       clipPathUnits="userSpaceOnUse"
       id="clipPath1809">
      <path
         d="m 213.887,149.551 h 172.652 v 136.68 H 213.887 Z"
         id="path1807" />
    </clipPath>
    <clipPath
       clipPathUnits="userSpaceOnUse"
       id="clipPath1819">
      <path
         d="M 0,0 H 548 V 331 H 0 Z"
         id="path1817" />
    </clipPath>
    <clipPath
       clipPathUnits="userSpaceOnUse"
       id="clipPath1833">
      <path
         d="M 83.023,0 H 548 V 238.352 H 83.023 Z"
         id="path1831" />
    </clipPath>
    <clipPath
       clipPathUnits="userSpaceOnUse"
       id="clipPath1843">
      <path
         d="M 0,0 H 548 V 331 H 0 Z"
         id="path1841" />
    </clipPath>
    <clipPath
       clipPathUnits="userSpaceOnUse"
       id="clipPath1857">
      <path
         d="M 77.27,0 H 548 V 244.105 H 77.27 Z"
         id="path1855" />
    </clipPath>
    <clipPath
       clipPathUnits="userSpaceOnUse"
       id="clipPath1867">
      <path
         d="M 0,0 H 548 V 331 H 0 Z"
         id="path1865" />
    </clipPath>
    <clipPath
       clipPathUnits="userSpaceOnUse"
       id="clipPath1877">
      <path
         d="M 83.023,0 H 548 V 238.352 H 83.023 Z"
         id="path1875" />
    </clipPath>
    <clipPath
       clipPathUnits="userSpaceOnUse"
       id="clipPath1887">
      <path
         d="M 0,0 H 548 V 331 H 0 Z"
         id="path1885" />
    </clipPath>
    <clipPath
       clipPathUnits="userSpaceOnUse"
       id="clipPath1897">
      <path
         d="M 226.906,73.297 H 363.59 V 245.945 H 226.906 Z"
         id="path1895" />
    </clipPath>
    <clipPath
       clipPathUnits="userSpaceOnUse"
       id="clipPath1907">
      <path
         d="M 0,0 H 548 V 331 H 0 Z"
         id="path1905" />
    </clipPath>
    <clipPath
       clipPathUnits="userSpaceOnUse"
       id="clipPath1921">
      <path
         d="m 234.738,84.879 h 6.473 v 8.633 h -6.473 z"
         id="path1919" />
    </clipPath>
    <clipPath
       clipPathUnits="userSpaceOnUse"
       id="clipPath1931">
      <path
         d="M 0,0 H 548 V 331 H 0 Z"
         id="path1929" />
    </clipPath>
    <clipPath
       clipPathUnits="userSpaceOnUse"
       id="clipPath1945">
      <path
         d="m 255.836,66.043 h 6.477 v 8.633 h -6.477 z"
         id="path1943" />
    </clipPath>
    <clipPath
       clipPathUnits="userSpaceOnUse"
       id="clipPath1955">
      <path
         d="M 0,0 H 548 V 331 H 0 Z"
         id="path1953" />
    </clipPath>
    <clipPath
       clipPathUnits="userSpaceOnUse"
       id="clipPath1969">
      <path
         d="M 0,3.516 H 279.199 V 331 H 0 Z"
         id="path1967" />
    </clipPath>
    <clipPath
       clipPathUnits="userSpaceOnUse"
       id="clipPath1979">
      <path
         d="M 0,0 H 548 V 331 H 0 Z"
         id="path1977" />
    </clipPath>
    <clipPath
       clipPathUnits="userSpaceOnUse"
       id="clipPath1997">
      <path
         d="m 98.664,17.906 h 41.008 V 35.168 H 98.664 Z"
         id="path1995" />
    </clipPath>
    <clipPath
       clipPathUnits="userSpaceOnUse"
       id="clipPath2007">
      <path
         d="M 0,0 H 548 V 331 H 0 Z"
         id="path2005" />
    </clipPath>
    <clipPath
       clipPathUnits="userSpaceOnUse"
       id="clipPath2021">
      <path
         d="M 20.16,52.434 H 172.672 V 69.7 H 20.16 Z"
         id="path2019" />
    </clipPath>
    <clipPath
       clipPathUnits="userSpaceOnUse"
       id="clipPath2031">
      <path
         d="M 0,0 H 548 V 331 H 0 Z"
         id="path2029" />
    </clipPath>
    <clipPath
       clipPathUnits="userSpaceOnUse"
       id="clipPath2045">
      <path
         d="m 20.16,86.965 h 53.953 v 17.266 H 20.16 Z"
         id="path2043" />
    </clipPath>
    <clipPath
       clipPathUnits="userSpaceOnUse"
       id="clipPath2055">
      <path
         d="M 0,0 H 548 V 331 H 0 Z"
         id="path2053" />
    </clipPath>
    <clipPath
       clipPathUnits="userSpaceOnUse"
       id="clipPath2069">
      <path
         d="m 20.16,104.23 h 158.266 v 17.262 H 20.16 Z"
         id="path2067" />
    </clipPath>
    <clipPath
       clipPathUnits="userSpaceOnUse"
       id="clipPath2079">
      <path
         d="M 0,0 H 548 V 331 H 0 Z"
         id="path2077" />
    </clipPath>
    <clipPath
       clipPathUnits="userSpaceOnUse"
       id="clipPath2093">
      <path
         d="m 20.16,121.492 h 177.688 v 17.266 H 20.16 Z"
         id="path2091" />
    </clipPath>
    <clipPath
       clipPathUnits="userSpaceOnUse"
       id="clipPath2103">
      <path
         d="M 0,0 H 548 V 331 H 0 Z"
         id="path2101" />
    </clipPath>
    <clipPath
       clipPathUnits="userSpaceOnUse"
       id="clipPath2117">
      <path
         d="M 0,3.516 H 279.199 V 331 H 0 Z"
         id="path2115" />
    </clipPath>
    <clipPath
       clipPathUnits="userSpaceOnUse"
       id="clipPath2127">
      <path
         d="M 0,0 H 548 V 331 H 0 Z"
         id="path2125" />
    </clipPath>
    <clipPath
       clipPathUnits="userSpaceOnUse"
       id="clipPath2145">
      <path
         d="M 221.477,0 H 541.61 V 329.391 H 221.477 Z"
         id="path2143" />
    </clipPath>
    <clipPath
       clipPathUnits="userSpaceOnUse"
       id="clipPath2155">
      <path
         d="M 0,0 H 548 V 331 H 0 Z"
         id="path2153" />
    </clipPath>
    <clipPath
       clipPathUnits="userSpaceOnUse"
       id="clipPath2173">
      <path
         d="m 348.793,15.746 h 65.465 v 17.266 h -65.465 z"
         id="path2171" />
    </clipPath>
    <clipPath
       clipPathUnits="userSpaceOnUse"
       id="clipPath2183">
      <path
         d="M 0,0 H 548 V 331 H 0 Z"
         id="path2181" />
    </clipPath>
    <clipPath
       clipPathUnits="userSpaceOnUse"
       id="clipPath2197">
      <path
         d="m 339.672,33.012 h 83.449 v 17.266 h -83.449 z"
         id="path2195" />
    </clipPath>
    <clipPath
       clipPathUnits="userSpaceOnUse"
       id="clipPath2207">
      <path
         d="M 0,0 H 548 V 331 H 0 Z"
         id="path2205" />
    </clipPath>
    <clipPath
       clipPathUnits="userSpaceOnUse"
       id="clipPath2221">
      <path
         d="m 271.867,89.121 h 97.117 v 17.266 h -97.117 z"
         id="path2219" />
    </clipPath>
    <clipPath
       clipPathUnits="userSpaceOnUse"
       id="clipPath2231">
      <path
         d="M 0,0 H 548 V 331 H 0 Z"
         id="path2229" />
    </clipPath>
    <clipPath
       clipPathUnits="userSpaceOnUse"
       id="clipPath2245">
      <path
         d="m 271.867,106.387 h 177.691 v 17.266 H 271.867 Z"
         id="path2243" />
    </clipPath>
    <clipPath
       clipPathUnits="userSpaceOnUse"
       id="clipPath2255">
      <path
         d="M 0,0 H 548 V 331 H 0 Z"
         id="path2253" />
    </clipPath>
    <clipPath
       clipPathUnits="userSpaceOnUse"
       id="clipPath2269">
      <path
         d="m 271.867,123.652 h 152.512 v 17.266 H 271.867 Z"
         id="path2267" />
    </clipPath>
    <clipPath
       clipPathUnits="userSpaceOnUse"
       id="clipPath2279">
      <path
         d="M 0,0 H 548 V 331 H 0 Z"
         id="path2277" />
    </clipPath>
    <clipPath
       clipPathUnits="userSpaceOnUse"
       id="clipPath2293">
      <path
         d="M 221.477,0 H 541.61 V 329.391 H 221.477 Z"
         id="path2291" />
    </clipPath>
    <clipPath
       clipPathUnits="userSpaceOnUse"
       id="clipPath2303">
      <path
         d="M 0,0 H 548 V 331 H 0 Z"
         id="path2301" />
    </clipPath>
    <clipPath
       clipPathUnits="userSpaceOnUse"
       id="clipPath2323">
      <path
         d="M 0,0 H 548 V 331 H 0 Z"
         id="path2321" />
    </clipPath>
    <clipPath
       clipPathUnits="userSpaceOnUse"
       id="clipPath2341">
      <path
         d="m 310.586,194.148 h 141.723 v 17.266 H 310.586 Z"
         id="path2339" />
    </clipPath>
    <clipPath
       clipPathUnits="userSpaceOnUse"
       id="clipPath2351">
      <path
         d="M 0,0 H 548 V 331 H 0 Z"
         id="path2349" />
    </clipPath>
    <clipPath
       clipPathUnits="userSpaceOnUse"
       id="clipPath2365">
      <path
         d="m 235.867,228.68 h 160.426 v 17.266 H 235.867 Z"
         id="path2363" />
    </clipPath>
    <clipPath
       clipPathUnits="userSpaceOnUse"
       id="clipPath2375">
      <path
         d="M 0,0 H 548 V 331 H 0 Z"
         id="path2373" />
    </clipPath>
    <clipPath
       clipPathUnits="userSpaceOnUse"
       id="clipPath2389">
      <path
         d="M 235.867,263.211 H 456 v 17.262 H 235.867 Z"
         id="path2387" />
    </clipPath>
    <clipPath
       clipPathUnits="userSpaceOnUse"
       id="clipPath2399">
      <path
         d="M 0,0 H 548 V 331 H 0 Z"
         id="path2397" />
    </clipPath>
    <clipPath
       clipPathUnits="userSpaceOnUse"
       id="clipPath2413">
      <path
         d="m 235.867,280.473 h 97.117 v 17.266 h -97.117 z"
         id="path2411" />
    </clipPath>
    <clipPath
       clipPathUnits="userSpaceOnUse"
       id="clipPath2423">
      <path
         d="M 0,0 H 548 V 331 H 0 Z"
         id="path2421" />
    </clipPath>
    <clipPath
       clipPathUnits="userSpaceOnUse"
       id="clipPath2437">
      <path
         d="m 235.867,297.738 h 177.691 v 17.266 H 235.867 Z"
         id="path2435" />
    </clipPath>
    <clipPath
       clipPathUnits="userSpaceOnUse"
       id="clipPath2447">
      <path
         d="M 0,0 H 548 V 331 H 0 Z"
         id="path2445" />
    </clipPath>
    <clipPath
       clipPathUnits="userSpaceOnUse"
       id="clipPath2461">
      <path
         d="M 221.477,0 H 541.61 V 329.391 H 221.477 Z"
         id="path2459" />
    </clipPath>
    <clipPath
       clipPathUnits="userSpaceOnUse"
       id="clipPath2471">
      <path
         d="M 0,0 H 548 V 331 H 0 Z"
         id="path2469" />
    </clipPath>
  </defs>
  <g
     id="g1737"
     transform="matrix(1.3333333,0,0,1.3333333,0,1.1691666e-5)">
    <g
       id="g1741">
      <g
         id="g1743"
         clip-path="url(#clipPath1747)">
        <g
           id="g1749">
          <g
             id="g1751">
            <g
               id="g1753"
               clip-path="url(#clipPath1757)">
              <g
                 id="g1759">
                <path
                   d="m 381.863,162.496 v 1.953 h -0.718 v -1.953 z m 0,4.266 v 2.133 h -0.718 v -2.133 z m 0,4.226 v 2.145 h -0.718 v -2.145 z m 0,4.407 v 2.253 h -0.718 v -2.253 z m 0,4.371 V 182 h -0.718 v -2.234 z m 0,4.312 v 1.438 h -0.718 v -1.438 z"
                   style="fill:#666666;fill-opacity:1;fill-rule:nonzero;stroke:none"
                   id="path1761" />
              </g>
            </g>
          </g>
        </g>
      </g>
    </g>
    <g
       id="g1763">
      <g
         id="g1765"
         clip-path="url(#clipPath1769)">
        <g
           id="g1771">
          <g
             id="g1773">
            <g
               id="g1775"
               clip-path="url(#clipPath1779)">
              <g
                 id="g1781" />
              <g
                 id="g1783">
                <g
                   id="g1785"
                   clip-path="url(#clipPath1789)">
                  <g
                     id="g1791">
                    <g
                       id="g1793">
                      <g
                         id="g1795"
                         clip-path="url(#clipPath1799)">
                        <g
                           id="g1801" />
                        <g
                           id="g1803">
                          <g
                             id="g1805"
                             clip-path="url(#clipPath1809)">
                            <g
                               id="g1811">
                              <g
                                 id="g1813">
                                <g
                                   id="g1815"
                                   clip-path="url(#clipPath1819)">
                                <g
                                   id="g1821">
                                <g
                                   id="g1823"
                                   transform="matrix(0,0.999962,-1,0,0,0)">
                                <path
                                   d="m 150.275,-381.504 12.227,4.316 v -8.632 z"
                                   style="fill:none;stroke:#666666;stroke-width:0.750014;stroke-linecap:butt;stroke-linejoin:miter;stroke-miterlimit:10;stroke-dasharray:none;stroke-opacity:1"
                                   id="path1825" />
                                </g>
                                </g>
                                </g>
                              </g>
                            </g>
                          </g>
                        </g>
                      </g>
                    </g>
                  </g>
                </g>
              </g>
            </g>
          </g>
        </g>
      </g>
    </g>
    <g
       id="g1827">
      <g
         id="g1829"
         clip-path="url(#clipPath1833)">
        <g
           id="g1835">
          <g
             id="g1837">
            <g
               id="g1839"
               clip-path="url(#clipPath1843)">
              <g
                 id="g1845">
                <g
                   id="g1847"
                   transform="matrix(0,-0.999962,1,0,0,0)">
                  <path
                     d="m -78.335,239.855 v 0.836 c 0,0.84 0,2.52 0,6.356 0,3.836 0,9.832 0,12.828 v 3"
                     style="fill:none;stroke:#666666;stroke-width:0.750014;stroke-linecap:butt;stroke-linejoin:miter;stroke-miterlimit:10;stroke-dasharray:none;stroke-opacity:1"
                     id="path1849" />
                </g>
              </g>
            </g>
          </g>
        </g>
      </g>
    </g>
    <g
       id="g1851">
      <g
         id="g1853"
         clip-path="url(#clipPath1857)">
        <g
           id="g1859">
          <g
             id="g1861">
            <g
               id="g1863"
               clip-path="url(#clipPath1867)">
              <g
                 id="g1869" />
              <g
                 id="g1871">
                <g
                   id="g1873"
                   clip-path="url(#clipPath1877)">
                  <g
                     id="g1879">
                    <g
                       id="g1881">
                      <g
                         id="g1883"
                         clip-path="url(#clipPath1887)">
                        <g
                           id="g1889" />
                        <g
                           id="g1891">
                          <g
                             id="g1893"
                             clip-path="url(#clipPath1897)">
                            <g
                               id="g1899">
                              <g
                                 id="g1901">
                                <g
                                   id="g1903"
                                   clip-path="url(#clipPath1907)">
                                <g
                                   id="g1909">
                                <g
                                   id="g1911"
                                   transform="scale(1,0.999962)">
                                <path
                                   d="m 239.855,78.335 -6.476,4.317 -5.754,-4.317 5.754,-4.317 z"
                                   style="fill:#666666;fill-opacity:1;fill-rule:nonzero;stroke:#666666;stroke-width:0.750014;stroke-linecap:butt;stroke-linejoin:miter;stroke-miterlimit:10;stroke-dasharray:none;stroke-opacity:1"
                                   id="path1913" />
                                </g>
                                </g>
                                </g>
                              </g>
                            </g>
                          </g>
                        </g>
                      </g>
                    </g>
                  </g>
                </g>
              </g>
            </g>
          </g>
        </g>
      </g>
    </g>
    <g
       id="g1915">
      <g
         id="g1917"
         clip-path="url(#clipPath1921)">
        <g
           id="g1923">
          <g
             id="g1925">
            <g
               id="g1927"
               clip-path="url(#clipPath1931)">
              <g
                 id="g1933">
                <text
                   xml:space="preserve"
                   transform="matrix(1,0,0,0.99996184,234.73687,92.072246)"
                   style="font-variant:normal;font-weight:normal;font-size:7.91336px;font-family:'DejaVu Sans';-inkscape-font-specification:DejaVuSans;writing-mode:lr-tb;fill:#111111;fill-opacity:1;fill-rule:nonzero;stroke:none"
                   id="text1937"><tspan
                     x="0"
                     y="0"
                     id="tspan1935">1</tspan></text>
              </g>
            </g>
          </g>
        </g>
      </g>
    </g>
    <g
       id="g1939">
      <g
         id="g1941"
         clip-path="url(#clipPath1945)">
        <g
           id="g1947">
          <g
             id="g1949">
            <g
               id="g1951"
               clip-path="url(#clipPath1955)">
              <g
                 id="g1957">
                <text
                   xml:space="preserve"
                   transform="matrix(1,0,0,0.99996184,255.83786,73.236524)"
                   style="font-variant:normal;font-weight:normal;font-size:7.91336px;font-family:'DejaVu Sans';-inkscape-font-specification:DejaVuSans;writing-mode:lr-tb;fill:#111111;fill-opacity:1;fill-rule:nonzero;stroke:none"
                   id="text1961"><tspan
                     x="0"
                     y="0"
                     id="tspan1959">1</tspan></text>
              </g>
            </g>
          </g>
        </g>
      </g>
    </g>
    <g
       id="g1963">
      <g
         id="g1965"
         clip-path="url(#clipPath1969)">
        <g
           id="g1971">
          <g
             id="g1973">
            <g
               id="g1975"
               clip-path="url(#clipPath1979)">
              <g
                 id="g1981">
                <g
                   id="g1983"
                   transform="scale(1,0.999962)">
                  <path
                     d="M 11.527,9.274 H 226.664 V 147.396 H 11.527"
                     style="fill:#eeeeee;fill-opacity:1;fill-rule:nonzero;stroke:#999999;stroke-width:0.750014;stroke-linecap:butt;stroke-linejoin:miter;stroke-miterlimit:10;stroke-dasharray:none;stroke-opacity:1"
                     id="path1985" />
                </g>
                <g
                   id="g1987"
                   transform="scale(1,0.999962)">
                  <path
                     d="m 11.527,9.274 c 70.825,0 141.653,0 215.137,0 m -215.137,0 c 81.629,0 163.262,0 215.137,0 m 0,0 c 0,46.197 0,92.398 0,138.122 m 0,-138.122 c 0,54.307 0,108.609 0,138.122 m 0,0 c -79.785,0 -159.566,0 -215.137,0 m 215.137,0 c -81.586,0 -163.172,0 -215.137,0 m 0,0 c 0,-39.282 0,-78.569 0,-138.122 m 0,138.122 c 0,-37.853 0,-75.702 0,-138.122"
                     style="fill:#eeeeee;fill-opacity:1;fill-rule:nonzero;stroke:#999999;stroke-width:0.750014;stroke-linecap:butt;stroke-linejoin:miter;stroke-miterlimit:10;stroke-dasharray:none;stroke-opacity:1"
                     id="path1989" />
                </g>
              </g>
            </g>
          </g>
        </g>
      </g>
    </g>
    <g
       id="g1991">
      <g
         id="g1993"
         clip-path="url(#clipPath1997)">
        <g
           id="g1999">
          <g
             id="g2001">
            <g
               id="g2003"
               clip-path="url(#clipPath2007)">
              <g
                 id="g2009">
                <text
                   xml:space="preserve"
                   transform="matrix(1,0,0,0.99996169,98.665574,30.133589)"
                   style="font-variant:normal;font-weight:bold;font-size:11.5103px;font-family:'DejaVu Sans';-inkscape-font-specification:DejaVuSans-Bold;writing-mode:lr-tb;fill:#111111;fill-opacity:1;fill-rule:nonzero;stroke:none"
                   id="text2013"><tspan
                     x="0 8.2899227 16.197666 21.874155 27.376415 35.182995"
                     y="0"
                     id="tspan2011">Sorter</tspan></text>
              </g>
            </g>
          </g>
        </g>
      </g>
    </g>
    <g
       id="g2015">
      <g
         id="g2017"
         clip-path="url(#clipPath2021)">
        <g
           id="g2023">
          <g
             id="g2025">
            <g
               id="g2027"
               clip-path="url(#clipPath2031)">
              <g
                 id="g2033">
                <text
                   xml:space="preserve"
                   transform="matrix(1,0,0,0.99996169,20.158604,64.663308)"
                   style="font-variant:normal;font-weight:normal;font-size:11.5103px;font-family:'DejaVu Sans';-inkscape-font-specification:DejaVuSans;writing-mode:lr-tb;fill:#111111;fill-opacity:1;fill-rule:nonzero;stroke:none"
                   id="text2037"><tspan
                     x="0 4.1533918 10.150238 17.192457 21.924738 26.437828 33.744202 38.25729 42.989571 50.043034 54.556122 61.637684 68.944054 75.755844 79.41465 86.721024 93.763245 98.495522 103.00861 110.31499 114.82808 119.56036 126.61382 131.12691 138.20847 145.51485"
                     y="0"
                     id="tspan2035">-sortStrategy SortStrategy</tspan></text>
              </g>
            </g>
          </g>
        </g>
      </g>
    </g>
    <g
       id="g2039">
      <g
         id="g2041"
         clip-path="url(#clipPath2045)">
        <g
           id="g2047">
          <g
             id="g2049">
            <g
               id="g2051"
               clip-path="url(#clipPath2055)">
              <g
                 id="g2057">
                <text
                   xml:space="preserve"
                   transform="matrix(1,0,0,0.99996169,20.158604,99.193027)"
                   style="font-variant:normal;font-weight:normal;font-size:11.5103px;font-family:'DejaVu Sans';-inkscape-font-specification:DejaVuSans;writing-mode:lr-tb;fill:#111111;fill-opacity:1;fill-rule:nonzero;stroke:none"
                   id="text2061"><tspan
                     x="0 9.644412 16.950785 23.993004 28.725285 33.238377 40.319935 45.052219 49.542828"
                     y="0"
                     id="tspan2059">+Sorter()</tspan></text>
              </g>
            </g>
          </g>
        </g>
      </g>
    </g>
    <g
       id="g2063">
      <g
         id="g2065"
         clip-path="url(#clipPath2069)">
        <g
           id="g2071">
          <g
             id="g2073">
            <g
               id="g2075"
               clip-path="url(#clipPath2079)">
              <g
                 id="g2081">
                <text
                   xml:space="preserve"
                   transform="matrix(1,0,0,0.99996169,20.158604,116.45789)"
                   style="font-variant:normal;font-weight:normal;font-size:11.5103px;font-family:'DejaVu Sans';-inkscape-font-specification:DejaVuSans;writing-mode:lr-tb;fill:#111111;fill-opacity:1;fill-rule:nonzero;stroke:none"
                   id="text2085"><tspan
                     x="0 9.644412 15.641257 22.722818 27.235909 34.542282 39.05537 43.787655 50.841114 55.354202 62.435764 69.742134 76.553925 81.044533 88.350906 95.393127 100.1254 104.6385 111.94487 116.45796 121.19024 128.2437 132.75679 139.83835 147.14473 153.95651"
                     y="0"
                     id="tspan2083">+setStrategy(SortStrategy)</tspan></text>
              </g>
            </g>
          </g>
        </g>
      </g>
    </g>
    <g
       id="g2087">
      <g
         id="g2089"
         clip-path="url(#clipPath2093)">
        <g
           id="g2095">
          <g
             id="g2097">
            <g
               id="g2099"
               clip-path="url(#clipPath2103)">
              <g
                 id="g2105">
                <text
                   xml:space="preserve"
                   transform="matrix(1,0,0,0.99996169,20.158604,133.72275)"
                   style="font-variant:normal;font-weight:normal;font-size:11.5103px;font-family:'DejaVu Sans';-inkscape-font-specification:DejaVuSans;writing-mode:lr-tb;fill:#111111;fill-opacity:1;fill-rule:nonzero;stroke:none"
                   id="text2109"><tspan
                     x="0 9.644412 15.641257 22.683477 27.415758 31.928848 36.419456 39.617401 46.912533 51.425621 55.916233 60.406841 64.897453 68.556259 72.434258 76.093063 83.989563 91.071121 98.366257 104.6947 111.98983 123.2023 130.25577 134.98804 141.6537 151.58475 158.66631 163.1794 167.91168 171.10962"
                     y="0"
                     id="tspan2107">+sort(int[]) : BenchmarkMetric</tspan></text>
              </g>
            </g>
          </g>
        </g>
      </g>
    </g>
    <g
       id="g2111">
      <g
         id="g2113"
         clip-path="url(#clipPath2117)">
        <g
           id="g2119">
          <g
             id="g2121">
            <g
               id="g2123"
               clip-path="url(#clipPath2127)">
              <g
                 id="g2129">
                <g
                   id="g2131"
                   transform="scale(1,0.999962)">
                  <path
                     d="m 11.527,43.802 c 43.137,0 86.278,0 215.137,0 m -215.137,0 c 81.473,0 162.95,0 215.137,0"
                     style="fill:none;stroke:#999999;stroke-width:0.750014;stroke-linecap:butt;stroke-linejoin:miter;stroke-miterlimit:10;stroke-dasharray:none;stroke-opacity:1"
                     id="path2133" />
                </g>
                <g
                   id="g2135"
                   transform="scale(1,0.999962)">
                  <path
                     d="m 11.527,78.335 c 56.012,0 112.024,0 215.137,0 m -215.137,0 c 83.157,0 166.317,0 215.137,0"
                     style="fill:none;stroke:#999999;stroke-width:0.750014;stroke-linecap:butt;stroke-linejoin:miter;stroke-miterlimit:10;stroke-dasharray:none;stroke-opacity:1"
                     id="path2137" />
                </g>
              </g>
            </g>
          </g>
        </g>
      </g>
    </g>
    <g
       id="g2139">
      <g
         id="g2141"
         clip-path="url(#clipPath2145)">
        <g
           id="g2147">
          <g
             id="g2149">
            <g
               id="g2151"
               clip-path="url(#clipPath2155)">
              <g
                 id="g2157">
                <g
                   id="g2159"
                   transform="scale(1,0.999962)">
                  <path
                     d="M 263.234,7.114 H 499.773 V 149.557 H 263.234"
                     style="fill:#eeeeee;fill-opacity:1;fill-rule:nonzero;stroke:#999999;stroke-width:0.750014;stroke-linecap:butt;stroke-linejoin:miter;stroke-miterlimit:10;stroke-dasharray:none;stroke-opacity:1"
                     id="path2161" />
                </g>
                <g
                   id="g2163"
                   transform="scale(1,0.999962)">
                  <path
                     d="m 263.234,7.114 c 52.661,0 105.321,0 236.539,0 m -236.539,0 c 70.817,0 141.633,0 236.539,0 m 0,0 c 0,42.618 0,85.241 0,142.443 m 0,-142.443 c 0,46.536 0,93.073 0,142.443 m 0,0 c -68.511,0 -137.023,0 -236.539,0 m 236.539,0 c -83.433,0 -166.867,0 -236.539,0 m 0,0 c 0,-40.26 0,-80.515 0,-142.443 m 0,142.443 c 0,-45.264 0,-90.523 0,-142.443"
                     style="fill:#eeeeee;fill-opacity:1;fill-rule:nonzero;stroke:#999999;stroke-width:0.750014;stroke-linecap:butt;stroke-linejoin:miter;stroke-miterlimit:10;stroke-dasharray:none;stroke-opacity:1"
                     id="path2165" />
                </g>
              </g>
            </g>
          </g>
        </g>
      </g>
    </g>
    <g
       id="g2167">
      <g
         id="g2169"
         clip-path="url(#clipPath2173)">
        <g
           id="g2175">
          <g
             id="g2177">
            <g
               id="g2179"
               clip-path="url(#clipPath2183)">
              <g
                 id="g2185">
                <text
                   xml:space="preserve"
                   transform="matrix(1,0,0,0.99996169,348.79454,27.975482)"
                   style="font-variant:normal;font-weight:normal;font-size:11.5103px;font-family:'DejaVu Sans';-inkscape-font-specification:DejaVuSans;writing-mode:lr-tb;fill:#111111;fill-opacity:1;fill-rule:nonzero;stroke:none"
                   id="text2189"><tspan
                     x="0 7.0422192 10.240162 17.535294 22.048384 29.129946 33.862228 37.914455 44.967915 51.296356 58.377918"
                     y="0"
                     id="tspan2187">«interface»</tspan></text>
              </g>
            </g>
          </g>
        </g>
      </g>
    </g>
    <g
       id="g2191">
      <g
         id="g2193"
         clip-path="url(#clipPath2197)">
        <g
           id="g2199">
          <g
             id="g2201">
            <g
               id="g2203"
               clip-path="url(#clipPath2207)">
              <g
                 id="g2209">
                <text
                   xml:space="preserve"
                   transform="matrix(1,0,0,0.99996169,339.67281,45.240341)"
                   style="font-variant:normal;font-weight:bold;font-size:11.5103px;font-family:'DejaVu Sans';-inkscape-font-specification:DejaVuSans-Bold;writing-mode:lr-tb;fill:#111111;fill-opacity:1;fill-rule:nonzero;stroke:none"
                   id="text2213"><tspan
                     x="0 8.2899227 16.197666 21.874155 27.376415 35.66634 41.168598 46.845089 54.612324 60.114586 67.921165 76.160507"
                     y="0"
                     id="tspan2211">SortStrategy</tspan></text>
              </g>
            </g>
          </g>
        </g>
      </g>
    </g>
    <g
       id="g2215">
      <g
         id="g2217"
         clip-path="url(#clipPath2221)">
        <g
           id="g2223">
          <g
             id="g2225">
            <g
               id="g2227"
               clip-path="url(#clipPath2231)">
              <g
                 id="g2233">
                <text
                   xml:space="preserve"
                   transform="matrix(1,0,0,0.99996169,271.86687,101.35114)"
                   style="font-style:oblique;font-variant:normal;font-size:11.5103px;font-family:'DejaVu Sans';-inkscape-font-specification:DejaVuSans-Oblique;writing-mode:lr-tb;fill:#111111;fill-opacity:1;fill-rule:nonzero;stroke:none"
                   id="text2237"><tspan
                     x="0 9.644412 16.939545 23.993004 35.205475 42.287037 46.777645 51.268253 54.927063 58.805058 62.463867 69.770241 74.283325 79.01561 82.213554 89.508682"
                     y="0"
                     id="tspan2235">+name() : String</tspan></text>
              </g>
            </g>
          </g>
        </g>
      </g>
    </g>
    <g
       id="g2239">
      <g
         id="g2241"
         clip-path="url(#clipPath2245)">
        <g
           id="g2247">
          <g
             id="g2249">
            <g
               id="g2251"
               clip-path="url(#clipPath2255)">
              <g
                 id="g2257">
                <text
                   xml:space="preserve"
                   transform="matrix(1,0,0,0.99996169,271.86687,118.61599)"
                   style="font-style:oblique;font-variant:normal;font-size:11.5103px;font-family:'DejaVu Sans';-inkscape-font-specification:DejaVuSans-Oblique;writing-mode:lr-tb;fill:#111111;fill-opacity:1;fill-rule:nonzero;stroke:none"
                   id="text2261"><tspan
                     x="0 9.644412 15.641257 22.683477 27.415758 31.928848 36.419456 39.617401 46.912533 51.425621 55.916233 60.406841 64.897453 68.556259 72.434258 76.093063 83.989563 91.071121 98.366257 104.6947 111.98983 123.2023 130.25577 134.98804 141.6537 151.58475 158.66631 163.1794 167.91168 171.10962"
                     y="0"
                     id="tspan2259">+sort(int[]) : BenchmarkMetric</tspan></text>
              </g>
            </g>
          </g>
        </g>
      </g>
    </g>
    <g
       id="g2263">
      <g
         id="g2265"
         clip-path="url(#clipPath2269)">
        <g
           id="g2271">
          <g
             id="g2273">
            <g
               id="g2275"
               clip-path="url(#clipPath2279)">
              <g
                 id="g2281">
                <text
                   xml:space="preserve"
                   transform="matrix(1,0,0,0.99996169,271.86687,135.88085)"
                   style="font-style:oblique;font-variant:normal;font-size:11.5103px;font-family:'DejaVu Sans';-inkscape-font-specification:DejaVuSans-Oblique;writing-mode:lr-tb;fill:#111111;fill-opacity:1;fill-rule:nonzero;stroke:none"
                   id="text2285"><tspan
                     x="0 9.644412 15.641257 25.055237 32.108696 39.41507 43.905678 47.103622 54.398754 58.911846 63.402454 67.893059 71.551872 75.210678 78.408615 85.703751 90.216843 93.875648 97.534454 100.7324 108.02753 112.54062 117.03123 120.69003 124.56803 128.22684 135.03862 142.08084 145.27879"
                     y="0"
                     id="tspan2283">+swap(int[], int, int) : void</tspan></text>
              </g>
            </g>
          </g>
        </g>
      </g>
    </g>
    <g
       id="g2287">
      <g
         id="g2289"
         clip-path="url(#clipPath2293)">
        <g
           id="g2295">
          <g
             id="g2297">
            <g
               id="g2299"
               clip-path="url(#clipPath2303)">
              <g
                 id="g2305">
                <g
                   id="g2307"
                   transform="scale(1,0.999962)">
                  <path
                     d="m 263.234,58.912 c 89.039,0 178.082,0 236.539,0 m -236.539,0 c 65.797,0 131.594,0 236.539,0"
                     style="fill:none;stroke:#999999;stroke-width:0.750014;stroke-linecap:butt;stroke-linejoin:miter;stroke-miterlimit:10;stroke-dasharray:none;stroke-opacity:1"
                     id="path2309" />
                </g>
                <g
                   id="g2311"
                   transform="scale(1,0.999962)">
                  <path
                     d="m 263.234,76.175 c 90.809,0 181.614,0 236.539,0 m -236.539,0 c 58.055,0 116.11,0 236.539,0"
                     style="fill:none;stroke:#999999;stroke-width:0.750014;stroke-linecap:butt;stroke-linejoin:miter;stroke-miterlimit:10;stroke-dasharray:none;stroke-opacity:1"
                     id="path2313" />
                </g>
              </g>
            </g>
          </g>
        </g>
        <g
           id="g2315">
          <g
             id="g2317">
            <g
               id="g2319"
               clip-path="url(#clipPath2323)">
              <g
                 id="g2325">
                <g
                   id="g2327"
                   transform="scale(1,0.999962)">
                  <path
                     d="M 227.234,185.523 H 535.777 V 323.649 H 227.234"
                     style="fill:#eeeeee;fill-opacity:1;fill-rule:nonzero;stroke:#999999;stroke-width:0.750014;stroke-linecap:butt;stroke-linejoin:miter;stroke-miterlimit:10;stroke-dasharray:none;stroke-opacity:1"
                     id="path2329" />
                </g>
                <g
                   id="g2331"
                   transform="scale(1,0.999962)">
                  <path
                     d="m 227.234,185.523 c 111.172,0 222.344,0 308.543,0 m -308.543,0 c 101.45,0 202.899,0 308.543,0 m 0,0 c 0,48.412 0,96.82 0,138.126 m 0,-138.126 c 0,51.603 0,103.203 0,138.126 m 0,0 c -97.414,0 -194.828,0 -308.543,0 m 308.543,0 c -71.91,0 -143.816,0 -308.543,0 m 0,0 c 0,-42.892 0,-85.784 0,-138.126 m 0,138.126 c 0,-42.095 0,-84.195 0,-138.126"
                     style="fill:#eeeeee;fill-opacity:1;fill-rule:nonzero;stroke:#999999;stroke-width:0.750014;stroke-linecap:butt;stroke-linejoin:miter;stroke-miterlimit:10;stroke-dasharray:none;stroke-opacity:1"
                     id="path2333" />
                </g>
              </g>
            </g>
          </g>
        </g>
      </g>
    </g>
    <g
       id="g2335">
      <g
         id="g2337"
         clip-path="url(#clipPath2341)">
        <g
           id="g2343">
          <g
             id="g2345">
            <g
               id="g2347"
               clip-path="url(#clipPath2351)">
              <g
                 id="g2353">
                <text
                   xml:space="preserve"
                   transform="matrix(1,0,0,0.99996169,310.58783,206.37903)"
                   style="font-variant:normal;font-weight:bold;font-size:11.5103px;font-family:'DejaVu Sans';-inkscape-font-specification:DejaVuSans-Bold;writing-mode:lr-tb;fill:#111111;fill-opacity:1;fill-rule:nonzero;stroke:none"
                   id="text2357"><tspan
                     x="0 8.4472904 16.355034 24.549412 31.37244 37.048931 44.855507 50.357769 58.164345 66.454269 74.362015 80.038506 85.540764 93.830688 99.332947 105.00944 112.77667 118.27893 126.08551 134.32484"
                     y="0"
                     id="tspan2355">ConcreteSortStrategy</tspan></text>
              </g>
            </g>
          </g>
        </g>
      </g>
    </g>
    <g
       id="g2359">
      <g
         id="g2361"
         clip-path="url(#clipPath2365)">
        <g
           id="g2367">
          <g
             id="g2369">
            <g
               id="g2371"
               clip-path="url(#clipPath2375)">
              <g
                 id="g2377">
                <text
                   xml:space="preserve"
                   transform="matrix(1,0,0,0.99996169,235.86612,240.90875)"
                   style="font-variant:normal;font-weight:normal;font-size:11.5103px;font-family:'DejaVu Sans';-inkscape-font-specification:DejaVuSans;writing-mode:lr-tb;fill:#111111;fill-opacity:1;fill-rule:nonzero;stroke:none"
                   id="text2381"><tspan
                     x="0 3.7390194 11.635522 18.717083 26.012215 32.340656 39.635792 50.848263 57.901722 62.634003 68.896797 75.978363 80.71064 84.369453 91.675819 98.757385 106.05251 112.38096 119.67609 130.88857 137.94202 142.6743 148.92558 156.00716"
                     y="0"
                     id="tspan2379">-Benchmarker benchmarker</tspan></text>
              </g>
            </g>
          </g>
        </g>
      </g>
    </g>
    <g
       id="g2383">
      <g
         id="g2385"
         clip-path="url(#clipPath2389)">
        <g
           id="g2391">
          <g
             id="g2393">
            <g
               id="g2395"
               clip-path="url(#clipPath2399)">
              <g
                 id="g2401">
                <text
                   xml:space="preserve"
                   transform="matrix(1,0,0,0.99996169,235.86612,275.43847)"
                   style="font-variant:normal;font-weight:normal;font-size:11.5103px;font-family:'DejaVu Sans';-inkscape-font-specification:DejaVuSans;writing-mode:lr-tb;fill:#111111;fill-opacity:1;fill-rule:nonzero;stroke:none"
                   id="text2405"><tspan
                     x="0 9.644412 17.681421 24.72364 32.018772 38.347214 42.826271 49.907829 54.420921 61.502483 68.808853 75.851074 80.583351 85.096443 92.402817 96.915909 101.64819 108.70165 113.21474 120.2963 127.60268 134.41446 138.90508 146.80157 153.88313 161.17827 167.50671 174.80183 186.01431 193.06776 197.80005 204.05135 211.1329 215.86519"
                     y="0"
                     id="tspan2403">+ConcreteSortStrategy(Benchmarker)</tspan></text>
              </g>
            </g>
          </g>
        </g>
      </g>
    </g>
    <g
       id="g2407">
      <g
         id="g2409"
         clip-path="url(#clipPath2413)">
        <g
           id="g2415">
          <g
             id="g2417">
            <g
               id="g2419"
               clip-path="url(#clipPath2423)">
              <g
                 id="g2425">
                <text
                   xml:space="preserve"
                   transform="matrix(1,0,0,0.99996169,235.86612,292.70333)"
                   style="font-variant:normal;font-weight:normal;font-size:11.5103px;font-family:'DejaVu Sans';-inkscape-font-specification:DejaVuSans;writing-mode:lr-tb;fill:#111111;fill-opacity:1;fill-rule:nonzero;stroke:none"
                   id="text2429"><tspan
                     x="0 9.644412 16.939545 23.993004 35.205475 42.287037 46.777645 51.268253 54.927063 58.805058 62.463867 69.770241 74.283325 79.01561 82.213554 89.508682"
                     y="0"
                     id="tspan2427">+name() : String</tspan></text>
              </g>
            </g>
          </g>
        </g>
      </g>
    </g>
    <g
       id="g2431">
      <g
         id="g2433"
         clip-path="url(#clipPath2437)">
        <g
           id="g2439">
          <g
             id="g2441">
            <g
               id="g2443"
               clip-path="url(#clipPath2447)">
              <g
                 id="g2449">
                <text
                   xml:space="preserve"
                   transform="matrix(1,0,0,0.99996169,235.86612,309.96819)"
                   style="font-variant:normal;font-weight:normal;font-size:11.5103px;font-family:'DejaVu Sans';-inkscape-font-specification:DejaVuSans;writing-mode:lr-tb;fill:#111111;fill-opacity:1;fill-rule:nonzero;stroke:none"
                   id="text2453"><tspan
                     x="0 9.644412 15.641257 22.683477 27.415758 31.928848 36.419456 39.617401 46.912533 51.425621 55.916233 60.406841 64.897453 68.556259 72.434258 76.093063 83.989563 91.071121 98.366257 104.6947 111.98983 123.2023 130.25577 134.98804 141.6537 151.58475 158.66631 163.1794 167.91168 171.10962"
                     y="0"
                     id="tspan2451">+sort(int[]) : BenchmarkMetric</tspan></text>
              </g>
            </g>
          </g>
        </g>
      </g>
    </g>
    <g
       id="g2455">
      <g
         id="g2457"
         clip-path="url(#clipPath2461)">
        <g
           id="g2463">
          <g
             id="g2465">
            <g
               id="g2467"
               clip-path="url(#clipPath2471)">
              <g
                 id="g2473">
                <g
                   id="g2475"
                   transform="scale(1,0.999962)">
                  <path
                     d="m 227.234,220.055 c 67.954,0 135.907,0 308.543,0 m -308.543,0 c 71.383,0 142.766,0 308.543,0"
                     style="fill:none;stroke:#999999;stroke-width:0.750014;stroke-linecap:butt;stroke-linejoin:miter;stroke-miterlimit:10;stroke-dasharray:none;stroke-opacity:1"
                     id="path2477" />
                </g>
                <g
                   id="g2479"
                   transform="scale(1,0.999962)">
                  <path
                     d="m 227.234,254.588 c 118.571,0 237.141,0 308.543,0 m -308.543,0 c 79.797,0 159.594,0 308.543,0"
                     style="fill:none;stroke:#999999;stroke-width:0.750014;stroke-linecap:butt;stroke-linejoin:miter;stroke-miterlimit:10;stroke-dasharray:none;stroke-opacity:1"
                     id="path2481" />
                </g>
              </g>
            </g>
          </g>
        </g>
      </g>
    </g>
  </g>
</svg>
