<?xml version="1.0" encoding="UTF-8" standalone="no"?>
<!-- Created with Inkscape (http://www.inkscape.org/) -->

<svg
   version="1.1"
   id="svg1967"
   width="716.65228"
   height="595.23602"
   viewBox="0 0 716.65228 595.23602"
   xmlns="http://www.w3.org/2000/svg"
   xmlns:svg="http://www.w3.org/2000/svg">
  <defs
     id="defs1971">
    <clipPath
       clipPathUnits="userSpaceOnUse"
       id="clipPath1987">
      <path
         d="M 0,0 H 538 V 447 H 0 Z"
         id="path1985" />
    </clipPath>
    <clipPath
       clipPathUnits="userSpaceOnUse"
       id="clipPath2011">
      <path
         d="M 0,0 H 538 V 447 H 0 Z"
         id="path2009" />
    </clipPath>
    <clipPath
       clipPathUnits="userSpaceOnUse"
       id="clipPath2035">
      <path
         d="M 0,0 H 538 V 447 H 0 Z"
         id="path2033" />
    </clipPath>
    <clipPath
       clipPathUnits="userSpaceOnUse"
       id="clipPath2059">
      <path
         d="M 0,0 H 538 V 447 H 0 Z"
         id="path2057" />
    </clipPath>
    <clipPath
       clipPathUnits="userSpaceOnUse"
       id="clipPath2083">
      <path
         d="M 0,0 H 538 V 447 H 0 Z"
         id="path2081" />
    </clipPath>
    <clipPath
       clipPathUnits="userSpaceOnUse"
       id="clipPath2109">
      <path
         d="M 0,0 H 538 V 447 H 0 Z"
         id="path2107" />
    </clipPath>
    <clipPath
       clipPathUnits="userSpaceOnUse"
       id="clipPath2149">
      <path
         d="M 0,0 H 538 V 447 H 0 Z"
         id="path2147" />
    </clipPath>
    <clipPath
       clipPathUnits="userSpaceOnUse"
       id="clipPath2181">
      <path
         d="M 0,0 H 538 V 447 H 0 Z"
         id="path2179" />
    </clipPath>
    <clipPath
       clipPathUnits="userSpaceOnUse"
       id="clipPath2207">
      <path
         d="M 0,0 H 538 V 447 H 0 Z"
         id="path2205" />
    </clipPath>
    <clipPath
       clipPathUnits="userSpaceOnUse"
       id="clipPath2221">
      <path
         d="m 353.098,153.641 h 7.441 v 7.438 h -7.441 z"
         id="path2219" />
    </clipPath>
    <clipPath
       clipPathUnits="userSpaceOnUse"
       id="clipPath2231">
      <path
         d="M 0,0 H 538 V 447 H 0 Z"
         id="path2229" />
    </clipPath>
    <clipPath
       clipPathUnits="userSpaceOnUse"
       id="clipPath2249">
      <path
         d="M 0,0 H 538 V 447 H 0 Z"
         id="path2247" />
    </clipPath>
    <clipPath
       clipPathUnits="userSpaceOnUse"
       id="clipPath2267">
      <path
         d="m 229.133,222.441 h 7.438 v 7.438 h -7.438 z"
         id="path2265" />
    </clipPath>
    <clipPath
       clipPathUnits="userSpaceOnUse"
       id="clipPath2277">
      <path
         d="M 0,0 H 538 V 447 H 0 Z"
         id="path2275" />
    </clipPath>
    <clipPath
       clipPathUnits="userSpaceOnUse"
       id="clipPath2295">
      <path
         d="M 0,0 H 538 V 447 H 0 Z"
         id="path2293" />
    </clipPath>
    <clipPath
       clipPathUnits="userSpaceOnUse"
       id="clipPath2313">
      <path
         d="M 0,0 H 538 V 447 H 0 Z"
         id="path2311" />
    </clipPath>
    <clipPath
       clipPathUnits="userSpaceOnUse"
       id="clipPath2325">
      <path
         d="M 0,0 H 538 V 447 H 0 Z"
         id="path2323" />
    </clipPath>
    <clipPath
       clipPathUnits="userSpaceOnUse"
       id="clipPath2335">
      <path
         d="m 109.074,250.953 h 7.438 v 7.438 h -7.438 z"
         id="path2333" />
    </clipPath>
    <clipPath
       clipPathUnits="userSpaceOnUse"
       id="clipPath2345">
      <path
         d="M 0,0 H 538 V 447 H 0 Z"
         id="path2343" />
    </clipPath>
    <clipPath
       clipPathUnits="userSpaceOnUse"
       id="clipPath2361">
      <path
         d="M 0,0 H 538 V 447 H 0 Z"
         id="path2359" />
    </clipPath>
    <clipPath
       clipPathUnits="userSpaceOnUse"
       id="clipPath2379">
      <path
         d="m 350.621,281.945 h 7.438 v 7.438 h -7.438 z"
         id="path2377" />
    </clipPath>
    <clipPath
       clipPathUnits="userSpaceOnUse"
       id="clipPath2389">
      <path
         d="M 0,0 H 538 V 447 H 0 Z"
         id="path2387" />
    </clipPath>
    <clipPath
       clipPathUnits="userSpaceOnUse"
       id="clipPath2407">
      <path
         d="M 0,0 H 538 V 447 H 0 Z"
         id="path2405" />
    </clipPath>
    <clipPath
       clipPathUnits="userSpaceOnUse"
       id="clipPath2425">
      <path
         d="m 477.062,311.695 h 7.441 v 7.441 h -7.441 z"
         id="path2423" />
    </clipPath>
    <clipPath
       clipPathUnits="userSpaceOnUse"
       id="clipPath2435">
      <path
         d="M 0,0 H 538 V 447 H 0 Z"
         id="path2433" />
    </clipPath>
    <clipPath
       clipPathUnits="userSpaceOnUse"
       id="clipPath2453">
      <path
         d="M 0,0 H 538 V 447 H 0 Z"
         id="path2451" />
    </clipPath>
    <clipPath
       clipPathUnits="userSpaceOnUse"
       id="clipPath2471">
      <path
         d="M 0,0 H 538 V 447 H 0 Z"
         id="path2469" />
    </clipPath>
    <clipPath
       clipPathUnits="userSpaceOnUse"
       id="clipPath2483">
      <path
         d="M 0,0 H 538 V 447 H 0 Z"
         id="path2481" />
    </clipPath>
    <clipPath
       clipPathUnits="userSpaceOnUse"
       id="clipPath2493">
      <path
         d="m 365.992,340.211 h 7.438 v 7.438 h -7.438 z"
         id="path2491" />
    </clipPath>
    <clipPath
       clipPathUnits="userSpaceOnUse"
       id="clipPath2503">
      <path
         d="M 0,0 H 538 V 447 H 0 Z"
         id="path2501" />
    </clipPath>
    <clipPath
       clipPathUnits="userSpaceOnUse"
       id="clipPath2519">
      <path
         d="M 0,0 H 538 V 447 H 0 Z"
         id="path2517" />
    </clipPath>
    <clipPath
       clipPathUnits="userSpaceOnUse"
       id="clipPath2537">
      <path
         d="M 0,0 H 538 V 447 H 0 Z"
         id="path2535" />
    </clipPath>
    <clipPath
       clipPathUnits="userSpaceOnUse"
       id="clipPath2549">
      <path
         d="M 0,0 H 538 V 447 H 0 Z"
         id="path2547" />
    </clipPath>
    <clipPath
       clipPathUnits="userSpaceOnUse"
       id="clipPath2559">
      <path
         d="m 109.074,369.961 h 7.438 v 7.438 h -7.438 z"
         id="path2557" />
    </clipPath>
    <clipPath
       clipPathUnits="userSpaceOnUse"
       id="clipPath2569">
      <path
         d="M 0,0 H 538 V 447 H 0 Z"
         id="path2567" />
    </clipPath>
  </defs>
  <rect
     style="opacity:0.99;fill:#ffffff;stroke:none;stroke-width:1.333;stroke-linecap:round;stroke-linejoin:round;stroke-miterlimit:20;paint-order:fill markers stroke"
     id="rect37778"
     width="716.3595"
     height="594.19128"
     x="-0.067992531"
     y="1.0836593" />
  <g
     id="g1975"
     transform="matrix(1.3333333,0,0,1.3333333,0,1.2214234e-5)">
    <g
       id="g1977">
      <g
         id="g1979">
        <g
           id="g1981">
          <g
             id="g1983"
             clip-path="url(#clipPath1987)">
            <g
               id="g1989">
              <g
                 id="g1991">
                <path
                   d="m 484.441,45.793 v 395.45"
                   style="fill:none;stroke:#d4d4d4;stroke-width:0.634578;stroke-linecap:butt;stroke-linejoin:miter;stroke-miterlimit:10;stroke-dasharray:none;stroke-opacity:1"
                   id="path1993" />
              </g>
              <g
                 id="g1995">
                <path
                   d="m 439.812,5.504 h 89.254 c 0.246,0 0.485,0.047 0.715,0.141 0.227,0.093 0.426,0.23 0.602,0.402 0.176,0.176 0.308,0.379 0.402,0.605 0.094,0.227 0.141,0.465 0.141,0.711 v 36.571 c 0,0.246 -0.047,0.484 -0.141,0.711 -0.094,0.226 -0.226,0.429 -0.402,0.601 -0.176,0.176 -0.375,0.309 -0.602,0.406 -0.23,0.094 -0.469,0.141 -0.715,0.141 h -89.254 c -0.246,0 -0.484,-0.047 -0.71,-0.141 -0.227,-0.097 -0.43,-0.23 -0.606,-0.406 -0.172,-0.172 -0.308,-0.375 -0.402,-0.601 C 438,44.418 437.953,44.18 437.953,43.934 V 7.363 c 0,-0.246 0.047,-0.484 0.141,-0.711 0.094,-0.226 0.23,-0.429 0.402,-0.605 0.176,-0.172 0.379,-0.309 0.606,-0.402 0.226,-0.094 0.464,-0.141 0.71,-0.141 z"
                   style="fill:#eeeeee;fill-opacity:1;fill-rule:nonzero;stroke:#d4d4d4;stroke-width:0.634578;stroke-linecap:butt;stroke-linejoin:miter;stroke-miterlimit:10;stroke-dasharray:none;stroke-opacity:1"
                   id="path1997" />
              </g>
            </g>
          </g>
        </g>
      </g>
      <text
         xml:space="preserve"
         transform="matrix(1,0,0,0.99999707,453.0698,29.300704)"
         style="font-variant:normal;font-weight:normal;font-size:9.91157px;font-family:'DejaVu Sans';-inkscape-font-specification:DejaVuSans;writing-mode:lr-tb;fill:#333333;fill-opacity:1;fill-rule:nonzero;stroke:none"
         id="text2001"><tspan
           x="0 6.2915239 12.355585 16.430557 20.316782 26.578571 30.464798 34.539768 40.61351 44.499737 50.597675 56.859463"
           y="0"
           id="tspan1999">SortStrategy</tspan></text>
      <g
         id="g2003">
        <g
           id="g2005">
          <g
             id="g2007"
             clip-path="url(#clipPath2011)">
            <g
               id="g2013">
              <g
                 id="g2015">
                <path
                   d="m 360.477,45.793 v 395.45"
                   style="fill:none;stroke:#d4d4d4;stroke-width:0.634578;stroke-linecap:butt;stroke-linejoin:miter;stroke-miterlimit:10;stroke-dasharray:none;stroke-opacity:1"
                   id="path2017" />
              </g>
              <g
                 id="g2019">
                <path
                   d="m 315.848,5.504 h 89.254 c 0.246,0 0.484,0.047 0.71,0.141 0.231,0.093 0.43,0.23 0.606,0.402 0.176,0.176 0.309,0.379 0.402,0.605 0.094,0.227 0.141,0.465 0.141,0.711 v 36.571 c 0,0.246 -0.047,0.484 -0.141,0.711 -0.093,0.226 -0.226,0.429 -0.402,0.601 -0.176,0.176 -0.375,0.309 -0.606,0.406 -0.226,0.094 -0.464,0.141 -0.71,0.141 h -89.254 c -0.246,0 -0.485,-0.047 -0.711,-0.141 -0.227,-0.097 -0.43,-0.23 -0.606,-0.406 -0.172,-0.172 -0.308,-0.375 -0.402,-0.601 -0.094,-0.227 -0.141,-0.465 -0.141,-0.711 V 7.363 c 0,-0.246 0.047,-0.484 0.141,-0.711 0.094,-0.226 0.23,-0.429 0.402,-0.605 0.176,-0.172 0.379,-0.309 0.606,-0.402 0.226,-0.094 0.465,-0.141 0.711,-0.141 z"
                   style="fill:#eeeeee;fill-opacity:1;fill-rule:nonzero;stroke:#d4d4d4;stroke-width:0.634578;stroke-linecap:butt;stroke-linejoin:miter;stroke-miterlimit:10;stroke-dasharray:none;stroke-opacity:1"
                   id="path2021" />
              </g>
            </g>
          </g>
        </g>
      </g>
      <text
         xml:space="preserve"
         transform="matrix(1,0,0,0.99999707,345.24577,29.300704)"
         style="font-variant:normal;font-weight:normal;font-size:9.91157px;font-family:'DejaVu Sans';-inkscape-font-specification:DejaVuSans;writing-mode:lr-tb;fill:#333333;fill-opacity:1;fill-rule:nonzero;stroke:none"
         id="text2025"><tspan
           x="0 6.2915239 12.355585 16.430557 20.316782 26.384987"
           y="0"
           id="tspan2023">Sorter</tspan></text>
      <g
         id="g2027">
        <g
           id="g2029">
          <g
             id="g2031"
             clip-path="url(#clipPath2035)">
            <g
               id="g2037">
              <g
                 id="g2039">
                <path
                   d="m 236.512,45.793 v 395.45"
                   style="fill:none;stroke:#d4d4d4;stroke-width:0.634578;stroke-linecap:butt;stroke-linejoin:miter;stroke-miterlimit:10;stroke-dasharray:none;stroke-opacity:1"
                   id="path2041" />
              </g>
              <g
                 id="g2043">
                <path
                   d="m 191.883,5.504 h 89.254 c 0.246,0 0.484,0.047 0.711,0.141 0.23,0.093 0.429,0.23 0.605,0.402 0.172,0.176 0.309,0.379 0.402,0.605 0.094,0.227 0.141,0.465 0.141,0.711 v 36.571 c 0,0.246 -0.047,0.484 -0.141,0.711 -0.093,0.226 -0.23,0.429 -0.402,0.601 -0.176,0.176 -0.375,0.309 -0.605,0.406 -0.227,0.094 -0.465,0.141 -0.711,0.141 h -89.254 c -0.246,0 -0.485,-0.047 -0.711,-0.141 -0.231,-0.097 -0.43,-0.23 -0.606,-0.406 -0.171,-0.172 -0.308,-0.375 -0.402,-0.601 -0.094,-0.227 -0.141,-0.465 -0.141,-0.711 V 7.363 c 0,-0.246 0.047,-0.484 0.141,-0.711 0.094,-0.226 0.231,-0.429 0.402,-0.605 0.176,-0.172 0.375,-0.309 0.606,-0.402 0.226,-0.094 0.465,-0.141 0.711,-0.141 z"
                   style="fill:#eeeeee;fill-opacity:1;fill-rule:nonzero;stroke:#d4d4d4;stroke-width:0.634578;stroke-linecap:butt;stroke-linejoin:miter;stroke-miterlimit:10;stroke-dasharray:none;stroke-opacity:1"
                   id="path2045" />
              </g>
            </g>
          </g>
        </g>
      </g>
      <text
         xml:space="preserve"
         transform="matrix(1,0,0,0.99999707,196.47836,29.300704)"
         style="font-variant:normal;font-weight:normal;font-size:9.91157px;font-family:'DejaVu Sans';-inkscape-font-specification:DejaVuSans;writing-mode:lr-tb;fill:#333333;fill-opacity:1;fill-rule:nonzero;stroke:none"
         id="text2049"><tspan
           x="0 6.7996855 12.897624 19.179468 24.599161 30.881006 40.536076 46.609818 50.684788 56.394859 64.026962 70.1007 73.986931"
           y="0"
           id="tspan2047">BenchmarkData</tspan></text>
      <g
         id="g2051">
        <g
           id="g2053">
          <g
             id="g2055"
             clip-path="url(#clipPath2059)">
            <g
               id="g2061">
              <g
                 id="g2063">
                <path
                   d="m 106.656,45.793 v 395.45"
                   style="fill:none;stroke:#d4d4d4;stroke-width:0.634578;stroke-linecap:butt;stroke-linejoin:miter;stroke-miterlimit:10;stroke-dasharray:none;stroke-opacity:1"
                   id="path2065" />
              </g>
              <g
                 id="g2067">
                <path
                   d="m 56.141,5.504 h 101.031 c 0.246,0 0.484,0.047 0.711,0.141 0.23,0.093 0.429,0.23 0.605,0.402 0.172,0.176 0.309,0.379 0.403,0.605 0.093,0.227 0.14,0.465 0.14,0.711 v 36.571 c 0,0.246 -0.047,0.484 -0.14,0.711 -0.094,0.226 -0.231,0.429 -0.403,0.601 -0.176,0.176 -0.375,0.309 -0.605,0.406 -0.227,0.094 -0.465,0.141 -0.711,0.141 H 56.141 c -0.246,0 -0.485,-0.047 -0.711,-0.141 C 55.203,45.555 55,45.422 54.824,45.246 54.652,45.074 54.516,44.871 54.422,44.645 54.328,44.418 54.281,44.18 54.281,43.934 V 7.363 c 0,-0.246 0.047,-0.484 0.141,-0.711 0.094,-0.226 0.23,-0.429 0.402,-0.605 C 55,5.875 55.203,5.738 55.43,5.645 55.656,5.551 55.895,5.504 56.141,5.504 Z"
                   style="fill:#eeeeee;fill-opacity:1;fill-rule:nonzero;stroke:#d4d4d4;stroke-width:0.634578;stroke-linecap:butt;stroke-linejoin:miter;stroke-miterlimit:10;stroke-dasharray:none;stroke-opacity:1"
                   id="path2069" />
              </g>
            </g>
          </g>
        </g>
      </g>
      <text
         xml:space="preserve"
         transform="matrix(1,0,0,0.99999707,60.73683,29.300704)"
         style="font-variant:normal;font-weight:normal;font-size:9.91157px;font-family:'DejaVu Sans';-inkscape-font-specification:DejaVuSans;writing-mode:lr-tb;fill:#333333;fill-opacity:1;fill-rule:nonzero;stroke:none"
         id="text2073"><tspan
           x="0 6.7996855 12.897624 19.179468 24.599161 30.881006 40.536076 46.609818 50.684788 56.394859 62.825726 69.107567 75.389412 81.671257 87.769196"
           y="0"
           id="tspan2071">BenchmarkRunner</tspan></text>
      <g
         id="g2075">
        <g
           id="g2077">
          <g
             id="g2079"
             clip-path="url(#clipPath2083)">
            <g
               id="g2085">
              <g
                 id="g2087">
                <path
                   d="m 103.559,47.031 h 6.195 v 381.814 h -6.195 z"
                   style="fill:#f4f4f4;fill-opacity:1;fill-rule:nonzero;stroke:#666666;stroke-width:0.634578;stroke-linecap:butt;stroke-linejoin:miter;stroke-miterlimit:10;stroke-dasharray:none;stroke-opacity:1"
                   id="path2089" />
              </g>
              <g
                 id="g2091">
                <path
                   d="M 13.062,91.039 H 200.25 v 35.949 H 13.062 Z"
                   style="fill:#666666;fill-opacity:1;fill-rule:nonzero;stroke:#999999;stroke-width:0.634578;stroke-linecap:butt;stroke-linejoin:miter;stroke-miterlimit:10;stroke-dasharray:none;stroke-opacity:1"
                   id="path2093" />
              </g>
            </g>
          </g>
        </g>
      </g>
      <text
         xml:space="preserve"
         transform="matrix(1,0,0,0.99999707,19.015109,106.97499)"
         style="font-variant:normal;font-weight:normal;font-size:9.91157px;font-family:'DejaVu Sans';-inkscape-font-specification:DejaVuSans;writing-mode:lr-tb;fill:#ffffff;fill-opacity:1;fill-rule:nonzero;stroke:none"
         id="text2099"><tspan
           x="0 7.6804986 13.778438 17.664663 22.828552 25.949419 31.113308 34.999535 39.074505 45.148247 49.034473 55.102676 61.394199 67.259834 70.410439 73.899811 77.736908 83.800972 93.456039 96.606644 101.74079 105.62702 109.702 115.77573 119.66196 125.7599 132.02168 134.77544 140.87338 146.03726 149.18787 155.43997 160.60387 163.35762 169.63947"
           y="0"
           id="tspan2095">Gets strategy from strategies using</tspan><tspan
           x="16.356747 21.806175 27.870235 34.152081 38.038307 43.928101 49.793739 53.679962 56.404678 61.568565 64.71917 69.883057 75.917381 79.992355 83.878578 87.029182 92.193069 96.0793 100.12453 106.19827 110.0845 116.18244 122.47396 128.30986 131.46046 137.74231 143.81606 153.47112"
           y="11.778236"
           id="tspan2097">context's sort strategy name</tspan></text>
      <g
         id="g2101">
        <g
           id="g2103">
          <g
             id="g2105"
             clip-path="url(#clipPath2109)">
            <g
               id="g2111">
              <g
                 id="g2113">
                <path
                   d="m 360.477,286.286 h 6.195 v 88.016 h -6.195 z"
                   style="fill:#f4f4f4;fill-opacity:1;fill-rule:nonzero;stroke:#666666;stroke-width:0.634578;stroke-linecap:butt;stroke-linejoin:miter;stroke-miterlimit:10;stroke-dasharray:none;stroke-opacity:1"
                   id="path2115" />
              </g>
              <g
                 id="g2117">
                <path
                   d="m 481.34,316.036 h 6.199 v 28.512 h -6.199 z"
                   style="fill:#f4f4f4;fill-opacity:1;fill-rule:nonzero;stroke:#666666;stroke-width:0.634578;stroke-linecap:butt;stroke-linejoin:miter;stroke-miterlimit:10;stroke-dasharray:none;stroke-opacity:1"
                   id="path2119" />
              </g>
              <path
                 d="m 97.359,162.32 h 1.239 v 1.239 h -1.239 m 2.481,-1.239 h 1.238 v 1.239 H 99.84 m 2.476,-1.239 h 1.243 v 1.239 h -1.243 m 2.481,-1.239 h 1.238 v 1.239 h -1.238 m 2.48,-1.239 h 1.239 v 1.239 h -1.239 m 2.477,-1.239 h 1.242 v 1.239 h -1.242 m 2.48,-1.239 h 1.239 v 1.239 h -1.239 m 2.481,-1.239 h 1.238 v 1.239 h -1.238 m 2.48,-1.239 h 1.239 v 1.239 h -1.239 m 2.477,-1.239 h 1.242 v 1.239 h -1.242 m 2.48,-1.239 h 1.239 v 1.239 h -1.239 m 2.481,-1.239 h 1.238 v 1.239 h -1.238 m 2.476,-1.239 h 1.243 v 1.239 h -1.243 m 2.481,-1.239 h 1.238 v 1.239 h -1.238 m 2.48,-1.239 h 1.239 v 1.239 h -1.239 m 2.477,-1.239 h 1.242 v 1.239 h -1.242 m 2.48,-1.239 h 1.239 v 1.239 h -1.239 m 2.481,-1.239 h 1.238 v 1.239 h -1.238 m 2.48,-1.239 h 1.239 v 1.239 h -1.239 m 2.477,-1.239 h 1.242 v 1.239 h -1.242 m 2.48,-1.239 h 1.239 v 1.239 h -1.239 m 2.481,-1.239 h 1.238 v 1.239 h -1.238 m 2.476,-1.239 h 1.243 v 1.239 h -1.243 m 2.481,-1.239 h 1.238 v 1.239 h -1.238 m 2.48,-1.239 h 1.239 v 1.239 h -1.239 m 2.477,-1.239 h 1.242 v 1.239 h -1.242 m 2.48,-1.239 h 1.242 v 1.239 h -1.242 m 2.481,-1.239 h 1.238 v 1.239 h -1.238 m 2.48,-1.239 h 1.239 v 1.239 h -1.239 m 2.477,-1.239 h 1.242 v 1.239 h -1.242 m 2.48,-1.239 h 1.239 v 1.239 h -1.239 m 2.481,-1.239 h 1.238 v 1.239 h -1.238 m 2.476,-1.239 h 1.243 v 1.239 h -1.243 m 2.481,-1.239 h 1.238 v 1.239 h -1.238 m 2.48,-1.239 h 1.239 v 1.239 h -1.239 m 2.477,-1.239 h 1.242 v 1.239 h -1.242 m 2.48,-1.239 h 1.242 v 1.239 h -1.242 m 2.481,-1.239 h 1.238 v 1.239 h -1.238 m 2.48,-1.239 h 1.238 v 1.239 h -1.238 m 2.477,-1.239 h 1.242 v 1.239 h -1.242 m 2.48,-1.239 h 1.239 v 1.239 h -1.239 m 2.481,-1.239 h 1.238 v 1.239 h -1.238 m 2.476,-1.239 h 1.242 v 1.239 h -1.242 m 2.481,-1.239 h 1.238 v 1.239 h -1.238 m 2.48,-1.239 h 1.239 v 1.239 h -1.239 m 2.477,-1.239 h 1.242 v 1.239 h -1.242 m 2.48,-1.239 h 1.242 v 1.239 h -1.242 m 2.481,-1.239 h 1.238 v 1.239 h -1.238 m 2.48,-1.239 h 1.238 v 1.239 h -1.238 m 2.477,-1.239 h 1.242 v 1.239 h -1.242 m 2.48,-1.239 h 1.238 v 1.239 h -1.238 m 2.481,-1.239 h 1.238 v 1.239 h -1.238 m 2.476,-1.239 h 1.242 v 1.239 h -1.242 m 2.481,-1.239 H 230 v 1.239 h -1.238 m 2.48,-1.239 h 1.238 v 1.239 h -1.238 m 2.481,-1.239 h 1.238 v 1.239 h -1.238 m 2.476,-1.239 h 1.242 v 1.239 h -1.242 m 2.481,-1.239 h 1.238 v 1.239 h -1.238 m 2.48,-1.239 h 1.238 v 1.239 h -1.238 m 2.477,-1.239 h 1.242 v 1.239 h -1.242 m 2.48,-1.239 h 1.238 v 1.239 h -1.238 m 2.481,-1.239 h 1.238 v 1.239 h -1.238 m 2.476,-1.239 h 1.242 v 1.239 h -1.242 m 2.481,-1.239 h 1.238 v 1.239 h -1.238 m 2.48,-1.239 h 1.238 v 1.239 h -1.238 m 2.481,-1.239 h 1.238 v 1.239 h -1.238 m 2.476,-1.239 h 1.242 v 1.239 h -1.242 m 2.481,-1.239 h 1.238 v 1.239 h -1.238 m 2.48,-1.239 h 1.238 v 1.239 h -1.238 m 2.477,-1.239 h 1.242 v 1.239 h -1.242 m 2.48,-1.239 h 1.238 v 1.239 h -1.238 m 2.481,-1.239 h 1.238 v 1.239 h -1.238 m 2.476,-1.239 h 1.242 v 1.239 h -1.242 m 2.481,-1.239 h 1.238 v 1.239 h -1.238 m 2.48,-1.239 h 1.238 v 1.239 h -1.238 m 2.481,-1.239 h 1.238 v 1.239 h -1.238 m 2.476,-1.239 h 1.242 v 1.239 h -1.242 m 2.481,-1.239 h 1.238 v 1.239 h -1.238 m 2.48,-1.239 h 1.238 v 1.239 h -1.238 m 2.477,-1.239 h 1.242 v 1.239 h -1.242 m 2.48,-1.239 h 1.238 v 1.239 h -1.238 m 2.481,-1.239 h 1.238 v 1.239 h -1.238 m 2.476,-1.239 h 1.242 v 1.239 h -1.242 m 2.481,-1.239 h 1.242 v 1.239 h -1.242 m 2.48,-1.239 h 1.238 v 1.239 h -1.238 m 2.481,-1.239 h 1.238 v 1.239 h -1.238 m 2.476,-1.239 h 1.242 v 1.239 h -1.242 m 2.481,-1.239 h 1.238 v 1.239 h -1.238 m 2.48,-1.239 h 1.238 v 1.239 h -1.238 m 2.477,-1.239 h 1.242 v 1.239 h -1.242 m 2.48,-1.239 h 1.238 v 1.239 h -1.238 m 2.481,-1.239 h 1.238 v 1.239 h -1.238 m 2.476,-1.239 h 1.242 v 1.239 h -1.242 m 2.481,-1.239 h 1.242 v 1.239 h -1.242 m 2.48,-1.239 h 1.238 v 1.239 h -1.238 m 2.481,-1.239 h 1.238 v 1.239 h -1.238 m 2.476,-1.239 h 1.242 v 1.239 h -1.242 m 2.481,-1.239 h 1.238 v 1.239 h -1.238 m 2.48,-1.239 h 1.238 v 1.239 h -1.238 m 2.477,-1.239 h 1.242 v 1.239 h -1.242 m 2.48,-1.239 h 1.238 v 1.239 h -1.238 m 2.481,-1.239 h 1.238 v 1.239 h -1.238 m 2.476,-1.239 h 1.242 v 1.239 h -1.242 m 2.481,-1.239 h 1.242 v 1.239 h -1.242 m 2.48,-1.239 h 1.238 v 1.239 h -1.238 m 2.481,-1.239 h 1.238 v 1.239 h -1.238 m 2.476,-1.239 h 1.242 v 1.239 h -1.242 m 2.481,-1.239 h 1.238 v 1.239 h -1.238 m 2.48,-1.239 h 1.238 v 1.239 h -1.238 m 2.477,-1.239 h 1.242 v 1.239 h -1.242 m 2.48,-1.239 h 1.238 v 1.239 h -1.238 m 2.48,-1.239 h 1.239 v 1.239 h -1.239 m 2.481,-1.239 h 1.238 v 1.239 h -1.238 m 2.477,-1.239 h 1.242 v 1.239 H 377.52 M 380,162.32 h 1.238 v 1.239 H 380 m 2.48,-1.239 h 1.239 v 1.239 h -1.239 m 2.477,-1.239 h 1.242 v 1.239 h -1.242 m 2.481,-1.239 h 1.238 v 1.239 h -1.238 m 2.48,-1.239 h 1.238 v 1.239 h -1.238 m 2.477,-1.239 h 1.242 v 1.239 h -1.242 m 2.48,-1.239 h 1.238 v 1.239 h -1.238 m 2.48,-1.239 h 1.239 v 1.239 h -1.239 m 2.481,-1.239 h 1.238 v 1.239 h -1.238 m 2.476,-1.239 h 1.243 v 1.239 h -1.243 m 2.481,-1.239 h 1.238 v 1.239 h -1.238 m 2.48,-1.239 h 1.239 v 1.239 h -1.239 m 2.477,-1.239 h 1.242 v 1.239 h -1.242 m 2.48,-1.239 h 1.239 v 1.239 h -1.239 m 2.481,-1.239 h 1.238 v 1.239 h -1.238 m 2.477,-1.239 h 1.242 v 1.239 h -1.242 m 2.48,-1.239 h 1.238 v 1.239 h -1.238 m 2.48,-1.239 h 1.239 v 1.239 h -1.239 m 2.481,-1.239 h 1.238 v 1.239 h -1.238 m 2.476,-1.239 h 1.243 v 1.239 h -1.243 m 2.481,-1.239 h 1.238 v 1.239 h -1.238 m 2.48,-1.239 h 1.239 v 1.239 h -1.239 m 2.477,-1.239 h 1.242 v 1.239 h -1.242 m 2.48,-1.239 h 1.239 v 1.239 h -1.239 m 2.481,-1.239 h 1.238 v 1.239 h -1.238 m 2.476,-1.239 h 1.243 v 1.239 h -1.243 m 2.481,-1.239 h 1.242 v 1.239 h -1.242 m 2.48,-1.239 h 1.239 v 1.239 h -1.239 m 2.481,-1.239 h 1.238 v 1.239 h -1.238 m 2.476,-1.239 h 1.243 v 1.239 h -1.243 m 2.481,-1.239 h 1.238 v 1.239 h -1.238 m 2.48,-1.239 h 1.239 v 1.239 h -1.239 m 2.477,-1.239 h 1.242 v 1.239 h -1.242 m 2.48,-1.239 h 1.239 v 1.239 h -1.239 m 2.481,-1.239 h 1.238 v 1.239 h -1.238 m 2.476,-1.239 h 1.243 v 1.239 h -1.243 m 2.481,-1.239 h 1.242 v 1.239 h -1.242 m 2.48,-1.239 h 1.239 v 1.239 h -1.239 m 2.481,-1.239 h 1.238 v 1.239 h -1.238 m 2.476,-1.239 h 1.243 v 1.239 h -1.243 m 2.481,-1.239 h 1.238 v 1.239 h -1.238 m 2.48,-1.239 h 1.239 v 1.239 h -1.239 m 2.477,-1.239 h 1.242 v 1.239 h -1.242 m 2.48,-1.239 h 1.239 v 1.239 h -1.239 m 2.481,-1.239 h 1.238 v 1.239 h -1.238 m 2.48,-1.239 h 1.239 v 1.239 h -1.239"
                 style="fill:#d4d4d4;fill-opacity:1;fill-rule:nonzero;stroke:none"
                 id="path2121" />
              <path
                 d="m 494.359,162.938 v 1.242 h -1.242 v -1.242 m 1.242,2.48 v 1.242 h -1.242 v -1.242 m 1.242,2.48 v 1.239 h -1.242 v -1.239 m 1.242,2.481 v 1.238 h -1.242 v -1.238 m 1.242,2.476 v 1.243 h -1.242 v -1.243 m 1.242,2.481 v 1.238 h -1.242 v -1.238 m 1.242,2.48 v 1.239 h -1.242 v -1.239 m 1.242,2.477 v 1.242 h -1.242 v -1.242 m 1.242,2.48 v 1.239 h -1.242 v -1.239 m 1.242,2.481 v 1.238 h -1.242 v -1.238 m 1.242,2.476 v 1.243 h -1.242 v -1.243 m 1.242,2.481 v 1.242 h -1.242 v -1.242 m 1.242,2.48 v 1.239 h -1.242 v -1.239 m 1.242,2.481 v 1.238 h -1.242 v -1.238 m 1.242,2.476 v 1.243 h -1.242 v -1.243 m 1.242,2.481 v 1.238 h -1.242 v -1.238 m 1.242,2.48 v 1.239 h -1.242 v -1.239 m 1.242,2.477 v 1.242 h -1.242 v -1.242 m 1.242,2.48 v 1.239 h -1.242 v -1.239 m 1.242,2.481 v 1.238 h -1.242 v -1.238 m 1.242,2.476 v 1.243 h -1.242 v -1.243 m 1.242,2.481 v 1.242 h -1.242 v -1.242 m 1.242,2.48 v 1.239 h -1.242 v -1.239 m 1.242,2.481 v 1.238 h -1.242 v -1.238 m 1.242,2.476 v 1.243 h -1.242 v -1.243 m 1.242,2.481 v 1.238 h -1.242 v -1.238 m 1.242,2.48 v 1.239 h -1.242 v -1.239 m 1.242,2.477 v 1.242 h -1.242 v -1.242 m 1.242,2.48 v 1.239 h -1.242 v -1.239 m 1.242,2.481 v 1.238 h -1.242 v -1.238 m 1.242,2.476 v 1.243 h -1.242 v -1.243 m 1.242,2.481 v 1.242 h -1.242 v -1.242 m 1.242,2.48 v 1.239 h -1.242 v -1.239 m 1.242,2.481 v 1.238 h -1.242 v -1.238 m 1.242,2.476 v 1.243 h -1.242 v -1.243 m 1.242,2.481 v 1.238 h -1.242 v -1.238 m 1.242,2.48 v 1.239 h -1.242 v -1.239 m 1.242,2.477 v 1.242 h -1.242 v -1.242 m 1.242,2.48 v 1.239 h -1.242 v -1.239 m 1.242,2.481 v 1.238 h -1.242 v -1.238 m 1.242,2.476 v 1.243 h -1.242 v -1.243 m 1.242,2.481 v 1.242 h -1.242 v -1.242 m 1.242,2.48 v 1.239 h -1.242 v -1.239 m 1.242,2.481 v 1.238 h -1.242 v -1.238 m 1.242,2.476 v 1.243 h -1.242 v -1.243 m 1.242,2.481 v 1.238 h -1.242 v -1.238 m 1.242,2.48 v 1.239 h -1.242 v -1.239 m 1.242,2.477 v 1.242 h -1.242 v -1.242 m 1.242,2.48 v 1.239 h -1.242 v -1.239 m 1.242,2.481 v 1.238 h -1.242 v -1.238 m 1.242,2.476 v 1.243 h -1.242 v -1.243 m 1.242,2.481 v 1.242 h -1.242 v -1.242 m 1.242,2.48 v 1.239 h -1.242 v -1.239 m 1.242,2.481 v 1.238 h -1.242 v -1.238 m 1.242,2.476 v 1.242 h -1.242 v -1.242 m 1.242,2.481 v 1.238 h -1.242 v -1.238 m 1.242,2.48 v 1.239 h -1.242 v -1.239 m 1.242,2.477 v 1.242 h -1.242 v -1.242 m 1.242,2.48 v 1.239 h -1.242 v -1.239 m 1.242,2.481 v 1.238 h -1.242 v -1.238 m 1.242,2.476 v 1.243 h -1.242 v -1.243 m 1.242,2.481 v 1.242 h -1.242 v -1.242 m 1.242,2.48 v 1.239 h -1.242 v -1.239 m 1.242,2.481 v 1.238 h -1.242 v -1.238 m 1.242,2.476 v 1.242 h -1.242 v -1.242 m 1.242,2.481 v 1.238 h -1.242 v -1.238 m 1.242,2.48 v 1.238 h -1.242 v -1.238 m 1.242,2.477 v 1.242 h -1.242 v -1.242 m 1.242,2.48 v 1.239 h -1.242 v -1.239 m 1.242,2.481 v 1.238 h -1.242 v -1.238 m 1.242,2.476 v 1.242 h -1.242 v -1.242 m 1.242,2.481 v 1.242 h -1.242 v -1.242 m 1.242,2.48 v 1.239 h -1.242 v -1.239 m 1.242,2.481 v 1.238 h -1.242 v -1.238 m 1.242,2.476 v 1.242 h -1.242 v -1.242 m 1.242,2.481 v 1.238 h -1.242 v -1.238 m 1.242,2.48 v 1.238 h -1.242 v -1.238 m 1.242,2.477 v 1.242 h -1.242 v -1.242 m 1.242,2.48 v 1.238 h -1.242 v -1.238 m 1.242,2.481 v 1.238 h -1.242 v -1.238 m 1.242,2.476 v 1.242 h -1.242 v -1.242 m 1.242,2.481 v 1.242 h -1.242 v -1.242 m 1.242,2.48 v 1.238 h -1.242 v -1.238 m 1.242,2.481 v 1.238 h -1.242 v -1.238 m 1.242,2.476 v 1.242 h -1.242 v -1.242 m 1.242,2.481 v 1.238 h -1.242 v -1.238 m 1.242,2.48 v 1.238 h -1.242 v -1.238 m 1.242,2.477 v 1.242 h -1.242 v -1.242"
                 style="fill:#d4d4d4;fill-opacity:1;fill-rule:nonzero;stroke:none"
                 id="path2123" />
              <path
                 d="m 97.359,379.879 h 1.239 v 1.238 h -1.239 m 2.481,-1.238 h 1.238 v 1.238 H 99.84 m 2.476,-1.238 h 1.243 v 1.238 h -1.243 m 2.481,-1.238 h 1.238 v 1.238 h -1.238 m 2.48,-1.238 h 1.239 v 1.238 h -1.239 m 2.477,-1.238 h 1.242 v 1.238 h -1.242 m 2.48,-1.238 h 1.239 v 1.238 h -1.239 m 2.481,-1.238 h 1.238 v 1.238 h -1.238 m 2.48,-1.238 h 1.239 v 1.238 h -1.239 m 2.477,-1.238 h 1.242 v 1.238 h -1.242 m 2.48,-1.238 h 1.239 v 1.238 h -1.239 m 2.481,-1.238 h 1.238 v 1.238 h -1.238 m 2.476,-1.238 h 1.243 v 1.238 h -1.243 m 2.481,-1.238 h 1.238 v 1.238 h -1.238 m 2.48,-1.238 h 1.239 v 1.238 h -1.239 m 2.477,-1.238 h 1.242 v 1.238 h -1.242 m 2.48,-1.238 h 1.239 v 1.238 h -1.239 m 2.481,-1.238 h 1.238 v 1.238 h -1.238 m 2.48,-1.238 h 1.239 v 1.238 h -1.239 m 2.477,-1.238 h 1.242 v 1.238 h -1.242 m 2.48,-1.238 h 1.239 v 1.238 h -1.239 m 2.481,-1.238 h 1.238 v 1.238 h -1.238 m 2.476,-1.238 h 1.243 v 1.238 h -1.243 m 2.481,-1.238 h 1.238 v 1.238 h -1.238 m 2.48,-1.238 h 1.239 v 1.238 h -1.239 m 2.477,-1.238 h 1.242 v 1.238 h -1.242 m 2.48,-1.238 h 1.242 v 1.238 h -1.242 m 2.481,-1.238 h 1.238 v 1.238 h -1.238 m 2.48,-1.238 h 1.239 v 1.238 h -1.239 m 2.477,-1.238 h 1.242 v 1.238 h -1.242 m 2.48,-1.238 h 1.239 v 1.238 h -1.239 m 2.481,-1.238 h 1.238 v 1.238 h -1.238 m 2.476,-1.238 h 1.243 v 1.238 h -1.243 m 2.481,-1.238 h 1.238 v 1.238 h -1.238 m 2.48,-1.238 h 1.239 v 1.238 h -1.239 m 2.477,-1.238 h 1.242 v 1.238 h -1.242 m 2.48,-1.238 h 1.242 v 1.238 h -1.242 m 2.481,-1.238 h 1.238 v 1.238 h -1.238 m 2.48,-1.238 h 1.238 v 1.238 h -1.238 m 2.477,-1.238 h 1.242 v 1.238 h -1.242 m 2.48,-1.238 h 1.239 v 1.238 h -1.239 m 2.481,-1.238 h 1.238 v 1.238 h -1.238 m 2.476,-1.238 h 1.242 v 1.238 h -1.242 m 2.481,-1.238 h 1.238 v 1.238 h -1.238 m 2.48,-1.238 h 1.239 v 1.238 h -1.239 m 2.477,-1.238 h 1.242 v 1.238 h -1.242 m 2.48,-1.238 h 1.242 v 1.238 h -1.242 m 2.481,-1.238 h 1.238 v 1.238 h -1.238 m 2.48,-1.238 h 1.238 v 1.238 h -1.238 m 2.477,-1.238 h 1.242 v 1.238 h -1.242 m 2.48,-1.238 h 1.238 v 1.238 h -1.238 m 2.481,-1.238 h 1.238 v 1.238 h -1.238 m 2.476,-1.238 h 1.242 v 1.238 h -1.242 m 2.481,-1.238 H 230 v 1.238 h -1.238 m 2.48,-1.238 h 1.238 v 1.238 h -1.238 m 2.481,-1.238 h 1.238 v 1.238 h -1.238 m 2.476,-1.238 h 1.242 v 1.238 h -1.242 m 2.481,-1.238 h 1.238 v 1.238 h -1.238 m 2.48,-1.238 h 1.238 v 1.238 h -1.238 m 2.477,-1.238 h 1.242 v 1.238 h -1.242 m 2.48,-1.238 h 1.238 v 1.238 h -1.238 m 2.481,-1.238 h 1.238 v 1.238 h -1.238 m 2.476,-1.238 h 1.242 v 1.238 h -1.242 m 2.481,-1.238 h 1.238 v 1.238 h -1.238 m 2.48,-1.238 h 1.238 v 1.238 h -1.238 m 2.481,-1.238 h 1.238 v 1.238 h -1.238 m 2.476,-1.238 h 1.242 v 1.238 h -1.242 m 2.481,-1.238 h 1.238 v 1.238 h -1.238 m 2.48,-1.238 h 1.238 v 1.238 h -1.238 m 2.477,-1.238 h 1.242 v 1.238 h -1.242 m 2.48,-1.238 h 1.238 v 1.238 h -1.238 m 2.481,-1.238 h 1.238 v 1.238 h -1.238 m 2.476,-1.238 h 1.242 v 1.238 h -1.242 m 2.481,-1.238 h 1.238 v 1.238 h -1.238 m 2.48,-1.238 h 1.238 v 1.238 h -1.238 m 2.481,-1.238 h 1.238 v 1.238 h -1.238 m 2.476,-1.238 h 1.242 v 1.238 h -1.242 m 2.481,-1.238 h 1.238 v 1.238 h -1.238 m 2.48,-1.238 h 1.238 v 1.238 h -1.238 m 2.477,-1.238 h 1.242 v 1.238 h -1.242 m 2.48,-1.238 h 1.238 v 1.238 h -1.238 m 2.481,-1.238 h 1.238 v 1.238 h -1.238 m 2.476,-1.238 h 1.242 v 1.238 h -1.242 m 2.481,-1.238 h 1.242 v 1.238 h -1.242 m 2.48,-1.238 h 1.238 v 1.238 h -1.238 m 2.481,-1.238 h 1.238 v 1.238 h -1.238 m 2.476,-1.238 h 1.242 v 1.238 h -1.242 m 2.481,-1.238 h 1.238 v 1.238 h -1.238 m 2.48,-1.238 h 1.238 v 1.238 h -1.238 m 2.477,-1.238 h 1.242 v 1.238 h -1.242 m 2.48,-1.238 h 1.238 v 1.238 h -1.238 m 2.481,-1.238 h 1.238 v 1.238 h -1.238 m 2.476,-1.238 h 1.242 v 1.238 h -1.242 m 2.481,-1.238 h 1.242 v 1.238 h -1.242 m 2.48,-1.238 h 1.238 v 1.238 h -1.238 m 2.481,-1.238 h 1.238 v 1.238 h -1.238 m 2.476,-1.238 h 1.242 v 1.238 h -1.242 m 2.481,-1.238 h 1.238 v 1.238 h -1.238 m 2.48,-1.238 h 1.238 v 1.238 h -1.238 m 2.477,-1.238 h 1.242 v 1.238 h -1.242 m 2.48,-1.238 h 1.238 v 1.238 h -1.238 m 2.481,-1.238 h 1.238 v 1.238 h -1.238 m 2.476,-1.238 h 1.242 v 1.238 h -1.242 m 2.481,-1.238 h 1.242 v 1.238 h -1.242 m 2.48,-1.238 h 1.238 v 1.238 h -1.238 m 2.481,-1.238 h 1.238 v 1.238 h -1.238 m 2.476,-1.238 h 1.242 v 1.238 h -1.242 m 2.481,-1.238 h 1.238 v 1.238 h -1.238 m 2.48,-1.238 h 1.238 v 1.238 h -1.238 m 2.477,-1.238 h 1.242 v 1.238 h -1.242 m 2.48,-1.238 h 1.238 v 1.238 h -1.238 m 2.48,-1.238 h 1.239 v 1.238 h -1.239 m 2.481,-1.238 h 1.238 v 1.238 h -1.238 m 2.477,-1.238 h 1.242 v 1.238 h -1.242 m 2.48,-1.238 h 1.238 v 1.238 H 380 m 2.48,-1.238 h 1.239 v 1.238 h -1.239 m 2.477,-1.238 h 1.242 v 1.238 h -1.242 m 2.481,-1.238 h 1.238 v 1.238 h -1.238 m 2.48,-1.238 h 1.238 v 1.238 h -1.238 m 2.477,-1.238 h 1.242 v 1.238 h -1.242 m 2.48,-1.238 h 1.238 v 1.238 h -1.238 m 2.48,-1.238 h 1.239 v 1.238 h -1.239 m 2.481,-1.238 h 1.238 v 1.238 h -1.238 m 2.476,-1.238 h 1.243 v 1.238 h -1.243 m 2.481,-1.238 h 1.238 v 1.238 h -1.238 m 2.48,-1.238 h 1.239 v 1.238 h -1.239 m 2.477,-1.238 h 1.242 v 1.238 h -1.242 m 2.48,-1.238 h 1.239 v 1.238 h -1.239 m 2.481,-1.238 h 1.238 v 1.238 h -1.238 m 2.477,-1.238 h 1.242 v 1.238 h -1.242 m 2.48,-1.238 h 1.238 v 1.238 h -1.238 m 2.48,-1.238 h 1.239 v 1.238 h -1.239 m 2.481,-1.238 h 1.238 v 1.238 h -1.238 m 2.476,-1.238 h 1.243 v 1.238 h -1.243 m 2.481,-1.238 h 1.238 v 1.238 h -1.238 m 2.48,-1.238 h 1.239 v 1.238 h -1.239 m 2.477,-1.238 h 1.242 v 1.238 h -1.242 m 2.48,-1.238 h 1.239 v 1.238 h -1.239 m 2.481,-1.238 h 1.238 v 1.238 h -1.238 m 2.476,-1.238 h 1.243 v 1.238 h -1.243 m 2.481,-1.238 h 1.242 v 1.238 h -1.242 m 2.48,-1.238 h 1.239 v 1.238 h -1.239 m 2.481,-1.238 h 1.238 v 1.238 h -1.238 m 2.476,-1.238 h 1.243 v 1.238 h -1.243 m 2.481,-1.238 h 1.238 v 1.238 h -1.238 m 2.48,-1.238 h 1.239 v 1.238 h -1.239 m 2.477,-1.238 h 1.242 v 1.238 h -1.242 m 2.48,-1.238 h 1.239 v 1.238 h -1.239 m 2.481,-1.238 h 1.238 v 1.238 h -1.238 m 2.476,-1.238 h 1.243 v 1.238 h -1.243 m 2.481,-1.238 h 1.242 v 1.238 h -1.242 m 2.48,-1.238 h 1.239 v 1.238 h -1.239 m 2.481,-1.238 h 1.238 v 1.238 h -1.238 m 2.476,-1.238 h 1.243 v 1.238 h -1.243 m 2.481,-1.238 h 1.238 v 1.238 h -1.238 m 2.48,-1.238 h 1.239 v 1.238 h -1.239 m 2.477,-1.238 h 1.242 v 1.238 h -1.242 m 2.48,-1.238 h 1.239 v 1.238 h -1.239 m 2.481,-1.238 h 1.238 v 1.238 h -1.238 m 2.48,-1.238 h 1.239 v 1.238 h -1.239"
                 style="fill:#d4d4d4;fill-opacity:1;fill-rule:nonzero;stroke:none"
                 id="path2125" />
              <path
                 d="m 97.98,162.938 v 1.242 h -1.242 v -1.242 m 1.242,2.48 v 1.242 h -1.242 v -1.242 m 1.242,2.48 v 1.239 h -1.242 v -1.239 m 1.242,2.481 v 1.238 h -1.242 v -1.238 m 1.242,2.476 v 1.243 h -1.242 v -1.243 m 1.242,2.481 v 1.238 h -1.242 v -1.238 m 1.242,2.48 v 1.239 h -1.242 v -1.239 m 1.242,2.477 v 1.242 h -1.242 v -1.242 m 1.242,2.48 v 1.239 h -1.242 v -1.239 m 1.242,2.481 v 1.238 h -1.242 v -1.238 m 1.242,2.476 v 1.243 h -1.242 v -1.243 m 1.242,2.481 v 1.242 h -1.242 v -1.242 m 1.242,2.48 v 1.239 h -1.242 v -1.239 m 1.242,2.481 v 1.238 h -1.242 v -1.238 m 1.242,2.476 v 1.243 h -1.242 v -1.243 m 1.242,2.481 v 1.238 h -1.242 v -1.238 m 1.242,2.48 v 1.239 h -1.242 v -1.239 m 1.242,2.477 v 1.242 h -1.242 v -1.242 m 1.242,2.48 v 1.239 h -1.242 v -1.239 m 1.242,2.481 v 1.238 h -1.242 v -1.238 m 1.242,2.476 v 1.243 h -1.242 v -1.243 m 1.242,2.481 v 1.242 h -1.242 v -1.242 m 1.242,2.48 v 1.239 h -1.242 v -1.239 m 1.242,2.481 v 1.238 h -1.242 v -1.238 m 1.242,2.476 v 1.243 h -1.242 v -1.243 m 1.242,2.481 v 1.238 h -1.242 v -1.238 m 1.242,2.48 v 1.239 h -1.242 v -1.239 m 1.242,2.477 v 1.242 h -1.242 v -1.242 m 1.242,2.48 v 1.239 h -1.242 v -1.239 m 1.242,2.481 v 1.238 h -1.242 v -1.238 m 1.242,2.476 v 1.243 h -1.242 v -1.243 m 1.242,2.481 v 1.242 h -1.242 v -1.242 m 1.242,2.48 v 1.239 h -1.242 v -1.239 m 1.242,2.481 v 1.238 h -1.242 v -1.238 m 1.242,2.476 v 1.243 h -1.242 v -1.243 m 1.242,2.481 v 1.238 h -1.242 v -1.238 m 1.242,2.48 v 1.239 h -1.242 v -1.239 m 1.242,2.477 v 1.242 h -1.242 v -1.242 m 1.242,2.48 v 1.239 h -1.242 v -1.239 m 1.242,2.481 v 1.238 h -1.242 v -1.238 m 1.242,2.476 v 1.243 h -1.242 v -1.243 m 1.242,2.481 v 1.242 h -1.242 v -1.242 m 1.242,2.48 v 1.239 h -1.242 v -1.239 m 1.242,2.481 v 1.238 h -1.242 v -1.238 m 1.242,2.476 v 1.243 h -1.242 v -1.243 m 1.242,2.481 v 1.238 h -1.242 v -1.238 m 1.242,2.48 v 1.239 h -1.242 v -1.239 m 1.242,2.477 v 1.242 h -1.242 v -1.242 m 1.242,2.48 v 1.239 h -1.242 v -1.239 m 1.242,2.481 v 1.238 h -1.242 v -1.238 m 1.242,2.476 v 1.243 h -1.242 v -1.243 m 1.242,2.481 v 1.242 h -1.242 v -1.242 m 1.242,2.48 v 1.239 h -1.242 v -1.239 m 1.242,2.481 v 1.238 h -1.242 v -1.238 m 1.242,2.476 v 1.242 h -1.242 v -1.242 m 1.242,2.481 v 1.238 h -1.242 v -1.238 m 1.242,2.48 v 1.239 h -1.242 v -1.239 m 1.242,2.477 v 1.242 h -1.242 v -1.242 m 1.242,2.48 v 1.239 h -1.242 v -1.239 m 1.242,2.481 v 1.238 h -1.242 v -1.238 m 1.242,2.476 v 1.243 h -1.242 v -1.243 m 1.242,2.481 v 1.242 h -1.242 v -1.242 m 1.242,2.48 v 1.239 h -1.242 v -1.239 m 1.242,2.481 v 1.238 h -1.242 v -1.238 m 1.242,2.476 v 1.242 h -1.242 v -1.242 m 1.242,2.481 v 1.238 h -1.242 v -1.238 m 1.242,2.48 v 1.238 h -1.242 v -1.238 m 1.242,2.477 v 1.242 h -1.242 v -1.242 m 1.242,2.48 v 1.239 h -1.242 v -1.239 m 1.242,2.481 v 1.238 h -1.242 v -1.238 m 1.242,2.476 v 1.242 h -1.242 v -1.242 m 1.242,2.481 v 1.242 h -1.242 v -1.242 m 1.242,2.48 v 1.239 h -1.242 v -1.239 m 1.242,2.481 v 1.238 h -1.242 v -1.238 m 1.242,2.476 v 1.242 h -1.242 v -1.242 m 1.242,2.481 v 1.238 h -1.242 v -1.238 m 1.242,2.48 v 1.238 h -1.242 v -1.238 m 1.242,2.477 v 1.242 h -1.242 v -1.242 m 1.242,2.48 v 1.238 h -1.242 v -1.238 m 1.242,2.481 v 1.238 h -1.242 v -1.238 m 1.242,2.476 v 1.242 h -1.242 v -1.242 m 1.242,2.481 v 1.242 h -1.242 v -1.242 m 1.242,2.48 v 1.238 h -1.242 v -1.238 m 1.242,2.481 v 1.238 h -1.242 v -1.238 m 1.242,2.476 v 1.242 h -1.242 v -1.242 m 1.242,2.481 v 1.238 h -1.242 v -1.238 m 1.242,2.48 v 1.238 h -1.242 v -1.238 m 1.242,2.477 v 1.242 h -1.242 v -1.242"
                 style="fill:#d4d4d4;fill-opacity:1;fill-rule:nonzero;stroke:none"
                 id="path2127" />
              <g
                 id="g2129">
                <path
                   d="m 97.359,162.938 h 30.993 v 8.059 l -5.207,4.339 H 97.359 Z"
                   style="fill:#eeeeee;fill-opacity:1;fill-rule:nonzero;stroke:#d4d4d4;stroke-width:0.634578;stroke-linecap:butt;stroke-linejoin:miter;stroke-miterlimit:10;stroke-dasharray:none;stroke-opacity:1"
                   id="path2131" />
              </g>
            </g>
          </g>
        </g>
      </g>
      <text
         xml:space="preserve"
         transform="matrix(1,0,0,0.99999707,102.58446,173.92414)"
         style="font-variant:normal;font-weight:normal;font-size:9.91157px;font-family:'DejaVu Sans';-inkscape-font-specification:DejaVuSans;writing-mode:lr-tb;fill:#333333;fill-opacity:1;fill-rule:nonzero;stroke:none"
         id="text2139"><tspan
           x="0 2.7537515 8.8178129 14.881874"
           y="0"
           id="tspan2133">loop</tspan><tspan
           x="138.77481 142.64168 146.13104 152.19511 156.27008 159.42068 165.48889 171.56262 177.01205 183.2939 186.4445 192.70628 198.80423 205.08607 210.53551 216.81735 226.44269 232.51642 236.5914 242.33119 249.93356 256.00729 259.89352 265.96729 269.11789 271.87161"
           y="0.17169812"
           id="tspan2135">[for each benchmarkData in</tspan><tspan
           x="158.09615 164.38766 170.48561 176.76746 182.18715 188.46899 198.12405 204.1978 208.27277 213.98283 221.61494 227.68869 231.57491 237.61891 243.14093 245.89468 251.05858 254.94481"
           y="11.938486"
           id="tspan2137">benchmarkDataList]</tspan></text>
      <g
         id="g2141">
        <g
           id="g2143">
          <g
             id="g2145"
             clip-path="url(#clipPath2149)">
            <g
               id="g2151">
              <path
                 d="m 6.863,51.371 h 1.242 v 1.238 H 6.863 m 2.481,-1.238 h 1.238 v 1.238 H 9.344 m 2.48,-1.238 h 1.238 v 1.238 h -1.238 m 2.477,-1.238 h 1.242 v 1.238 h -1.242 m 2.48,-1.238 h 1.239 v 1.238 h -1.239 m 2.481,-1.238 H 20.5 v 1.238 h -1.238 m 2.48,-1.238 h 1.238 v 1.238 h -1.238 m 2.477,-1.238 h 1.242 v 1.238 h -1.242 m 2.48,-1.238 h 1.239 v 1.238 h -1.239 m 2.481,-1.238 h 1.238 v 1.238 H 29.18 m 2.476,-1.238 h 1.242 v 1.238 h -1.242 m 2.481,-1.238 h 1.238 v 1.238 h -1.238 m 2.48,-1.238 h 1.238 v 1.238 h -1.238 m 2.477,-1.238 h 1.242 v 1.238 h -1.242 m 2.48,-1.238 h 1.238 v 1.238 h -1.238 m 2.481,-1.238 h 1.238 v 1.238 h -1.238 m 2.48,-1.238 h 1.238 v 1.238 h -1.238 m 2.477,-1.238 h 1.242 v 1.238 h -1.242 m 2.48,-1.238 h 1.238 v 1.238 h -1.238 m 2.481,-1.238 h 1.238 v 1.238 h -1.238 m 2.476,-1.238 h 1.242 v 1.238 h -1.242 m 2.481,-1.238 h 1.238 v 1.238 H 58.93 m 2.48,-1.238 h 1.238 v 1.238 H 61.41 m 2.477,-1.238 h 1.242 v 1.238 h -1.242 m 2.48,-1.238 h 1.238 v 1.238 h -1.238 m 2.481,-1.238 h 1.238 v 1.238 h -1.238 m 2.48,-1.238 h 1.238 v 1.238 h -1.238 m 2.477,-1.238 h 1.242 v 1.238 h -1.242 m 2.48,-1.238 h 1.238 v 1.238 h -1.238 m 2.481,-1.238 h 1.238 v 1.238 h -1.238 m 2.476,-1.238 h 1.242 v 1.238 h -1.242 m 2.481,-1.238 h 1.238 v 1.238 h -1.238 m 2.48,-1.238 h 1.238 v 1.238 h -1.238 m 2.477,-1.238 h 1.242 v 1.238 H 88.68 m 2.48,-1.238 h 1.242 v 1.238 H 91.16 m 2.481,-1.238 h 1.238 v 1.238 h -1.238 m 2.48,-1.238 h 1.238 v 1.238 h -1.238 m 2.477,-1.238 h 1.242 v 1.238 h -1.242 m 2.48,-1.238 h 1.238 v 1.238 h -1.238 m 2.481,-1.238 h 1.238 v 1.238 h -1.238 m 2.476,-1.238 h 1.242 v 1.238 h -1.242 m 2.481,-1.238 h 1.238 v 1.238 h -1.238 m 2.48,-1.238 h 1.238 v 1.238 h -1.238 m 2.477,-1.238 h 1.242 v 1.238 h -1.242 m 2.48,-1.238 h 1.242 v 1.238 h -1.242 m 2.481,-1.238 h 1.238 v 1.238 h -1.238 m 2.48,-1.238 h 1.238 v 1.238 h -1.238 m 2.477,-1.238 h 1.242 v 1.238 h -1.242 m 2.48,-1.238 h 1.238 v 1.238 h -1.238 m 2.481,-1.238 h 1.238 v 1.238 h -1.238 m 2.476,-1.238 h 1.242 v 1.238 h -1.242 m 2.481,-1.238 h 1.238 v 1.238 h -1.238 m 2.48,-1.238 h 1.238 v 1.238 h -1.238 m 2.477,-1.238 h 1.242 v 1.238 h -1.242 m 2.48,-1.238 h 1.242 v 1.238 h -1.242 m 2.481,-1.238 h 1.238 v 1.238 h -1.238 m 2.48,-1.238 h 1.238 v 1.238 h -1.238 m 2.477,-1.238 h 1.242 v 1.238 h -1.242 m 2.48,-1.238 h 1.238 v 1.238 h -1.238 m 2.481,-1.238 h 1.238 v 1.238 h -1.238 m 2.476,-1.238 h 1.242 v 1.238 h -1.242 m 2.481,-1.238 h 1.238 v 1.238 h -1.238 m 2.48,-1.238 h 1.238 v 1.238 h -1.238 m 2.48,-1.238 h 1.239 v 1.238 h -1.239 m 2.477,-1.238 h 1.242 v 1.238 h -1.242 m 2.481,-1.238 h 1.238 v 1.238 h -1.238 m 2.48,-1.238 h 1.238 v 1.238 H 170.5 m 2.477,-1.238 h 1.242 v 1.238 h -1.242 m 2.48,-1.238 h 1.238 v 1.238 h -1.238 m 2.481,-1.238 h 1.238 v 1.238 h -1.238 m 2.476,-1.238 h 1.242 v 1.238 h -1.242 m 2.481,-1.238 h 1.238 v 1.238 h -1.238 m 2.48,-1.238 h 1.238 v 1.238 h -1.238 m 2.48,-1.238 h 1.239 v 1.238 h -1.239 m 2.477,-1.238 h 1.242 v 1.238 h -1.242 m 2.48,-1.238 h 1.239 v 1.238 h -1.239 m 2.481,-1.238 h 1.238 v 1.238 h -1.238 m 2.477,-1.238 h 1.242 v 1.238 h -1.242 m 2.48,-1.238 h 1.238 v 1.238 h -1.238 m 2.48,-1.238 h 1.239 v 1.238 h -1.239 m 2.477,-1.238 h 1.242 v 1.238 h -1.242 m 2.481,-1.238 h 1.238 v 1.238 h -1.238 m 2.48,-1.238 h 1.238 v 1.238 h -1.238 m 2.48,-1.238 h 1.239 v 1.238 h -1.239 m 2.477,-1.238 h 1.242 v 1.238 h -1.242 m 2.48,-1.238 h 1.239 v 1.238 h -1.239 m 2.481,-1.238 h 1.238 v 1.238 h -1.238 m 2.476,-1.238 h 1.243 v 1.238 h -1.243 m 2.481,-1.238 h 1.238 v 1.238 h -1.238 m 2.48,-1.238 h 1.239 v 1.238 h -1.239 M 230,51.371 h 1.242 v 1.238 H 230 m 2.48,-1.238 h 1.243 v 1.238 h -1.243 m 2.481,-1.238 h 1.238 v 1.238 h -1.238 m 2.48,-1.238 h 1.239 v 1.238 h -1.239 m 2.477,-1.238 h 1.242 v 1.238 h -1.242 m 2.48,-1.238 h 1.239 v 1.238 h -1.239 m 2.481,-1.238 h 1.238 v 1.238 h -1.238 m 2.476,-1.238 h 1.243 v 1.238 h -1.243 m 2.481,-1.238 h 1.238 v 1.238 h -1.238 m 2.48,-1.238 h 1.239 v 1.238 h -1.239 m 2.477,-1.238 h 1.242 v 1.238 h -1.242 m 2.48,-1.238 h 1.243 v 1.238 h -1.243 m 2.481,-1.238 h 1.238 v 1.238 h -1.238 m 2.48,-1.238 h 1.239 v 1.238 h -1.239 m 2.477,-1.238 h 1.242 v 1.238 h -1.242 m 2.48,-1.238 h 1.239 v 1.238 h -1.239 m 2.481,-1.238 h 1.238 v 1.238 h -1.238 m 2.476,-1.238 h 1.243 v 1.238 h -1.243 m 2.481,-1.238 h 1.238 v 1.238 h -1.238 m 2.48,-1.238 h 1.239 v 1.238 h -1.239 m 2.477,-1.238 h 1.242 v 1.238 h -1.242 m 2.48,-1.238 h 1.243 v 1.238 h -1.243 m 2.481,-1.238 h 1.238 v 1.238 h -1.238 m 2.48,-1.238 h 1.239 v 1.238 h -1.239 m 2.477,-1.238 h 1.242 v 1.238 h -1.242 m 2.48,-1.238 h 1.239 v 1.238 h -1.239 m 2.481,-1.238 h 1.238 v 1.238 h -1.238 m 2.476,-1.238 h 1.243 v 1.238 h -1.243 m 2.481,-1.238 h 1.238 v 1.238 h -1.238 m 2.48,-1.238 h 1.239 v 1.238 h -1.239 m 2.481,-1.238 h 1.238 v 1.238 h -1.238 m 2.476,-1.238 h 1.243 v 1.238 h -1.243 m 2.481,-1.238 h 1.238 v 1.238 h -1.238 m 2.48,-1.238 h 1.239 v 1.238 h -1.239 m 2.477,-1.238 h 1.242 v 1.238 h -1.242 m 2.48,-1.238 h 1.239 v 1.238 h -1.239 m 2.481,-1.238 h 1.238 v 1.238 h -1.238 m 2.476,-1.238 h 1.243 v 1.238 h -1.243 m 2.481,-1.238 h 1.238 v 1.238 h -1.238 m 2.48,-1.238 h 1.239 v 1.238 h -1.239 m 2.481,-1.238 h 1.238 v 1.238 h -1.238 m 2.476,-1.238 h 1.243 v 1.238 h -1.243 m 2.481,-1.238 h 1.238 v 1.238 h -1.238 m 2.48,-1.238 h 1.239 v 1.238 h -1.239 m 2.477,-1.238 h 1.242 v 1.238 h -1.242 m 2.48,-1.238 h 1.239 v 1.238 h -1.239 m 2.481,-1.238 h 1.238 v 1.238 h -1.238 m 2.476,-1.238 h 1.243 v 1.238 h -1.243 m 2.481,-1.238 h 1.238 v 1.238 h -1.238 m 2.48,-1.238 h 1.239 v 1.238 h -1.239 m 2.481,-1.238 h 1.238 v 1.238 h -1.238 m 2.476,-1.238 h 1.243 v 1.238 h -1.243 m 2.481,-1.238 h 1.238 v 1.238 h -1.238 m 2.48,-1.238 h 1.239 v 1.238 h -1.239 m 2.477,-1.238 h 1.242 v 1.238 h -1.242 m 2.48,-1.238 h 1.239 v 1.238 h -1.239 m 2.481,-1.238 h 1.238 v 1.238 h -1.238 m 2.476,-1.238 h 1.242 v 1.238 h -1.242 m 2.481,-1.238 h 1.242 v 1.238 h -1.242 m 2.48,-1.238 h 1.239 v 1.238 h -1.239 m 2.481,-1.238 H 380 v 1.238 h -1.238 m 2.476,-1.238 h 1.242 v 1.238 h -1.242 m 2.481,-1.238 h 1.238 v 1.238 h -1.238 m 2.48,-1.238 h 1.239 v 1.238 h -1.239 m 2.477,-1.238 h 1.242 v 1.238 h -1.242 m 2.48,-1.238 h 1.239 v 1.238 h -1.239 m 2.481,-1.238 h 1.238 v 1.238 h -1.238 m 2.476,-1.238 h 1.242 v 1.238 h -1.242 m 2.481,-1.238 h 1.242 v 1.238 h -1.242 m 2.48,-1.238 h 1.238 v 1.238 h -1.238 m 2.481,-1.238 h 1.238 v 1.238 h -1.238 m 2.476,-1.238 h 1.242 v 1.238 h -1.242 m 2.481,-1.238 h 1.238 v 1.238 h -1.238 m 2.48,-1.238 h 1.238 v 1.238 h -1.238 m 2.477,-1.238 h 1.242 v 1.238 h -1.242 m 2.48,-1.238 h 1.239 v 1.238 h -1.239 m 2.481,-1.238 h 1.238 v 1.238 h -1.238 m 2.476,-1.238 h 1.242 v 1.238 h -1.242 m 2.481,-1.238 h 1.242 v 1.238 h -1.242 m 2.48,-1.238 h 1.238 v 1.238 h -1.238 m 2.481,-1.238 h 1.238 v 1.238 h -1.238 m 2.476,-1.238 h 1.242 v 1.238 h -1.242 m 2.481,-1.238 h 1.238 v 1.238 h -1.238 m 2.48,-1.238 h 1.238 v 1.238 h -1.238 m 2.477,-1.238 h 1.242 v 1.238 h -1.242 m 2.48,-1.238 h 1.238 v 1.238 h -1.238 m 2.481,-1.238 h 1.238 v 1.238 h -1.238 m 2.48,-1.238 h 1.238 v 1.238 h -1.238 m 2.477,-1.238 h 1.242 v 1.238 h -1.242 m 2.48,-1.238 h 1.238 v 1.238 h -1.238 m 2.481,-1.238 h 1.238 v 1.238 h -1.238 m 2.476,-1.238 h 1.242 v 1.238 h -1.242 m 2.481,-1.238 h 1.238 v 1.238 h -1.238 m 2.48,-1.238 h 1.238 v 1.238 h -1.238 m 2.477,-1.238 h 1.242 v 1.238 h -1.242 m 2.48,-1.238 h 1.238 v 1.238 h -1.238 m 2.481,-1.238 h 1.238 v 1.238 h -1.238 m 2.48,-1.238 h 1.238 v 1.238 h -1.238 m 2.477,-1.238 h 1.242 v 1.238 h -1.242 m 2.48,-1.238 h 1.238 v 1.238 h -1.238 m 2.481,-1.238 h 1.238 v 1.238 h -1.238 m 2.476,-1.238 h 1.242 v 1.238 h -1.242 m 2.481,-1.238 h 1.238 v 1.238 h -1.238 m 2.48,-1.238 h 1.238 v 1.238 h -1.238 m 2.477,-1.238 h 1.242 v 1.238 h -1.242 m 2.48,-1.238 h 1.242 v 1.238 h -1.242 m 2.481,-1.238 h 1.238 v 1.238 h -1.238 m 2.48,-1.238 h 1.238 v 1.238 h -1.238 m 2.477,-1.238 h 1.242 v 1.238 h -1.242"
                 style="fill:#d4d4d4;fill-opacity:1;fill-rule:nonzero;stroke:none"
                 id="path2153" />
              <path
                 d="m 500.555,51.992 v 1.238 h -1.239 v -1.238 m 1.239,2.477 v 1.242 h -1.239 v -1.242 m 1.239,2.48 v 1.239 h -1.239 v -1.239 m 1.239,2.481 v 1.238 h -1.239 V 59.43 m 1.239,2.476 v 1.242 h -1.239 v -1.242 m 1.239,2.481 v 1.238 h -1.239 v -1.238 m 1.239,2.48 v 1.238 h -1.239 v -1.238 m 1.239,2.481 v 1.238 h -1.239 v -1.238 m 1.239,2.476 v 1.242 h -1.239 v -1.242 m 1.239,2.481 v 1.238 h -1.239 v -1.238 m 1.239,2.48 v 1.238 h -1.239 v -1.238 m 1.239,2.477 v 1.242 h -1.239 v -1.242 m 1.239,2.48 v 1.238 h -1.239 v -1.238 m 1.239,2.481 v 1.238 h -1.239 v -1.238 m 1.239,2.476 v 1.242 h -1.239 v -1.242 m 1.239,2.481 v 1.238 h -1.239 V 89.18 m 1.239,2.48 v 1.238 h -1.239 V 91.66 m 1.239,2.481 v 1.238 h -1.239 v -1.238 m 1.239,2.476 v 1.242 h -1.239 v -1.242 m 1.239,2.481 v 1.238 h -1.239 v -1.238 m 1.239,2.48 v 1.238 h -1.239 v -1.238 m 1.239,2.477 v 1.242 h -1.239 v -1.242 m 1.239,2.48 v 1.238 h -1.239 v -1.238 m 1.239,2.481 v 1.238 h -1.239 v -1.238 m 1.239,2.476 v 1.242 h -1.239 v -1.242 m 1.239,2.481 v 1.238 h -1.239 v -1.238 m 1.239,2.48 v 1.238 h -1.239 v -1.238 m 1.239,2.481 v 1.238 h -1.239 v -1.238 m 1.239,2.476 v 1.242 h -1.239 v -1.242 m 1.239,2.481 v 1.238 h -1.239 v -1.238 m 1.239,2.48 v 1.238 h -1.239 v -1.238 m 1.239,2.477 v 1.242 h -1.239 v -1.242 m 1.239,2.48 v 1.238 h -1.239 v -1.238 m 1.239,2.481 v 1.238 h -1.239 v -1.238 m 1.239,2.476 v 1.242 h -1.239 v -1.242 m 1.239,2.481 v 1.238 h -1.239 v -1.238 m 1.239,2.48 v 1.238 h -1.239 v -1.238 m 1.239,2.481 v 1.238 h -1.239 v -1.238 m 1.239,2.476 v 1.242 h -1.239 v -1.242 m 1.239,2.481 v 1.238 h -1.239 v -1.238 m 1.239,2.48 v 1.238 h -1.239 v -1.238 m 1.239,2.477 v 1.242 h -1.239 v -1.242 m 1.239,2.48 v 1.238 h -1.239 v -1.238 m 1.239,2.481 v 1.238 h -1.239 v -1.238 m 1.239,2.476 v 1.242 h -1.239 v -1.242 m 1.239,2.481 v 1.238 h -1.239 v -1.238 m 1.239,2.48 v 1.238 h -1.239 v -1.238 m 1.239,2.481 v 1.238 h -1.239 v -1.238 m 1.239,2.476 v 1.242 h -1.239 v -1.242 m 1.239,2.481 v 1.238 h -1.239 v -1.238 m 1.239,2.48 v 1.238 h -1.239 v -1.238 m 1.239,2.477 v 1.242 h -1.239 v -1.242 m 1.239,2.48 v 1.238 h -1.239 v -1.238 m 1.239,2.481 v 1.238 h -1.239 v -1.238 m 1.239,2.476 v 1.242 h -1.239 v -1.242 m 1.239,2.481 v 1.238 h -1.239 v -1.238 m 1.239,2.48 v 1.238 h -1.239 v -1.238 m 1.239,2.48 v 1.239 h -1.239 v -1.239 m 1.239,2.477 v 1.242 h -1.239 v -1.242 m 1.239,2.481 v 1.238 h -1.239 v -1.238 m 1.239,2.48 v 1.238 h -1.239 v -1.238 m 1.239,2.477 v 1.242 h -1.239 v -1.242 m 1.239,2.48 v 1.238 h -1.239 v -1.238 m 1.239,2.481 v 1.238 h -1.239 v -1.238 m 1.239,2.476 v 1.242 h -1.239 v -1.242 m 1.239,2.481 v 1.238 h -1.239 v -1.238 m 1.239,2.48 v 1.238 h -1.239 v -1.238 m 1.239,2.48 v 1.239 h -1.239 v -1.239 m 1.239,2.477 v 1.242 h -1.239 v -1.242 m 1.239,2.48 v 1.239 h -1.239 v -1.239 m 1.239,2.481 v 1.238 h -1.239 v -1.238 m 1.239,2.477 v 1.242 h -1.239 v -1.242 m 1.239,2.48 v 1.238 h -1.239 V 230.5 m 1.239,2.48 v 1.239 h -1.239 v -1.239 m 1.239,2.477 v 1.242 h -1.239 v -1.242 m 1.239,2.481 v 1.238 h -1.239 v -1.238 m 1.239,2.48 v 1.238 h -1.239 v -1.238 m 1.239,2.48 v 1.239 h -1.239 v -1.239 m 1.239,2.477 v 1.242 h -1.239 v -1.242 m 1.239,2.48 v 1.239 h -1.239 v -1.239 m 1.239,2.481 v 1.238 h -1.239 v -1.238 m 1.239,2.476 v 1.243 h -1.239 v -1.243 m 1.239,2.481 v 1.238 h -1.239 v -1.238 m 1.239,2.48 v 1.239 h -1.239 v -1.239 m 1.239,2.477 v 1.242 h -1.239 v -1.242 m 1.239,2.48 v 1.239 h -1.239 v -1.239 m 1.239,2.481 v 1.238 h -1.239 v -1.238 m 1.239,2.48 v 1.239 h -1.239 v -1.239 m 1.239,2.477 v 1.242 h -1.239 v -1.242 m 1.239,2.48 v 1.239 h -1.239 v -1.239 m 1.239,2.481 v 1.238 h -1.239 v -1.238 m 1.239,2.476 v 1.243 h -1.239 v -1.243 m 1.239,2.481 v 1.238 h -1.239 v -1.238 m 1.239,2.48 v 1.239 h -1.239 v -1.239 m 1.239,2.477 v 1.242 h -1.239 v -1.242 m 1.239,2.48 v 1.239 h -1.239 v -1.239 m 1.239,2.481 v 1.238 h -1.239 v -1.238 m 1.239,2.48 v 1.239 h -1.239 v -1.239 m 1.239,2.477 v 1.242 h -1.239 v -1.242 m 1.239,2.48 v 1.239 h -1.239 v -1.239 m 1.239,2.481 v 1.238 h -1.239 v -1.238 m 1.239,2.476 v 1.243 h -1.239 v -1.243 m 1.239,2.481 v 1.238 h -1.239 v -1.238 m 1.239,2.48 v 1.239 h -1.239 v -1.239 m 1.239,2.477 v 1.242 h -1.239 v -1.242 m 1.239,2.48 v 1.239 h -1.239 v -1.239 m 1.239,2.481 v 1.238 h -1.239 v -1.238 m 1.239,2.48 v 1.239 h -1.239 v -1.239 m 1.239,2.477 v 1.242 h -1.239 v -1.242 m 1.239,2.48 v 1.239 h -1.239 v -1.239 m 1.239,2.481 v 1.238 h -1.239 v -1.238 m 1.239,2.476 v 1.243 h -1.239 v -1.243 m 1.239,2.481 v 1.238 h -1.239 v -1.238 m 1.239,2.48 v 1.239 h -1.239 v -1.239 m 1.239,2.477 v 1.242 h -1.239 v -1.242 m 1.239,2.48 v 1.239 h -1.239 v -1.239 m 1.239,2.481 v 1.238 h -1.239 v -1.238 m 1.239,2.48 v 1.239 h -1.239 v -1.239 m 1.239,2.477 v 1.242 h -1.239 v -1.242 m 1.239,2.48 v 1.239 h -1.239 v -1.239 m 1.239,2.481 v 1.238 h -1.239 v -1.238 m 1.239,2.476 v 1.243 h -1.239 v -1.243 m 1.239,2.481 v 1.238 h -1.239 v -1.238 m 1.239,2.48 v 1.239 h -1.239 v -1.239 m 1.239,2.477 v 1.242 h -1.239 v -1.242 m 1.239,2.48 v 1.239 h -1.239 v -1.239 m 1.239,2.481 v 1.238 h -1.239 v -1.238 m 1.239,2.48 v 1.239 h -1.239 v -1.239 m 1.239,2.477 v 1.242 h -1.239 v -1.242 m 1.239,2.48 v 1.239 h -1.239 v -1.239 m 1.239,2.481 v 1.238 h -1.239 v -1.238 m 1.239,2.476 v 1.243 h -1.239 v -1.243 m 1.239,2.481 v 1.238 h -1.239 v -1.238 m 1.239,2.48 v 1.239 h -1.239 v -1.239 m 1.239,2.477 v 1.242 h -1.239 v -1.242"
                 style="fill:#d4d4d4;fill-opacity:1;fill-rule:nonzero;stroke:none"
                 id="path2155" />
              <path
                 d="m 6.863,386.074 h 1.242 v 1.242 H 6.863 m 2.481,-1.242 h 1.238 v 1.242 H 9.344 m 2.48,-1.242 h 1.238 v 1.242 h -1.238 m 2.477,-1.242 h 1.242 v 1.242 h -1.242 m 2.48,-1.242 h 1.239 v 1.242 h -1.239 m 2.481,-1.242 H 20.5 v 1.242 h -1.238 m 2.48,-1.242 h 1.238 v 1.242 h -1.238 m 2.477,-1.242 h 1.242 v 1.242 h -1.242 m 2.48,-1.242 h 1.239 v 1.242 h -1.239 m 2.481,-1.242 h 1.238 v 1.242 H 29.18 m 2.476,-1.242 h 1.242 v 1.242 h -1.242 m 2.481,-1.242 h 1.238 v 1.242 h -1.238 m 2.48,-1.242 h 1.238 v 1.242 h -1.238 m 2.477,-1.242 h 1.242 v 1.242 h -1.242 m 2.48,-1.242 h 1.238 v 1.242 h -1.238 m 2.481,-1.242 h 1.238 v 1.242 h -1.238 m 2.48,-1.242 h 1.238 v 1.242 h -1.238 m 2.477,-1.242 h 1.242 v 1.242 h -1.242 m 2.48,-1.242 h 1.238 v 1.242 h -1.238 m 2.481,-1.242 h 1.238 v 1.242 h -1.238 m 2.476,-1.242 h 1.242 v 1.242 h -1.242 m 2.481,-1.242 h 1.238 v 1.242 H 58.93 m 2.48,-1.242 h 1.238 v 1.242 H 61.41 m 2.477,-1.242 h 1.242 v 1.242 h -1.242 m 2.48,-1.242 h 1.238 v 1.242 h -1.238 m 2.481,-1.242 h 1.238 v 1.242 h -1.238 m 2.48,-1.242 h 1.238 v 1.242 h -1.238 m 2.477,-1.242 h 1.242 v 1.242 h -1.242 m 2.48,-1.242 h 1.238 v 1.242 h -1.238 m 2.481,-1.242 h 1.238 v 1.242 h -1.238 m 2.476,-1.242 h 1.242 v 1.242 h -1.242 m 2.481,-1.242 h 1.238 v 1.242 h -1.238 m 2.48,-1.242 h 1.238 v 1.242 h -1.238 m 2.477,-1.242 h 1.242 v 1.242 H 88.68 m 2.48,-1.242 h 1.242 v 1.242 H 91.16 m 2.481,-1.242 h 1.238 v 1.242 h -1.238 m 2.48,-1.242 h 1.238 v 1.242 h -1.238 m 2.477,-1.242 h 1.242 v 1.242 h -1.242 m 2.48,-1.242 h 1.238 v 1.242 h -1.238 m 2.481,-1.242 h 1.238 v 1.242 h -1.238 m 2.476,-1.242 h 1.242 v 1.242 h -1.242 m 2.481,-1.242 h 1.238 v 1.242 h -1.238 m 2.48,-1.242 h 1.238 v 1.242 h -1.238 m 2.477,-1.242 h 1.242 v 1.242 h -1.242 m 2.48,-1.242 h 1.242 v 1.242 h -1.242 m 2.481,-1.242 h 1.238 v 1.242 h -1.238 m 2.48,-1.242 h 1.238 v 1.242 h -1.238 m 2.477,-1.242 h 1.242 v 1.242 h -1.242 m 2.48,-1.242 h 1.238 v 1.242 h -1.238 m 2.481,-1.242 h 1.238 v 1.242 h -1.238 m 2.476,-1.242 h 1.242 v 1.242 h -1.242 m 2.481,-1.242 h 1.238 v 1.242 h -1.238 m 2.48,-1.242 h 1.238 v 1.242 h -1.238 m 2.477,-1.242 h 1.242 v 1.242 h -1.242 m 2.48,-1.242 h 1.242 v 1.242 h -1.242 m 2.481,-1.242 h 1.238 v 1.242 h -1.238 m 2.48,-1.242 h 1.238 v 1.242 h -1.238 m 2.477,-1.242 h 1.242 v 1.242 h -1.242 m 2.48,-1.242 h 1.238 v 1.242 h -1.238 m 2.481,-1.242 h 1.238 v 1.242 h -1.238 m 2.476,-1.242 h 1.242 v 1.242 h -1.242 m 2.481,-1.242 h 1.238 v 1.242 h -1.238 m 2.48,-1.242 h 1.238 v 1.242 h -1.238 m 2.48,-1.242 h 1.239 v 1.242 h -1.239 m 2.477,-1.242 h 1.242 v 1.242 h -1.242 m 2.481,-1.242 h 1.238 v 1.242 h -1.238 m 2.48,-1.242 h 1.238 v 1.242 H 170.5 m 2.477,-1.242 h 1.242 v 1.242 h -1.242 m 2.48,-1.242 h 1.238 v 1.242 h -1.238 m 2.481,-1.242 h 1.238 v 1.242 h -1.238 m 2.476,-1.242 h 1.242 v 1.242 h -1.242 m 2.481,-1.242 h 1.238 v 1.242 h -1.238 m 2.48,-1.242 h 1.238 v 1.242 h -1.238 m 2.48,-1.242 h 1.239 v 1.242 h -1.239 m 2.477,-1.242 h 1.242 v 1.242 h -1.242 m 2.48,-1.242 h 1.239 v 1.242 h -1.239 m 2.481,-1.242 h 1.238 v 1.242 h -1.238 m 2.477,-1.242 h 1.242 v 1.242 h -1.242 m 2.48,-1.242 h 1.238 v 1.242 h -1.238 m 2.48,-1.242 h 1.239 v 1.242 h -1.239 m 2.477,-1.242 h 1.242 v 1.242 h -1.242 m 2.481,-1.242 h 1.238 v 1.242 h -1.238 m 2.48,-1.242 h 1.238 v 1.242 h -1.238 m 2.48,-1.242 h 1.239 v 1.242 h -1.239 m 2.477,-1.242 h 1.242 v 1.242 h -1.242 m 2.48,-1.242 h 1.239 v 1.242 h -1.239 m 2.481,-1.242 h 1.238 v 1.242 h -1.238 m 2.476,-1.242 h 1.243 v 1.242 h -1.243 m 2.481,-1.242 h 1.238 v 1.242 h -1.238 m 2.48,-1.242 h 1.239 v 1.242 h -1.239 M 230,386.074 h 1.242 v 1.242 H 230 m 2.48,-1.242 h 1.243 v 1.242 h -1.243 m 2.481,-1.242 h 1.238 v 1.242 h -1.238 m 2.48,-1.242 h 1.239 v 1.242 h -1.239 m 2.477,-1.242 h 1.242 v 1.242 h -1.242 m 2.48,-1.242 h 1.239 v 1.242 h -1.239 m 2.481,-1.242 h 1.238 v 1.242 h -1.238 m 2.476,-1.242 h 1.243 v 1.242 h -1.243 m 2.481,-1.242 h 1.238 v 1.242 h -1.238 m 2.48,-1.242 h 1.239 v 1.242 h -1.239 m 2.477,-1.242 h 1.242 v 1.242 h -1.242 m 2.48,-1.242 h 1.243 v 1.242 h -1.243 m 2.481,-1.242 h 1.238 v 1.242 h -1.238 m 2.48,-1.242 h 1.239 v 1.242 h -1.239 m 2.477,-1.242 h 1.242 v 1.242 h -1.242 m 2.48,-1.242 h 1.239 v 1.242 h -1.239 m 2.481,-1.242 h 1.238 v 1.242 h -1.238 m 2.476,-1.242 h 1.243 v 1.242 h -1.243 m 2.481,-1.242 h 1.238 v 1.242 h -1.238 m 2.48,-1.242 h 1.239 v 1.242 h -1.239 m 2.477,-1.242 h 1.242 v 1.242 h -1.242 m 2.48,-1.242 h 1.243 v 1.242 h -1.243 m 2.481,-1.242 h 1.238 v 1.242 h -1.238 m 2.48,-1.242 h 1.239 v 1.242 h -1.239 m 2.477,-1.242 h 1.242 v 1.242 h -1.242 m 2.48,-1.242 h 1.239 v 1.242 h -1.239 m 2.481,-1.242 h 1.238 v 1.242 h -1.238 m 2.476,-1.242 h 1.243 v 1.242 h -1.243 m 2.481,-1.242 h 1.238 v 1.242 h -1.238 m 2.48,-1.242 h 1.239 v 1.242 h -1.239 m 2.481,-1.242 h 1.238 v 1.242 h -1.238 m 2.476,-1.242 h 1.243 v 1.242 h -1.243 m 2.481,-1.242 h 1.238 v 1.242 h -1.238 m 2.48,-1.242 h 1.239 v 1.242 h -1.239 m 2.477,-1.242 h 1.242 v 1.242 h -1.242 m 2.48,-1.242 h 1.239 v 1.242 h -1.239 m 2.481,-1.242 h 1.238 v 1.242 h -1.238 m 2.476,-1.242 h 1.243 v 1.242 h -1.243 m 2.481,-1.242 h 1.238 v 1.242 h -1.238 m 2.48,-1.242 h 1.239 v 1.242 h -1.239 m 2.481,-1.242 h 1.238 v 1.242 h -1.238 m 2.476,-1.242 h 1.243 v 1.242 h -1.243 m 2.481,-1.242 h 1.238 v 1.242 h -1.238 m 2.48,-1.242 h 1.239 v 1.242 h -1.239 m 2.477,-1.242 h 1.242 v 1.242 h -1.242 m 2.48,-1.242 h 1.239 v 1.242 h -1.239 m 2.481,-1.242 h 1.238 v 1.242 h -1.238 m 2.476,-1.242 h 1.243 v 1.242 h -1.243 m 2.481,-1.242 h 1.238 v 1.242 h -1.238 m 2.48,-1.242 h 1.239 v 1.242 h -1.239 m 2.481,-1.242 h 1.238 v 1.242 h -1.238 m 2.476,-1.242 h 1.243 v 1.242 h -1.243 m 2.481,-1.242 h 1.238 v 1.242 h -1.238 m 2.48,-1.242 h 1.239 v 1.242 h -1.239 m 2.477,-1.242 h 1.242 v 1.242 h -1.242 m 2.48,-1.242 h 1.239 v 1.242 h -1.239 m 2.481,-1.242 h 1.238 v 1.242 h -1.238 m 2.476,-1.242 h 1.242 v 1.242 h -1.242 m 2.481,-1.242 h 1.242 v 1.242 h -1.242 m 2.48,-1.242 h 1.239 v 1.242 h -1.239 m 2.481,-1.242 H 380 v 1.242 h -1.238 m 2.476,-1.242 h 1.242 v 1.242 h -1.242 m 2.481,-1.242 h 1.238 v 1.242 h -1.238 m 2.48,-1.242 h 1.239 v 1.242 h -1.239 m 2.477,-1.242 h 1.242 v 1.242 h -1.242 m 2.48,-1.242 h 1.239 v 1.242 h -1.239 m 2.481,-1.242 h 1.238 v 1.242 h -1.238 m 2.476,-1.242 h 1.242 v 1.242 h -1.242 m 2.481,-1.242 h 1.242 v 1.242 h -1.242 m 2.48,-1.242 h 1.238 v 1.242 h -1.238 m 2.481,-1.242 h 1.238 v 1.242 h -1.238 m 2.476,-1.242 h 1.242 v 1.242 h -1.242 m 2.481,-1.242 h 1.238 v 1.242 h -1.238 m 2.48,-1.242 h 1.238 v 1.242 h -1.238 m 2.477,-1.242 h 1.242 v 1.242 h -1.242 m 2.48,-1.242 h 1.239 v 1.242 h -1.239 m 2.481,-1.242 h 1.238 v 1.242 h -1.238 m 2.476,-1.242 h 1.242 v 1.242 h -1.242 m 2.481,-1.242 h 1.242 v 1.242 h -1.242 m 2.48,-1.242 h 1.238 v 1.242 h -1.238 m 2.481,-1.242 h 1.238 v 1.242 h -1.238 m 2.476,-1.242 h 1.242 v 1.242 h -1.242 m 2.481,-1.242 h 1.238 v 1.242 h -1.238 m 2.48,-1.242 h 1.238 v 1.242 h -1.238 m 2.477,-1.242 h 1.242 v 1.242 h -1.242 m 2.48,-1.242 h 1.238 v 1.242 h -1.238 m 2.481,-1.242 h 1.238 v 1.242 h -1.238 m 2.48,-1.242 h 1.238 v 1.242 h -1.238 m 2.477,-1.242 h 1.242 v 1.242 h -1.242 m 2.48,-1.242 h 1.238 v 1.242 h -1.238 m 2.481,-1.242 h 1.238 v 1.242 h -1.238 m 2.476,-1.242 h 1.242 v 1.242 h -1.242 m 2.481,-1.242 h 1.238 v 1.242 h -1.238 m 2.48,-1.242 h 1.238 v 1.242 h -1.238 m 2.477,-1.242 h 1.242 v 1.242 h -1.242 m 2.48,-1.242 h 1.238 v 1.242 h -1.238 m 2.481,-1.242 h 1.238 v 1.242 h -1.238 m 2.48,-1.242 h 1.238 v 1.242 h -1.238 m 2.477,-1.242 h 1.242 v 1.242 h -1.242 m 2.48,-1.242 h 1.238 v 1.242 h -1.238 m 2.481,-1.242 h 1.238 v 1.242 h -1.238 m 2.476,-1.242 h 1.242 v 1.242 h -1.242 m 2.481,-1.242 h 1.238 v 1.242 h -1.238 m 2.48,-1.242 h 1.238 v 1.242 h -1.238 m 2.477,-1.242 h 1.242 v 1.242 h -1.242 m 2.48,-1.242 h 1.242 v 1.242 h -1.242 m 2.481,-1.242 h 1.238 v 1.242 h -1.238 m 2.48,-1.242 h 1.238 v 1.242 h -1.238 m 2.477,-1.242 h 1.242 v 1.242 h -1.242"
                 style="fill:#d4d4d4;fill-opacity:1;fill-rule:nonzero;stroke:none"
                 id="path2157" />
              <path
                 d="M 7.484,51.992 V 53.23 H 6.246 v -1.238 m 1.238,2.477 v 1.242 H 6.246 v -1.242 m 1.238,2.48 v 1.239 H 6.246 v -1.239 m 1.238,2.481 v 1.238 H 6.246 V 59.43 m 1.238,2.476 v 1.242 H 6.246 v -1.242 m 1.238,2.481 v 1.238 H 6.246 v -1.238 m 1.238,2.48 v 1.238 H 6.246 v -1.238 m 1.238,2.481 v 1.238 H 6.246 v -1.238 m 1.238,2.476 v 1.242 H 6.246 v -1.242 m 1.238,2.481 v 1.238 H 6.246 v -1.238 m 1.238,2.48 v 1.238 H 6.246 v -1.238 m 1.238,2.477 v 1.242 H 6.246 v -1.242 m 1.238,2.48 V 82.98 H 6.246 v -1.238 m 1.238,2.481 v 1.238 H 6.246 v -1.238 m 1.238,2.476 v 1.242 H 6.246 v -1.242 m 1.238,2.481 v 1.238 H 6.246 V 89.18 m 1.238,2.48 v 1.238 H 6.246 V 91.66 m 1.238,2.481 v 1.238 H 6.246 v -1.238 m 1.238,2.476 v 1.242 H 6.246 v -1.242 m 1.238,2.481 v 1.238 H 6.246 v -1.238 m 1.238,2.48 v 1.238 H 6.246 v -1.238 m 1.238,2.477 v 1.242 H 6.246 v -1.242 m 1.238,2.48 v 1.238 H 6.246 v -1.238 m 1.238,2.481 v 1.238 H 6.246 v -1.238 m 1.238,2.476 v 1.242 H 6.246 v -1.242 m 1.238,2.481 v 1.238 H 6.246 v -1.238 m 1.238,2.48 v 1.238 H 6.246 v -1.238 m 1.238,2.481 v 1.238 H 6.246 v -1.238 m 1.238,2.476 v 1.242 H 6.246 v -1.242 m 1.238,2.481 v 1.238 H 6.246 v -1.238 m 1.238,2.48 v 1.238 H 6.246 v -1.238 m 1.238,2.477 v 1.242 H 6.246 v -1.242 m 1.238,2.48 v 1.238 H 6.246 v -1.238 m 1.238,2.481 v 1.238 H 6.246 v -1.238 m 1.238,2.476 v 1.242 H 6.246 v -1.242 m 1.238,2.481 v 1.238 H 6.246 v -1.238 m 1.238,2.48 v 1.238 H 6.246 v -1.238 m 1.238,2.481 v 1.238 H 6.246 v -1.238 m 1.238,2.476 v 1.242 H 6.246 v -1.242 m 1.238,2.481 v 1.238 H 6.246 v -1.238 m 1.238,2.48 v 1.238 H 6.246 v -1.238 m 1.238,2.477 v 1.242 H 6.246 v -1.242 m 1.238,2.48 v 1.238 H 6.246 v -1.238 m 1.238,2.481 v 1.238 H 6.246 v -1.238 m 1.238,2.476 v 1.242 H 6.246 v -1.242 m 1.238,2.481 v 1.238 H 6.246 v -1.238 m 1.238,2.48 v 1.238 H 6.246 v -1.238 m 1.238,2.481 v 1.238 H 6.246 v -1.238 m 1.238,2.476 v 1.242 H 6.246 v -1.242 m 1.238,2.481 v 1.238 H 6.246 v -1.238 m 1.238,2.48 v 1.238 H 6.246 v -1.238 m 1.238,2.477 v 1.242 H 6.246 v -1.242 m 1.238,2.48 v 1.238 H 6.246 v -1.238 m 1.238,2.481 v 1.238 H 6.246 v -1.238 m 1.238,2.476 v 1.242 H 6.246 v -1.242 m 1.238,2.481 v 1.238 H 6.246 v -1.238 m 1.238,2.48 v 1.238 H 6.246 v -1.238 m 1.238,2.48 v 1.239 H 6.246 v -1.239 m 1.238,2.477 v 1.242 H 6.246 v -1.242 m 1.238,2.481 v 1.238 H 6.246 v -1.238 m 1.238,2.48 v 1.238 H 6.246 v -1.238 m 1.238,2.477 v 1.242 H 6.246 v -1.242 m 1.238,2.48 v 1.238 H 6.246 v -1.238 m 1.238,2.481 v 1.238 H 6.246 v -1.238 m 1.238,2.476 v 1.242 H 6.246 v -1.242 m 1.238,2.481 v 1.238 H 6.246 v -1.238 m 1.238,2.48 v 1.238 H 6.246 v -1.238 m 1.238,2.48 v 1.239 H 6.246 v -1.239 m 1.238,2.477 v 1.242 H 6.246 v -1.242 m 1.238,2.48 v 1.239 H 6.246 v -1.239 m 1.238,2.481 v 1.238 H 6.246 v -1.238 m 1.238,2.477 v 1.242 H 6.246 v -1.242 m 1.238,2.48 v 1.238 H 6.246 V 230.5 m 1.238,2.48 v 1.239 H 6.246 v -1.239 m 1.238,2.477 v 1.242 H 6.246 v -1.242 m 1.238,2.481 v 1.238 H 6.246 v -1.238 m 1.238,2.48 v 1.238 H 6.246 v -1.238 m 1.238,2.48 v 1.239 H 6.246 v -1.239 m 1.238,2.477 v 1.242 H 6.246 v -1.242 m 1.238,2.48 v 1.239 H 6.246 v -1.239 m 1.238,2.481 v 1.238 H 6.246 v -1.238 m 1.238,2.476 v 1.243 H 6.246 v -1.243 m 1.238,2.481 v 1.238 H 6.246 v -1.238 m 1.238,2.48 v 1.239 H 6.246 v -1.239 m 1.238,2.477 v 1.242 H 6.246 v -1.242 m 1.238,2.48 v 1.239 H 6.246 v -1.239 m 1.238,2.481 v 1.238 H 6.246 v -1.238 m 1.238,2.48 v 1.239 H 6.246 v -1.239 m 1.238,2.477 v 1.242 H 6.246 v -1.242 m 1.238,2.48 v 1.239 H 6.246 v -1.239 m 1.238,2.481 v 1.238 H 6.246 v -1.238 m 1.238,2.476 v 1.243 H 6.246 v -1.243 m 1.238,2.481 v 1.238 H 6.246 v -1.238 m 1.238,2.48 v 1.239 H 6.246 v -1.239 m 1.238,2.477 v 1.242 H 6.246 v -1.242 m 1.238,2.48 v 1.239 H 6.246 v -1.239 m 1.238,2.481 v 1.238 H 6.246 v -1.238 m 1.238,2.48 v 1.239 H 6.246 v -1.239 m 1.238,2.477 v 1.242 H 6.246 v -1.242 m 1.238,2.48 v 1.239 H 6.246 v -1.239 m 1.238,2.481 v 1.238 H 6.246 v -1.238 m 1.238,2.476 v 1.243 H 6.246 v -1.243 m 1.238,2.481 v 1.238 H 6.246 v -1.238 m 1.238,2.48 v 1.239 H 6.246 v -1.239 m 1.238,2.477 v 1.242 H 6.246 v -1.242 m 1.238,2.48 v 1.239 H 6.246 v -1.239 m 1.238,2.481 v 1.238 H 6.246 v -1.238 m 1.238,2.48 v 1.239 H 6.246 v -1.239 m 1.238,2.477 v 1.242 H 6.246 v -1.242 m 1.238,2.48 v 1.239 H 6.246 v -1.239 m 1.238,2.481 v 1.238 H 6.246 v -1.238 m 1.238,2.476 v 1.243 H 6.246 v -1.243 m 1.238,2.481 v 1.238 H 6.246 v -1.238 m 1.238,2.48 v 1.239 H 6.246 v -1.239 m 1.238,2.477 v 1.242 H 6.246 v -1.242 m 1.238,2.48 v 1.239 H 6.246 v -1.239 m 1.238,2.481 v 1.238 H 6.246 v -1.238 m 1.238,2.48 v 1.239 H 6.246 v -1.239 m 1.238,2.477 v 1.242 H 6.246 v -1.242 m 1.238,2.48 v 1.239 H 6.246 v -1.239 m 1.238,2.481 v 1.238 H 6.246 v -1.238 m 1.238,2.476 v 1.243 H 6.246 v -1.243 m 1.238,2.481 v 1.238 H 6.246 v -1.238 m 1.238,2.48 v 1.239 H 6.246 v -1.239 m 1.238,2.477 v 1.242 H 6.246 v -1.242 m 1.238,2.48 v 1.239 H 6.246 v -1.239 m 1.238,2.481 v 1.238 H 6.246 v -1.238 m 1.238,2.48 v 1.239 H 6.246 v -1.239 m 1.238,2.477 v 1.242 H 6.246 v -1.242 m 1.238,2.48 v 1.239 H 6.246 v -1.239 m 1.238,2.481 v 1.238 H 6.246 v -1.238 m 1.238,2.476 v 1.243 H 6.246 v -1.243 m 1.238,2.481 v 1.238 H 6.246 v -1.238 m 1.238,2.48 v 1.239 H 6.246 v -1.239 m 1.238,2.477 v 1.242 H 6.246 v -1.242"
                 style="fill:#d4d4d4;fill-opacity:1;fill-rule:nonzero;stroke:none"
                 id="path2159" />
              <g
                 id="g2161">
                <path
                   d="m 6.863,51.992 h 30.992 v 8.055 l -5.207,4.34 H 6.863 Z"
                   style="fill:#eeeeee;fill-opacity:1;fill-rule:nonzero;stroke:#d4d4d4;stroke-width:0.634578;stroke-linecap:butt;stroke-linejoin:miter;stroke-miterlimit:10;stroke-dasharray:none;stroke-opacity:1"
                   id="path2163" />
              </g>
            </g>
          </g>
        </g>
      </g>
      <text
         xml:space="preserve"
         transform="matrix(1,0,0,0.99999707,12.101551,62.975587)"
         style="font-variant:normal;font-weight:normal;font-size:9.91157px;font-family:'DejaVu Sans';-inkscape-font-specification:DejaVuSans;writing-mode:lr-tb;fill:#333333;fill-opacity:1;fill-rule:nonzero;stroke:none"
         id="text2171"><tspan
           x="0 2.7537515 8.8178129 14.881874"
           y="0"
           id="tspan2165">loop</tspan><tspan
           x="152.78506 156.65193 160.1413 166.20537 170.28033 173.43094 179.49915 185.57288 191.02231 197.30415 200.45476 204.29189 209.74132 215.80537 222.08722 225.97345 231.87315 237.73878 241.62502 244.77562 247.92622 254.21774 260.28595 266.56778 272.01721 278.29907 287.92441 293.99814 298.07312 303.81293 311.41528 317.48901 321.37524 327.44897 332.97101 335.72476 340.85892 344.74515 348.612 351.7626 354.51636"
           y="0.17169416"
           id="tspan2167">[for each (context, benchmarkDataList) in</tspan><tspan
           x="204.64819 210.93971 217.03766 223.3195 228.7392 235.02104 244.6761 250.74985 254.82481 260.53488 268.16699 274.24072 278.12695 284.17096 292.7226 298.79633 305.08786"
           y="11.938482"
           id="tspan2169">benchmarkDataMap]</tspan></text>
      <g
         id="g2173">
        <g
           id="g2175">
          <g
             id="g2177"
             clip-path="url(#clipPath2181)">
            <g
               id="g2183">
              <g
                 id="g2185">
                <path
                   d="m 28.25,392.896 h 156.812 v 35.949 H 28.25 Z"
                   style="fill:#666666;fill-opacity:1;fill-rule:nonzero;stroke:#999999;stroke-width:0.634578;stroke-linecap:butt;stroke-linejoin:miter;stroke-miterlimit:10;stroke-dasharray:none;stroke-opacity:1"
                   id="path2187" />
              </g>
            </g>
          </g>
        </g>
      </g>
      <text
         xml:space="preserve"
         transform="matrix(1,0,0,0.99999707,34.627846,408.83564)"
         style="font-variant:normal;font-weight:normal;font-size:9.91157px;font-family:'DejaVu Sans';-inkscape-font-specification:DejaVuSans;writing-mode:lr-tb;fill:#ffffff;fill-opacity:1;fill-rule:nonzero;stroke:none"
         id="text2193"><tspan
           x="0 7.6804986 13.778438 20.060282 26.128487 30.203457 36.277199 40.163425 46.261364 49.411964 56.181915 62.279854 68.561699 74.011124 80.263237 89.918304 95.992043 100.06702 105.80682 108.92769 115.36847 121.46641 126.63029 132.91214 135.63615 139.52238"
           y="0"
           id="tspan2189">Generate Benchmark Results</tspan><tspan
           x="26.383698 30.250565 37.171242 43.235302 49.517147 53.373638 59.293167 65.158806 69.045029 72.195633 80.500443 83.621307 92.172943 98.270882 102.1571 106.23208 108.98583 114.40553"
           y="11.778226"
           id="tspan2191">(Context + Metric)</tspan></text>
      <text
         xml:space="preserve"
         transform="matrix(1,0,0,0.99999707,180.72827,149.13155)"
         style="font-variant:normal;font-weight:normal;font-size:9.91157px;font-family:'DejaVu Sans';-inkscape-font-specification:DejaVuSans;writing-mode:lr-tb;fill:#333333;fill-opacity:1;fill-rule:nonzero;stroke:none"
         id="text2197"><tspan
           x="0 5.1638894 11.261827 15.148054 21.439577 25.296068 29.37104 35.444782 39.331005 45.428944 51.690735 57.55637 61.423237 66.587128 70.473351 74.548325 80.592331 84.478554 90.576492 96.868019 102.73366"
           y="0"
           id="tspan2195">setStrategy(strategy)</tspan></text>
      <g
         id="g2199">
        <g
           id="g2201">
          <g
             id="g2203"
             clip-path="url(#clipPath2207)">
            <g
               id="g2209">
              <g
                 id="g2211">
                <path
                   d="M 109.754,156.743 H 357.996"
                   style="fill:none;stroke:#333333;stroke-width:0.634578;stroke-linecap:butt;stroke-linejoin:miter;stroke-miterlimit:10;stroke-dasharray:none;stroke-opacity:1"
                   id="path2213" />
              </g>
            </g>
          </g>
        </g>
      </g>
    </g>
    <g
       id="g2215">
      <g
         id="g2217"
         clip-path="url(#clipPath2221)">
        <g
           id="g2223">
          <g
             id="g2225">
            <g
               id="g2227"
               clip-path="url(#clipPath2231)">
              <g
                 id="g2233">
                <g
                   id="g2235">
                  <path
                     d="m 352.48,153.641 6.817,3.102 -6.199,3.097 z"
                     style="fill:#333333;fill-opacity:1;fill-rule:nonzero;stroke:#333333;stroke-width:0.634578;stroke-linecap:butt;stroke-linejoin:miter;stroke-miterlimit:10;stroke-dasharray:none;stroke-opacity:1"
                     id="path2237" />
                </g>
              </g>
            </g>
          </g>
        </g>
      </g>
    </g>
    <g
       id="g2239">
      <g
         id="g2241">
        <g
           id="g2243">
          <g
             id="g2245"
             clip-path="url(#clipPath2249)">
            <g
               id="g2251">
              <text
                 xml:space="preserve"
                 transform="matrix(1,0,0,0.99999707,148.23226,217.92355)"
                 style="font-variant:normal;font-weight:normal;font-size:9.91157px;font-family:'DejaVu Sans';-inkscape-font-specification:DejaVuSans;writing-mode:lr-tb;fill:#333333;fill-opacity:1;fill-rule:nonzero;stroke:none"
                 id="text2255"><tspan
                   x="0 6.2915239 12.389462 16.275688 23.878056 29.951797 33.838024 39.911762 43.778629"
                   y="0"
                   id="tspan2253">getData()</tspan></text>
              <g
                 id="g2257">
                <path
                   d="M 109.754,225.544 H 234.031"
                   style="fill:none;stroke:#333333;stroke-width:0.634578;stroke-linecap:butt;stroke-linejoin:miter;stroke-miterlimit:10;stroke-dasharray:none;stroke-opacity:1"
                   id="path2259" />
              </g>
            </g>
          </g>
        </g>
      </g>
    </g>
    <g
       id="g2261">
      <g
         id="g2263"
         clip-path="url(#clipPath2267)">
        <g
           id="g2269">
          <g
             id="g2271">
            <g
               id="g2273"
               clip-path="url(#clipPath2277)">
              <g
                 id="g2279">
                <g
                   id="g2281">
                  <path
                     d="m 228.516,222.442 6.816,3.102 -6.199,3.097 z"
                     style="fill:#333333;fill-opacity:1;fill-rule:nonzero;stroke:#333333;stroke-width:0.634578;stroke-linecap:butt;stroke-linejoin:miter;stroke-miterlimit:10;stroke-dasharray:none;stroke-opacity:1"
                     id="path2283" />
                </g>
              </g>
            </g>
          </g>
        </g>
      </g>
    </g>
    <g
       id="g2285">
      <g
         id="g2287">
        <g
           id="g2289">
          <g
             id="g2291"
             clip-path="url(#clipPath2295)">
            <g
               id="g2297">
              <text
                 xml:space="preserve"
                 transform="matrix(1,0,0,0.99999707,162.74615,247.68381)"
                 style="font-variant:normal;font-weight:normal;font-size:9.91157px;font-family:'DejaVu Sans';-inkscape-font-specification:DejaVuSans;writing-mode:lr-tb;fill:#333333;fill-opacity:1;fill-rule:nonzero;stroke:none"
                 id="text2301"><tspan
                   x="0 6.2915239 12.365264 16.25149"
                   y="0"
                   id="tspan2299">data</tspan></text>
              <path
                 d="m 235.891,255.758 h -1.86 v -0.93 h 1.86 m -3.719,0.93 h -1.86 v -0.93 h 1.86 m -3.719,0.93 h -1.859 v -0.93 h 1.859 m -3.719,0.93 h -1.859 v -0.93 h 1.859 m -3.718,0.93 h -1.86 v -0.93 h 1.86 m -3.719,0.93 h -1.859 v -0.93 h 1.859 m -3.719,0.93 h -1.859 v -0.93 h 1.859 m -3.719,0.93 h -1.863 v -0.93 h 1.863 m -3.722,0.93 h -1.86 v -0.93 h 1.86 m -3.719,0.93 h -1.859 v -0.93 h 1.859 m -3.719,0.93 h -1.859 v -0.93 h 1.859 m -3.719,0.93 h -1.859 v -0.93 h 1.859 m -3.718,0.93 h -1.86 v -0.93 h 1.86 m -3.719,0.93 h -1.859 v -0.93 h 1.859 m -3.719,0.93 h -1.859 v -0.93 h 1.859 m -3.719,0.93 h -1.859 v -0.93 h 1.859 m -3.718,0.93 h -1.86 v -0.93 h 1.86 m -3.719,0.93 h -1.859 v -0.93 h 1.859 m -3.719,0.93 h -1.859 v -0.93 h 1.859 m -3.719,0.93 h -1.859 v -0.93 h 1.859 m -3.718,0.93 h -1.86 v -0.93 h 1.86 m -3.719,0.93 h -1.859 v -0.93 h 1.859 m -3.719,0.93 h -1.859 v -0.93 h 1.859 m -3.719,0.93 h -1.859 v -0.93 h 1.859 m -3.718,0.93 h -1.86 v -0.93 h 1.86 m -3.719,0.93 h -1.859 v -0.93 h 1.859 m -3.719,0.93 h -1.863 v -0.93 h 1.863 m -3.722,0.93 h -1.86 v -0.93 h 1.86 m -3.719,0.93 h -1.86 v -0.93 h 1.86 m -3.719,0.93 h -1.859 v -0.93 h 1.859 m -3.719,0.93 h -1.859 v -0.93 h 1.859 m -3.718,0.93 h -1.86 v -0.93 h 1.86 m -3.719,0.93 h -1.86 v -0.93 h 1.86 m -3.719,0.93 h -1.551 v -0.93 h 1.551"
                 style="fill:#333333;fill-opacity:1;fill-rule:nonzero;stroke:none"
                 id="path2303" />
            </g>
          </g>
        </g>
      </g>
      <g
         id="g2305">
        <g
           id="g2307">
          <g
             id="g2309"
             clip-path="url(#clipPath2313)">
            <g
               id="g2315">
              <g
                 id="g2317">
                <g
                   id="g2319">
                  <g
                     id="g2321"
                     clip-path="url(#clipPath2325)">
                    <g
                       id="g2327" />
                    <g
                       id="g2329">
                      <g
                         id="g2331"
                         clip-path="url(#clipPath2335)">
                        <g
                           id="g2337">
                          <g
                             id="g2339">
                            <g
                               id="g2341"
                               clip-path="url(#clipPath2345)">
                              <g
                                 id="g2347">
                                <g
                                   id="g2349"
                                   transform="scale(-1)">
                                <path
                                   d="m -117.133,-258.391 6.821,3.097 -6.2,3.098 z"
                                   style="fill:#333333;fill-opacity:1;fill-rule:nonzero;stroke:#333333;stroke-width:0.634578;stroke-linecap:butt;stroke-linejoin:miter;stroke-miterlimit:10;stroke-dasharray:none;stroke-opacity:1"
                                   id="path2351" />
                                </g>
                              </g>
                            </g>
                          </g>
                        </g>
                      </g>
                    </g>
                  </g>
                </g>
              </g>
            </g>
          </g>
        </g>
      </g>
      <g
         id="g2353">
        <g
           id="g2355">
          <g
             id="g2357"
             clip-path="url(#clipPath2361)">
            <g
               id="g2363">
              <text
                 xml:space="preserve"
                 transform="matrix(1,0,0,0.99999707,208.18791,277.43263)"
                 style="font-variant:normal;font-weight:normal;font-size:9.91157px;font-family:'DejaVu Sans';-inkscape-font-specification:DejaVuSans;writing-mode:lr-tb;fill:#333333;fill-opacity:1;fill-rule:nonzero;stroke:none"
                 id="text2367"><tspan
                   x="0 5.1638894 11.22795 15.302922 19.189148 23.056015 29.317804 35.391544 39.277771 45.351513"
                   y="0"
                   id="tspan2365">sort(data)</tspan></text>
              <g
                 id="g2369">
                <path
                   d="M 109.754,285.044 H 355.516"
                   style="fill:none;stroke:#333333;stroke-width:0.634578;stroke-linecap:butt;stroke-linejoin:miter;stroke-miterlimit:10;stroke-dasharray:none;stroke-opacity:1"
                   id="path2371" />
              </g>
            </g>
          </g>
        </g>
      </g>
    </g>
    <g
       id="g2373">
      <g
         id="g2375"
         clip-path="url(#clipPath2379)">
        <g
           id="g2381">
          <g
             id="g2383">
            <g
               id="g2385"
               clip-path="url(#clipPath2389)">
              <g
                 id="g2391">
                <g
                   id="g2393">
                  <path
                     d="m 350,281.946 6.816,3.098 -6.195,3.101 z"
                     style="fill:#333333;fill-opacity:1;fill-rule:nonzero;stroke:#333333;stroke-width:0.634578;stroke-linecap:butt;stroke-linejoin:miter;stroke-miterlimit:10;stroke-dasharray:none;stroke-opacity:1"
                     id="path2395" />
                </g>
              </g>
            </g>
          </g>
        </g>
      </g>
    </g>
    <g
       id="g2397">
      <g
         id="g2399">
        <g
           id="g2401">
          <g
             id="g2403"
             clip-path="url(#clipPath2407)">
            <g
               id="g2409">
              <text
                 xml:space="preserve"
                 transform="matrix(1,0,0,0.99999707,399.71866,307.18145)"
                 style="font-variant:normal;font-weight:normal;font-size:9.91157px;font-family:'DejaVu Sans';-inkscape-font-specification:DejaVuSans;writing-mode:lr-tb;fill:#333333;fill-opacity:1;fill-rule:nonzero;stroke:none"
                 id="text2413"><tspan
                   x="0 5.1638894 11.22795 15.302922 19.189148 23.056015 29.317804 35.391544 39.277771 45.351513"
                   y="0"
                   id="tspan2411">sort(data)</tspan></text>
              <g
                 id="g2415">
                <path
                   d="M 366.672,314.798 H 481.961"
                   style="fill:none;stroke:#333333;stroke-width:0.634578;stroke-linecap:butt;stroke-linejoin:miter;stroke-miterlimit:10;stroke-dasharray:none;stroke-opacity:1"
                   id="path2417" />
              </g>
            </g>
          </g>
        </g>
      </g>
    </g>
    <g
       id="g2419">
      <g
         id="g2421"
         clip-path="url(#clipPath2425)">
        <g
           id="g2427">
          <g
             id="g2429">
            <g
               id="g2431"
               clip-path="url(#clipPath2435)">
              <g
                 id="g2437">
                <g
                   id="g2439">
                  <path
                     d="m 476.445,311.696 6.817,3.102 -6.2,3.097 z"
                     style="fill:#333333;fill-opacity:1;fill-rule:nonzero;stroke:#333333;stroke-width:0.634578;stroke-linecap:butt;stroke-linejoin:miter;stroke-miterlimit:10;stroke-dasharray:none;stroke-opacity:1"
                     id="path2441" />
                </g>
              </g>
            </g>
          </g>
        </g>
      </g>
    </g>
    <g
       id="g2443">
      <g
         id="g2445">
        <g
           id="g2447">
          <g
             id="g2449"
             clip-path="url(#clipPath2453)">
            <g
               id="g2455">
              <text
                 xml:space="preserve"
                 transform="matrix(1,0,0,0.99999707,408.99015,336.93027)"
                 style="font-variant:normal;font-weight:normal;font-size:9.91157px;font-family:'DejaVu Sans';-inkscape-font-specification:DejaVuSans;writing-mode:lr-tb;fill:#333333;fill-opacity:1;fill-rule:nonzero;stroke:none"
                 id="text2459"><tspan
                   x="0 9.6550694 15.753008 19.639235 23.684471 26.438223"
                   y="0"
                   id="tspan2457">metric</tspan></text>
              <path
                 d="m 481.34,345.012 h -1.86 v -0.93 h 1.86 m -3.719,0.93 h -1.859 v -0.93 h 1.859 m -3.719,0.93 h -1.859 v -0.93 h 1.859 m -3.718,0.93 h -1.86 v -0.93 h 1.86 m -3.719,0.93 h -1.86 v -0.93 h 1.86 m -3.719,0.93 h -1.859 v -0.93 h 1.859 m -3.719,0.93 h -1.859 v -0.93 h 1.859 m -3.718,0.93 h -1.86 v -0.93 h 1.86 m -3.719,0.93 h -1.86 v -0.93 h 1.86 m -3.719,0.93 h -1.859 v -0.93 h 1.859 m -3.719,0.93 h -1.859 v -0.93 h 1.859 m -3.718,0.93 h -1.86 v -0.93 h 1.86 m -3.719,0.93 h -1.86 v -0.93 h 1.86 m -3.719,0.93 h -1.859 v -0.93 h 1.859 m -3.719,0.93 h -1.859 v -0.93 h 1.859 m -3.718,0.93 h -1.86 v -0.93 h 1.86 m -3.719,0.93 h -1.863 v -0.93 h 1.863 m -3.723,0.93 h -1.859 v -0.93 h 1.859 m -3.719,0.93 h -1.859 v -0.93 h 1.859 m -3.718,0.93 h -1.86 v -0.93 h 1.86 m -3.719,0.93 h -1.859 v -0.93 h 1.859 m -3.719,0.93 h -1.859 v -0.93 h 1.859 m -3.719,0.93 h -1.859 v -0.93 h 1.859 m -3.718,0.93 h -1.86 v -0.93 h 1.86 m -3.719,0.93 h -1.859 v -0.93 h 1.859 m -3.719,0.93 h -1.859 v -0.93 h 1.859 m -3.719,0.93 h -1.859 v -0.93 h 1.859 m -3.718,0.93 h -1.86 v -0.93 h 1.86 m -3.719,0.93 h -1.859 v -0.93 h 1.859 m -3.719,0.93 h -1.859 v -0.93 h 1.859 m -3.719,0.93 h -1.242 v -0.93 h 1.242"
                 style="fill:#333333;fill-opacity:1;fill-rule:nonzero;stroke:none"
                 id="path2461" />
            </g>
          </g>
        </g>
      </g>
      <g
         id="g2463">
        <g
           id="g2465">
          <g
             id="g2467"
             clip-path="url(#clipPath2471)">
            <g
               id="g2473">
              <g
                 id="g2475">
                <g
                   id="g2477">
                  <g
                     id="g2479"
                     clip-path="url(#clipPath2483)">
                    <g
                       id="g2485" />
                    <g
                       id="g2487">
                      <g
                         id="g2489"
                         clip-path="url(#clipPath2493)">
                        <g
                           id="g2495">
                          <g
                             id="g2497">
                            <g
                               id="g2499"
                               clip-path="url(#clipPath2503)">
                              <g
                                 id="g2505">
                                <g
                                   id="g2507"
                                   transform="scale(-1)">
                                <path
                                   d="m -374.051,-347.649 6.821,3.101 -6.2,3.098 z"
                                   style="fill:#333333;fill-opacity:1;fill-rule:nonzero;stroke:#333333;stroke-width:0.634578;stroke-linecap:butt;stroke-linejoin:miter;stroke-miterlimit:10;stroke-dasharray:none;stroke-opacity:1"
                                   id="path2509" />
                                </g>
                              </g>
                            </g>
                          </g>
                        </g>
                      </g>
                    </g>
                  </g>
                </g>
              </g>
            </g>
          </g>
        </g>
      </g>
      <g
         id="g2511">
        <g
           id="g2513">
          <g
             id="g2515"
             clip-path="url(#clipPath2519)">
            <g
               id="g2521">
              <text
                 xml:space="preserve"
                 transform="matrix(1,0,0,0.99999707,218.69561,366.69053)"
                 style="font-variant:normal;font-weight:normal;font-size:9.91157px;font-family:'DejaVu Sans';-inkscape-font-specification:DejaVuSans;writing-mode:lr-tb;fill:#333333;fill-opacity:1;fill-rule:nonzero;stroke:none"
                 id="text2525"><tspan
                   x="0 9.6550694 15.753008 19.639235 23.684471 26.438223"
                   y="0"
                   id="tspan2523">metric</tspan></text>
              <path
                 d="m 357.375,374.766 h -1.859 v -0.93 h 1.859 m -3.719,0.93 h -1.859 v -0.93 h 1.859 m -3.718,0.93 h -1.86 v -0.93 h 1.86 m -3.719,0.93 h -1.86 v -0.93 h 1.86 m -3.719,0.93 h -1.859 v -0.93 h 1.859 m -3.719,0.93 h -1.859 v -0.93 h 1.859 m -3.719,0.93 h -1.859 v -0.93 h 1.859 m -3.718,0.93 h -1.86 v -0.93 h 1.86 m -3.719,0.93 h -1.859 v -0.93 h 1.859 m -3.719,0.93 h -1.859 v -0.93 h 1.859 m -3.718,0.93 h -1.86 v -0.93 h 1.86 m -3.719,0.93 h -1.86 v -0.93 h 1.86 m -3.719,0.93 h -1.859 v -0.93 h 1.859 m -3.719,0.93 h -1.859 v -0.93 h 1.859 m -3.719,0.93 h -1.859 v -0.93 h 1.859 m -3.722,0.93 h -1.86 v -0.93 h 1.86 m -3.719,0.93 h -1.859 v -0.93 h 1.859 m -3.719,0.93 h -1.859 v -0.93 h 1.859 m -3.718,0.93 h -1.86 v -0.93 h 1.86 m -3.719,0.93 h -1.86 v -0.93 h 1.86 m -3.719,0.93 h -1.859 v -0.93 h 1.859 m -3.719,0.93 h -1.859 v -0.93 h 1.859 m -3.718,0.93 h -1.86 v -0.93 h 1.86 m -3.719,0.93 h -1.86 v -0.93 h 1.86 m -3.719,0.93 h -1.859 v -0.93 h 1.859 m -3.719,0.93 h -1.859 v -0.93 h 1.859 m -3.718,0.93 h -1.86 v -0.93 h 1.86 m -3.719,0.93 h -1.86 v -0.93 h 1.86 m -3.719,0.93 h -1.859 v -0.93 h 1.859 m -3.719,0.93 h -1.859 v -0.93 h 1.859 m -3.718,0.93 h -1.86 v -0.93 h 1.86 m -3.719,0.93 h -1.86 v -0.93 h 1.86 m -3.719,0.93 h -1.859 v -0.93 h 1.859 m -3.719,0.93 h -1.863 v -0.93 h 1.863 m -3.722,0.93 h -1.86 v -0.93 h 1.86 m -3.719,0.93 h -1.859 v -0.93 h 1.859 m -3.719,0.93 h -1.859 v -0.93 h 1.859 m -3.719,0.93 h -1.859 v -0.93 h 1.859 m -3.718,0.93 h -1.86 v -0.93 h 1.86 m -3.719,0.93 h -1.859 v -0.93 h 1.859 m -3.719,0.93 h -1.859 v -0.93 h 1.859 m -3.719,0.93 h -1.859 v -0.93 h 1.859 m -3.718,0.93 h -1.86 v -0.93 h 1.86 m -3.719,0.93 h -1.859 v -0.93 h 1.859 m -3.719,0.93 h -1.859 v -0.93 h 1.859 m -3.719,0.93 h -1.859 v -0.93 h 1.859 m -3.718,0.93 h -1.86 v -0.93 h 1.86 m -3.719,0.93 h -1.859 v -0.93 h 1.859 m -3.719,0.93 h -1.859 v -0.93 h 1.859 m -3.719,0.93 h -1.859 v -0.93 h 1.859 m -3.718,0.93 h -1.86 v -0.93 h 1.86 m -3.719,0.93 h -1.859 v -0.93 h 1.859 m -3.719,0.93 h -1.863 v -0.93 h 1.863 m -3.722,0.93 h -1.86 v -0.93 h 1.86 m -3.719,0.93 h -1.86 v -0.93 h 1.86 m -3.719,0.93 h -1.859 v -0.93 h 1.859 m -3.719,0.93 h -1.859 v -0.93 h 1.859 m -3.718,0.93 h -1.86 v -0.93 h 1.86 m -3.719,0.93 h -1.86 v -0.93 h 1.86 m -3.719,0.93 h -1.859 v -0.93 h 1.859 m -3.719,0.93 h -1.859 v -0.93 h 1.859 m -3.718,0.93 h -1.86 v -0.93 h 1.86 m -3.719,0.93 h -1.86 v -0.93 h 1.86 m -3.719,0.93 h -1.859 v -0.93 h 1.859 m -3.719,0.93 h -1.859 v -0.93 h 1.859 m -3.718,0.93 h -1.86 v -0.93 h 1.86 m -3.719,0.93 h -0.313 v -0.93 h 0.313"
                 style="fill:#333333;fill-opacity:1;fill-rule:nonzero;stroke:none"
                 id="path2527" />
            </g>
          </g>
        </g>
      </g>
      <g
         id="g2529">
        <g
           id="g2531">
          <g
             id="g2533"
             clip-path="url(#clipPath2537)">
            <g
               id="g2539">
              <g
                 id="g2541">
                <g
                   id="g2543">
                  <g
                     id="g2545"
                     clip-path="url(#clipPath2549)">
                    <g
                       id="g2551" />
                    <g
                       id="g2553">
                      <g
                         id="g2555"
                         clip-path="url(#clipPath2559)">
                        <g
                           id="g2561">
                          <g
                             id="g2563">
                            <g
                               id="g2565"
                               clip-path="url(#clipPath2569)">
                              <g
                                 id="g2571">
                                <g
                                   id="g2573"
                                   transform="scale(-1)">
                                <path
                                   d="m -117.133,-377.4 6.821,3.098 -6.2,3.102 z"
                                   style="fill:#333333;fill-opacity:1;fill-rule:nonzero;stroke:#333333;stroke-width:0.634578;stroke-linecap:butt;stroke-linejoin:miter;stroke-miterlimit:10;stroke-dasharray:none;stroke-opacity:1"
                                   id="path2575" />
                                </g>
                              </g>
                            </g>
                          </g>
                        </g>
                      </g>
                    </g>
                  </g>
                </g>
              </g>
            </g>
          </g>
        </g>
      </g>
    </g>
  </g>
</svg>
