<?xml version="1.0" encoding="UTF-8" standalone="no"?>
<!-- Created with Inkscape (http://www.inkscape.org/) -->

<svg
   version="1.1"
   id="svg34418"
   width="757.25879"
   height="397.69998"
   viewBox="0 0 757.25879 397.69998"
   xmlns="http://www.w3.org/2000/svg"
   xmlns:svg="http://www.w3.org/2000/svg">
  <defs
     id="defs34422">
    <clipPath
       clipPathUnits="userSpaceOnUse"
       id="clipPath34438">
      <path
         d="M 0,0 H 568 V 299 H 0 Z"
         id="path34436" />
    </clipPath>
    <clipPath
       clipPathUnits="userSpaceOnUse"
       id="clipPath34450">
      <path
         d="M 0,1.5 H 568 V 299 H 0 Z"
         id="path34448" />
    </clipPath>
    <clipPath
       clipPathUnits="userSpaceOnUse"
       id="clipPath34460">
      <path
         d="M 0,0 H 568 V 299 H 0 Z"
         id="path34458" />
    </clipPath>
    <clipPath
       clipPathUnits="userSpaceOnUse"
       id="clipPath34484">
      <path
         d="M 0,0 H 568 V 299 H 0 Z"
         id="path34482" />
    </clipPath>
    <clipPath
       clipPathUnits="userSpaceOnUse"
       id="clipPath34508">
      <path
         d="M 0,0 H 568 V 299 H 0 Z"
         id="path34506" />
    </clipPath>
    <clipPath
       clipPathUnits="userSpaceOnUse"
       id="clipPath34540">
      <path
         d="M 0,0 H 568 V 299 H 0 Z"
         id="path34538" />
    </clipPath>
    <clipPath
       clipPathUnits="userSpaceOnUse"
       id="clipPath34564">
      <path
         d="M 0,0 H 568 V 299 H 0 Z"
         id="path34562" />
    </clipPath>
    <clipPath
       clipPathUnits="userSpaceOnUse"
       id="clipPath34588">
      <path
         d="M 0,0 H 568 V 299 H 0 Z"
         id="path34586" />
    </clipPath>
    <clipPath
       clipPathUnits="userSpaceOnUse"
       id="clipPath34610">
      <path
         d="M 0,3 H 568 V 299 H 0 Z"
         id="path34608" />
    </clipPath>
    <clipPath
       clipPathUnits="userSpaceOnUse"
       id="clipPath34620">
      <path
         d="M 0,0 H 568 V 299 H 0 Z"
         id="path34618" />
    </clipPath>
    <clipPath
       clipPathUnits="userSpaceOnUse"
       id="clipPath34640">
      <path
         d="M 0,1.5 H 568 V 299 H 0 Z"
         id="path34638" />
    </clipPath>
    <clipPath
       clipPathUnits="userSpaceOnUse"
       id="clipPath34650">
      <path
         d="M 0,0 H 568 V 299 H 0 Z"
         id="path34648" />
    </clipPath>
    <clipPath
       clipPathUnits="userSpaceOnUse"
       id="clipPath34682">
      <path
         d="M 0,0 H 568 V 299 H 0 Z"
         id="path34680" />
    </clipPath>
    <clipPath
       clipPathUnits="userSpaceOnUse"
       id="clipPath34696">
      <path
         d="m 375.543,69.844 h 4.359 v 4.359 h -4.359 z"
         id="path34694" />
    </clipPath>
    <clipPath
       clipPathUnits="userSpaceOnUse"
       id="clipPath34706">
      <path
         d="M 0,0 H 568 V 299 H 0 Z"
         id="path34704" />
    </clipPath>
    <clipPath
       clipPathUnits="userSpaceOnUse"
       id="clipPath34720">
      <path
         d="M 0,1.5 H 568 V 299 H 0 Z"
         id="path34718" />
    </clipPath>
    <clipPath
       clipPathUnits="userSpaceOnUse"
       id="clipPath34730">
      <path
         d="M 0,0 H 568 V 299 H 0 Z"
         id="path34728" />
    </clipPath>
    <clipPath
       clipPathUnits="userSpaceOnUse"
       id="clipPath34750">
      <path
         d="M 0,0 H 568 V 299 H 0 Z"
         id="path34748" />
    </clipPath>
    <clipPath
       clipPathUnits="userSpaceOnUse"
       id="clipPath34760">
      <path
         d="M 0,1.5 H 568 V 299 H 0 Z"
         id="path34758" />
    </clipPath>
    <clipPath
       clipPathUnits="userSpaceOnUse"
       id="clipPath34770">
      <path
         d="M 0,0 H 568 V 299 H 0 Z"
         id="path34768" />
    </clipPath>
    <clipPath
       clipPathUnits="userSpaceOnUse"
       id="clipPath34780">
      <path
         d="m 43.391,86.562 h 4.363 v 4.363 h -4.363 z"
         id="path34778" />
    </clipPath>
    <clipPath
       clipPathUnits="userSpaceOnUse"
       id="clipPath34790">
      <path
         d="M 0,0 H 568 V 299 H 0 Z"
         id="path34788" />
    </clipPath>
    <clipPath
       clipPathUnits="userSpaceOnUse"
       id="clipPath34804">
      <path
         d="M 0,1.5 H 568 V 299 H 0 Z"
         id="path34802" />
    </clipPath>
    <clipPath
       clipPathUnits="userSpaceOnUse"
       id="clipPath34814">
      <path
         d="M 0,0 H 568 V 299 H 0 Z"
         id="path34812" />
    </clipPath>
    <clipPath
       clipPathUnits="userSpaceOnUse"
       id="clipPath34832">
      <path
         d="m 174.695,104.738 h 4.363 v 4.363 h -4.363 z"
         id="path34830" />
    </clipPath>
    <clipPath
       clipPathUnits="userSpaceOnUse"
       id="clipPath34842">
      <path
         d="M 0,0 H 568 V 299 H 0 Z"
         id="path34840" />
    </clipPath>
    <clipPath
       clipPathUnits="userSpaceOnUse"
       id="clipPath34856">
      <path
         d="M 0,1.5 H 568 V 299 H 0 Z"
         id="path34854" />
    </clipPath>
    <clipPath
       clipPathUnits="userSpaceOnUse"
       id="clipPath34866">
      <path
         d="M 0,0 H 568 V 299 H 0 Z"
         id="path34864" />
    </clipPath>
    <clipPath
       clipPathUnits="userSpaceOnUse"
       id="clipPath34884">
      <path
         d="m 292.113,122.188 h 4.363 v 4.363 h -4.363 z"
         id="path34882" />
    </clipPath>
    <clipPath
       clipPathUnits="userSpaceOnUse"
       id="clipPath34894">
      <path
         d="M 0,0 H 568 V 299 H 0 Z"
         id="path34892" />
    </clipPath>
    <clipPath
       clipPathUnits="userSpaceOnUse"
       id="clipPath34908">
      <path
         d="M 0,1.5 H 568 V 299 H 0 Z"
         id="path34906" />
    </clipPath>
    <clipPath
       clipPathUnits="userSpaceOnUse"
       id="clipPath34918">
      <path
         d="M 0,0 H 568 V 299 H 0 Z"
         id="path34916" />
    </clipPath>
    <clipPath
       clipPathUnits="userSpaceOnUse"
       id="clipPath34938">
      <path
         d="M 0,0 H 568 V 299 H 0 Z"
         id="path34936" />
    </clipPath>
    <clipPath
       clipPathUnits="userSpaceOnUse"
       id="clipPath34948">
      <path
         d="M 0,1.5 H 568 V 299 H 0 Z"
         id="path34946" />
    </clipPath>
    <clipPath
       clipPathUnits="userSpaceOnUse"
       id="clipPath34958">
      <path
         d="M 0,0 H 568 V 299 H 0 Z"
         id="path34956" />
    </clipPath>
    <clipPath
       clipPathUnits="userSpaceOnUse"
       id="clipPath34968">
      <path
         d="m 180.441,138.91 h 4.359 v 4.363 h -4.359 z"
         id="path34966" />
    </clipPath>
    <clipPath
       clipPathUnits="userSpaceOnUse"
       id="clipPath34978">
      <path
         d="M 0,0 H 568 V 299 H 0 Z"
         id="path34976" />
    </clipPath>
    <clipPath
       clipPathUnits="userSpaceOnUse"
       id="clipPath34992">
      <path
         d="M 0,1.5 H 568 V 299 H 0 Z"
         id="path34990" />
    </clipPath>
    <clipPath
       clipPathUnits="userSpaceOnUse"
       id="clipPath35002">
      <path
         d="M 0,0 H 568 V 299 H 0 Z"
         id="path35000" />
    </clipPath>
    <clipPath
       clipPathUnits="userSpaceOnUse"
       id="clipPath35024">
      <path
         d="M 0,0 H 568 V 299 H 0 Z"
         id="path35022" />
    </clipPath>
    <clipPath
       clipPathUnits="userSpaceOnUse"
       id="clipPath35034">
      <path
         d="M 0,1.5 H 568 V 299 H 0 Z"
         id="path35032" />
    </clipPath>
    <clipPath
       clipPathUnits="userSpaceOnUse"
       id="clipPath35044">
      <path
         d="M 0,0 H 568 V 299 H 0 Z"
         id="path35042" />
    </clipPath>
    <clipPath
       clipPathUnits="userSpaceOnUse"
       id="clipPath35054">
      <path
         d="m 179,163 h 6 v 6 h -6 z"
         id="path35052" />
    </clipPath>
    <clipPath
       clipPathUnits="userSpaceOnUse"
       id="clipPath35060">
      <path
         d="m 183.375,168.441 -4.305,-0.718 0.719,-4.301 4.301,0.715 z"
         id="path35058" />
    </clipPath>
    <clipPath
       clipPathUnits="userSpaceOnUse"
       id="clipPath35070">
      <path
         d="M 0,0 H 568 V 299 H 0 Z"
         id="path35068" />
    </clipPath>
    <clipPath
       clipPathUnits="userSpaceOnUse"
       id="clipPath35084">
      <path
         d="M 0,1.5 H 568 V 299 H 0 Z"
         id="path35082" />
    </clipPath>
    <clipPath
       clipPathUnits="userSpaceOnUse"
       id="clipPath35094">
      <path
         d="M 0,0 H 568 V 299 H 0 Z"
         id="path35092" />
    </clipPath>
    <clipPath
       clipPathUnits="userSpaceOnUse"
       id="clipPath35114">
      <path
         d="M 0,0 H 568 V 299 H 0 Z"
         id="path35112" />
    </clipPath>
    <clipPath
       clipPathUnits="userSpaceOnUse"
       id="clipPath35124">
      <path
         d="M 0,1.5 H 568 V 299 H 0 Z"
         id="path35122" />
    </clipPath>
    <clipPath
       clipPathUnits="userSpaceOnUse"
       id="clipPath35134">
      <path
         d="M 0,0 H 568 V 299 H 0 Z"
         id="path35132" />
    </clipPath>
    <clipPath
       clipPathUnits="userSpaceOnUse"
       id="clipPath35144">
      <path
         d="m 43.391,184.715 h 4.363 v 4.363 h -4.363 z"
         id="path35142" />
    </clipPath>
    <clipPath
       clipPathUnits="userSpaceOnUse"
       id="clipPath35154">
      <path
         d="M 0,0 H 568 V 299 H 0 Z"
         id="path35152" />
    </clipPath>
    <clipPath
       clipPathUnits="userSpaceOnUse"
       id="clipPath35168">
      <path
         d="M 0,1.5 H 568 V 299 H 0 Z"
         id="path35166" />
    </clipPath>
    <clipPath
       clipPathUnits="userSpaceOnUse"
       id="clipPath35178">
      <path
         d="M 0,0 H 568 V 299 H 0 Z"
         id="path35176" />
    </clipPath>
    <clipPath
       clipPathUnits="userSpaceOnUse"
       id="clipPath35196">
      <path
         d="m 449.883,202.891 h 4.363 v 4.363 h -4.363 z"
         id="path35194" />
    </clipPath>
    <clipPath
       clipPathUnits="userSpaceOnUse"
       id="clipPath35206">
      <path
         d="M 0,0 H 568 V 299 H 0 Z"
         id="path35204" />
    </clipPath>
    <clipPath
       clipPathUnits="userSpaceOnUse"
       id="clipPath35220">
      <path
         d="M 0,1.5 H 568 V 299 H 0 Z"
         id="path35218" />
    </clipPath>
    <clipPath
       clipPathUnits="userSpaceOnUse"
       id="clipPath35230">
      <path
         d="M 0,0 H 568 V 299 H 0 Z"
         id="path35228" />
    </clipPath>
    <clipPath
       clipPathUnits="userSpaceOnUse"
       id="clipPath35250">
      <path
         d="M 0,0 H 568 V 299 H 0 Z"
         id="path35248" />
    </clipPath>
    <clipPath
       clipPathUnits="userSpaceOnUse"
       id="clipPath35260">
      <path
         d="M 0,1.5 H 568 V 299 H 0 Z"
         id="path35258" />
    </clipPath>
    <clipPath
       clipPathUnits="userSpaceOnUse"
       id="clipPath35270">
      <path
         d="M 0,0 H 568 V 299 H 0 Z"
         id="path35268" />
    </clipPath>
    <clipPath
       clipPathUnits="userSpaceOnUse"
       id="clipPath35280">
      <path
         d="m 43.391,219.613 h 4.363 v 4.363 h -4.363 z"
         id="path35278" />
    </clipPath>
    <clipPath
       clipPathUnits="userSpaceOnUse"
       id="clipPath35290">
      <path
         d="M 0,0 H 568 V 299 H 0 Z"
         id="path35288" />
    </clipPath>
    <clipPath
       clipPathUnits="userSpaceOnUse"
       id="clipPath35304">
      <path
         d="M 0,1.5 H 568 V 299 H 0 Z"
         id="path35302" />
    </clipPath>
    <clipPath
       clipPathUnits="userSpaceOnUse"
       id="clipPath35314">
      <path
         d="M 0,0 H 568 V 299 H 0 Z"
         id="path35312" />
    </clipPath>
    <clipPath
       clipPathUnits="userSpaceOnUse"
       id="clipPath35332">
      <path
         d="m 529.129,237.789 h 4.363 v 4.363 h -4.363 z"
         id="path35330" />
    </clipPath>
    <clipPath
       clipPathUnits="userSpaceOnUse"
       id="clipPath35342">
      <path
         d="M 0,0 H 568 V 299 H 0 Z"
         id="path35340" />
    </clipPath>
    <clipPath
       clipPathUnits="userSpaceOnUse"
       id="clipPath35356">
      <path
         d="M 0,1.5 H 568 V 299 H 0 Z"
         id="path35354" />
    </clipPath>
    <clipPath
       clipPathUnits="userSpaceOnUse"
       id="clipPath35366">
      <path
         d="M 0,0 H 568 V 299 H 0 Z"
         id="path35364" />
    </clipPath>
    <clipPath
       clipPathUnits="userSpaceOnUse"
       id="clipPath35386">
      <path
         d="M 0,0 H 568 V 299 H 0 Z"
         id="path35384" />
    </clipPath>
    <clipPath
       clipPathUnits="userSpaceOnUse"
       id="clipPath35396">
      <path
         d="M 0,1.5 H 568 V 299 H 0 Z"
         id="path35394" />
    </clipPath>
    <clipPath
       clipPathUnits="userSpaceOnUse"
       id="clipPath35406">
      <path
         d="M 0,0 H 568 V 299 H 0 Z"
         id="path35404" />
    </clipPath>
    <clipPath
       clipPathUnits="userSpaceOnUse"
       id="clipPath35416">
      <path
         d="m 43.391,254.512 h 4.363 v 4.363 h -4.363 z"
         id="path35414" />
    </clipPath>
    <clipPath
       clipPathUnits="userSpaceOnUse"
       id="clipPath35426">
      <path
         d="M 0,0 H 568 V 299 H 0 Z"
         id="path35424" />
    </clipPath>
    <clipPath
       clipPathUnits="userSpaceOnUse"
       id="clipPath35440">
      <path
         d="M 0,1.5 H 568 V 299 H 0 Z"
         id="path35438" />
    </clipPath>
    <clipPath
       clipPathUnits="userSpaceOnUse"
       id="clipPath35450">
      <path
         d="M 0,0 H 568 V 299 H 0 Z"
         id="path35448" />
    </clipPath>
    <clipPath
       clipPathUnits="userSpaceOnUse"
       id="clipPath35472">
      <path
         d="M 0,0 H 568 V 299 H 0 Z"
         id="path35470" />
    </clipPath>
    <clipPath
       clipPathUnits="userSpaceOnUse"
       id="clipPath35482">
      <path
         d="M 0,1.5 H 568 V 299 H 0 Z"
         id="path35480" />
    </clipPath>
    <clipPath
       clipPathUnits="userSpaceOnUse"
       id="clipPath35492">
      <path
         d="M 0,0 H 568 V 299 H 0 Z"
         id="path35490" />
    </clipPath>
    <clipPath
       clipPathUnits="userSpaceOnUse"
       id="clipPath35502">
      <path
         d="m 42,279 h 6 v 6 h -6 z"
         id="path35500" />
    </clipPath>
    <clipPath
       clipPathUnits="userSpaceOnUse"
       id="clipPath35508">
      <path
         d="m 46.324,284.039 -4.301,-0.715 0.715,-4.304 4.305,0.718 z"
         id="path35506" />
    </clipPath>
    <clipPath
       clipPathUnits="userSpaceOnUse"
       id="clipPath35518">
      <path
         d="M 0,0 H 568 V 299 H 0 Z"
         id="path35516" />
    </clipPath>
  </defs>
  <g
     id="g34426"
     transform="matrix(1.3333333,0,0,1.3333333,0,8.6091662e-6)">
    <g
       id="g34428">
      <g
         id="g34430">
        <g
           id="g34432">
          <g
             id="g34434"
             clip-path="url(#clipPath34438)">
            <g
               id="g34440">
              <path
                 d="M 0,0 H 567.945 V 298.273 H 0 Z"
                 style="fill:#ffffff;fill-opacity:1;fill-rule:nonzero;stroke:none"
                 id="path34442" />
            </g>
          </g>
        </g>
      </g>
    </g>
    <g
       id="g34444">
      <g
         id="g34446"
         clip-path="url(#clipPath34450)">
        <g
           id="g34452">
          <g
             id="g34454">
            <g
               id="g34456"
               clip-path="url(#clipPath34460)">
              <g
                 id="g34462">
                <g
                   id="g34464">
                  <path
                     d="M 533.457,28.766 V 292.68"
                     style="fill:none;stroke:#d4d4d4;stroke-width:0.363522;stroke-linecap:butt;stroke-linejoin:miter;stroke-miterlimit:10;stroke-dasharray:none;stroke-opacity:1"
                     id="path34466" />
                </g>
                <g
                   id="g34468">
                  <path
                     d="m 502.375,5.137 h 62.16 c 0.145,0 0.285,0.027 0.418,0.082 0.133,0.054 0.254,0.133 0.356,0.234 0.101,0.106 0.179,0.223 0.234,0.356 0.055,0.132 0.086,0.273 0.086,0.418 v 21.445 c 0,0.144 -0.027,0.285 -0.086,0.418 -0.055,0.133 -0.133,0.254 -0.234,0.355 -0.102,0.102 -0.223,0.18 -0.356,0.235 -0.133,0.058 -0.273,0.086 -0.418,0.086 h -62.16 c -0.145,0 -0.285,-0.028 -0.418,-0.086 -0.133,-0.055 -0.25,-0.133 -0.355,-0.235 -0.102,-0.101 -0.18,-0.222 -0.235,-0.355 -0.054,-0.133 -0.082,-0.274 -0.082,-0.418 V 6.227 c 0,-0.145 0.028,-0.286 0.082,-0.418 0.055,-0.133 0.133,-0.25 0.235,-0.356 0.105,-0.101 0.222,-0.18 0.355,-0.234 0.133,-0.055 0.273,-0.082 0.418,-0.082 z"
                     style="fill:#eeeeee;fill-opacity:1;fill-rule:nonzero;stroke:#d4d4d4;stroke-width:0.363522;stroke-linecap:butt;stroke-linejoin:miter;stroke-miterlimit:10;stroke-dasharray:none;stroke-opacity:1"
                     id="path34470" />
                </g>
              </g>
            </g>
          </g>
        </g>
        <text
           xml:space="preserve"
           transform="translate(504.8477,19.197716)"
           style="font-variant:normal;font-weight:normal;font-size:5.8125px;font-family:'DejaVu Sans';-inkscape-font-specification:DejaVuSans;writing-mode:lr-tb;fill:#333333;fill-opacity:1;fill-rule:nonzero;stroke:none"
           id="text34474"><tspan
             x="0 3.9762268 7.0045166 10.200256 11.815155 13.430054 16.015686 19.577545 23.26712 24.882019 28.458069 31.597954 35.154137 37.43922 43.101299 46.663158 48.942181 51.221203 54.797253"
             y="0"
             id="tspan34472">AsciiTableFormatter</tspan></text>
        <g
           id="g34476">
          <g
             id="g34478">
            <g
               id="g34480"
               clip-path="url(#clipPath34484)">
              <g
                 id="g34486">
                <g
                   id="g34488">
                  <path
                     d="M 454.207,28.766 V 292.68"
                     style="fill:none;stroke:#d4d4d4;stroke-width:0.363522;stroke-linecap:butt;stroke-linejoin:miter;stroke-miterlimit:10;stroke-dasharray:none;stroke-opacity:1"
                     id="path34490" />
                </g>
                <g
                   id="g34492">
                  <path
                     d="m 426.398,5.137 h 55.618 c 0.144,0 0.285,0.027 0.418,0.082 0.132,0.054 0.254,0.133 0.355,0.234 0.102,0.106 0.18,0.223 0.234,0.356 0.059,0.132 0.086,0.273 0.086,0.418 v 21.445 c 0,0.144 -0.027,0.285 -0.086,0.418 -0.054,0.133 -0.132,0.254 -0.234,0.355 -0.101,0.102 -0.223,0.18 -0.355,0.235 -0.133,0.058 -0.274,0.086 -0.418,0.086 h -55.618 c -0.144,0 -0.285,-0.028 -0.418,-0.086 -0.132,-0.055 -0.25,-0.133 -0.351,-0.235 -0.106,-0.101 -0.184,-0.222 -0.238,-0.355 -0.055,-0.133 -0.082,-0.274 -0.082,-0.418 V 6.227 c 0,-0.145 0.027,-0.286 0.082,-0.418 0.054,-0.133 0.132,-0.25 0.238,-0.356 0.101,-0.101 0.219,-0.18 0.351,-0.234 0.133,-0.055 0.274,-0.082 0.418,-0.082 z"
                     style="fill:#eeeeee;fill-opacity:1;fill-rule:nonzero;stroke:#d4d4d4;stroke-width:0.363522;stroke-linecap:butt;stroke-linejoin:miter;stroke-miterlimit:10;stroke-dasharray:none;stroke-opacity:1"
                     id="path34494" />
                </g>
              </g>
            </g>
          </g>
        </g>
        <text
           xml:space="preserve"
           transform="translate(428.88677,19.197716)"
           style="font-variant:normal;font-weight:normal;font-size:5.8125px;font-family:'DejaVu Sans';-inkscape-font-specification:DejaVuSans;writing-mode:lr-tb;fill:#333333;fill-opacity:1;fill-rule:nonzero;stroke:none"
           id="text34498"><tspan
             x="0 3.7771032 7.3531532 10.381443 14.065342 15.680241 17.959263 21.93549 25.625065 29.31464 31.576475 35.152523 38.842098 42.403957 44.68298 48.239162"
             y="0"
             id="tspan34496">ResultAggregator</tspan></text>
        <g
           id="g34500">
          <g
             id="g34502">
            <g
               id="g34504"
               clip-path="url(#clipPath34508)">
              <g
                 id="g34510">
                <g
                   id="g34512">
                  <path
                     d="M 379.867,28.766 V 292.68"
                     style="fill:none;stroke:#d4d4d4;stroke-width:0.363522;stroke-linecap:butt;stroke-linejoin:miter;stroke-miterlimit:10;stroke-dasharray:none;stroke-opacity:1"
                     id="path34514" />
                </g>
                <g
                   id="g34516">
                  <path
                     d="m 353.695,5.137 h 52.348 c 0.145,0 0.281,0.027 0.414,0.082 0.137,0.054 0.254,0.133 0.356,0.234 0.101,0.106 0.179,0.223 0.234,0.356 0.058,0.132 0.086,0.273 0.086,0.418 v 21.445 c 0,0.144 -0.028,0.285 -0.086,0.418 -0.055,0.133 -0.133,0.254 -0.234,0.355 -0.102,0.102 -0.219,0.18 -0.356,0.235 -0.133,0.058 -0.269,0.086 -0.414,0.086 h -52.348 c -0.144,0 -0.285,-0.028 -0.418,-0.086 -0.132,-0.055 -0.254,-0.133 -0.355,-0.235 -0.102,-0.101 -0.18,-0.222 -0.234,-0.355 -0.055,-0.133 -0.086,-0.274 -0.083,-0.418 V 6.227 c -0.003,-0.145 0.028,-0.286 0.083,-0.418 0.054,-0.133 0.132,-0.25 0.234,-0.356 0.101,-0.101 0.223,-0.18 0.355,-0.234 0.133,-0.055 0.274,-0.082 0.418,-0.082 z"
                     style="fill:#eeeeee;fill-opacity:1;fill-rule:nonzero;stroke:#d4d4d4;stroke-width:0.363522;stroke-linecap:butt;stroke-linejoin:miter;stroke-miterlimit:10;stroke-dasharray:none;stroke-opacity:1"
                     id="path34518" />
                </g>
              </g>
            </g>
          </g>
        </g>
        <text
           xml:space="preserve"
           transform="translate(357.22661,19.197716)"
           style="font-variant:normal;font-weight:normal;font-size:5.8125px;font-family:'DejaVu Sans';-inkscape-font-specification:DejaVuSans;writing-mode:lr-tb;fill:#333333;fill-opacity:1;fill-rule:nonzero;stroke:none"
           id="text34522"><tspan
             x="0 4.0585327 7.6147156"
             y="0"
             id="tspan34520">Con</tspan></text>
        <text
           xml:space="preserve"
           transform="translate(368.52523,19.197716)"
           style="font-variant:normal;font-weight:normal;font-size:5.8125px;font-family:'DejaVu Sans';-inkscape-font-specification:DejaVuSans;writing-mode:lr-tb;fill:#333333;fill-opacity:1;fill-rule:nonzero;stroke:none"
           id="text34526"><tspan
             x="0"
             y="0"
             id="tspan34524">ﬁ</tspan></text>
        <text
           xml:space="preserve"
           transform="translate(372.18642,19.197716)"
           style="font-variant:normal;font-weight:normal;font-size:5.8125px;font-family:'DejaVu Sans';-inkscape-font-specification:DejaVuSans;writing-mode:lr-tb;fill:#333333;fill-opacity:1;fill-rule:nonzero;stroke:none"
           id="text34530"><tspan
             x="0 3.6895752 7.4666786 11.042728 13.321751 15.71146 17.326359 20.902409 24.342228 27.918278"
             y="0"
             id="tspan34528">gRetriever</tspan></text>
        <g
           id="g34532">
          <g
             id="g34534">
            <g
               id="g34536"
               clip-path="url(#clipPath34540)">
              <g
                 id="g34542">
                <g
                   id="g34544">
                  <path
                     d="M 296.438,28.766 V 292.68"
                     style="fill:none;stroke:#d4d4d4;stroke-width:0.363522;stroke-linecap:butt;stroke-linejoin:miter;stroke-miterlimit:10;stroke-dasharray:none;stroke-opacity:1"
                     id="path34546" />
                </g>
                <g
                   id="g34548">
                  <path
                     d="m 259.543,5.137 h 73.793 c 0.144,0 0.285,0.027 0.418,0.082 0.133,0.054 0.25,0.133 0.355,0.234 0.102,0.106 0.18,0.223 0.235,0.356 0.054,0.132 0.082,0.273 0.082,0.418 v 21.445 c 0,0.144 -0.028,0.285 -0.082,0.418 -0.055,0.133 -0.133,0.254 -0.235,0.355 -0.105,0.102 -0.222,0.18 -0.355,0.235 -0.133,0.058 -0.274,0.086 -0.418,0.086 h -73.793 c -0.145,0 -0.285,-0.028 -0.418,-0.086 -0.133,-0.055 -0.254,-0.133 -0.355,-0.235 -0.102,-0.101 -0.18,-0.222 -0.235,-0.355 -0.055,-0.133 -0.082,-0.274 -0.082,-0.418 V 6.227 c 0,-0.145 0.027,-0.286 0.082,-0.418 0.055,-0.133 0.133,-0.25 0.235,-0.356 0.101,-0.101 0.222,-0.18 0.355,-0.234 0.133,-0.055 0.273,-0.082 0.418,-0.082 z"
                     style="fill:#eeeeee;fill-opacity:1;fill-rule:nonzero;stroke:#d4d4d4;stroke-width:0.363522;stroke-linecap:butt;stroke-linejoin:miter;stroke-miterlimit:10;stroke-dasharray:none;stroke-opacity:1"
                     id="path34550" />
                </g>
              </g>
            </g>
          </g>
        </g>
        <text
           xml:space="preserve"
           transform="translate(262.31647,19.197716)"
           style="font-variant:normal;font-weight:normal;font-size:5.8125px;font-family:'DejaVu Sans';-inkscape-font-specification:DejaVuSans;writing-mode:lr-tb;fill:#333333;fill-opacity:1;fill-rule:nonzero;stroke:none"
           id="text34554"><tspan
             x="0 3.9875793 7.5636292 11.247528 14.443268 18.127167 23.789246 27.351105 29.740814 33.106842 37.582581 41.14444 43.423462 46.985321 49.793892 53.355751 56.551491 58.830513 62.386696 64.776405"
             y="0"
             id="tspan34552">BenchmarkDataFactory</tspan></text>
        <g
           id="g34556">
          <g
             id="g34558">
            <g
               id="g34560"
               clip-path="url(#clipPath34564)">
              <g
                 id="g34566">
                <g
                   id="g34568">
                  <path
                     d="M 179.023,28.766 V 292.68"
                     style="fill:none;stroke:#d4d4d4;stroke-width:0.363522;stroke-linecap:butt;stroke-linejoin:miter;stroke-miterlimit:10;stroke-dasharray:none;stroke-opacity:1"
                     id="path34570" />
                </g>
                <g
                   id="g34572">
                  <path
                     d="m 149.395,5.137 h 59.253 c 0.145,0 0.286,0.027 0.418,0.082 0.133,0.054 0.25,0.133 0.356,0.234 0.101,0.106 0.18,0.223 0.234,0.356 0.055,0.132 0.082,0.273 0.082,0.418 v 21.445 c 0,0.144 -0.027,0.285 -0.082,0.418 -0.054,0.133 -0.133,0.254 -0.234,0.355 -0.106,0.102 -0.223,0.18 -0.356,0.235 -0.132,0.058 -0.273,0.086 -0.418,0.086 h -59.253 c -0.145,0 -0.286,-0.028 -0.418,-0.086 -0.133,-0.055 -0.25,-0.133 -0.352,-0.235 -0.105,-0.101 -0.184,-0.222 -0.238,-0.355 -0.055,-0.133 -0.082,-0.274 -0.082,-0.418 V 6.227 c 0,-0.145 0.027,-0.286 0.082,-0.418 0.054,-0.133 0.133,-0.25 0.238,-0.356 0.102,-0.101 0.219,-0.18 0.352,-0.234 0.132,-0.055 0.273,-0.082 0.418,-0.082 z"
                     style="fill:#eeeeee;fill-opacity:1;fill-rule:nonzero;stroke:#d4d4d4;stroke-width:0.363522;stroke-linecap:butt;stroke-linejoin:miter;stroke-miterlimit:10;stroke-dasharray:none;stroke-opacity:1"
                     id="path34574" />
                </g>
              </g>
            </g>
          </g>
        </g>
        <text
           xml:space="preserve"
           transform="translate(152.06647,19.197716)"
           style="font-variant:normal;font-weight:normal;font-size:5.8125px;font-family:'DejaVu Sans';-inkscape-font-specification:DejaVuSans;writing-mode:lr-tb;fill:#333333;fill-opacity:1;fill-rule:nonzero;stroke:none"
           id="text34578"><tspan
             x="0 3.9875793 7.5636292 11.247528 14.443268 18.127167 23.789246 27.351105 29.740814 33.106842 36.883945 40.567844 44.251743 47.935642 51.511692"
             y="0"
             id="tspan34576">BenchmarkRunner</tspan></text>
        <g
           id="g34580">
          <g
             id="g34582">
            <g
               id="g34584"
               clip-path="url(#clipPath34588)">
              <g
                 id="g34590">
                <g
                   id="g34592">
                  <path
                     d="M 43.43,28.766 V 292.68"
                     style="fill:none;stroke:#d4d4d4;stroke-width:0.363522;stroke-linecap:butt;stroke-linejoin:miter;stroke-miterlimit:10;stroke-dasharray:none;stroke-opacity:1"
                     id="path34594" />
                </g>
                <g
                   id="g34596">
                  <path
                     d="m 17.254,5.137 h 52.348 c 0.144,0 0.285,0.027 0.418,0.082 0.132,0.054 0.25,0.133 0.351,0.234 0.106,0.106 0.184,0.223 0.238,0.356 0.055,0.132 0.082,0.273 0.082,0.418 v 21.445 c 0,0.144 -0.027,0.285 -0.082,0.418 -0.054,0.133 -0.132,0.254 -0.238,0.355 -0.101,0.102 -0.219,0.18 -0.351,0.235 -0.133,0.058 -0.274,0.086 -0.418,0.086 H 17.254 c -0.145,0 -0.281,-0.028 -0.418,-0.086 -0.133,-0.055 -0.25,-0.133 -0.352,-0.235 -0.101,-0.101 -0.183,-0.222 -0.238,-0.355 -0.055,-0.133 -0.082,-0.274 -0.082,-0.418 V 6.227 c 0,-0.145 0.027,-0.286 0.082,-0.418 0.055,-0.133 0.137,-0.25 0.238,-0.356 0.102,-0.101 0.219,-0.18 0.352,-0.234 0.137,-0.055 0.273,-0.082 0.418,-0.082 z"
                     style="fill:#eeeeee;fill-opacity:1;fill-rule:nonzero;stroke:#d4d4d4;stroke-width:0.363522;stroke-linecap:butt;stroke-linejoin:miter;stroke-miterlimit:10;stroke-dasharray:none;stroke-opacity:1"
                     id="path34598" />
                </g>
              </g>
            </g>
          </g>
        </g>
        <text
           xml:space="preserve"
           transform="translate(21.54304,19.197716)"
           style="font-variant:normal;font-weight:normal;font-size:5.8125px;font-family:'DejaVu Sans';-inkscape-font-specification:DejaVuSans;writing-mode:lr-tb;fill:#333333;fill-opacity:1;fill-rule:nonzero;stroke:none"
           id="text34602"><tspan
             x="0 5.0149841 8.5768433 10.191742 13.875641 17.934174 21.490356 27.152435 32.814514 36.376373 40.060272"
             y="0"
             id="tspan34600">MainCommand</tspan></text>
      </g>
    </g>
    <g
       id="g34604">
      <g
         id="g34606"
         clip-path="url(#clipPath34610)">
        <g
           id="g34612">
          <g
             id="g34614">
            <g
               id="g34616"
               clip-path="url(#clipPath34620)">
              <g
                 id="g34622">
                <g
                   id="g34624">
                  <path
                     d="M 6.711,33.898 H 80.145 V 54.984 H 6.711 Z"
                     style="fill:#666666;fill-opacity:1;fill-rule:nonzero;stroke:#999999;stroke-width:0.363522;stroke-linecap:butt;stroke-linejoin:miter;stroke-miterlimit:10;stroke-dasharray:none;stroke-opacity:1"
                     id="path34626" />
                </g>
              </g>
            </g>
          </g>
        </g>
        <text
           xml:space="preserve"
           transform="translate(10.468822,43.021934)"
           style="font-variant:normal;font-weight:normal;font-size:5.8125px;font-family:'DejaVu Sans';-inkscape-font-specification:DejaVuSans;writing-mode:lr-tb;fill:#ffffff;fill-opacity:1;fill-rule:nonzero;stroke:none"
           id="text34632"><tspan
             x="0 4.0585327 7.2968445 9.0110779 10.858704 14.420563 16.705647 20.395222 24.079121 29.741199 33.317249 37.001148 39.28017 42.30846 44.156086 47.845661 51.40752 53.79723 56.82552 60.401569 64.091148"
             y="0"
             id="tspan34628">CLI arguments parsed,</tspan><tspan
             x="13.851565 16.1134 19.689449 23.251308 26.940884 30.380703 32.228329 34.507351 38.063534 39.91116 43.595058 46.623348 50.199398"
             y="6.9140615"
             id="tspan34630">ready to use.</tspan></text>
      </g>
    </g>
    <g
       id="g34634">
      <g
         id="g34636"
         clip-path="url(#clipPath34640)">
        <g
           id="g34642">
          <g
             id="g34644">
            <g
               id="g34646"
               clip-path="url(#clipPath34650)">
              <g
                 id="g34652">
                <g
                   id="g34654">
                  <path
                     d="m 177.203,106.559 h 3.637 v 80.699 h -3.637 z"
                     style="fill:#f4f4f4;fill-opacity:1;fill-rule:nonzero;stroke:#666666;stroke-width:0.363522;stroke-linecap:butt;stroke-linejoin:miter;stroke-miterlimit:10;stroke-dasharray:none;stroke-opacity:1"
                     id="path34656" />
                </g>
                <g
                   id="g34658">
                  <path
                     d="m 294.621,124.734 h 3.637 v 16.723 h -3.637 z"
                     style="fill:#f4f4f4;fill-opacity:1;fill-rule:nonzero;stroke:#666666;stroke-width:0.363522;stroke-linecap:butt;stroke-linejoin:miter;stroke-miterlimit:10;stroke-dasharray:none;stroke-opacity:1"
                     id="path34660" />
                </g>
                <g
                   id="g34662">
                  <path
                     d="m 452.391,204.707 h 3.637 v 17.449 h -3.637 z"
                     style="fill:#f4f4f4;fill-opacity:1;fill-rule:nonzero;stroke:#666666;stroke-width:0.363522;stroke-linecap:butt;stroke-linejoin:miter;stroke-miterlimit:10;stroke-dasharray:none;stroke-opacity:1"
                     id="path34664" />
                </g>
                <g
                   id="g34666">
                  <path
                     d="m 531.637,239.605 h 3.637 v 17.449 h -3.637 z"
                     style="fill:#f4f4f4;fill-opacity:1;fill-rule:nonzero;stroke:#666666;stroke-width:0.363522;stroke-linecap:butt;stroke-linejoin:miter;stroke-miterlimit:10;stroke-dasharray:none;stroke-opacity:1"
                     id="path34668" />
                </g>
              </g>
            </g>
          </g>
        </g>
        <text
           xml:space="preserve"
           transform="translate(115.73834,66.248495)"
           style="font-variant:normal;font-weight:normal;font-size:5.8125px;font-family:'DejaVu Sans';-inkscape-font-specification:DejaVuSans;writing-mode:lr-tb;fill:#333333;fill-opacity:1;fill-rule:nonzero;stroke:none"
           id="text34672"><tspan
             x="0 3.4398193 7.0016785 8.6165771 10.231476 13.921051 17.48291 19.761932 23.337982 27.314209 30.998108 34.687683 37.606693 39.221592 40.836491 43.115513 46.691563 49.081272 54.096256 57.658115 61.347691 63.61536 67.219589 70.823814 74.800041 76.514275 79.886276 83.862503 87.850082 91.088394 94.760941 97.667191 101.64342 104.88173 109.38585 113.96092 117.99959 119.71382 123.26433 127.63506 132.65004 136.33961 138.18724 140.03487 143.59673 145.21162 148.9012 152.45738 154.84709 156.46199 158.74101 162.42491 168.08699 172.43501 175.99687 181.65895 185.235 188.26329"
             y="0"
             id="tspan34670">validateAndFilterMap(AVAILABLE_ALGORITHMS, algorithmNames)</tspan></text>
        <g
           id="g34674">
          <g
             id="g34676">
            <g
               id="g34678"
               clip-path="url(#clipPath34682)">
              <g
                 id="g34684">
                <g
                   id="g34686">
                  <path
                     d="M 43.793,71.66 H 378.414"
                     style="fill:none;stroke:#333333;stroke-width:0.363522;stroke-linecap:butt;stroke-linejoin:miter;stroke-miterlimit:10;stroke-dasharray:none;stroke-opacity:1"
                     id="path34688" />
                </g>
              </g>
            </g>
          </g>
        </g>
      </g>
    </g>
    <g
       id="g34690">
      <g
         id="g34692"
         clip-path="url(#clipPath34696)">
        <g
           id="g34698">
          <g
             id="g34700">
            <g
               id="g34702"
               clip-path="url(#clipPath34706)">
              <g
                 id="g34708">
                <g
                   id="g34710">
                  <path
                     d="m 375.18,69.844 3.996,1.816 -3.633,1.817 z"
                     style="fill:#333333;fill-opacity:1;fill-rule:nonzero;stroke:#333333;stroke-width:0.363522;stroke-linecap:butt;stroke-linejoin:miter;stroke-miterlimit:10;stroke-dasharray:none;stroke-opacity:1"
                     id="path34712" />
                </g>
              </g>
            </g>
          </g>
        </g>
      </g>
    </g>
    <g
       id="g34714">
      <g
         id="g34716"
         clip-path="url(#clipPath34720)">
        <g
           id="g34722">
          <g
             id="g34724">
            <g
               id="g34726"
               clip-path="url(#clipPath34730)">
              <g
                 id="g34732">
                <text
                   xml:space="preserve"
                   transform="translate(184.0821,84.424275)"
                   style="font-variant:normal;font-weight:normal;font-size:5.8125px;font-family:'DejaVu Sans';-inkscape-font-specification:DejaVuSans;writing-mode:lr-tb;fill:#333333;fill-opacity:1;fill-rule:nonzero;stroke:none"
                   id="text34736"><tspan
                     x="0 3.0282898 6.6043396 8.2192383 11.795288 14.991028 17.27005 20.8461 24.535675 28.511902 30.126801 33.816376 37.372559 39.762268 41.377167 43.656189 47.340088 53.002167"
                     y="0"
                     id="tspan34734">selectedAlgorithms</tspan></text>
                <path
                   d="m 379.504,89.383 h -1.09 v -0.547 h 1.09 m -2.18,0.547 h -1.09 v -0.547 h 1.09 m -2.183,0.547 h -1.09 v -0.547 h 1.09 m -2.18,0.547 h -1.09 v -0.547 h 1.09 m -2.18,0.547 h -1.093 v -0.547 h 1.093 m -2.183,0.547 h -1.09 v -0.547 h 1.09 m -2.18,0.547 h -1.09 v -0.547 h 1.09 m -2.184,0.547 h -1.089 v -0.547 h 1.089 m -2.179,0.547 h -1.09 v -0.547 h 1.09 m -2.18,0.547 h -1.09 v -0.547 h 1.09 m -2.184,0.547 h -1.089 v -0.547 h 1.089 m -2.179,0.547 h -1.09 v -0.547 h 1.09 m -2.18,0.547 h -1.094 v -0.547 h 1.094 m -2.184,0.547 h -1.089 v -0.547 h 1.089 m -2.179,0.547 h -1.09 v -0.547 h 1.09 m -2.18,0.547 h -1.094 v -0.547 h 1.094 m -2.184,0.547 h -1.089 v -0.547 h 1.089 m -2.179,0.547 h -1.09 v -0.547 h 1.09 m -2.184,0.547 h -1.09 v -0.547 h 1.09 m -2.18,0.547 h -1.089 v -0.547 h 1.089 m -2.179,0.547 h -1.094 v -0.547 h 1.094 m -2.184,0.547 h -1.09 v -0.547 h 1.09 m -2.179,0.547 h -1.09 v -0.547 h 1.09 m -2.18,0.547 h -1.094 v -0.547 h 1.094 m -2.184,0.547 h -1.09 v -0.547 h 1.09 m -2.179,0.547 h -1.09 v -0.547 h 1.09 m -2.184,0.547 h -1.09 v -0.547 h 1.09 m -2.18,0.547 h -1.09 v -0.547 h 1.09 m -2.179,0.547 h -1.09 v -0.547 h 1.09 m -2.184,0.547 h -1.09 v -0.547 h 1.09 m -2.18,0.547 h -1.09 v -0.547 h 1.09 m -2.179,0.547 h -1.094 v -0.547 h 1.094 m -2.184,0.547 h -1.09 v -0.547 h 1.09 m -2.18,0.547 h -1.089 v -0.547 h 1.089 m -2.183,0.547 h -1.09 v -0.547 h 1.09 m -2.18,0.547 h -1.09 v -0.547 h 1.09 m -2.18,0.547 h -1.089 v -0.547 h 1.089 m -2.183,0.547 h -1.09 v -0.547 h 1.09 m -2.18,0.547 h -1.09 v -0.547 h 1.09 m -2.18,0.547 h -1.093 v -0.547 h 1.093 m -2.183,0.547 h -1.09 v -0.547 h 1.09 m -2.18,0.547 h -1.09 v -0.547 h 1.09 m -2.18,0.547 h -1.093 v -0.547 h 1.093 m -2.183,0.547 h -1.09 v -0.547 h 1.09 m -2.18,0.547 h -1.09 v -0.547 h 1.09 m -2.183,0.547 h -1.09 v -0.547 h 1.09 m -2.18,0.547 h -1.09 v -0.547 h 1.09 m -2.18,0.547 h -1.09 v -0.547 h 1.09 m -2.183,0.547 h -1.09 v -0.547 h 1.09 m -2.18,0.547 h -1.09 v -0.547 h 1.09 m -2.18,0.547 h -1.094 v -0.547 h 1.094 m -2.183,0.547 h -1.09 v -0.547 h 1.09 m -2.18,0.547 h -1.09 v -0.547 h 1.09 m -2.184,0.547 h -1.09 v -0.547 h 1.09 m -2.179,0.547 h -1.09 v -0.547 h 1.09 m -2.18,0.547 h -1.09 v -0.547 h 1.09 m -2.184,0.547 h -1.089 v -0.547 h 1.089 m -2.179,0.547 h -1.09 v -0.547 h 1.09 M 253,89.383 h -1.094 V 88.836 H 253 m -2.184,0.547 h -1.089 v -0.547 h 1.089 m -2.179,0.547 h -1.09 v -0.547 h 1.09 m -2.18,0.547 h -1.094 v -0.547 h 1.094 m -2.184,0.547 h -1.089 v -0.547 h 1.089 m -2.179,0.547 h -1.09 v -0.547 h 1.09 m -2.184,0.547 h -1.09 v -0.547 h 1.09 m -2.18,0.547 h -1.089 v -0.547 h 1.089 m -2.179,0.547 h -1.094 v -0.547 h 1.094 m -2.184,0.547 h -1.09 v -0.547 h 1.09 m -2.179,0.547 h -1.09 v -0.547 h 1.09 m -2.18,0.547 h -1.094 v -0.547 h 1.094 m -2.184,0.547 h -1.09 v -0.547 h 1.09 m -2.179,0.547 h -1.09 v -0.547 h 1.09 m -2.184,0.547 h -1.09 v -0.547 h 1.09 m -2.18,0.547 h -1.09 v -0.547 h 1.09 m -2.179,0.547 h -1.09 v -0.547 h 1.09 m -2.184,0.547 h -1.09 v -0.547 h 1.09 m -2.18,0.547 h -1.09 v -0.547 h 1.09 m -2.179,0.547 h -1.094 v -0.547 h 1.094 m -2.184,0.547 h -1.09 v -0.547 h 1.09 m -2.18,0.547 h -1.09 v -0.547 h 1.09 m -2.179,0.547 h -1.094 v -0.547 h 1.094 m -2.184,0.547 h -1.09 v -0.547 h 1.09 m -2.18,0.547 h -1.09 v -0.547 h 1.09 m -2.183,0.547 h -1.09 v -0.547 h 1.09 m -2.18,0.547 h -1.09 v -0.547 h 1.09 m -2.18,0.547 h -1.093 v -0.547 h 1.093 m -2.183,0.547 h -1.09 v -0.547 h 1.09 m -2.18,0.547 h -1.09 v -0.547 h 1.09 m -2.18,0.547 h -1.093 v -0.547 h 1.093 m -2.183,0.547 h -1.09 v -0.547 h 1.09 m -2.18,0.547 h -1.09 v -0.547 h 1.09 m -2.183,0.547 h -1.09 v -0.547 h 1.09 m -2.18,0.547 h -1.09 v -0.547 h 1.09 m -2.18,0.547 h -1.09 v -0.547 h 1.09 m -2.183,0.547 h -1.09 v -0.547 h 1.09 m -2.18,0.547 h -1.09 v -0.547 h 1.09 m -2.18,0.547 h -1.094 v -0.547 h 1.094 m -2.183,0.547 h -1.09 v -0.547 h 1.09 m -2.18,0.547 h -1.09 v -0.547 h 1.09 m -2.184,0.547 h -1.09 v -0.547 h 1.09 m -2.179,0.547 h -1.09 v -0.547 h 1.09 m -2.18,0.547 h -1.09 v -0.547 h 1.09 m -2.184,0.547 h -1.089 v -0.547 h 1.089 m -2.179,0.547 h -1.09 v -0.547 h 1.09 m -2.18,0.547 h -1.094 v -0.547 h 1.094 m -2.184,0.547 h -1.089 v -0.547 h 1.089 m -2.179,0.547 h -1.09 v -0.547 h 1.09 m -2.18,0.547 h -1.094 v -0.547 h 1.094 m -2.184,0.547 h -1.089 v -0.547 h 1.089 m -2.179,0.547 h -1.09 v -0.547 h 1.09 m -2.184,0.547 h -1.09 v -0.547 h 1.09 m -2.18,0.547 h -1.089 v -0.547 h 1.089 m -2.179,0.547 h -1.094 v -0.547 h 1.094 m -2.184,0.547 h -1.09 v -0.547 h 1.09 m -2.18,0.547 h -1.089 v -0.547 h 1.089 m -2.179,0.547 h -1.094 v -0.547 h 1.094 m -2.184,0.547 h -1.09 v -0.547 h 1.09 m -2.18,0.547 h -1.089 v -0.547 h 1.089 m -2.183,0.547 h -1.09 v -0.547 h 1.09 m -2.18,0.547 h -1.09 v -0.547 h 1.09 m -2.179,0.547 h -1.09 v -0.547 h 1.09 m -2.184,0.547 h -1.09 v -0.547 h 1.09 m -2.18,0.547 h -1.09 v -0.547 h 1.09 m -2.179,0.547 h -1.094 v -0.547 h 1.094 m -2.184,0.547 h -1.09 v -0.547 h 1.09 m -2.18,0.547 h -1.09 v -0.547 h 1.09 m -2.179,0.547 h -1.094 v -0.547 h 1.094 m -2.184,0.547 h -1.09 v -0.547 h 1.09 m -2.18,0.547 h -1.09 v -0.547 h 1.09 m -2.183,0.547 h -1.09 v -0.547 h 1.09 m -2.18,0.547 h -1.09 v -0.547 h 1.09 m -2.18,0.547 h -1.093 v -0.547 h 1.093 m -2.183,0.547 h -1.09 v -0.547 h 1.09 m -2.18,0.547 h -1.09 v -0.547 h 1.09 m -2.18,0.547 h -1.093 v -0.547 h 1.093 m -2.183,0.547 h -1.09 v -0.547 h 1.09 m -2.18,0.547 h -1.09 v -0.547 h 1.09 m -2.183,0.547 h -1.09 v -0.547 h 1.09 m -2.18,0.547 h -1.09 v -0.547 h 1.09 m -2.18,0.547 h -1.09 v -0.547 h 1.09 m -2.183,0.547 h -1.09 v -0.547 h 1.09 m -2.18,0.547 h -1.09 v -0.547 h 1.09 m -2.18,0.547 h -1.094 v -0.547 h 1.094 m -2.183,0.547 h -1.09 v -0.547 h 1.09 m -2.18,0.547 h -1.09 v -0.547 h 1.09 m -2.184,0.547 h -1.09 v -0.547 h 1.09 m -2.179,0.547 h -1.09 v -0.547 h 1.09 m -2.18,0.547 h -1.09 v -0.547 h 1.09 m -2.184,0.547 h -1.09 v -0.547 h 1.09 m -2.179,0.547 h -1.09 v -0.547 h 1.09 m -2.18,0.547 h -1.094 v -0.547 h 1.094 m -2.184,0.547 h -1.09 v -0.547 h 1.09 m -2.179,0.547 h -1.09 v -0.547 h 1.09 m -2.18,0.547 h -0.91 v -0.547 h 0.91"
                   style="fill:#333333;fill-opacity:1;fill-rule:nonzero;stroke:none"
                   id="path34738" />
              </g>
            </g>
          </g>
        </g>
      </g>
    </g>
    <g
       id="g34740">
      <g
         id="g34742">
        <g
           id="g34744">
          <g
             id="g34746"
             clip-path="url(#clipPath34750)">
            <g
               id="g34752" />
            <g
               id="g34754">
              <g
                 id="g34756"
                 clip-path="url(#clipPath34760)">
                <g
                   id="g34762">
                  <g
                     id="g34764">
                    <g
                       id="g34766"
                       clip-path="url(#clipPath34770)">
                      <g
                         id="g34772" />
                      <g
                         id="g34774">
                        <g
                           id="g34776"
                           clip-path="url(#clipPath34780)">
                          <g
                             id="g34782">
                            <g
                               id="g34784">
                              <g
                                 id="g34786"
                                 clip-path="url(#clipPath34790)">
                                <g
                                   id="g34792">
                                <g
                                   id="g34794"
                                   transform="scale(-1)">
                                <path
                                   d="m -48.117,-90.926 4,1.817 -3.637,1.816 z"
                                   style="fill:#333333;fill-opacity:1;fill-rule:nonzero;stroke:#333333;stroke-width:0.363522;stroke-linecap:butt;stroke-linejoin:miter;stroke-miterlimit:10;stroke-dasharray:none;stroke-opacity:1"
                                   id="path34796" />
                                </g>
                                </g>
                              </g>
                            </g>
                          </g>
                        </g>
                      </g>
                    </g>
                  </g>
                </g>
              </g>
            </g>
          </g>
        </g>
      </g>
    </g>
    <g
       id="g34798">
      <g
         id="g34800"
         clip-path="url(#clipPath34804)">
        <g
           id="g34806">
          <g
             id="g34808">
            <g
               id="g34810"
               clip-path="url(#clipPath34814)">
              <g
                 id="g34816">
                <text
                   xml:space="preserve"
                   transform="translate(55.234444,101.87349)"
                   style="font-variant:normal;font-weight:normal;font-size:5.8125px;font-family:'DejaVu Sans';-inkscape-font-specification:DejaVuSans;writing-mode:lr-tb;fill:#333333;fill-opacity:1;fill-rule:nonzero;stroke:none"
                   id="text34820"><tspan
                     x="0 2.3897095 6.0736084 9.7575073 12.025177 15.053467 18.629517 20.244415 23.820465 27.016205 29.295227 32.871277 36.560852 40.537079 42.151978 45.841553 49.397736 51.787445 53.402344 55.681366 59.365265 65.027344 68.055634 69.903259 71.750885 75.44046 79.002319 81.281342 84.843201 87.486954 90.926773 94.616348 98.192398 101.22069 103.06831 104.91594 106.76357 108.61119"
                     y="0"
                     id="tspan34818">run(selectedAlgorithms, dataTypes, ..)</tspan></text>
                <g
                   id="g34822">
                  <path
                     d="M 43.793,106.559 H 177.566"
                     style="fill:none;stroke:#333333;stroke-width:0.363522;stroke-linecap:butt;stroke-linejoin:miter;stroke-miterlimit:10;stroke-dasharray:none;stroke-opacity:1"
                     id="path34824" />
                </g>
              </g>
            </g>
          </g>
        </g>
      </g>
    </g>
    <g
       id="g34826">
      <g
         id="g34828"
         clip-path="url(#clipPath34832)">
        <g
           id="g34834">
          <g
             id="g34836">
            <g
               id="g34838"
               clip-path="url(#clipPath34842)">
              <g
                 id="g34844">
                <g
                   id="g34846">
                  <path
                     d="m 174.332,104.738 4,1.821 -3.637,1.816 z"
                     style="fill:#333333;fill-opacity:1;fill-rule:nonzero;stroke:#333333;stroke-width:0.363522;stroke-linecap:butt;stroke-linejoin:miter;stroke-miterlimit:10;stroke-dasharray:none;stroke-opacity:1"
                     id="path34848" />
                </g>
              </g>
            </g>
          </g>
        </g>
      </g>
    </g>
    <g
       id="g34850">
      <g
         id="g34852"
         clip-path="url(#clipPath34856)">
        <g
           id="g34858">
          <g
             id="g34860">
            <g
               id="g34862"
               clip-path="url(#clipPath34866)">
              <g
                 id="g34868">
                <text
                   xml:space="preserve"
                   transform="translate(191.8985,119.32271)"
                   style="font-variant:normal;font-weight:normal;font-size:5.8125px;font-family:'DejaVu Sans';-inkscape-font-specification:DejaVuSans;writing-mode:lr-tb;fill:#333333;fill-opacity:1;fill-rule:nonzero;stroke:none"
                   id="text34872"><tspan
                     x="0 3.1957397 5.4575744 9.0336237 12.595483 14.874505 18.450556 22.926294 26.488153 28.767176 32.329033 34.596703 38.286278 41.848137 44.127159 47.689018 50.332775 53.772594 57.46217 61.038219 62.885845 64.733475 68.42305 71.984909 74.263931 77.82579 81.515366 83.130264 86.181259 89.757309"
                     y="0"
                     id="tspan34870">createData(dataType, dataSize)</tspan></text>
                <g
                   id="g34874">
                  <path
                     d="M 180.84,124.008 H 294.984"
                     style="fill:none;stroke:#333333;stroke-width:0.363522;stroke-linecap:butt;stroke-linejoin:miter;stroke-miterlimit:10;stroke-dasharray:none;stroke-opacity:1"
                     id="path34876" />
                </g>
              </g>
            </g>
          </g>
        </g>
      </g>
    </g>
    <g
       id="g34878">
      <g
         id="g34880"
         clip-path="url(#clipPath34884)">
        <g
           id="g34886">
          <g
             id="g34888">
            <g
               id="g34890"
               clip-path="url(#clipPath34894)">
              <g
                 id="g34896">
                <g
                   id="g34898">
                  <path
                     d="m 291.75,122.188 4,1.82 -3.637,1.816 z"
                     style="fill:#333333;fill-opacity:1;fill-rule:nonzero;stroke:#333333;stroke-width:0.363522;stroke-linecap:butt;stroke-linejoin:miter;stroke-miterlimit:10;stroke-dasharray:none;stroke-opacity:1"
                     id="path34900" />
                </g>
              </g>
            </g>
          </g>
        </g>
      </g>
    </g>
    <g
       id="g34902">
      <g
         id="g34904"
         clip-path="url(#clipPath34908)">
        <g
           id="g34910">
          <g
             id="g34912">
            <g
               id="g34914"
               clip-path="url(#clipPath34918)">
              <g
                 id="g34920">
                <text
                   xml:space="preserve"
                   transform="translate(208.79693,136.77193)"
                   style="font-variant:normal;font-weight:normal;font-size:5.8125px;font-family:'DejaVu Sans';-inkscape-font-specification:DejaVuSans;writing-mode:lr-tb;fill:#333333;fill-opacity:1;fill-rule:nonzero;stroke:none"
                   id="text34924"><tspan
                     x="0 3.6895752 7.265625 10.949524 14.145264 17.829163 23.491241 27.053101 29.44281 32.808838 37.284576 40.846436 43.125458 46.687317 51.702301 55.26416"
                     y="0"
                     id="tspan34922">benchmarkDataMap</tspan></text>
                <path
                   d="m 294.621,141.73 h -1.09 v -0.546 h 1.09 m -2.18,0.546 h -1.089 v -0.546 h 1.089 m -2.183,0.546 h -1.09 v -0.546 h 1.09 m -2.18,0.546 h -1.09 v -0.546 h 1.09 m -2.18,0.546 h -1.089 v -0.546 h 1.089 m -2.183,0.546 h -1.09 v -0.546 h 1.09 m -2.18,0.546 h -1.09 v -0.546 h 1.09 m -2.18,0.546 h -1.093 v -0.546 h 1.093 m -2.183,0.546 h -1.09 v -0.546 h 1.09 m -2.18,0.546 h -1.09 v -0.546 h 1.09 m -2.183,0.546 h -1.09 v -0.546 h 1.09 m -2.18,0.546 h -1.09 v -0.546 h 1.09 m -2.18,0.546 h -1.09 v -0.546 h 1.09 m -2.183,0.546 h -1.09 v -0.546 h 1.09 m -2.18,0.546 h -1.09 v -0.546 h 1.09 m -2.18,0.546 h -1.094 v -0.546 h 1.094 m -2.183,0.546 h -1.09 v -0.546 h 1.09 m -2.18,0.546 h -1.09 v -0.546 h 1.09 m -2.18,0.546 h -1.093 v -0.546 h 1.093 m -2.183,0.546 h -1.09 v -0.546 h 1.09 M 251,141.73 h -1.09 v -0.546 H 251 m -2.184,0.546 h -1.089 v -0.546 h 1.089 m -2.179,0.546 h -1.09 v -0.546 h 1.09 m -2.18,0.546 h -1.09 v -0.546 h 1.09 m -2.184,0.546 h -1.089 v -0.546 h 1.089 m -2.179,0.546 h -1.09 v -0.546 h 1.09 m -2.18,0.546 h -1.094 v -0.546 h 1.094 m -2.184,0.546 h -1.089 v -0.546 h 1.089 m -2.179,0.546 h -1.09 v -0.546 h 1.09 m -2.184,0.546 h -1.09 v -0.546 h 1.09 m -2.179,0.546 h -1.09 v -0.546 h 1.09 m -2.18,0.546 h -1.09 v -0.546 h 1.09 m -2.184,0.546 h -1.09 v -0.546 h 1.09 m -2.179,0.546 h -1.09 v -0.546 h 1.09 m -2.18,0.546 h -1.094 v -0.546 h 1.094 m -2.184,0.546 h -1.09 v -0.546 h 1.09 m -2.179,0.546 h -1.09 v -0.546 h 1.09 m -2.18,0.546 h -1.094 v -0.546 h 1.094 m -2.184,0.546 h -1.09 v -0.546 h 1.09 m -2.179,0.546 h -1.09 v -0.546 h 1.09 m -2.184,0.546 h -1.09 v -0.546 h 1.09 m -2.18,0.546 h -1.09 v -0.546 h 1.09 m -2.179,0.546 h -1.094 v -0.546 h 1.094 m -2.184,0.546 h -1.09 v -0.546 h 1.09 m -2.18,0.546 h -1.09 v -0.546 h 1.09 m -2.179,0.546 h -1.094 v -0.546 h 1.094 m -2.184,0.546 h -1.09 v -0.546 h 1.09 m -2.18,0.546 h -1.089 v -0.546 h 1.089 m -2.183,0.546 h -1.09 v -0.546 h 1.09 m -2.18,0.546 h -1.09 v -0.546 h 1.09 m -2.18,0.546 h -1.089 v -0.546 h 1.089 m -2.183,0.546 h -1.09 v -0.546 h 1.09"
                   style="fill:#333333;fill-opacity:1;fill-rule:nonzero;stroke:none"
                   id="path34926" />
              </g>
            </g>
          </g>
        </g>
      </g>
    </g>
    <g
       id="g34928">
      <g
         id="g34930">
        <g
           id="g34932">
          <g
             id="g34934"
             clip-path="url(#clipPath34938)">
            <g
               id="g34940" />
            <g
               id="g34942">
              <g
                 id="g34944"
                 clip-path="url(#clipPath34948)">
                <g
                   id="g34950">
                  <g
                     id="g34952">
                    <g
                       id="g34954"
                       clip-path="url(#clipPath34958)">
                      <g
                         id="g34960" />
                      <g
                         id="g34962">
                        <g
                           id="g34964"
                           clip-path="url(#clipPath34968)">
                          <g
                             id="g34970">
                            <g
                               id="g34972">
                              <g
                                 id="g34974"
                                 clip-path="url(#clipPath34978)">
                                <g
                                   id="g34980">
                                <g
                                   id="g34982"
                                   transform="scale(-1)">
                                <path
                                   d="m -185.164,-143.273 3.996,1.816 -3.633,1.82 z"
                                   style="fill:#333333;fill-opacity:1;fill-rule:nonzero;stroke:#333333;stroke-width:0.363522;stroke-linecap:butt;stroke-linejoin:miter;stroke-miterlimit:10;stroke-dasharray:none;stroke-opacity:1"
                                   id="path34984" />
                                </g>
                                </g>
                              </g>
                            </g>
                          </g>
                        </g>
                      </g>
                    </g>
                  </g>
                </g>
              </g>
            </g>
          </g>
        </g>
      </g>
    </g>
    <g
       id="g34986">
      <g
         id="g34988"
         clip-path="url(#clipPath34992)">
        <g
           id="g34994">
          <g
             id="g34996">
            <g
               id="g34998"
               clip-path="url(#clipPath35002)">
              <g
                 id="g35004">
                <text
                   xml:space="preserve"
                   transform="translate(114.00397,154.22115)"
                   style="font-variant:normal;font-weight:normal;font-size:5.8125px;font-family:'DejaVu Sans';-inkscape-font-specification:DejaVuSans;writing-mode:lr-tb;fill:#333333;fill-opacity:1;fill-rule:nonzero;stroke:none"
                   id="text35008"><tspan
                     x="0 2.3897095 6.0736084 9.7575073 11.471741 13.750763 17.326813 19.716522 23.278381 25.557404 27.172302 30.728485 34.412384 37.440674 39.708344 42.736633 45.015656 47.405365 50.967224 53.246246 56.822296 60.511871 62.12677 65.70282 68.73111 70.578735 72.426361 76.115936 79.691986 83.375885 86.571625 90.255524 95.917603 99.479462 101.86917 105.2352 109.71094 113.2728 115.55182 119.11368 124.12866 127.69052 131.3801"
                     y="0"
                     id="tspan35006">runIterations(strategies, benchmarkDataMap)</tspan></text>
                <g
                   id="g35010">
                  <path
                     d="m 180.84,158.906 c 21.812,-3.636 21.812,10.907 0,7.27"
                     style="fill:none;stroke:#333333;stroke-width:0.363522;stroke-linecap:butt;stroke-linejoin:miter;stroke-miterlimit:10;stroke-dasharray:none;stroke-opacity:1"
                     id="path35012" />
                </g>
              </g>
            </g>
          </g>
        </g>
      </g>
    </g>
    <g
       id="g35014">
      <g
         id="g35016">
        <g
           id="g35018">
          <g
             id="g35020"
             clip-path="url(#clipPath35024)">
            <g
               id="g35026" />
            <g
               id="g35028">
              <g
                 id="g35030"
                 clip-path="url(#clipPath35034)">
                <g
                   id="g35036">
                  <g
                     id="g35038">
                    <g
                       id="g35040"
                       clip-path="url(#clipPath35044)">
                      <g
                         id="g35046" />
                      <g
                         id="g35048">
                        <g
                           id="g35050"
                           clip-path="url(#clipPath35054)">
                          <g
                             id="g35056"
                             clip-path="url(#clipPath35060)">
                            <g
                               id="g35062">
                              <g
                                 id="g35064">
                                <g
                                   id="g35066"
                                   clip-path="url(#clipPath35070)">
                                <g
                                   id="g35072">
                                <g
                                   id="g35074"
                                   transform="matrix(-1,-0.166667,0.166667,-1,0,0)">
                                <path
                                   d="m -206.089,-134.152 3.943,1.792 -3.588,1.794 z"
                                   style="fill:#333333;fill-opacity:1;fill-rule:nonzero;stroke:#333333;stroke-width:0.358576;stroke-linecap:butt;stroke-linejoin:miter;stroke-miterlimit:10;stroke-dasharray:none;stroke-opacity:1"
                                   id="path35076" />
                                </g>
                                </g>
                                </g>
                              </g>
                            </g>
                          </g>
                        </g>
                      </g>
                    </g>
                  </g>
                </g>
              </g>
            </g>
          </g>
        </g>
      </g>
    </g>
    <g
       id="g35078">
      <g
         id="g35080"
         clip-path="url(#clipPath35084)">
        <g
           id="g35086">
          <g
             id="g35088">
            <g
               id="g35090"
               clip-path="url(#clipPath35094)">
              <g
                 id="g35096">
                <text
                   xml:space="preserve"
                   transform="translate(84.13288,182.5688)"
                   style="font-variant:normal;font-weight:normal;font-size:5.8125px;font-family:'DejaVu Sans';-inkscape-font-specification:DejaVuSans;writing-mode:lr-tb;fill:#333333;fill-opacity:1;fill-rule:nonzero;stroke:none"
                   id="text35100"><tspan
                     x="0 3.6895752 7.265625 10.949524 14.145264 17.829163 23.491241 27.053101 29.44281 32.808838 36.585941 40.161991 43.190281 46.87418 48.489079 50.768101"
                     y="0"
                     id="tspan35098">benchmarkResults</tspan></text>
                <path
                   d="m 177.203,187.531 h -1.09 v -0.543 h 1.09 m -2.18,0.543 h -1.089 v -0.543 h 1.089 m -2.179,0.543 h -1.094 v -0.543 h 1.094 m -2.184,0.543 h -1.09 v -0.543 h 1.09 m -2.18,0.543 h -1.089 v -0.543 h 1.089 m -2.183,0.543 h -1.09 v -0.543 h 1.09 m -2.18,0.543 h -1.09 v -0.543 h 1.09 m -2.179,0.543 h -1.09 v -0.543 h 1.09 m -2.184,0.543 h -1.09 v -0.543 h 1.09 m -2.18,0.543 h -1.09 v -0.543 h 1.09 m -2.179,0.543 h -1.094 v -0.543 h 1.094 m -2.184,0.543 h -1.09 v -0.543 h 1.09 m -2.18,0.543 h -1.09 v -0.543 h 1.09 m -2.183,0.543 h -1.09 v -0.543 h 1.09 m -2.18,0.543 h -1.09 v -0.543 h 1.09 m -2.18,0.543 h -1.09 v -0.543 h 1.09 m -2.183,0.543 h -1.09 v -0.543 h 1.09 m -2.18,0.543 h -1.09 v -0.543 h 1.09 m -2.18,0.543 h -1.093 v -0.543 h 1.093 m -2.183,0.543 h -1.09 v -0.543 h 1.09 m -2.18,0.543 h -1.09 v -0.543 h 1.09 m -2.18,0.543 h -1.093 v -0.543 h 1.093 m -2.183,0.543 h -1.09 v -0.543 h 1.09 m -2.18,0.543 h -1.09 v -0.543 h 1.09 m -2.184,0.543 h -1.089 v -0.543 h 1.089 m -2.179,0.543 h -1.09 v -0.543 h 1.09 m -2.18,0.543 h -1.09 v -0.543 h 1.09 m -2.184,0.543 h -1.089 v -0.543 h 1.089 m -2.179,0.543 h -1.09 v -0.543 h 1.09 m -2.18,0.543 h -1.094 v -0.543 h 1.094 m -2.183,0.543 h -1.09 v -0.543 h 1.09 m -2.18,0.543 h -1.09 v -0.543 h 1.09 m -2.184,0.543 h -1.09 v -0.543 h 1.09 m -2.179,0.543 h -1.09 v -0.543 h 1.09 m -2.18,0.543 h -1.09 v -0.543 h 1.09 m -2.184,0.543 h -1.09 v -0.543 h 1.09 m -2.179,0.543 h -1.09 v -0.543 h 1.09 m -2.18,0.543 H 95.41 v -0.543 h 1.094 m -2.184,0.543 h -1.09 v -0.543 h 1.09 m -2.179,0.543 h -1.09 v -0.543 h 1.09 m -2.18,0.543 h -1.094 v -0.543 h 1.094 m -2.184,0.543 h -1.089 v -0.543 h 1.089 m -2.179,0.543 h -1.09 v -0.543 h 1.09 m -2.184,0.543 h -1.09 v -0.543 h 1.09 m -2.18,0.543 h -1.089 v -0.543 h 1.089 m -2.179,0.543 h -1.094 v -0.543 h 1.094 m -2.184,0.543 h -1.09 v -0.543 h 1.09 m -2.18,0.543 h -1.089 v -0.543 h 1.089 m -2.179,0.543 h -1.094 v -0.543 h 1.094 m -2.184,0.543 h -1.09 v -0.543 h 1.09 m -2.18,0.543 h -1.089 v -0.543 h 1.089 m -2.183,0.543 h -1.09 v -0.543 h 1.09 m -2.18,0.543 h -1.09 v -0.543 h 1.09 m -2.18,0.543 h -1.089 v -0.543 h 1.089 m -2.183,0.543 h -1.09 v -0.543 h 1.09 m -2.18,0.543 h -1.09 v -0.543 h 1.09 m -2.18,0.543 h -1.093 v -0.543 h 1.093 m -2.183,0.543 h -1.09 v -0.543 h 1.09 m -2.18,0.543 h -1.09 v -0.543 h 1.09 m -2.183,0.543 h -1.09 v -0.543 h 1.09 m -2.18,0.543 h -1.09 v -0.543 h 1.09"
                   style="fill:#333333;fill-opacity:1;fill-rule:nonzero;stroke:none"
                   id="path35102" />
              </g>
            </g>
          </g>
        </g>
      </g>
    </g>
    <g
       id="g35104">
      <g
         id="g35106">
        <g
           id="g35108">
          <g
             id="g35110"
             clip-path="url(#clipPath35114)">
            <g
               id="g35116" />
            <g
               id="g35118">
              <g
                 id="g35120"
                 clip-path="url(#clipPath35124)">
                <g
                   id="g35126">
                  <g
                     id="g35128">
                    <g
                       id="g35130"
                       clip-path="url(#clipPath35134)">
                      <g
                         id="g35136" />
                      <g
                         id="g35138">
                        <g
                           id="g35140"
                           clip-path="url(#clipPath35144)">
                          <g
                             id="g35146">
                            <g
                               id="g35148">
                              <g
                                 id="g35150"
                                 clip-path="url(#clipPath35154)">
                                <g
                                   id="g35156">
                                <g
                                   id="g35158"
                                   transform="scale(-1)">
                                <path
                                   d="m -48.117,-189.078 4,1.82 -3.637,1.817 z"
                                   style="fill:#333333;fill-opacity:1;fill-rule:nonzero;stroke:#333333;stroke-width:0.363522;stroke-linecap:butt;stroke-linejoin:miter;stroke-miterlimit:10;stroke-dasharray:none;stroke-opacity:1"
                                   id="path35160" />
                                </g>
                                </g>
                              </g>
                            </g>
                          </g>
                        </g>
                      </g>
                    </g>
                  </g>
                </g>
              </g>
            </g>
          </g>
        </g>
      </g>
    </g>
    <g
       id="g35162">
      <g
         id="g35164"
         clip-path="url(#clipPath35168)">
        <g
           id="g35170">
          <g
             id="g35172">
            <g
               id="g35174"
               clip-path="url(#clipPath35178)">
              <g
                 id="g35180">
                <text
                   xml:space="preserve"
                   transform="translate(208.11725,200.01802)"
                   style="font-variant:normal;font-weight:normal;font-size:5.8125px;font-family:'DejaVu Sans';-inkscape-font-specification:DejaVuSans;writing-mode:lr-tb;fill:#333333;fill-opacity:1;fill-rule:nonzero;stroke:none"
                   id="text35184"><tspan
                     x="0 3.6895752 5.9514098 9.5075922 12.703332 16.279383 19.307673 22.335962 24.603632 28.293207 31.869257 35.553154 38.748894 42.432793 48.094872 51.656731 54.04644 57.412468 61.189571 64.765625 67.793915 71.477814 73.092712 75.371735 78.400024"
                     y="0"
                     id="tspan35182">process(benchmarkResults)</tspan></text>
                <g
                   id="g35186">
                  <path
                     d="M 43.793,204.707 H 452.754"
                     style="fill:none;stroke:#333333;stroke-width:0.363522;stroke-linecap:butt;stroke-linejoin:miter;stroke-miterlimit:10;stroke-dasharray:none;stroke-opacity:1"
                     id="path35188" />
                </g>
              </g>
            </g>
          </g>
        </g>
      </g>
    </g>
    <g
       id="g35190">
      <g
         id="g35192"
         clip-path="url(#clipPath35196)">
        <g
           id="g35198">
          <g
             id="g35200">
            <g
               id="g35202"
               clip-path="url(#clipPath35206)">
              <g
                 id="g35208">
                <g
                   id="g35210">
                  <path
                     d="m 449.52,202.891 3.996,1.816 -3.633,1.82 z"
                     style="fill:#333333;fill-opacity:1;fill-rule:nonzero;stroke:#333333;stroke-width:0.363522;stroke-linecap:butt;stroke-linejoin:miter;stroke-miterlimit:10;stroke-dasharray:none;stroke-opacity:1"
                     id="path35212" />
                </g>
              </g>
            </g>
          </g>
        </g>
      </g>
    </g>
    <g
       id="g35214">
      <g
         id="g35216"
         clip-path="url(#clipPath35220)">
        <g
           id="g35222">
          <g
             id="g35224">
            <g
               id="g35226"
               clip-path="url(#clipPath35230)">
              <g
                 id="g35232">
                <text
                   xml:space="preserve"
                   transform="translate(221.5235,217.46724)"
                   style="font-variant:normal;font-weight:normal;font-size:5.8125px;font-family:'DejaVu Sans';-inkscape-font-specification:DejaVuSans;writing-mode:lr-tb;fill:#333333;fill-opacity:1;fill-rule:nonzero;stroke:none"
                   id="text35236"><tspan
                     x="0 3.5618591 7.2514343 10.94101 13.202844 16.778894 20.46847 24.030329 26.309351 29.885401 33.574974 37.352077 40.928127 43.956417 47.640316 49.255215 51.534237"
                     y="0"
                     id="tspan35234">aggregatedResults</tspan></text>
                <path
                   d="m 452.391,222.43 h -1.09 v -0.543 h 1.09 m -2.18,0.543 h -1.094 v -0.543 h 1.094 m -2.184,0.543 h -1.089 v -0.543 h 1.089 m -2.179,0.543 h -1.09 v -0.543 h 1.09 m -2.184,0.543 h -1.09 v -0.543 h 1.09 m -2.18,0.543 h -1.089 v -0.543 h 1.089 m -2.179,0.543 h -1.09 v -0.543 h 1.09 m -2.184,0.543 h -1.09 v -0.543 h 1.09 m -2.18,0.543 h -1.089 v -0.543 h 1.089 m -2.179,0.543 h -1.094 v -0.543 h 1.094 m -2.184,0.543 h -1.09 v -0.543 h 1.09 m -2.18,0.543 h -1.089 v -0.543 h 1.089 m -2.183,0.543 h -1.09 v -0.543 h 1.09 m -2.18,0.543 h -1.09 v -0.543 h 1.09 m -2.18,0.543 h -1.089 v -0.543 h 1.089 m -2.183,0.543 h -1.09 v -0.543 h 1.09 m -2.18,0.543 h -1.09 v -0.543 h 1.09 m -2.18,0.543 h -1.093 v -0.543 h 1.093 m -2.183,0.543 h -1.09 v -0.543 h 1.09 m -2.18,0.543 h -1.09 v -0.543 h 1.09 m -2.179,0.543 h -1.094 v -0.543 h 1.094 m -2.184,0.543 h -1.09 v -0.543 h 1.09 m -2.18,0.543 h -1.09 v -0.543 h 1.09 m -2.183,0.543 h -1.09 v -0.543 h 1.09 m -2.18,0.543 h -1.09 v -0.543 h 1.09 m -2.18,0.543 h -1.093 v -0.543 h 1.093 m -2.183,0.543 h -1.09 v -0.543 h 1.09 m -2.18,0.543 h -1.09 v -0.543 h 1.09 m -2.18,0.543 h -1.093 v -0.543 h 1.093 m -2.183,0.543 h -1.09 v -0.543 h 1.09 m -2.18,0.543 h -1.09 v -0.543 h 1.09 m -2.184,0.543 h -1.089 v -0.543 h 1.089 m -2.179,0.543 h -1.09 v -0.543 h 1.09 m -2.18,0.543 h -1.09 v -0.543 h 1.09 m -2.184,0.543 h -1.089 v -0.543 h 1.089 m -2.179,0.543 h -1.09 v -0.543 h 1.09 m -2.18,0.543 h -1.094 v -0.543 h 1.094 m -2.183,0.543 h -1.09 v -0.543 h 1.09 m -2.18,0.543 h -1.09 v -0.543 h 1.09 m -2.184,0.543 h -1.09 v -0.543 h 1.09 m -2.179,0.543 h -1.09 v -0.543 h 1.09 m -2.18,0.543 h -1.09 v -0.543 h 1.09 m -2.184,0.543 h -1.09 v -0.543 h 1.09 m -2.179,0.543 h -1.09 v -0.543 h 1.09 m -2.18,0.543 h -1.094 v -0.543 h 1.094 m -2.184,0.543 h -1.09 v -0.543 h 1.09 m -2.179,0.543 h -1.09 v -0.543 h 1.09 m -2.18,0.543 h -1.094 v -0.543 h 1.094 m -2.184,0.543 h -1.09 v -0.543 h 1.09 m -2.179,0.543 h -1.09 v -0.543 h 1.09 m -2.184,0.543 h -1.09 v -0.543 h 1.09 m -2.18,0.543 h -1.09 v -0.543 h 1.09 m -2.179,0.543 h -1.09 v -0.543 h 1.09 m -2.184,0.543 h -1.09 v -0.543 h 1.09 m -2.18,0.543 h -1.089 v -0.543 h 1.089 m -2.179,0.543 h -1.094 v -0.543 h 1.094 m -2.184,0.543 h -1.09 v -0.543 h 1.09 m -2.18,0.543 h -1.089 v -0.543 h 1.089 m -2.183,0.543 h -1.09 v -0.543 h 1.09 m -2.18,0.543 h -1.09 v -0.543 h 1.09 m -2.18,0.543 h -1.089 v -0.543 h 1.089 m -2.183,0.543 h -1.09 v -0.543 h 1.09 m -2.18,0.543 h -1.09 v -0.543 h 1.09 m -2.18,0.543 h -1.093 v -0.543 h 1.093 m -2.183,0.543 h -1.09 v -0.543 h 1.09 m -2.18,0.543 h -1.09 v -0.543 h 1.09 m -2.179,0.543 h -1.094 v -0.543 h 1.094 m -2.184,0.543 h -1.09 v -0.543 h 1.09 m -2.18,0.543 h -1.09 v -0.543 h 1.09 m -2.183,0.543 h -1.09 v -0.543 h 1.09 m -2.18,0.543 h -1.09 v -0.543 h 1.09 m -2.18,0.543 h -1.093 v -0.543 h 1.093 m -2.183,0.543 h -1.09 v -0.543 h 1.09 m -2.18,0.543 h -1.09 v -0.543 h 1.09 m -2.18,0.543 h -1.093 v -0.543 h 1.093 m -2.183,0.543 h -1.09 v -0.543 h 1.09 m -2.18,0.543 h -1.09 v -0.543 h 1.09 m -2.184,0.543 h -1.089 v -0.543 h 1.089 m -2.179,0.543 h -1.09 v -0.543 h 1.09 m -2.18,0.543 h -1.09 v -0.543 h 1.09 m -2.184,0.543 h -1.089 v -0.543 h 1.089 m -2.179,0.543 h -1.09 v -0.543 h 1.09 m -2.18,0.543 h -1.094 v -0.543 h 1.094 m -2.184,0.543 h -1.089 v -0.543 h 1.089 m -2.179,0.543 h -1.09 v -0.543 h 1.09 m -2.18,0.543 h -1.094 v -0.543 h 1.094 m -2.184,0.543 h -1.089 v -0.543 h 1.089 m -2.179,0.543 h -1.09 v -0.543 h 1.09 m -2.184,0.543 h -1.09 v -0.543 h 1.09 m -2.179,0.543 h -1.09 v -0.543 h 1.09 m -2.18,0.543 h -1.094 v -0.543 h 1.094 m -2.184,0.543 h -1.09 v -0.543 h 1.09 m -2.179,0.543 h -1.09 v -0.543 h 1.09 m -2.18,0.543 h -1.094 v -0.543 h 1.094 m -2.184,0.543 h -1.09 v -0.543 h 1.09 m -2.179,0.543 h -1.09 v -0.543 h 1.09 M 243,222.43 h -1.09 v -0.543 H 243 m -2.18,0.543 h -1.09 v -0.543 h 1.09 m -2.179,0.543 h -1.09 v -0.543 h 1.09 m -2.184,0.543 h -1.09 v -0.543 h 1.09 m -2.18,0.543 h -1.089 v -0.543 h 1.089 m -2.179,0.543 h -1.094 v -0.543 h 1.094 m -2.184,0.543 h -1.09 v -0.543 h 1.09 m -2.18,0.543 h -1.089 v -0.543 h 1.089 m -2.183,0.543 h -1.09 v -0.543 h 1.09 m -2.18,0.543 h -1.09 v -0.543 h 1.09 m -2.18,0.543 h -1.089 v -0.543 h 1.089 m -2.183,0.543 h -1.09 v -0.543 h 1.09 m -2.18,0.543 h -1.09 v -0.543 h 1.09 m -2.18,0.543 h -1.093 v -0.543 h 1.093 m -2.183,0.543 h -1.09 v -0.543 h 1.09 m -2.18,0.543 h -1.09 v -0.543 h 1.09 m -2.18,0.543 h -1.093 v -0.543 h 1.093 m -2.183,0.543 h -1.09 v -0.543 h 1.09 m -2.18,0.543 h -1.09 v -0.543 h 1.09 m -2.183,0.543 h -1.09 v -0.543 h 1.09 m -2.18,0.543 h -1.09 v -0.543 h 1.09 m -2.18,0.543 h -1.094 v -0.543 h 1.094 m -2.183,0.543 h -1.09 v -0.543 h 1.09 m -2.18,0.543 h -1.09 v -0.543 h 1.09 m -2.18,0.543 h -1.094 v -0.543 h 1.094 m -2.183,0.543 h -1.09 v -0.543 h 1.09 m -2.18,0.543 h -1.09 v -0.543 h 1.09 m -2.184,0.543 h -1.089 v -0.543 h 1.089 m -2.179,0.543 h -1.09 v -0.543 h 1.09 m -2.18,0.543 h -1.09 v -0.543 h 1.09 m -2.184,0.543 h -1.089 v -0.543 h 1.089 m -2.179,0.543 h -1.09 v -0.543 h 1.09 m -2.18,0.543 h -1.094 v -0.543 h 1.094 m -2.184,0.543 h -1.089 v -0.543 h 1.089 m -2.179,0.543 h -1.09 v -0.543 h 1.09 m -2.18,0.543 h -1.094 v -0.543 h 1.094 m -2.184,0.543 h -1.089 v -0.543 h 1.089 m -2.179,0.543 h -1.09 v -0.543 h 1.09 m -2.184,0.543 h -1.09 v -0.543 h 1.09 m -2.179,0.543 h -1.09 v -0.543 h 1.09 m -2.18,0.543 h -1.094 v -0.543 h 1.094 m -2.184,0.543 h -1.09 v -0.543 h 1.09 m -2.179,0.543 h -1.09 v -0.543 h 1.09 m -2.18,0.543 h -1.094 v -0.543 h 1.094 m -2.184,0.543 h -1.09 v -0.543 h 1.09 m -2.179,0.543 h -1.09 v -0.543 h 1.09 m -2.184,0.543 h -1.09 v -0.543 h 1.09 m -2.18,0.543 h -1.09 v -0.543 h 1.09 m -2.179,0.543 h -1.09 v -0.543 h 1.09 m -2.184,0.543 h -1.09 v -0.543 h 1.09 m -2.18,0.543 h -1.09 v -0.543 h 1.09 m -2.179,0.543 h -1.094 v -0.543 h 1.094 m -2.184,0.543 h -1.09 v -0.543 h 1.09 m -2.18,0.543 h -1.09 v -0.543 h 1.09 m -2.183,0.543 h -1.09 v -0.543 h 1.09 m -2.18,0.543 h -1.09 v -0.543 h 1.09 m -2.18,0.543 h -1.089 v -0.543 h 1.089 m -2.183,0.543 h -1.09 v -0.543 h 1.09 m -2.18,0.543 h -1.09 v -0.543 h 1.09 m -2.18,0.543 h -1.093 v -0.543 h 1.093 m -2.183,0.543 h -1.09 v -0.543 h 1.09 m -2.18,0.543 h -1.09 v -0.543 h 1.09 m -2.18,0.543 h -1.093 v -0.543 h 1.093 m -2.183,0.543 h -1.09 v -0.543 h 1.09 m -2.18,0.543 h -1.09 v -0.543 h 1.09 m -2.183,0.543 h -1.09 v -0.543 h 1.09 m -2.18,0.543 h -1.09 v -0.543 h 1.09 m -2.18,0.543 h -1.09 v -0.543 h 1.09 m -2.183,0.543 h -1.09 v -0.543 h 1.09 m -2.18,0.543 h -1.09 v -0.543 h 1.09 m -2.18,0.543 H 89.23 v -0.543 h 1.094 m -2.183,0.543 h -1.09 v -0.543 h 1.09 m -2.18,0.543 h -1.09 v -0.543 h 1.09 m -2.184,0.543 h -1.089 v -0.543 h 1.089 m -2.179,0.543 h -1.09 v -0.543 h 1.09 m -2.18,0.543 h -1.09 v -0.543 h 1.09 m -2.184,0.543 h -1.089 v -0.543 h 1.089 m -2.179,0.543 h -1.09 v -0.543 h 1.09 m -2.18,0.543 h -1.094 v -0.543 h 1.094 m -2.184,0.543 h -1.089 v -0.543 h 1.089 m -2.179,0.543 h -1.09 v -0.543 h 1.09 m -2.18,0.543 h -1.094 v -0.543 h 1.094 m -2.184,0.543 h -1.089 v -0.543 h 1.089 m -2.179,0.543 h -1.09 v -0.543 h 1.09 m -2.184,0.543 h -1.09 v -0.543 h 1.09 m -2.18,0.543 h -1.089 v -0.543 h 1.089 m -2.179,0.543 h -1.094 v -0.543 h 1.094 m -2.184,0.543 h -1.09 v -0.543 h 1.09 m -2.18,0.543 h -1.089 v -0.543 h 1.089 m -2.179,0.543 h -1.094 v -0.543 h 1.094 m -2.184,0.543 h -1.09 v -0.543 h 1.09"
                   style="fill:#333333;fill-opacity:1;fill-rule:nonzero;stroke:none"
                   id="path35238" />
              </g>
            </g>
          </g>
        </g>
      </g>
    </g>
    <g
       id="g35240">
      <g
         id="g35242">
        <g
           id="g35244">
          <g
             id="g35246"
             clip-path="url(#clipPath35250)">
            <g
               id="g35252" />
            <g
               id="g35254">
              <g
                 id="g35256"
                 clip-path="url(#clipPath35260)">
                <g
                   id="g35262">
                  <g
                     id="g35264">
                    <g
                       id="g35266"
                       clip-path="url(#clipPath35270)">
                      <g
                         id="g35272" />
                      <g
                         id="g35274">
                        <g
                           id="g35276"
                           clip-path="url(#clipPath35280)">
                          <g
                             id="g35282">
                            <g
                               id="g35284">
                              <g
                                 id="g35286"
                                 clip-path="url(#clipPath35290)">
                                <g
                                   id="g35292">
                                <g
                                   id="g35294"
                                   transform="scale(-1)">
                                <path
                                   d="m -48.117,-223.977 4,1.821 -3.637,1.816 z"
                                   style="fill:#333333;fill-opacity:1;fill-rule:nonzero;stroke:#333333;stroke-width:0.363522;stroke-linecap:butt;stroke-linejoin:miter;stroke-miterlimit:10;stroke-dasharray:none;stroke-opacity:1"
                                   id="path35296" />
                                </g>
                                </g>
                              </g>
                            </g>
                          </g>
                        </g>
                      </g>
                    </g>
                  </g>
                </g>
              </g>
            </g>
          </g>
        </g>
      </g>
    </g>
    <g
       id="g35298">
      <g
         id="g35300"
         clip-path="url(#clipPath35304)">
        <g
           id="g35306">
          <g
             id="g35308">
            <g
               id="g35310"
               clip-path="url(#clipPath35314)">
              <g
                 id="g35316">
                <text
                   xml:space="preserve"
                   transform="translate(248.82818,234.91645)"
                   style="font-variant:normal;font-weight:normal;font-size:5.8125px;font-family:'DejaVu Sans';-inkscape-font-specification:DejaVuSans;writing-mode:lr-tb;fill:#333333;fill-opacity:1;fill-rule:nonzero;stroke:none"
                   id="text35320"><tspan
                     x="0 2.0462952 5.602478 7.8875623 13.549642 17.1115 19.390522 21.658192 25.220051 28.909626 32.599201 34.861038 38.437088 42.126663 45.688522 47.967545 51.543594 55.23317 59.016083 62.592133 65.620422 69.304321 70.91922 73.198242 76.226532"
                     y="0"
                     id="tspan35318">format(aggregatedResults)</tspan></text>
                <g
                   id="g35322">
                  <path
                     d="M 43.793,239.605 H 532"
                     style="fill:none;stroke:#333333;stroke-width:0.363522;stroke-linecap:butt;stroke-linejoin:miter;stroke-miterlimit:10;stroke-dasharray:none;stroke-opacity:1"
                     id="path35324" />
                </g>
              </g>
            </g>
          </g>
        </g>
      </g>
    </g>
    <g
       id="g35326">
      <g
         id="g35328"
         clip-path="url(#clipPath35332)">
        <g
           id="g35334">
          <g
             id="g35336">
            <g
               id="g35338"
               clip-path="url(#clipPath35342)">
              <g
                 id="g35344">
                <g
                   id="g35346">
                  <path
                     d="m 528.766,237.789 4,1.816 -3.637,1.821 z"
                     style="fill:#333333;fill-opacity:1;fill-rule:nonzero;stroke:#333333;stroke-width:0.363522;stroke-linecap:butt;stroke-linejoin:miter;stroke-miterlimit:10;stroke-dasharray:none;stroke-opacity:1"
                     id="path35348" />
                </g>
              </g>
            </g>
          </g>
        </g>
      </g>
    </g>
    <g
       id="g35350">
      <g
         id="g35352"
         clip-path="url(#clipPath35356)">
        <g
           id="g35358">
          <g
             id="g35360">
            <g
               id="g35362"
               clip-path="url(#clipPath35366)">
              <g
                 id="g35368">
                <text
                   xml:space="preserve"
                   transform="translate(257.4649,252.36567)"
                   style="font-variant:normal;font-weight:normal;font-size:5.8125px;font-family:'DejaVu Sans';-inkscape-font-specification:DejaVuSans;writing-mode:lr-tb;fill:#333333;fill-opacity:1;fill-rule:nonzero;stroke:none"
                   id="text35372"><tspan
                     x="0 2.0462952 5.602478 7.8875623 13.549642 17.1115 19.390522 21.669544 25.245594 28.935169 32.712273 36.288322 39.316612 43.000511 44.61541 46.894432 49.485878 53.047737 56.737312 58.352211"
                     y="0"
                     id="tspan35370">formattedResultTable</tspan></text>
                <path
                   d="m 531.637,257.328 h -1.09 v -0.547 h 1.09 m -2.18,0.547 h -1.09 v -0.547 h 1.09 m -2.18,0.547 h -1.093 v -0.547 h 1.093 m -2.183,0.547 h -1.09 v -0.547 h 1.09 m -2.18,0.547 h -1.09 v -0.547 h 1.09 m -2.184,0.547 h -1.089 v -0.547 h 1.089 m -2.179,0.547 h -1.09 v -0.547 h 1.09 m -2.18,0.547 h -1.09 v -0.547 h 1.09 m -2.183,0.547 h -1.09 v -0.547 h 1.09 m -2.18,0.547 h -1.09 v -0.547 h 1.09 m -2.18,0.547 h -1.094 v -0.547 h 1.094 m -2.183,0.547 h -1.09 v -0.547 h 1.09 m -2.18,0.547 h -1.09 v -0.547 h 1.09 m -2.18,0.547 h -1.094 v -0.547 h 1.094 m -2.183,0.547 h -1.09 v -0.547 h 1.09 m -2.18,0.547 h -1.09 v -0.547 h 1.09 m -2.184,0.547 h -1.09 v -0.547 h 1.09 m -2.179,0.547 h -1.09 v -0.547 h 1.09 m -2.18,0.547 h -1.094 v -0.547 h 1.094 m -2.184,0.547 h -1.09 v -0.547 h 1.09 m -2.179,0.547 h -1.09 v -0.547 h 1.09 m -2.18,0.547 h -1.094 v -0.547 h 1.094 m -2.184,0.547 h -1.09 v -0.547 h 1.09 m -2.179,0.547 h -1.09 v -0.547 h 1.09 m -2.184,0.547 h -1.09 v -0.547 h 1.09 m -2.18,0.547 h -1.089 v -0.547 h 1.089 m -2.179,0.547 h -1.09 v -0.547 h 1.09 m -2.184,0.547 h -1.09 v -0.547 h 1.09 m -2.18,0.547 h -1.089 v -0.547 h 1.089 m -2.179,0.547 h -1.094 v -0.547 h 1.094 m -2.184,0.547 h -1.09 v -0.547 h 1.09 m -2.18,0.547 h -1.089 v -0.547 h 1.089 m -2.179,0.547 h -1.094 v -0.547 h 1.094 m -2.184,0.547 h -1.09 v -0.547 h 1.09 m -2.18,0.547 h -1.089 v -0.547 h 1.089 m -2.183,0.547 h -1.09 v -0.547 h 1.09 m -2.18,0.547 h -1.09 v -0.547 h 1.09 m -2.179,0.547 h -1.094 v -0.547 h 1.094 m -2.184,0.547 h -1.09 v -0.547 h 1.09 m -2.18,0.547 h -1.09 v -0.547 h 1.09 m -2.179,0.547 h -1.094 v -0.547 h 1.094 m -2.184,0.547 h -1.09 v -0.547 h 1.09 m -2.18,0.547 h -1.09 v -0.547 h 1.09 m -2.183,0.547 h -1.09 v -0.547 h 1.09 m -2.18,0.547 h -1.09 v -0.547 h 1.09 m -2.18,0.547 h -1.09 v -0.547 h 1.09 m -2.183,0.547 h -1.09 v -0.547 h 1.09 m -2.18,0.547 h -1.09 v -0.547 h 1.09 m -2.18,0.547 h -1.093 v -0.547 h 1.093 m -2.183,0.547 h -1.09 v -0.547 h 1.09 m -2.18,0.547 h -1.09 v -0.547 h 1.09 m -2.184,0.547 h -1.089 v -0.547 h 1.089 m -2.179,0.547 h -1.09 v -0.547 h 1.09 m -2.18,0.547 h -1.09 v -0.547 h 1.09 m -2.184,0.547 h -1.089 v -0.547 h 1.089 m -2.179,0.547 h -1.09 v -0.547 h 1.09 m -2.18,0.547 h -1.094 v -0.547 h 1.094 m -2.184,0.547 h -1.089 v -0.547 h 1.089 m -2.179,0.547 h -1.09 v -0.547 h 1.09 m -2.18,0.547 h -1.094 v -0.547 h 1.094 m -2.183,0.547 h -1.09 v -0.547 h 1.09 m -2.18,0.547 h -1.09 v -0.547 h 1.09 m -2.184,0.547 h -1.09 v -0.547 h 1.09 m -2.179,0.547 h -1.09 v -0.547 h 1.09 m -2.18,0.547 h -1.094 v -0.547 h 1.094 m -2.184,0.547 h -1.09 v -0.547 h 1.09 m -2.179,0.547 h -1.09 v -0.547 h 1.09 m -2.18,0.547 h -1.094 v -0.547 h 1.094 m -2.184,0.547 h -1.09 v -0.547 h 1.09 m -2.179,0.547 h -1.09 v -0.547 h 1.09 m -2.184,0.547 h -1.09 v -0.547 h 1.09 m -2.18,0.547 h -1.089 v -0.547 h 1.089 m -2.179,0.547 h -1.09 v -0.547 h 1.09 m -2.184,0.547 h -1.09 v -0.547 h 1.09 m -2.18,0.547 h -1.089 v -0.547 h 1.089 m -2.179,0.547 h -1.094 v -0.547 h 1.094 m -2.184,0.547 h -1.09 v -0.547 h 1.09 m -2.18,0.547 h -1.089 v -0.547 h 1.089 m -2.179,0.547 h -1.094 v -0.547 h 1.094 m -2.184,0.547 h -1.09 v -0.547 h 1.09 m -2.18,0.547 h -1.089 v -0.547 h 1.089 m -2.183,0.547 h -1.09 v -0.547 h 1.09 m -2.18,0.547 h -1.09 v -0.547 h 1.09 m -2.18,0.547 h -1.093 v -0.547 h 1.093 m -2.183,0.547 h -1.09 v -0.547 h 1.09 m -2.18,0.547 h -1.09 v -0.547 h 1.09 m -2.18,0.547 h -1.093 v -0.547 h 1.093 m -2.183,0.547 h -1.09 v -0.547 h 1.09 m -2.18,0.547 h -1.09 v -0.547 h 1.09 m -2.183,0.547 h -1.09 v -0.547 h 1.09 m -2.18,0.547 h -1.09 v -0.547 h 1.09 m -2.18,0.547 h -1.09 v -0.547 h 1.09 m -2.183,0.547 h -1.09 v -0.547 h 1.09 m -2.18,0.547 h -1.09 v -0.547 h 1.09 m -2.18,0.547 h -1.093 v -0.547 h 1.093 m -2.183,0.547 h -1.09 v -0.547 h 1.09 m -2.18,0.547 h -1.09 v -0.547 h 1.09 m -2.184,0.547 h -1.089 v -0.547 h 1.089 m -2.179,0.547 h -1.09 v -0.547 h 1.09 m -2.18,0.547 h -1.09 v -0.547 h 1.09 m -2.184,0.547 h -1.089 v -0.547 h 1.089 m -2.179,0.547 h -1.09 v -0.547 h 1.09 m -2.18,0.547 h -1.094 v -0.547 h 1.094 m -2.184,0.547 h -1.089 v -0.547 h 1.089 m -2.179,0.547 h -1.09 v -0.547 h 1.09 m -2.18,0.547 h -1.094 v -0.547 h 1.094 m -2.183,0.547 h -1.09 v -0.547 h 1.09 m -2.18,0.547 h -1.09 v -0.547 h 1.09 m -2.184,0.547 h -1.09 v -0.547 h 1.09 m -2.179,0.547 h -1.09 v -0.547 h 1.09 m -2.18,0.547 h -1.09 v -0.547 h 1.09 m -2.184,0.547 h -1.09 v -0.547 h 1.09 m -2.179,0.547 h -1.09 v -0.547 h 1.09 m -2.18,0.547 h -1.094 v -0.547 h 1.094 m -2.184,0.547 h -1.09 v -0.547 h 1.09 m -2.179,0.547 h -1.09 v -0.547 h 1.09 m -2.184,0.547 h -1.09 v -0.547 h 1.09 m -2.18,0.547 h -1.09 v -0.547 h 1.09 m -2.179,0.547 h -1.09 v -0.547 h 1.09 m -2.184,0.547 h -1.09 v -0.547 h 1.09 m -2.18,0.547 h -1.09 v -0.547 h 1.09 m -2.179,0.547 h -1.094 v -0.547 h 1.094 m -2.184,0.547 h -1.09 v -0.547 h 1.09 m -2.18,0.547 h -1.089 v -0.547 h 1.089 m -2.179,0.547 h -1.094 v -0.547 h 1.094 m -2.184,0.547 h -1.09 v -0.547 h 1.09 m -2.18,0.547 h -1.089 v -0.547 h 1.089 m -2.183,0.547 h -1.09 v -0.547 h 1.09 m -2.18,0.547 h -1.09 v -0.547 h 1.09 m -2.18,0.547 h -1.093 v -0.547 h 1.093 m -2.183,0.547 H 247 v -0.547 h 1.09 m -2.18,0.547 h -1.09 v -0.547 h 1.09 m -2.18,0.547 h -1.093 v -0.547 h 1.093 m -2.183,0.547 h -1.09 v -0.547 h 1.09 m -2.18,0.547 h -1.09 v -0.547 h 1.09 m -2.183,0.547 h -1.09 v -0.547 h 1.09 m -2.18,0.547 h -1.09 v -0.547 h 1.09 m -2.18,0.547 h -1.09 v -0.547 h 1.09 m -2.183,0.547 h -1.09 v -0.547 h 1.09 m -2.18,0.547 h -1.09 v -0.547 h 1.09 m -2.18,0.547 h -1.093 v -0.547 h 1.093 m -2.183,0.547 h -1.09 v -0.547 h 1.09 m -2.18,0.547 h -1.09 v -0.547 h 1.09 m -2.184,0.547 h -1.089 v -0.547 h 1.089 m -2.179,0.547 h -1.09 v -0.547 h 1.09 m -2.18,0.547 h -1.09 v -0.547 h 1.09 m -2.184,0.547 h -1.089 v -0.547 h 1.089 m -2.179,0.547 h -1.09 v -0.547 h 1.09 m -2.18,0.547 h -1.094 v -0.547 h 1.094 m -2.184,0.547 h -1.089 v -0.547 h 1.089 m -2.179,0.547 h -1.09 v -0.547 h 1.09 m -2.18,0.547 h -1.094 v -0.547 h 1.094 m -2.184,0.547 h -1.089 v -0.547 h 1.089 m -2.179,0.547 h -1.09 v -0.547 h 1.09 m -2.184,0.547 h -1.09 v -0.547 h 1.09 m -2.18,0.547 h -1.089 v -0.547 h 1.089 m -2.179,0.547 h -1.09 v -0.547 h 1.09 m -2.184,0.547 h -1.09 v -0.547 h 1.09 m -2.179,0.547 h -1.09 v -0.547 h 1.09 m -2.18,0.547 h -1.094 v -0.547 h 1.094 m -2.184,0.547 h -1.09 v -0.547 h 1.09 m -2.179,0.547 h -1.09 v -0.547 h 1.09 m -2.184,0.547 h -1.09 v -0.547 h 1.09 m -2.18,0.547 h -1.09 v -0.547 h 1.09 m -2.179,0.547 h -1.09 v -0.547 h 1.09 m -2.184,0.547 h -1.09 v -0.547 h 1.09 m -2.18,0.547 h -1.09 v -0.547 h 1.09 m -2.179,0.547 h -1.094 v -0.547 h 1.094 m -2.184,0.547 h -1.09 v -0.547 h 1.09 m -2.18,0.547 h -1.089 v -0.547 h 1.089 m -2.179,0.547 h -1.094 v -0.547 h 1.094 m -2.184,0.547 h -1.09 v -0.547 h 1.09 m -2.18,0.547 h -1.089 v -0.547 h 1.089 m -2.183,0.547 h -1.09 v -0.547 h 1.09 m -2.18,0.547 h -1.09 v -0.547 h 1.09 m -2.18,0.547 h -1.093 v -0.547 h 1.093 m -2.183,0.547 h -1.09 v -0.547 h 1.09 m -2.18,0.547 h -1.09 v -0.547 h 1.09 m -2.18,0.547 h -1.093 v -0.547 h 1.093 m -2.183,0.547 h -1.09 v -0.547 h 1.09 m -2.18,0.547 h -1.09 v -0.547 h 1.09 m -2.183,0.547 h -1.09 v -0.547 h 1.09 m -2.18,0.547 h -1.09 v -0.547 h 1.09 m -2.18,0.547 h -1.09 v -0.547 h 1.09 m -2.183,0.547 h -1.09 v -0.547 h 1.09 m -2.18,0.547 h -1.09 v -0.547 h 1.09 m -2.18,0.547 h -1.094 v -0.547 h 1.094 m -2.183,0.547 h -1.09 v -0.547 h 1.09 m -2.18,0.547 h -1.09 v -0.547 h 1.09 m -2.18,0.547 h -1.094 v -0.547 h 1.094 m -2.183,0.547 h -1.09 v -0.547 h 1.09 m -2.18,0.547 h -1.09 v -0.547 h 1.09 m -2.184,0.547 h -1.089 v -0.547 h 1.089 m -2.179,0.547 h -1.09 v -0.547 h 1.09 m -2.18,0.547 h -1.094 v -0.547 h 1.094 m -2.184,0.547 h -1.089 v -0.547 h 1.089 m -2.179,0.547 h -1.09 v -0.547 h 1.09 m -2.18,0.547 h -1.094 v -0.547 h 1.094 m -2.184,0.547 h -1.089 v -0.547 h 1.089 m -2.179,0.547 h -1.09 v -0.547 h 1.09 m -2.184,0.547 h -1.09 v -0.547 h 1.09 m -2.18,0.547 h -1.089 v -0.547 h 1.089 m -2.179,0.547 h -1.09 v -0.547 h 1.09 m -2.184,0.547 h -1.09 v -0.547 h 1.09 m -2.179,0.547 h -1.09 v -0.547 h 1.09 m -2.18,0.547 h -1.094 v -0.547 h 1.094 m -2.184,0.547 h -1.09 v -0.547 h 1.09 m -2.179,0.547 h -1.09 v -0.547 h 1.09 m -2.184,0.547 h -1.09 v -0.547 h 1.09 m -2.18,0.547 h -1.09 v -0.547 h 1.09 m -2.179,0.547 h -1.09 v -0.547 h 1.09 m -2.184,0.547 h -1.09 v -0.547 h 1.09 m -2.18,0.547 h -1.09 v -0.547 h 1.09 m -2.179,0.547 h -1.094 v -0.547 h 1.094 m -2.184,0.547 h -1.09 v -0.547 h 1.09 m -2.18,0.547 h -1.09 v -0.547 h 1.09 m -2.179,0.547 h -1.094 v -0.547 h 1.094 m -2.184,0.547 h -1.09 v -0.547 h 1.09 m -2.18,0.547 h -1.09 v -0.547 h 1.09 m -2.183,0.547 h -1.09 v -0.547 h 1.09 m -2.18,0.547 h -1.09 v -0.547 h 1.09 m -2.18,0.547 h -1.093 v -0.547 h 1.093 m -2.183,0.547 h -1.09 v -0.547 h 1.09 m -2.18,0.547 h -0.363 v -0.547 h 0.363"
                   style="fill:#333333;fill-opacity:1;fill-rule:nonzero;stroke:none"
                   id="path35374" />
              </g>
            </g>
          </g>
        </g>
      </g>
    </g>
    <g
       id="g35376">
      <g
         id="g35378">
        <g
           id="g35380">
          <g
             id="g35382"
             clip-path="url(#clipPath35386)">
            <g
               id="g35388" />
            <g
               id="g35390">
              <g
                 id="g35392"
                 clip-path="url(#clipPath35396)">
                <g
                   id="g35398">
                  <g
                     id="g35400">
                    <g
                       id="g35402"
                       clip-path="url(#clipPath35406)">
                      <g
                         id="g35408" />
                      <g
                         id="g35410">
                        <g
                           id="g35412"
                           clip-path="url(#clipPath35416)">
                          <g
                             id="g35418">
                            <g
                               id="g35420">
                              <g
                                 id="g35422"
                                 clip-path="url(#clipPath35426)">
                                <g
                                   id="g35428">
                                <g
                                   id="g35430"
                                   transform="scale(-1)">
                                <path
                                   d="m -48.117,-258.875 4,1.82 -3.637,1.817 z"
                                   style="fill:#333333;fill-opacity:1;fill-rule:nonzero;stroke:#333333;stroke-width:0.363522;stroke-linecap:butt;stroke-linejoin:miter;stroke-miterlimit:10;stroke-dasharray:none;stroke-opacity:1"
                                   id="path35432" />
                                </g>
                                </g>
                              </g>
                            </g>
                          </g>
                        </g>
                      </g>
                    </g>
                  </g>
                </g>
              </g>
            </g>
          </g>
        </g>
      </g>
    </g>
    <g
       id="g35434">
      <g
         id="g35436"
         clip-path="url(#clipPath35440)">
        <g
           id="g35442">
          <g
             id="g35444">
            <g
               id="g35446"
               clip-path="url(#clipPath35450)">
              <g
                 id="g35452">
                <text
                   xml:space="preserve"
                   transform="translate(1.808666,269.81489)"
                   style="font-variant:normal;font-weight:normal;font-size:5.8125px;font-family:'DejaVu Sans';-inkscape-font-specification:DejaVuSans;writing-mode:lr-tb;fill:#333333;fill-opacity:1;fill-rule:nonzero;stroke:none"
                   id="text35456"><tspan
                     x="0 4.5750732 8.2589722 10.537994 14.22757 17.911469 22.038866 24.085161 27.641344 29.926428 35.588509 39.150368 41.42939 43.708412 47.284462 50.974037 54.751141 58.32719 61.35548 65.039375 66.654274 68.933296 71.524742 75.086601 78.776176 80.391075"
                     y="0"
                     id="tspan35454">OutputformattedResultTable</tspan></text>
                <g
                   id="g35458">
                  <path
                     d="m 43.793,274.504 c 21.809,-3.633 21.809,10.906 0,7.269"
                     style="fill:none;stroke:#333333;stroke-width:0.363522;stroke-linecap:butt;stroke-linejoin:miter;stroke-miterlimit:10;stroke-dasharray:none;stroke-opacity:1"
                     id="path35460" />
                </g>
              </g>
            </g>
          </g>
        </g>
      </g>
    </g>
    <g
       id="g35462">
      <g
         id="g35464">
        <g
           id="g35466">
          <g
             id="g35468"
             clip-path="url(#clipPath35472)">
            <g
               id="g35474" />
            <g
               id="g35476">
              <g
                 id="g35478"
                 clip-path="url(#clipPath35482)">
                <g
                   id="g35484">
                  <g
                     id="g35486">
                    <g
                       id="g35488"
                       clip-path="url(#clipPath35492)">
                      <g
                         id="g35494" />
                      <g
                         id="g35496">
                        <g
                           id="g35498"
                           clip-path="url(#clipPath35502)">
                          <g
                             id="g35504"
                             clip-path="url(#clipPath35508)">
                            <g
                               id="g35510">
                              <g
                                 id="g35512">
                                <g
                                   id="g35514"
                                   clip-path="url(#clipPath35518)">
                                <g
                                   id="g35520">
                                <g
                                   id="g35522"
                                   transform="matrix(-1,-0.166667,0.166667,-1,0,0)">
                                <path
                                   d="m -91.492,-268.853 3.943,1.796 -3.584,1.793 z"
                                   style="fill:#333333;fill-opacity:1;fill-rule:nonzero;stroke:#333333;stroke-width:0.358576;stroke-linecap:butt;stroke-linejoin:miter;stroke-miterlimit:10;stroke-dasharray:none;stroke-opacity:1"
                                   id="path35524" />
                                </g>
                                </g>
                                </g>
                              </g>
                            </g>
                          </g>
                        </g>
                      </g>
                    </g>
                  </g>
                </g>
              </g>
            </g>
          </g>
        </g>
      </g>
    </g>
  </g>
</svg>
