<?xml version="1.0" encoding="UTF-8" standalone="no"?>
<!-- Created with Inkscape (http://www.inkscape.org/) -->

<svg
   version="1.1"
   id="svg5587"
   width="700.01685"
   height="388.87344"
   viewBox="0 0 700.01684 388.87344"
   xmlns="http://www.w3.org/2000/svg"
   xmlns:svg="http://www.w3.org/2000/svg">
  <defs
     id="defs5591">
    <clipPath
       clipPathUnits="userSpaceOnUse"
       id="clipPath5603">
      <path
         d="M 0,0 H 2550 V 3300 H 0 Z"
         clip-rule="evenodd"
         id="path5601" />
    </clipPath>
    <clipPath
       clipPathUnits="userSpaceOnUse"
       id="clipPath5615">
      <path
         d="M 25,25 H 2525 V 1434.375 H 25 Z"
         clip-rule="evenodd"
         id="path5613" />
    </clipPath>
    <clipPath
       clipPathUnits="userSpaceOnUse"
       id="clipPath5817">
      <path
         d="m 2269.678,455.80646 h 22.3796 v 22.37955 h -22.3796 z"
         clip-rule="evenodd"
         id="path5815" />
    </clipPath>
    <clipPath
       clipPathUnits="userSpaceOnUse"
       id="clipPath5831">
      <path
         d="M 25,25 H 2525 V 1434.375 H 25 Z"
         clip-rule="evenodd"
         id="path5829" />
    </clipPath>
    <clipPath
       clipPathUnits="userSpaceOnUse"
       id="clipPath5849">
      <path
         d="M 0,0 H 2550 V 3300 H 0 Z"
         id="path5847" />
    </clipPath>
    <clipPath
       clipPathUnits="userSpaceOnUse"
       id="clipPath5855">
      <path
         d="M 25,25 H 2525 V 1434.375 H 25 Z"
         id="path5853" />
    </clipPath>
    <clipPath
       clipPathUnits="userSpaceOnUse"
       id="clipPath5861">
      <path
         d="m 350.25803,541.59479 h 22.37955 v 22.37958 h -22.37955 z"
         id="path5859" />
    </clipPath>
    <clipPath
       clipPathUnits="userSpaceOnUse"
       id="clipPath5875">
      <path
         d="M 25,25 H 2525 V 1434.375 H 25 Z"
         clip-rule="evenodd"
         id="path5873" />
    </clipPath>
    <clipPath
       clipPathUnits="userSpaceOnUse"
       id="clipPath5893">
      <path
         d="m 897.06519,634.84296 h 22.37958 v 22.37958 h -22.37958 z"
         clip-rule="evenodd"
         id="path5891" />
    </clipPath>
    <clipPath
       clipPathUnits="userSpaceOnUse"
       id="clipPath5907">
      <path
         d="M 25,25 H 2525 V 1434.375 H 25 Z"
         clip-rule="evenodd"
         id="path5905" />
    </clipPath>
    <clipPath
       clipPathUnits="userSpaceOnUse"
       id="clipPath5925">
      <path
         d="m 1465.8789,724.36115 h 22.3795 v 22.37958 h -22.3795 z"
         clip-rule="evenodd"
         id="path5923" />
    </clipPath>
    <clipPath
       clipPathUnits="userSpaceOnUse"
       id="clipPath5939">
      <path
         d="M 25,25 H 2525 V 1434.375 H 25 Z"
         clip-rule="evenodd"
         id="path5937" />
    </clipPath>
    <clipPath
       clipPathUnits="userSpaceOnUse"
       id="clipPath5957">
      <path
         d="M 0,0 H 2550 V 3300 H 0 Z"
         id="path5955" />
    </clipPath>
    <clipPath
       clipPathUnits="userSpaceOnUse"
       id="clipPath5963">
      <path
         d="M 25,25 H 2525 V 1434.375 H 25 Z"
         id="path5961" />
    </clipPath>
    <clipPath
       clipPathUnits="userSpaceOnUse"
       id="clipPath5969">
      <path
         d="m 926.53156,810.14948 h 22.37958 v 22.37958 h -22.37958 z"
         id="path5967" />
    </clipPath>
    <clipPath
       clipPathUnits="userSpaceOnUse"
       id="clipPath5983">
      <path
         d="M 25,25 H 2525 V 1434.375 H 25 Z"
         clip-rule="evenodd"
         id="path5981" />
    </clipPath>
    <clipPath
       clipPathUnits="userSpaceOnUse"
       id="clipPath6001">
      <path
         d="M 0,0 H 2550 V 3300 H 0 Z"
         id="path5999" />
    </clipPath>
    <clipPath
       clipPathUnits="userSpaceOnUse"
       id="clipPath6007">
      <path
         d="M 25,25 H 2525 V 1434.375 H 25 Z"
         id="path6005" />
    </clipPath>
    <clipPath
       clipPathUnits="userSpaceOnUse"
       id="clipPath6013">
      <path
         d="m 350.25803,899.66766 h 22.37955 v 22.37958 h -22.37955 z"
         id="path6011" />
    </clipPath>
    <clipPath
       clipPathUnits="userSpaceOnUse"
       id="clipPath6027">
      <path
         d="M 25,25 H 2525 V 1434.375 H 25 Z"
         clip-rule="evenodd"
         id="path6025" />
    </clipPath>
    <clipPath
       clipPathUnits="userSpaceOnUse"
       id="clipPath6045">
      <path
         d="m 1888.293,1011.5655 h 22.3795 v 22.3796 h -22.3795 z"
         clip-rule="evenodd"
         id="path6043" />
    </clipPath>
    <clipPath
       clipPathUnits="userSpaceOnUse"
       id="clipPath6059">
      <path
         d="M 25,25 H 2525 V 1434.375 H 25 Z"
         clip-rule="evenodd"
         id="path6057" />
    </clipPath>
    <clipPath
       clipPathUnits="userSpaceOnUse"
       id="clipPath6077">
      <path
         d="M 0,0 H 2550 V 3300 H 0 Z"
         id="path6075" />
    </clipPath>
    <clipPath
       clipPathUnits="userSpaceOnUse"
       id="clipPath6083">
      <path
         d="M 25,25 H 2525 V 1434.375 H 25 Z"
         id="path6081" />
    </clipPath>
    <clipPath
       clipPathUnits="userSpaceOnUse"
       id="clipPath6089">
      <path
         d="m 350.25803,1097.3539 h 22.37955 v 22.3795 h -22.37955 z"
         id="path6087" />
    </clipPath>
    <clipPath
       clipPathUnits="userSpaceOnUse"
       id="clipPath6103">
      <path
         d="M 25,25 H 2525 V 1434.375 H 25 Z"
         clip-rule="evenodd"
         id="path6101" />
    </clipPath>
    <clipPath
       clipPathUnits="userSpaceOnUse"
       id="clipPath6121">
      <path
         d="M 0,0 H 2550 V 3300 H 0 Z"
         id="path6119" />
    </clipPath>
    <clipPath
       clipPathUnits="userSpaceOnUse"
       id="clipPath6127">
      <path
         d="M 25,25 H 2525 V 1434.375 H 25 Z"
         id="path6125" />
    </clipPath>
    <clipPath
       clipPathUnits="userSpaceOnUse"
       id="clipPath6133">
      <path
         d="m 365.30927,1248.8461 -22.07508,-3.6792 3.6792,-22.0751 22.07504,3.6792 z"
         id="path6131" />
    </clipPath>
  </defs>
  <g
     id="g5595"
     transform="matrix(0.31999998,0,0,0.31999998,-18.153089,-14.187879)">
    <g
       id="g8256"
       transform="matrix(0.97178585,0,0,0.97178585,32.46052,20.068912)"
       style="stroke-width:1.02903">
      <g
         id="g10331"
         transform="matrix(0.97853553,0,0,0.9785356,24.695013,13.967048)"
         style="stroke-width:1.0516">
        <g
           id="g5597"
           transform="matrix(0.90040381,0,0,0.88726177,2.4899048,2.8184556)"
           style="stroke-width:1.17654">
          <g
             id="g5599"
             clip-path="url(#clipPath5603)"
             style="stroke-width:1.17654">
            <g
               id="g5605"
               transform="matrix(3.125,0,0,3.125,25,25)"
               style="stroke-width:1.17654">
              <path
                 d="M 0,0 H 800 V 451 H 0 Z"
                 style="fill:#ffffff;fill-opacity:1;fill-rule:nonzero;stroke:none;stroke-width:1.17654"
                 id="path5607" />
            </g>
          </g>
        </g>
        <g
           id="g10143"
           style="stroke-width:1.0516">
          <g
             id="g7215"
             transform="translate(-156.66584,-17.717281)"
             style="stroke-width:1.0516">
            <g
               id="g5609"
               style="stroke-width:1.0516">
              <g
                 id="g5611"
                 clip-path="url(#clipPath5615)"
                 style="stroke-width:1.0516">
                <g
                   id="g5677"
                   transform="matrix(1.8649631,0,0,1.8649631,210.5723,43.649632)"
                   style="stroke-width:1.0516">
                  <path
                     d="M 1116,65 V 670"
                     style="fill:none;stroke:#d4d4d4;stroke-width:1.0516;stroke-linecap:butt;stroke-linejoin:miter;stroke-miterlimit:10;stroke-dasharray:none;stroke-opacity:1"
                     id="path5679" />
                  <path
                     d="m 1044,0 h 144 c 0.3977,0 0.7804,0.07612045 1.148,0.22836138 0.3675,0.15224092 0.6918,0.36901366 0.9732,0.65031825 0.2813,0.28130447 0.4981,0.60572777 0.6503,0.97326997 C 1190.9237,2.2194917 1190.9999,2.6021752 1191,3 v 59 c -10e-5,0.397823 -0.076,0.780502 -0.2285,1.148045 -0.1522,0.367542 -0.369,0.691963 -0.6503,0.97327 -0.2814,0.281303 -0.6057,0.49807 -0.9732,0.650314 -0.3676,0.152245 -0.7503,0.228363 -1.148,0.228371 h -144 c -0.3978,-8e-6 -0.7806,-0.07613 -1.1482,-0.228371 -0.3675,-0.152244 -0.6919,-0.369011 -0.9731,-0.650314 -0.2814,-0.281307 -0.4983,-0.605728 -0.6505,-0.97327 C 1041.0759,62.780502 1040.9999,62.397823 1041,62 V 3 c -10e-5,-0.3978248 0.076,-0.7805083 0.2283,-1.1480504 0.1522,-0.3675422 0.369,-0.6919655 0.6504,-0.97326997 0.2812,-0.28130459 0.6056,-0.49807733 0.9731,-0.65031825 C 1043.2194,0.07612045 1043.6022,0 1044,0 Z"
                     style="fill:#eeeeee;fill-opacity:1;fill-rule:nonzero;stroke:none;stroke-width:1.0516"
                     id="path5681" />
                  <path
                     d="m 1044,0 h 144 c 0.3977,0 0.7804,0.07612045 1.148,0.22836138 0.3675,0.15224092 0.6918,0.36901366 0.9732,0.65031825 0.2813,0.28130447 0.4981,0.60572777 0.6503,0.97326997 C 1190.9237,2.2194917 1190.9999,2.6021752 1191,3 v 59 c -10e-5,0.397823 -0.076,0.780502 -0.2285,1.148045 -0.1522,0.367542 -0.369,0.691963 -0.6503,0.97327 -0.2814,0.281303 -0.6057,0.49807 -0.9732,0.650314 -0.3676,0.152245 -0.7503,0.228363 -1.148,0.228371 h -144 c -0.3978,-8e-6 -0.7806,-0.07613 -1.1482,-0.228371 -0.3675,-0.152244 -0.6919,-0.369011 -0.9731,-0.650314 -0.2814,-0.281307 -0.4983,-0.605728 -0.6505,-0.97327 C 1041.0759,62.780502 1040.9999,62.397823 1041,62 V 3 c -10e-5,-0.3978248 0.076,-0.7805083 0.2283,-1.1480504 0.1522,-0.3675422 0.369,-0.6919655 0.6504,-0.97326997 0.2812,-0.28130459 0.6056,-0.49807733 0.9731,-0.65031825 C 1043.2194,0.07612045 1043.6022,0 1044,0 Z"
                     style="fill:none;stroke:#d4d4d4;stroke-width:1.0516;stroke-linecap:butt;stroke-linejoin:miter;stroke-miterlimit:10;stroke-dasharray:none;stroke-opacity:1"
                     id="path5683" />
                </g>
                <g
                   id="g5685"
                   transform="matrix(3.125,0,0,3.125,210.5723,43.649632)"
                   style="stroke-width:1.0516">
                  <text
                     xml:space="preserve"
                     transform="translate(627.48438,23.390625)"
                     style="font-variant:normal;font-weight:normal;font-size:9.54px;font-family:'DejaVu Sans';-inkscape-font-specification:DejaVuSans;writing-mode:lr-tb;fill:#000000;fill-opacity:1;fill-rule:nonzero;stroke:none;stroke-width:1.0516"
                     id="text5689"><tspan
                       x="0 6.5387726 12.402725 18.443527 23.683853 29.724655 39.009247 44.84993 48.768539 54.288101 61.62735 67.468033 71.205139"
                       y="0"
                       id="tspan5687"
                       style="stroke-width:1.0516">BenchmarkData</tspan></text>
                </g>
                <g
                   id="g5691"
                   transform="matrix(1.8649631,0,0,1.8649631,210.5723,43.649632)"
                   style="stroke-width:1.0516">
                  <path
                     d="M 911.5,65 V 670"
                     style="fill:none;stroke:#d4d4d4;stroke-width:1.0516;stroke-linecap:butt;stroke-linejoin:miter;stroke-miterlimit:10;stroke-dasharray:none;stroke-opacity:1"
                     id="path5693" />
                  <path
                     d="m 835,0 h 153 c 0.39777,0 0.7804,0.07612045 1.14789,0.22836138 0.36755,0.15224092 0.69201,0.36901366 0.97339,0.65031825 0.28119,0.28130447 0.49798,0.60572777 0.65027,0.97326997 C 990.92377,2.2194917 990.99994,2.6021752 991,3 v 59 c -6e-5,0.397823 -0.0762,0.780502 -0.22845,1.148045 -0.15229,0.367542 -0.36908,0.691963 -0.65027,0.97327 -0.28138,0.281303 -0.60584,0.49807 -0.97339,0.650314 C 988.7804,64.923874 988.39777,64.999992 988,65 H 835 c -0.39789,-8e-6 -0.78064,-0.07613 -1.14819,-0.228371 -0.36756,-0.152244 -0.69196,-0.369011 -0.97321,-0.650314 -0.28137,-0.281307 -0.49817,-0.605728 -0.65039,-0.97327 C 832.07599,62.780502 831.99994,62.397823 832,62 V 3 c -6e-5,-0.3978248 0.076,-0.7805083 0.22827,-1.1480504 0.15216,-0.3675422 0.36896,-0.6919655 0.65033,-0.97326997 0.28125,-0.28130459 0.60565,-0.49807733 0.97321,-0.65031825 C 834.21936,0.07612045 834.60211,0 835,0 Z"
                     style="fill:#eeeeee;fill-opacity:1;fill-rule:nonzero;stroke:none;stroke-width:1.0516"
                     id="path5695" />
                  <path
                     d="m 835,0 h 153 c 0.39777,0 0.7804,0.07612045 1.14789,0.22836138 0.36755,0.15224092 0.69201,0.36901366 0.97339,0.65031825 0.28119,0.28130447 0.49798,0.60572777 0.65027,0.97326997 C 990.92377,2.2194917 990.99994,2.6021752 991,3 v 59 c -6e-5,0.397823 -0.0762,0.780502 -0.22845,1.148045 -0.15229,0.367542 -0.36908,0.691963 -0.65027,0.97327 -0.28138,0.281303 -0.60584,0.49807 -0.97339,0.650314 C 988.7804,64.923874 988.39777,64.999992 988,65 H 835 c -0.39789,-8e-6 -0.78064,-0.07613 -1.14819,-0.228371 -0.36756,-0.152244 -0.69196,-0.369011 -0.97321,-0.650314 -0.28137,-0.281307 -0.49817,-0.605728 -0.65039,-0.97327 C 832.07599,62.780502 831.99994,62.397823 832,62 V 3 c -6e-5,-0.3978248 0.076,-0.7805083 0.22827,-1.1480504 0.15216,-0.3675422 0.36896,-0.6919655 0.65033,-0.97326997 0.28125,-0.28130459 0.60565,-0.49807733 0.97321,-0.65031825 C 834.21936,0.07612045 834.60211,0 835,0 Z"
                     style="fill:none;stroke:#d4d4d4;stroke-width:1.0516;stroke-linecap:butt;stroke-linejoin:miter;stroke-miterlimit:10;stroke-dasharray:none;stroke-opacity:1"
                     id="path5697" />
                </g>
                <g
                   id="g5699"
                   transform="matrix(3.125,0,0,3.125,210.5723,43.649632)"
                   style="stroke-width:1.0516">
                  <text
                     xml:space="preserve"
                     transform="translate(502.45313,23.390625)"
                     style="font-variant:normal;font-weight:normal;font-size:9.54px;font-family:'DejaVu Sans';-inkscape-font-specification:DejaVuSans;writing-mode:lr-tb;fill:#000000;fill-opacity:1;fill-rule:nonzero;stroke:none;stroke-width:1.0516"
                     id="text5703"><tspan
                       x="0 6.193985 12.057938 17.023682 23.064484 25.71257 29.449677 35.969833 42.019943 48.070053 51.779037 57.64299 63.6931 69.533783 73.270889 79.102264"
                       y="0"
                       id="tspan5701"
                       style="stroke-width:1.0516">ResultAggregator</tspan></text>
                </g>
                <g
                   id="g5705"
                   transform="matrix(1.8649631,0,0,1.8649631,210.5723,43.649632)"
                   style="stroke-width:1.0516">
                  <path
                     d="M 685,65 V 670"
                     style="fill:none;stroke:#d4d4d4;stroke-width:1.0516;stroke-linecap:butt;stroke-linejoin:miter;stroke-miterlimit:10;stroke-dasharray:none;stroke-opacity:1"
                     id="path5707" />
                  <path
                     d="m 591,0 h 188 c 0.39777,0 0.78046,0.07612045 1.14801,0.22836138 0.36749,0.15224092 0.69189,0.36901366 0.97327,0.65031825 0.28125,0.28130447 0.49798,0.60572777 0.65027,0.97326997 C 781.92383,2.2194917 781.99994,2.6021752 782,3 v 59 c -6e-5,0.397823 -0.0762,0.780502 -0.22845,1.148045 -0.15229,0.367542 -0.36902,0.691963 -0.65027,0.97327 -0.28138,0.281303 -0.60578,0.49807 -0.97327,0.650314 C 779.78046,64.923874 779.39777,64.999992 779,65 H 591 c -0.39789,-8e-6 -0.78058,-0.07613 -1.14813,-0.228371 -0.36749,-0.152244 -0.6919,-0.369011 -0.97321,-0.650314 -0.28131,-0.281307 -0.49811,-0.605728 -0.65033,-0.97327 C 588.07611,62.780502 588,62.397823 588,62 V 3 c 0,-0.3978248 0.0761,-0.7805083 0.22833,-1.1480504 0.15222,-0.3675422 0.36902,-0.6919655 0.65033,-0.97326997 0.28131,-0.28130459 0.60572,-0.49807733 0.97321,-0.65031825 C 590.21942,0.07612045 590.60211,0 591,0 Z"
                     style="fill:#eeeeee;fill-opacity:1;fill-rule:nonzero;stroke:none;stroke-width:1.0516"
                     id="path5709" />
                  <path
                     d="m 591,0 h 188 c 0.39777,0 0.78046,0.07612045 1.14801,0.22836138 0.36749,0.15224092 0.69189,0.36901366 0.97327,0.65031825 0.28125,0.28130447 0.49798,0.60572777 0.65027,0.97326997 C 781.92383,2.2194917 781.99994,2.6021752 782,3 v 59 c -6e-5,0.397823 -0.0762,0.780502 -0.22845,1.148045 -0.15229,0.367542 -0.36902,0.691963 -0.65027,0.97327 -0.28138,0.281303 -0.60578,0.49807 -0.97327,0.650314 C 779.78046,64.923874 779.39777,64.999992 779,65 H 591 c -0.39789,-8e-6 -0.78058,-0.07613 -1.14813,-0.228371 -0.36749,-0.152244 -0.6919,-0.369011 -0.97321,-0.650314 -0.28131,-0.281307 -0.49811,-0.605728 -0.65033,-0.97327 C 588.07611,62.780502 588,62.397823 588,62 V 3 c 0,-0.3978248 0.0761,-0.7805083 0.22833,-1.1480504 0.15222,-0.3675422 0.36902,-0.6919655 0.65033,-0.97326997 0.28131,-0.28130459 0.60572,-0.49807733 0.97321,-0.65031825 C 590.21942,0.07612045 590.60211,0 591,0 Z"
                     style="fill:none;stroke:#d4d4d4;stroke-width:1.0516;stroke-linecap:butt;stroke-linejoin:miter;stroke-miterlimit:10;stroke-dasharray:none;stroke-opacity:1"
                     id="path5711" />
                </g>
                <g
                   id="g5713"
                   transform="matrix(3.125,0,0,3.125,210.5723,43.649632)"
                   style="stroke-width:1.0516">
                  <text
                     xml:space="preserve"
                     transform="translate(357.125,23.390625)"
                     style="font-variant:normal;font-weight:normal;font-size:9.54px;font-family:'DejaVu Sans';-inkscape-font-specification:DejaVuSans;writing-mode:lr-tb;fill:#000000;fill-opacity:1;fill-rule:nonzero;stroke:none;stroke-width:1.0516"
                     id="text5717"><tspan
                       x="0 6.6551208 12.486496 18.527298 23.767624 27.476608 33.340561 37.077667 42.94162 48.99173 54.823105 58.741714 62.478821 68.528931 72.266037 76.184647 82.02533 85.762436 91.626389 97.676498"
                       y="0"
                       id="tspan5715"
                       style="stroke-width:1.0516">ConcreteSortStrategy</tspan></text>
                </g>
                <g
                   id="g5719"
                   transform="matrix(1.8649631,0,0,1.8649631,210.5723,43.649632)"
                   style="stroke-width:1.0516">
                  <path
                     d="M 380,65 V 670"
                     style="fill:none;stroke:#d4d4d4;stroke-width:1.0516;stroke-linecap:butt;stroke-linejoin:miter;stroke-miterlimit:10;stroke-dasharray:none;stroke-opacity:1"
                     id="path5721" />
                  <path
                     d="m 308,0 h 144 c 0.3978,0 0.78046,0.07612045 1.14801,0.22836138 0.36752,0.15224092 0.69193,0.36901366 0.97327,0.65031825 0.28128,0.28130447 0.49804,0.60572777 0.6503,0.97326997 C 454.92383,2.2194917 454.99997,2.6021752 455,3 v 59 c -3e-5,0.397823 -0.0762,0.780502 -0.22842,1.148045 -0.15226,0.367542 -0.36902,0.691963 -0.6503,0.97327 -0.28134,0.281303 -0.60575,0.49807 -0.97327,0.650314 C 452.78046,64.923874 452.3978,64.999992 452,65 H 308 c -0.39786,-8e-6 -0.78055,-0.07613 -1.14807,-0.228371 -0.36755,-0.152244 -0.69196,-0.369011 -0.97324,-0.650314 -0.28131,-0.281307 -0.49811,-0.605728 -0.65036,-0.97327 C 305.07608,62.780502 304.99997,62.397823 305,62 V 3 c -3e-5,-0.3978248 0.0761,-0.7805083 0.22833,-1.1480504 0.15225,-0.3675422 0.36905,-0.6919655 0.65036,-0.97326997 0.28128,-0.28130459 0.60569,-0.49807733 0.97324,-0.65031825 C 307.21945,0.07612045 307.60214,0 308,0 Z"
                     style="fill:#eeeeee;fill-opacity:1;fill-rule:nonzero;stroke:none;stroke-width:1.0516"
                     id="path5723" />
                  <path
                     d="m 308,0 h 144 c 0.3978,0 0.78046,0.07612045 1.14801,0.22836138 0.36752,0.15224092 0.69193,0.36901366 0.97327,0.65031825 0.28128,0.28130447 0.49804,0.60572777 0.6503,0.97326997 C 454.92383,2.2194917 454.99997,2.6021752 455,3 v 59 c -3e-5,0.397823 -0.0762,0.780502 -0.22842,1.148045 -0.15226,0.367542 -0.36902,0.691963 -0.6503,0.97327 -0.28134,0.281303 -0.60575,0.49807 -0.97327,0.650314 C 452.78046,64.923874 452.3978,64.999992 452,65 H 308 c -0.39786,-8e-6 -0.78055,-0.07613 -1.14807,-0.228371 -0.36755,-0.152244 -0.69196,-0.369011 -0.97324,-0.650314 -0.28131,-0.281307 -0.49811,-0.605728 -0.65036,-0.97327 C 305.07608,62.780502 304.99997,62.397823 305,62 V 3 c -3e-5,-0.3978248 0.0761,-0.7805083 0.22833,-1.1480504 0.15225,-0.3675422 0.36905,-0.6919655 0.65036,-0.97326997 0.28128,-0.28130459 0.60569,-0.49807733 0.97324,-0.65031825 C 307.21945,0.07612045 307.60214,0 308,0 Z"
                     style="fill:none;stroke:#d4d4d4;stroke-width:1.0516;stroke-linecap:butt;stroke-linejoin:miter;stroke-miterlimit:10;stroke-dasharray:none;stroke-opacity:1"
                     id="path5725" />
                </g>
                <g
                   id="g5727"
                   transform="matrix(3.125,0,0,3.125,210.5723,43.649632)"
                   style="stroke-width:1.0516">
                  <text
                     xml:space="preserve"
                     transform="translate(212.10938,23.390625)"
                     style="font-variant:normal;font-weight:normal;font-size:9.54px;font-family:'DejaVu Sans';-inkscape-font-specification:DejaVuSans;writing-mode:lr-tb;fill:#000000;fill-opacity:1;fill-rule:nonzero;stroke:none;stroke-width:1.0516"
                     id="text5731"><tspan
                       x="0 6.0501099 11.881485 15.800095 19.537201 25.401154"
                       y="0"
                       id="tspan5729"
                       style="stroke-width:1.0516">Sorter</tspan></text>
                </g>
                <g
                   id="g5733"
                   transform="matrix(1.8649631,0,0,1.8649631,210.5723,43.649632)"
                   style="stroke-width:1.0516">
                  <path
                     d="M 75,65 V 670"
                     style="fill:none;stroke:#d4d4d4;stroke-width:1.0516;stroke-linecap:butt;stroke-linejoin:miter;stroke-miterlimit:10;stroke-dasharray:none;stroke-opacity:1"
                     id="path5735" />
                  <path
                     d="m 3,0 h 144 c 0.39781,0 0.78049,0.07612045 1.14803,0.22836138 0.36753,0.15224092 0.69197,0.36901366 0.97328,0.65031825 0.28129,0.28130447 0.49807,0.60572777 0.65031,0.97326997 C 149.92386,2.2194917 149.99998,2.6021752 150,3 v 59 c -2e-5,0.397823 -0.0761,0.780502 -0.22838,1.148045 -0.15224,0.367542 -0.36902,0.691963 -0.65031,0.97327 -0.28131,0.281303 -0.60575,0.49807 -0.97328,0.650314 C 147.78049,64.923874 147.39781,64.999992 147,65 H 3 C 2.6021752,64.999992 2.2194917,64.923874 1.8519496,64.771629 1.4844074,64.619385 1.1599841,64.402618 0.87867963,64.121315 0.59737504,63.840008 0.3806023,63.515587 0.22836138,63.148045 0.07612045,62.780502 0,62.397823 0,62 V 3 C 0,2.6021752 0.07612045,2.2194917 0.22836138,1.8519496 0.3806023,1.4844074 0.59737504,1.1599841 0.87867963,0.87867963 1.1599841,0.59737504 1.4844074,0.3806023 1.8519496,0.22836138 2.2194917,0.07612045 2.6021752,0 3,0 Z"
                     style="fill:#eeeeee;fill-opacity:1;fill-rule:nonzero;stroke:none;stroke-width:1.0516"
                     id="path5737" />
                  <path
                     d="m 3,0 h 144 c 0.39781,0 0.78049,0.07612045 1.14803,0.22836138 0.36753,0.15224092 0.69197,0.36901366 0.97328,0.65031825 0.28129,0.28130447 0.49807,0.60572777 0.65031,0.97326997 C 149.92386,2.2194917 149.99998,2.6021752 150,3 v 59 c -2e-5,0.397823 -0.0761,0.780502 -0.22838,1.148045 -0.15224,0.367542 -0.36902,0.691963 -0.65031,0.97327 -0.28131,0.281303 -0.60575,0.49807 -0.97328,0.650314 C 147.78049,64.923874 147.39781,64.999992 147,65 H 3 C 2.6021752,64.999992 2.2194917,64.923874 1.8519496,64.771629 1.4844074,64.619385 1.1599841,64.402618 0.87867963,64.121315 0.59737504,63.840008 0.3806023,63.515587 0.22836138,63.148045 0.07612045,62.780502 0,62.397823 0,62 V 3 C 0,2.6021752 0.07612045,2.2194917 0.22836138,1.8519496 0.3806023,1.4844074 0.59737504,1.1599841 0.87867963,0.87867963 1.1599841,0.59737504 1.4844074,0.3806023 1.8519496,0.22836138 2.2194917,0.07612045 2.6021752,0 3,0 Z"
                     style="fill:none;stroke:#d4d4d4;stroke-width:1.0516;stroke-linecap:butt;stroke-linejoin:miter;stroke-miterlimit:10;stroke-dasharray:none;stroke-opacity:1"
                     id="path5739" />
                </g>
                <g
                   id="g5741"
                   transform="matrix(3.125,0,0,3.125,210.5723,43.649632)"
                   style="stroke-width:1.0516">
                  <text
                     xml:space="preserve"
                     transform="translate(33.375,23.390625)"
                     style="font-variant:normal;font-weight:normal;font-size:9.54px;font-family:'DejaVu Sans';-inkscape-font-specification:DejaVuSans;writing-mode:lr-tb;fill:#000000;fill-opacity:1;fill-rule:nonzero;stroke:none;stroke-width:1.0516"
                     id="text5745"><tspan
                       x="0 8.2234955 14.064178 16.712265"
                       y="0"
                       id="tspan5743"
                       style="stroke-width:1.0516">Main</tspan></text>
                </g>
                <g
                   id="g5747"
                   transform="matrix(1.8649631,0,0,1.8649631,210.5723,43.649632)"
                   style="fill:#999999;stroke-width:1.0516">
                  <path
                     d="m -15,75 h 180 v 58 H -15 Z"
                     style="fill:#999999;fill-opacity:1;fill-rule:nonzero;stroke:none;stroke-width:1.0516"
                     id="path5749" />
                  <path
                     d="m -15,75 h 180 v 58 H -15 Z"
                     style="fill:#999999;stroke:#999999;stroke-width:1.0516;stroke-linecap:butt;stroke-linejoin:miter;stroke-miterlimit:10;stroke-dasharray:none;stroke-opacity:1"
                     id="path5751" />
                </g>
                <g
                   id="g5753"
                   transform="matrix(3.125,0,0,3.125,210.5723,43.649632)"
                   style="stroke-width:1.0516">
                  <text
                     xml:space="preserve"
                     transform="translate(5.9375,60.28125)"
                     style="font-variant:normal;font-weight:normal;font-size:9.54px;font-family:'DejaVu Sans';-inkscape-font-specification:DejaVuSans;writing-mode:lr-tb;fill:#ffffff;fill-opacity:1;fill-rule:nonzero;stroke:none;stroke-width:1.0516"
                     id="text5757"><tspan
                       x="0 7.3392487 13.179932 16.917038 22.757721 25.78743 31.83754 37.701492 43.742294 49.606247 53.524857 59.36554 63.102646 65.750732 71.582108"
                       y="0"
                       id="tspan5755"
                       style="stroke-width:1.0516">Data generation</tspan></text>
                  <text
                     xml:space="preserve"
                     transform="translate(-2.71875,71.625)"
                     style="font-variant:normal;font-weight:normal;font-size:9.54px;font-family:'DejaVu Sans';-inkscape-font-specification:DejaVuSans;writing-mode:lr-tb;fill:#ffffff;fill-opacity:1;fill-rule:nonzero;stroke:none;stroke-width:1.0516"
                     id="text5761"><tspan
                       x="0 5.840683 11.881485 17.931595 20.961304 28.756638 34.597321 38.348236 47.632828 51.072083 57.112885 63.162994 66.192703 72.242813 78.283615 84.124298 89.090042"
                       y="0"
                       id="tspan5759"
                       style="stroke-width:1.0516">and warm-up phase</tspan></text>
                </g>
                <g
                   id="g5763"
                   transform="matrix(1.8649631,0,0,1.8649631,210.5723,43.649632)"
                   style="stroke-width:1.0516">
                  <path
                     d="m 375,322 h 10 v 144 h -10 z"
                     style="fill:#f4f4f4;fill-opacity:1;fill-rule:nonzero;stroke:none;stroke-width:1.0516"
                     id="path5765" />
                  <path
                     d="m 375,322 h 10 v 144 h -10 z"
                     style="fill:none;stroke:#666666;stroke-width:1.0516;stroke-linecap:butt;stroke-linejoin:miter;stroke-miterlimit:10;stroke-dasharray:none;stroke-opacity:1"
                     id="path5767" />
                  <path
                     d="m 680,372 h 10 v 46 h -10 z"
                     style="fill:#f4f4f4;fill-opacity:1;fill-rule:nonzero;stroke:none;stroke-width:1.0516"
                     id="path5769" />
                  <path
                     d="m 680,372 h 10 v 46 h -10 z"
                     style="fill:none;stroke:#666666;stroke-width:1.0516;stroke-linecap:butt;stroke-linejoin:miter;stroke-miterlimit:10;stroke-dasharray:none;stroke-opacity:1"
                     id="path5771" />
                  <path
                     d="m 64,142 h 2 v 2 h -2 m 4,-2 h 2 v 2 h -2 m 4,-2 h 2 v 2 h -2 m 4,-2 h 2 v 2 h -2 m 4,-2 h 2 v 2 h -2 m 4,-2 h 2 v 2 h -2 m 4,-2 h 2 v 2 h -2 m 4,-2 h 2 v 2 h -2 m 4,-2 h 2 v 2 h -2 m 4,-2 h 2 v 2 h -2 m 4,-2 h 2 v 2 h -2 m 4,-2 h 2 v 2 h -2 m 4,-2 h 2 v 2 h -2 m 4,-2 h 2 v 2 h -2 m 4,-2 h 2 v 2 h -2 m 4,-2 h 2 v 2 h -2 m 4,-2 h 2 v 2 h -2 m 4,-2 h 2 v 2 h -2 m 4,-2 h 2 v 2 h -2 m 4,-2 h 2 v 2 h -2 m 4,-2 h 2 v 2 h -2 m 4,-2 h 2 v 2 h -2 m 4,-2 h 2 v 2 h -2 m 4,-2 h 2 v 2 h -2 m 4,-2 h 2 v 2 h -2 m 4,-2 h 2 v 2 h -2 m 4,-2 h 2 v 2 h -2 m 4,-2 h 2 v 2 h -2 m 4,-2 h 2 v 2 h -2 m 4,-2 h 2 v 2 h -2 m 4,-2 h 2 v 2 h -2 m 4,-2 h 2 v 2 h -2 m 4,-2 h 2 v 2 h -2 m 4,-2 h 2 v 2 h -2 m 4,-2 h 2 v 2 h -2 m 4,-2 h 2 v 2 h -2 m 4,-2 h 2 v 2 h -2 m 4,-2 h 2 v 2 h -2 m 4,-2 h 2 v 2 h -2 m 4,-2 h 2 v 2 h -2 m 4,-2 h 2 v 2 h -2 m 4,-2 h 2 v 2 h -2 m 4,-2 h 2 v 2 h -2 m 4,-2 h 2 v 2 h -2 m 4,-2 h 2 v 2 h -2 m 4,-2 h 2 v 2 h -2 m 4,-2 h 2 v 2 h -2 m 4,-2 h 2 v 2 h -2 m 4,-2 h 2 v 2 h -2 m 4,-2 h 2 v 2 h -2 m 4,-2 h 2 v 2 h -2 m 4,-2 h 2 v 2 h -2 m 4,-2 h 2 v 2 h -2 m 4,-2 h 2 v 2 h -2 m 4,-2 h 2 v 2 h -2 m 4,-2 h 2 v 2 h -2 m 4,-2 h 2 v 2 h -2 m 4,-2 h 2 v 2 h -2 m 4,-2 h 2 v 2 h -2 m 4,-2 h 2 v 2 h -2 m 4,-2 h 2 v 2 h -2 m 4,-2 h 2 v 2 h -2 m 4,-2 h 2 v 2 h -2 m 4,-2 h 2 v 2 h -2 m 4,-2 h 2 v 2 h -2 m 4,-2 h 2 v 2 h -2 m 4,-2 h 2 v 2 h -2 m 4,-2 h 2 v 2 h -2 m 4,-2 h 2 v 2 h -2 m 4,-2 h 2 v 2 h -2 m 4,-2 h 2 v 2 h -2 m 4,-2 h 2 v 2 h -2 m 4,-2 h 2 v 2 h -2 m 4,-2 h 2 v 2 h -2 m 4,-2 h 2 v 2 h -2 m 4,-2 h 2 v 2 h -2 m 4,-2 h 2 v 2 h -2 m 4,-2 h 2 v 2 h -2 m 4,-2 h 2 v 2 h -2 m 4,-2 h 2 v 2 h -2 m 4,-2 h 2 v 2 h -2 m 4,-2 h 2 v 2 h -2 m 4,-2 h 2 v 2 h -2 m 4,-2 h 2 v 2 h -2 m 4,-2 h 2 v 2 h -2 m 4,-2 h 2 v 2 h -2 m 4,-2 h 2 v 2 h -2 m 4,-2 h 2 v 2 h -2 m 4,-2 h 2 v 2 h -2 m 4,-2 h 2 v 2 h -2 m 4,-2 h 2 v 2 h -2 m 4,-2 h 2 v 2 h -2 m 4,-2 h 2 v 2 h -2 m 4,-2 h 2 v 2 h -2 m 4,-2 h 2 v 2 h -2 m 4,-2 h 2 v 2 h -2 m 4,-2 h 2 v 2 h -2 m 4,-2 h 2 v 2 h -2 m 4,-2 h 2 v 2 h -2 m 4,-2 h 2 v 2 h -2 m 4,-2 h 2 v 2 h -2 m 4,-2 h 2 v 2 h -2 m 4,-2 h 2 v 2 h -2 m 4,-2 h 2 v 2 h -2 m 4,-2 h 2 v 2 h -2 m 4,-2 h 2 v 2 h -2 m 4,-2 h 2 v 2 h -2 m 4,-2 h 2 v 2 h -2 m 4,-2 h 2 v 2 h -2 m 4,-2 h 2 v 2 h -2 m 4,-2 h 2 v 2 h -2 m 4,-2 h 2 v 2 h -2 m 4,-2 h 2 v 2 h -2 m 4,-2 h 2 v 2 h -2 m 4,-2 h 2 v 2 h -2 m 4,-2 h 2 v 2 h -2 m 4,-2 h 2 v 2 h -2 m 4,-2 h 2 v 2 h -2 m 4,-2 h 2 v 2 h -2 m 4,-2 h 2 v 2 h -2 m 4,-2 h 2 v 2 h -2 m 4,-2 h 2 v 2 h -2 m 4,-2 h 2 v 2 h -2 m 4,-2 h 2 v 2 h -2 m 4,-2 h 2 v 2 h -2 m 4,-2 h 2 v 2 h -2 m 4,-2 h 2 v 2 h -2 m 4,-2 h 2 v 2 h -2 m 4,-2 h 2 v 2 h -2 m 4,-2 h 2 v 2 h -2 m 4,-2 h 2 v 2 h -2 m 4,-2 h 2 v 2 h -2 m 4,-2 h 2 v 2 h -2 m 4,-2 h 2 v 2 h -2 m 4,-2 h 2 v 2 h -2 m 4,-2 h 2 v 2 h -2 m 4,-2 h 2 v 2 h -2 m 4,-2 h 2 v 2 h -2 m 4,-2 h 2 v 2 h -2 m 4,-2 h 2 v 2 h -2 m 4,-2 h 2 v 2 h -2 m 4,-2 h 2 v 2 h -2 m 4,-2 h 2 v 2 h -2 m 4,-2 h 2 v 2 h -2 m 4,-2 h 2 v 2 h -2 m 4,-2 h 2 v 2 h -2 m 4,-2 h 2 v 2 h -2 m 4,-2 h 2 v 2 h -2 m 4,-2 h 2 v 2 h -2 m 4,-2 h 2 v 2 h -2 m 4,-2 h 2 v 2 h -2 m 4,-2 h 2 v 2 h -2 m 4,-2 h 2 v 2 h -2 m 4,-2 h 2 v 2 h -2 m 4,-2 h 2 v 2 h -2 m 4,-2 h 2 v 2 h -2 m 4,-2 h 2 v 2 h -2 m 4,-2 h 2 v 2 h -2 m 4,-2 h 2 v 2 h -2 m 4,-2 h 2 v 2 h -2 m 4,-2 h 2 v 2 h -2 m 4,-2 h 2 v 2 h -2 m 4,-2 h 2 v 2 h -2 m 4,-2 h 2 v 2 h -2 m 4,-2 h 2 v 2 h -2 m 4,-2 h 2 v 2 h -2 m 4,-2 h 2 v 2 h -2 m 4,-2 h 2 v 2 h -2 m 4,-2 h 2 v 2 h -2 m 4,-2 h 2 v 2 h -2 m 4,-2 h 2 v 2 h -2 m 4,-2 h 2 v 2 h -2 m 4,-2 h 2 v 2 h -2 m 4,-2 h 2 v 2 h -2 m 4,-2 h 2 v 2 h -2 m 4,-2 h 2 v 2 h -2 m 4,-2 h 2 v 2 h -2 m 4,-2 h 2 v 2 h -2 m 4,-2 h 2 v 2 h -2 m 4,-2 h 2 v 2 h -2 m 4,-2 h 2 v 2 h -2 m 4,-2 h 2 v 2 h -2 m 4,-2 h 2 v 2 h -2 m 4,-2 h 2 v 2 h -2 m 4,-2 h 2 v 2 h -2 m 4,-2 h 2 v 2 h -2 m 4,-2 h 2 v 2 h -2 m 4,-2 h 2 v 2 h -2 m 4,-2 h 2 v 2 h -2 m 4,-2 h 2 v 2 h -2 m 4,-2 h 2 v 2 h -2 m 4,-2 h 2 v 2 h -2 m 4,-2 h 2 v 2 h -2 m 4,-2 h 2 v 2 h -2 m 4,-2 h 2 v 2 h -2 m 4,-2 h 2 v 2 h -2 m 4,-2 h 2 v 2 h -2 m 4,-2 h 2 v 2 h -2 m 4,-2 h 2 v 2 h -2 m 4,-2 h 2 v 2 h -2 m 4,-2 h 2 v 2 h -2 m 4,-2 h 2 v 2 h -2 m 4,-2 h 2 v 2 h -2 m 4,-2 h 2 v 2 h -2 m 4,-2 h 2 v 2 h -2 m 4,-2 h 2 v 2 h -2 m 4,-2 h 2 v 2 h -2 m 4,-2 h 2 v 2 h -2 m 4,-2 h 2 v 2 h -2 m 4,-2 h 2 v 2 h -2 m 4,-2 h 2 v 2 h -2 m 4,-2 h 2 v 2 h -2 m 4,-2 h 2 v 2 h -2 m 4,-2 h 2 v 2 h -2 m 4,-2 h 2 v 2 h -2 m 4,-2 h 2 v 2 h -2 m 4,-2 h 2 v 2 h -2 m 4,-2 h 2 v 2 h -2 m 4,-2 h 2 v 2 h -2 m 4,-2 h 2 v 2 h -2 m 4,-2 h 2 v 2 h -2 m 4,-2 h 2 v 2 h -2 m 4,-2 h 2 v 2 h -2 m 4,-2 h 2 v 2 h -2 m 4,-2 h 2 v 2 h -2 m 4,-2 h 2 v 2 h -2 m 4,-2 h 2 v 2 h -2 m 4,-2 h 2 v 2 h -2 m 4,-2 h 2 v 2 h -2 m 4,-2 h 2 v 2 h -2 m 4,-2 h 2 v 2 h -2 m 4,-2 h 2 v 2 h -2 m 4,-2 h 2 v 2 h -2 m 4,-2 h 2 v 2 h -2 m 4,-2 h 2 v 2 h -2 m 4,-2 h 2 v 2 h -2 m 4,-2 h 2 v 2 h -2 m 4,-2 h 2 v 2 h -2 m 4,-2 h 2 v 2 h -2 m 4,-2 h 2 v 2 h -2 m 4,-2 h 2 v 2 h -2 m 4,-2 h 2 v 2 h -2 m 4,-2 h 2 v 2 h -2 m 4,-2 h 2 v 2 h -2 m 4,-2 h 2 v 2 h -2 m 4,-2 h 2 v 2 h -2 m 4,-2 h 2 v 2 h -2 m 4,-2 h 2 v 2 h -2 m 4,-2 h 2 v 2 h -2 m 4,-2 h 2 v 2 h -2 m 4,-2 h 2 v 2 h -2 m 4,-2 h 2 v 2 h -2 m 4,-2 h 2 v 2 h -2 m 4,-2 h 2 v 2 h -2 m 4,-2 h 2 v 2 h -2 m 4,-2 h 2 v 2 h -2 m 4,-2 h 2 v 2 h -2 m 4,-2 h 2 v 2 h -2 m 4,-2 h 2 v 2 h -2 m 4,-2 h 2 v 2 h -2 m 4,-2 h 2 v 2 h -2 m 4,-2 h 2 v 2 h -2 m 4,-2 h 2 v 2 h -2 m 4,-2 h 2 v 2 h -2 m 4,-2 h 2 v 2 h -2 m 4,-2 h 2 v 2 h -2"
                     style="fill:#d4d4d4;fill-opacity:1;fill-rule:nonzero;stroke:none;stroke-width:1.0516"
                     id="path5773" />
                  <path
                     d="m 1128,143 v 2 h -2 v -2 m 2,4 v 2 h -2 v -2 m 2,4 v 2 h -2 v -2 m 2,4 v 2 h -2 v -2 m 2,4 v 2 h -2 v -2 m 2,4 v 2 h -2 v -2 m 2,4 v 2 h -2 v -2 m 2,4 v 2 h -2 v -2 m 2,4 v 2 h -2 v -2 m 2,4 v 2 h -2 v -2 m 2,4 v 2 h -2 v -2 m 2,4 v 2 h -2 v -2 m 2,4 v 2 h -2 v -2 m 2,4 v 2 h -2 v -2 m 2,4 v 2 h -2 v -2 m 2,4 v 2 h -2 v -2 m 2,4 v 2 h -2 v -2 m 2,4 v 2 h -2 v -2 m 2,4 v 2 h -2 v -2 m 2,4 v 2 h -2 v -2 m 2,4 v 2 h -2 v -2 m 2,4 v 2 h -2 v -2 m 2,4 v 2 h -2 v -2 m 2,4 v 2 h -2 v -2 m 2,4 v 2 h -2 v -2 m 2,4 v 2 h -2 v -2 m 2,4 v 2 h -2 v -2 m 2,4 v 2 h -2 v -2 m 2,4 v 2 h -2 v -2 m 2,4 v 2 h -2 v -2 m 2,4 v 2 h -2 v -2 m 2,4 v 2 h -2 v -2 m 2,4 v 2 h -2 v -2 m 2,4 v 2 h -2 v -2 m 2,4 v 2 h -2 v -2 m 2,4 v 2 h -2 v -2 m 2,4 v 2 h -2 v -2 m 2,4 v 2 h -2 v -2 m 2,4 v 2 h -2 v -2 m 2,4 v 2 h -2 v -2 m 2,4 v 2 h -2 v -2 m 2,4 v 2 h -2 v -2 m 2,4 v 2 h -2 v -2 m 2,4 v 2 h -2 v -2 m 2,4 v 2 h -2 v -2 m 2,4 v 2 h -2 v -2 m 2,4 v 2 h -2 v -2 m 2,4 v 2 h -2 v -2 m 2,4 v 2 h -2 v -2 m 2,4 v 2 h -2 v -2 m 2,4 v 2 h -2 v -2 m 2,4 v 2 h -2 v -2 m 2,4 v 2 h -2 v -2 m 2,4 v 2 h -2 v -2 m 2,4 v 2 h -2 v -2 m 2,4 v 2 h -2 v -2 m 2,4 v 2 h -2 v -2 m 2,4 v 2 h -2 v -2 m 2,4 v 2 h -2 v -2 m 2,4 v 2 h -2 v -2 m 2,4 v 2 h -2 v -2 m 2,4 v 2 h -2 v -2 m 2,4 v 2 h -2 v -2 m 2,4 v 2 h -2 v -2 m 2,4 v 2 h -2 v -2 m 2,4 v 2 h -2 v -2 m 2,4 v 2 h -2 v -2 m 2,4 v 2 h -2 v -2 m 2,4 v 2 h -2 v -2 m 2,4 v 2 h -2 v -2 m 2,4 v 2 h -2 v -2 m 2,4 v 2 h -2 v -2 m 2,4 v 2 h -2 v -2 m 2,4 v 2 h -2 v -2 m 2,4 v 2 h -2 v -2 m 2,4 v 2 h -2 v -2 m 2,4 v 2 h -2 v -2 m 2,4 v 2 h -2 v -2 m 2,4 v 2 h -2 v -2 m 2,4 v 2 h -2 v -2 m 2,4 v 2 h -2 v -2 m 2,4 v 2 h -2 v -2 m 2,4 v 2 h -2 v -2 m 2,4 v 1 h -2 v -1"
                     style="fill:#d4d4d4;fill-opacity:1;fill-rule:nonzero;stroke:none;stroke-width:1.0516"
                     id="path5775" />
                  <path
                     d="m 64,475 h 2 v 2 h -2 m 4,-2 h 2 v 2 h -2 m 4,-2 h 2 v 2 h -2 m 4,-2 h 2 v 2 h -2 m 4,-2 h 2 v 2 h -2 m 4,-2 h 2 v 2 h -2 m 4,-2 h 2 v 2 h -2 m 4,-2 h 2 v 2 h -2 m 4,-2 h 2 v 2 h -2 m 4,-2 h 2 v 2 h -2 m 4,-2 h 2 v 2 h -2 m 4,-2 h 2 v 2 h -2 m 4,-2 h 2 v 2 h -2 m 4,-2 h 2 v 2 h -2 m 4,-2 h 2 v 2 h -2 m 4,-2 h 2 v 2 h -2 m 4,-2 h 2 v 2 h -2 m 4,-2 h 2 v 2 h -2 m 4,-2 h 2 v 2 h -2 m 4,-2 h 2 v 2 h -2 m 4,-2 h 2 v 2 h -2 m 4,-2 h 2 v 2 h -2 m 4,-2 h 2 v 2 h -2 m 4,-2 h 2 v 2 h -2 m 4,-2 h 2 v 2 h -2 m 4,-2 h 2 v 2 h -2 m 4,-2 h 2 v 2 h -2 m 4,-2 h 2 v 2 h -2 m 4,-2 h 2 v 2 h -2 m 4,-2 h 2 v 2 h -2 m 4,-2 h 2 v 2 h -2 m 4,-2 h 2 v 2 h -2 m 4,-2 h 2 v 2 h -2 m 4,-2 h 2 v 2 h -2 m 4,-2 h 2 v 2 h -2 m 4,-2 h 2 v 2 h -2 m 4,-2 h 2 v 2 h -2 m 4,-2 h 2 v 2 h -2 m 4,-2 h 2 v 2 h -2 m 4,-2 h 2 v 2 h -2 m 4,-2 h 2 v 2 h -2 m 4,-2 h 2 v 2 h -2 m 4,-2 h 2 v 2 h -2 m 4,-2 h 2 v 2 h -2 m 4,-2 h 2 v 2 h -2 m 4,-2 h 2 v 2 h -2 m 4,-2 h 2 v 2 h -2 m 4,-2 h 2 v 2 h -2 m 4,-2 h 2 v 2 h -2 m 4,-2 h 2 v 2 h -2 m 4,-2 h 2 v 2 h -2 m 4,-2 h 2 v 2 h -2 m 4,-2 h 2 v 2 h -2 m 4,-2 h 2 v 2 h -2 m 4,-2 h 2 v 2 h -2 m 4,-2 h 2 v 2 h -2 m 4,-2 h 2 v 2 h -2 m 4,-2 h 2 v 2 h -2 m 4,-2 h 2 v 2 h -2 m 4,-2 h 2 v 2 h -2 m 4,-2 h 2 v 2 h -2 m 4,-2 h 2 v 2 h -2 m 4,-2 h 2 v 2 h -2 m 4,-2 h 2 v 2 h -2 m 4,-2 h 2 v 2 h -2 m 4,-2 h 2 v 2 h -2 m 4,-2 h 2 v 2 h -2 m 4,-2 h 2 v 2 h -2 m 4,-2 h 2 v 2 h -2 m 4,-2 h 2 v 2 h -2 m 4,-2 h 2 v 2 h -2 m 4,-2 h 2 v 2 h -2 m 4,-2 h 2 v 2 h -2 m 4,-2 h 2 v 2 h -2 m 4,-2 h 2 v 2 h -2 m 4,-2 h 2 v 2 h -2 m 4,-2 h 2 v 2 h -2 m 4,-2 h 2 v 2 h -2 m 4,-2 h 2 v 2 h -2 m 4,-2 h 2 v 2 h -2 m 4,-2 h 2 v 2 h -2 m 4,-2 h 2 v 2 h -2 m 4,-2 h 2 v 2 h -2 m 4,-2 h 2 v 2 h -2 m 4,-2 h 2 v 2 h -2 m 4,-2 h 2 v 2 h -2 m 4,-2 h 2 v 2 h -2 m 4,-2 h 2 v 2 h -2 m 4,-2 h 2 v 2 h -2 m 4,-2 h 2 v 2 h -2 m 4,-2 h 2 v 2 h -2 m 4,-2 h 2 v 2 h -2 m 4,-2 h 2 v 2 h -2 m 4,-2 h 2 v 2 h -2 m 4,-2 h 2 v 2 h -2 m 4,-2 h 2 v 2 h -2 m 4,-2 h 2 v 2 h -2 m 4,-2 h 2 v 2 h -2 m 4,-2 h 2 v 2 h -2 m 4,-2 h 2 v 2 h -2 m 4,-2 h 2 v 2 h -2 m 4,-2 h 2 v 2 h -2 m 4,-2 h 2 v 2 h -2 m 4,-2 h 2 v 2 h -2 m 4,-2 h 2 v 2 h -2 m 4,-2 h 2 v 2 h -2 m 4,-2 h 2 v 2 h -2 m 4,-2 h 2 v 2 h -2 m 4,-2 h 2 v 2 h -2 m 4,-2 h 2 v 2 h -2 m 4,-2 h 2 v 2 h -2 m 4,-2 h 2 v 2 h -2 m 4,-2 h 2 v 2 h -2 m 4,-2 h 2 v 2 h -2 m 4,-2 h 2 v 2 h -2 m 4,-2 h 2 v 2 h -2 m 4,-2 h 2 v 2 h -2 m 4,-2 h 2 v 2 h -2 m 4,-2 h 2 v 2 h -2 m 4,-2 h 2 v 2 h -2 m 4,-2 h 2 v 2 h -2 m 4,-2 h 2 v 2 h -2 m 4,-2 h 2 v 2 h -2 m 4,-2 h 2 v 2 h -2 m 4,-2 h 2 v 2 h -2 m 4,-2 h 2 v 2 h -2 m 4,-2 h 2 v 2 h -2 m 4,-2 h 2 v 2 h -2 m 4,-2 h 2 v 2 h -2 m 4,-2 h 2 v 2 h -2 m 4,-2 h 2 v 2 h -2 m 4,-2 h 2 v 2 h -2 m 4,-2 h 2 v 2 h -2 m 4,-2 h 2 v 2 h -2 m 4,-2 h 2 v 2 h -2 m 4,-2 h 2 v 2 h -2 m 4,-2 h 2 v 2 h -2 m 4,-2 h 2 v 2 h -2 m 4,-2 h 2 v 2 h -2 m 4,-2 h 2 v 2 h -2 m 4,-2 h 2 v 2 h -2 m 4,-2 h 2 v 2 h -2 m 4,-2 h 2 v 2 h -2 m 4,-2 h 2 v 2 h -2 m 4,-2 h 2 v 2 h -2 m 4,-2 h 2 v 2 h -2 m 4,-2 h 2 v 2 h -2 m 4,-2 h 2 v 2 h -2 m 4,-2 h 2 v 2 h -2 m 4,-2 h 2 v 2 h -2 m 4,-2 h 2 v 2 h -2 m 4,-2 h 2 v 2 h -2 m 4,-2 h 2 v 2 h -2 m 4,-2 h 2 v 2 h -2 m 4,-2 h 2 v 2 h -2 m 4,-2 h 2 v 2 h -2 m 4,-2 h 2 v 2 h -2 m 4,-2 h 2 v 2 h -2 m 4,-2 h 2 v 2 h -2 m 4,-2 h 2 v 2 h -2 m 4,-2 h 2 v 2 h -2 m 4,-2 h 2 v 2 h -2 m 4,-2 h 2 v 2 h -2 m 4,-2 h 2 v 2 h -2 m 4,-2 h 2 v 2 h -2 m 4,-2 h 2 v 2 h -2 m 4,-2 h 2 v 2 h -2 m 4,-2 h 2 v 2 h -2 m 4,-2 h 2 v 2 h -2 m 4,-2 h 2 v 2 h -2 m 4,-2 h 2 v 2 h -2 m 4,-2 h 2 v 2 h -2 m 4,-2 h 2 v 2 h -2 m 4,-2 h 2 v 2 h -2 m 4,-2 h 2 v 2 h -2 m 4,-2 h 2 v 2 h -2 m 4,-2 h 2 v 2 h -2 m 4,-2 h 2 v 2 h -2 m 4,-2 h 2 v 2 h -2 m 4,-2 h 2 v 2 h -2 m 4,-2 h 2 v 2 h -2 m 4,-2 h 2 v 2 h -2 m 4,-2 h 2 v 2 h -2 m 4,-2 h 2 v 2 h -2 m 4,-2 h 2 v 2 h -2 m 4,-2 h 2 v 2 h -2 m 4,-2 h 2 v 2 h -2 m 4,-2 h 2 v 2 h -2 m 4,-2 h 2 v 2 h -2 m 4,-2 h 2 v 2 h -2 m 4,-2 h 2 v 2 h -2 m 4,-2 h 2 v 2 h -2 m 4,-2 h 2 v 2 h -2 m 4,-2 h 2 v 2 h -2 m 4,-2 h 2 v 2 h -2 m 4,-2 h 2 v 2 h -2 m 4,-2 h 2 v 2 h -2 m 4,-2 h 2 v 2 h -2 m 4,-2 h 2 v 2 h -2 m 4,-2 h 2 v 2 h -2 m 4,-2 h 2 v 2 h -2 m 4,-2 h 2 v 2 h -2 m 4,-2 h 2 v 2 h -2 m 4,-2 h 2 v 2 h -2 m 4,-2 h 2 v 2 h -2 m 4,-2 h 2 v 2 h -2 m 4,-2 h 2 v 2 h -2 m 4,-2 h 2 v 2 h -2 m 4,-2 h 2 v 2 h -2 m 4,-2 h 2 v 2 h -2 m 4,-2 h 2 v 2 h -2 m 4,-2 h 2 v 2 h -2 m 4,-2 h 2 v 2 h -2 m 4,-2 h 2 v 2 h -2 m 4,-2 h 2 v 2 h -2 m 4,-2 h 2 v 2 h -2 m 4,-2 h 2 v 2 h -2 m 4,-2 h 2 v 2 h -2 m 4,-2 h 2 v 2 h -2 m 4,-2 h 2 v 2 h -2 m 4,-2 h 2 v 2 h -2 m 4,-2 h 2 v 2 h -2 m 4,-2 h 2 v 2 h -2 m 4,-2 h 2 v 2 h -2 m 4,-2 h 2 v 2 h -2 m 4,-2 h 2 v 2 h -2 m 4,-2 h 2 v 2 h -2 m 4,-2 h 2 v 2 h -2 m 4,-2 h 2 v 2 h -2 m 4,-2 h 2 v 2 h -2 m 4,-2 h 2 v 2 h -2 m 4,-2 h 2 v 2 h -2 m 4,-2 h 2 v 2 h -2 m 4,-2 h 2 v 2 h -2 m 4,-2 h 2 v 2 h -2 m 4,-2 h 2 v 2 h -2 m 4,-2 h 2 v 2 h -2 m 4,-2 h 2 v 2 h -2 m 4,-2 h 2 v 2 h -2 m 4,-2 h 2 v 2 h -2 m 4,-2 h 2 v 2 h -2 m 4,-2 h 2 v 2 h -2 m 4,-2 h 2 v 2 h -2 m 4,-2 h 2 v 2 h -2 m 4,-2 h 2 v 2 h -2 m 4,-2 h 2 v 2 h -2 m 4,-2 h 2 v 2 h -2 m 4,-2 h 2 v 2 h -2 m 4,-2 h 2 v 2 h -2 m 4,-2 h 2 v 2 h -2 m 4,-2 h 2 v 2 h -2 m 4,-2 h 2 v 2 h -2 m 4,-2 h 2 v 2 h -2 m 4,-2 h 2 v 2 h -2 m 4,-2 h 2 v 2 h -2 m 4,-2 h 2 v 2 h -2 m 4,-2 h 2 v 2 h -2 m 4,-2 h 2 v 2 h -2 m 4,-2 h 2 v 2 h -2 m 4,-2 h 2 v 2 h -2 m 4,-2 h 2 v 2 h -2 m 4,-2 h 2 v 2 h -2 m 4,-2 h 2 v 2 h -2 m 4,-2 h 2 v 2 h -2 m 4,-2 h 2 v 2 h -2 m 4,-2 h 2 v 2 h -2"
                     style="fill:#d4d4d4;fill-opacity:1;fill-rule:nonzero;stroke:none;stroke-width:1.0516"
                     id="path5777" />
                  <path
                     d="m 65,143 v 2 h -2 v -2 m 2,4 v 2 h -2 v -2 m 2,4 v 2 h -2 v -2 m 2,4 v 2 h -2 v -2 m 2,4 v 2 h -2 v -2 m 2,4 v 2 h -2 v -2 m 2,4 v 2 h -2 v -2 m 2,4 v 2 h -2 v -2 m 2,4 v 2 h -2 v -2 m 2,4 v 2 h -2 v -2 m 2,4 v 2 h -2 v -2 m 2,4 v 2 h -2 v -2 m 2,4 v 2 h -2 v -2 m 2,4 v 2 h -2 v -2 m 2,4 v 2 h -2 v -2 m 2,4 v 2 h -2 v -2 m 2,4 v 2 h -2 v -2 m 2,4 v 2 h -2 v -2 m 2,4 v 2 h -2 v -2 m 2,4 v 2 h -2 v -2 m 2,4 v 2 h -2 v -2 m 2,4 v 2 h -2 v -2 m 2,4 v 2 h -2 v -2 m 2,4 v 2 h -2 v -2 m 2,4 v 2 h -2 v -2 m 2,4 v 2 h -2 v -2 m 2,4 v 2 h -2 v -2 m 2,4 v 2 h -2 v -2 m 2,4 v 2 h -2 v -2 m 2,4 v 2 h -2 v -2 m 2,4 v 2 h -2 v -2 m 2,4 v 2 h -2 v -2 m 2,4 v 2 h -2 v -2 m 2,4 v 2 h -2 v -2 m 2,4 v 2 h -2 v -2 m 2,4 v 2 h -2 v -2 m 2,4 v 2 h -2 v -2 m 2,4 v 2 h -2 v -2 m 2,4 v 2 h -2 v -2 m 2,4 v 2 h -2 v -2 m 2,4 v 2 h -2 v -2 m 2,4 v 2 h -2 v -2 m 2,4 v 2 h -2 v -2 m 2,4 v 2 h -2 v -2 m 2,4 v 2 h -2 v -2 m 2,4 v 2 h -2 v -2 m 2,4 v 2 h -2 v -2 m 2,4 v 2 h -2 v -2 m 2,4 v 2 h -2 v -2 m 2,4 v 2 h -2 v -2 m 2,4 v 2 h -2 v -2 m 2,4 v 2 h -2 v -2 m 2,4 v 2 h -2 v -2 m 2,4 v 2 h -2 v -2 m 2,4 v 2 h -2 v -2 m 2,4 v 2 h -2 v -2 m 2,4 v 2 h -2 v -2 m 2,4 v 2 h -2 v -2 m 2,4 v 2 h -2 v -2 m 2,4 v 2 h -2 v -2 m 2,4 v 2 h -2 v -2 m 2,4 v 2 h -2 v -2 m 2,4 v 2 h -2 v -2 m 2,4 v 2 h -2 v -2 m 2,4 v 2 h -2 v -2 m 2,4 v 2 h -2 v -2 m 2,4 v 2 h -2 v -2 m 2,4 v 2 h -2 v -2 m 2,4 v 2 h -2 v -2 m 2,4 v 2 h -2 v -2 m 2,4 v 2 h -2 v -2 m 2,4 v 2 h -2 v -2 m 2,4 v 2 h -2 v -2 m 2,4 v 2 h -2 v -2 m 2,4 v 2 h -2 v -2 m 2,4 v 2 h -2 v -2 m 2,4 v 2 h -2 v -2 m 2,4 v 2 h -2 v -2 m 2,4 v 2 h -2 v -2 m 2,4 v 2 h -2 v -2 m 2,4 v 2 h -2 v -2 m 2,4 v 2 h -2 v -2 m 2,4 v 2 h -2 v -2 m 2,4 v 1 h -2 v -1"
                     style="fill:#d4d4d4;fill-opacity:1;fill-rule:nonzero;stroke:none;stroke-width:1.0516"
                     id="path5779" />
                  <path
                     d="m 64,143 h 50 v 13 l -8.4,7 H 64 Z"
                     style="fill:#eeeeee;fill-opacity:1;fill-rule:nonzero;stroke:none;stroke-width:1.0516"
                     id="path5781" />
                  <path
                     d="m 64,143 h 50 v 13 l -8.4,7 H 64 Z"
                     style="fill:none;stroke:#d4d4d4;stroke-width:1.0516;stroke-linecap:butt;stroke-linejoin:miter;stroke-miterlimit:10;stroke-dasharray:none;stroke-opacity:1"
                     id="path5783" />
                </g>
                <g
                   id="g5785"
                   transform="matrix(3.125,0,0,3.125,210.5723,43.649632)"
                   style="stroke-width:1.0516">
                  <text
                     xml:space="preserve"
                     transform="translate(42.921875,95.59375)"
                     style="font-variant:normal;font-weight:normal;font-size:9.54px;font-family:'DejaVu Sans';-inkscape-font-specification:DejaVuSans;writing-mode:lr-tb;fill:#000000;fill-opacity:1;fill-rule:nonzero;stroke:none;stroke-width:1.0516"
                     id="text5789"><tspan
                       x="0 2.6480865 8.4794617 14.310837"
                       y="0"
                       id="tspan5787"
                       style="stroke-width:1.0516">loop</tspan></text>
                  <text
                     xml:space="preserve"
                     transform="translate(308.76563,96.078125)"
                     style="font-variant:normal;font-weight:normal;font-size:9.54px;font-family:'DejaVu Sans';-inkscape-font-specification:DejaVuSans;writing-mode:lr-tb;fill:#000000;fill-opacity:1;fill-rule:nonzero;stroke:none;stroke-width:1.0516"
                     id="text5793"><tspan
                       x="0 3.7184906 9.9124756 15.776428 21.826538 27.690491 33.531174 37.26828 40.297989 43.653473 49.484848 53.403458 56.433167 65.717758 71.75856 74.406647 78.143753 80.79184 86.841949 89.490036 95.353989 98.383698 102.30231 108.34311 114.38391 119.34966"
                       y="0"
                       id="tspan5791"
                       style="stroke-width:1.0516">[Repeat for multiple runs]</tspan></text>
                </g>
                <g
                   id="g5795"
                   transform="matrix(1.8649631,0,0,1.8649631,210.5723,43.649632)"
                   style="stroke-width:1.0516">
                  <path
                     d="m 906.5,524 h 10 v 48 h -10 z"
                     style="fill:#f4f4f4;fill-opacity:1;fill-rule:nonzero;stroke:none;stroke-width:1.0516"
                     id="path5797" />
                  <path
                     d="m 906.5,524 h 10 v 48 h -10 z"
                     style="fill:none;stroke:#666666;stroke-width:1.0516;stroke-linecap:butt;stroke-linejoin:miter;stroke-miterlimit:10;stroke-dasharray:none;stroke-opacity:1"
                     id="path5799" />
                </g>
                <g
                   id="g5801"
                   transform="matrix(3.125,0,0,3.125,210.5723,43.649632)"
                   style="stroke-width:1.0516">
                  <text
                     xml:space="preserve"
                     transform="translate(319.46875,127.21875)"
                     style="font-variant:normal;font-weight:normal;font-size:9.54px;font-family:'DejaVu Sans';-inkscape-font-specification:DejaVuSans;writing-mode:lr-tb;fill:#000000;fill-opacity:1;fill-rule:nonzero;stroke:none;stroke-width:1.0516"
                     id="text5805"><tspan
                       x="0 6.0501099 11.914062 15.651169 22.990417 28.8311 32.568207 38.40889 45.064011 50.895386 56.945496 62.58606 66.30455"
                       y="0"
                       id="tspan5803"
                       style="stroke-width:1.0516">getDataCopy()</tspan></text>
                </g>
                <g
                   id="g5807"
                   transform="matrix(1.8649631,0,0,1.8649631,210.5723,43.649632)"
                   style="stroke-width:1.0516">
                  <path
                     d="M 76,226 H 1112"
                     style="fill:none;stroke:#333333;stroke-width:1.0516;stroke-linecap:butt;stroke-linejoin:miter;stroke-miterlimit:10;stroke-dasharray:none;stroke-opacity:1"
                     id="path5809" />
                </g>
              </g>
            </g>
            <g
               id="g5811"
               style="stroke-width:1.0516">
              <g
                 id="g5813"
                 clip-path="url(#clipPath5817)"
                 style="stroke-width:1.0516">
                <g
                   id="g5819"
                   transform="matrix(1.8649631,0,0,1.8649631,2269.678,455.80646)"
                   style="stroke-width:1.0516">
                  <path
                     d="M -1,0 10,5 0,10 Z"
                     style="fill:#000000;fill-opacity:1;fill-rule:nonzero;stroke:none;stroke-width:1.0516"
                     id="path5821" />
                  <path
                     d="M -1,0 10,5 0,10 Z"
                     style="fill:none;stroke:#333333;stroke-width:1.0516;stroke-linecap:butt;stroke-linejoin:miter;stroke-miterlimit:10;stroke-dasharray:none;stroke-opacity:1"
                     id="path5823" />
                </g>
              </g>
            </g>
            <g
               id="g5825"
               style="stroke-width:1.0516">
              <g
                 id="g5827"
                 clip-path="url(#clipPath5831)"
                 style="stroke-width:1.0516">
                <g
                   id="g5833"
                   transform="matrix(3.125,0,0,3.125,210.5723,43.649632)"
                   style="stroke-width:1.0516">
                  <text
                     xml:space="preserve"
                     transform="translate(332.32813,155.85937)"
                     style="font-variant:normal;font-weight:normal;font-size:9.54px;font-family:'DejaVu Sans';-inkscape-font-specification:DejaVuSans;writing-mode:lr-tb;fill:#000000;fill-opacity:1;fill-rule:nonzero;stroke:none;stroke-width:1.0516"
                     id="text5837"><tspan
                       x="0 2.6480865 8.6888885 12.425995 16.144485 19.862976 22.892685 28.733368 32.484283 36.402893 42.243576"
                       y="0"
                       id="tspan5835"
                       style="stroke-width:1.0516">int[] array</tspan></text>
                </g>
                <g
                   id="g5839"
                   transform="matrix(1.8649631,0,0,1.8649631,210.5723,43.649632)"
                   style="stroke-width:1.0516">
                  <path
                     d="m 1115,274.75 h -3 v -1.5 h 3 m -6,1.5 h -3 v -1.5 h 3 m -6,1.5 h -3 v -1.5 h 3 m -6,1.5 h -3 v -1.5 h 3 m -6,1.5 h -3 v -1.5 h 3 m -6,1.5 h -3 v -1.5 h 3 m -6,1.5 h -3 v -1.5 h 3 m -6,1.5 h -3 v -1.5 h 3 m -6,1.5 h -3 v -1.5 h 3 m -6,1.5 h -3 v -1.5 h 3 m -6,1.5 h -3 v -1.5 h 3 m -6,1.5 h -3 v -1.5 h 3 m -6,1.5 h -3 v -1.5 h 3 m -6,1.5 h -3 v -1.5 h 3 m -6,1.5 h -3 v -1.5 h 3 m -6,1.5 h -3 v -1.5 h 3 m -6,1.5 h -3 v -1.5 h 3 m -6,1.5 h -3 v -1.5 h 3 m -6,1.5 h -3 v -1.5 h 3 m -6,1.5 h -3 v -1.5 h 3 m -6,1.5 h -3 v -1.5 h 3 m -6,1.5 h -3 v -1.5 h 3 m -6,1.5 h -3 v -1.5 h 3 m -6,1.5 h -3 v -1.5 h 3 m -6,1.5 h -3 v -1.5 h 3 m -6,1.5 h -3 v -1.5 h 3 m -6,1.5 h -3 v -1.5 h 3 m -6,1.5 h -3 v -1.5 h 3 m -6,1.5 h -3 v -1.5 h 3 m -6,1.5 h -3 v -1.5 h 3 m -6,1.5 h -3 v -1.5 h 3 m -6,1.5 h -3 v -1.5 h 3 m -6,1.5 h -3 v -1.5 h 3 m -6,1.5 h -3 v -1.5 h 3 m -6,1.5 h -3 v -1.5 h 3 m -6,1.5 h -3 v -1.5 h 3 m -6,1.5 h -3 v -1.5 h 3 m -6,1.5 h -3 v -1.5 h 3 m -6,1.5 h -3 v -1.5 h 3 m -6,1.5 h -3 v -1.5 h 3 m -6,1.5 h -3 v -1.5 h 3 m -6,1.5 h -3 v -1.5 h 3 m -6,1.5 h -3 v -1.5 h 3 m -6,1.5 h -3 v -1.5 h 3 m -6,1.5 h -3 v -1.5 h 3 m -6,1.5 h -3 v -1.5 h 3 m -6,1.5 h -3 v -1.5 h 3 m -6,1.5 h -3 v -1.5 h 3 m -6,1.5 h -3 v -1.5 h 3 m -6,1.5 h -3 v -1.5 h 3 m -6,1.5 h -3 v -1.5 h 3 m -6,1.5 h -3 v -1.5 h 3 m -6,1.5 h -3 v -1.5 h 3 m -6,1.5 h -3 v -1.5 h 3 m -6,1.5 h -3 v -1.5 h 3 m -6,1.5 h -3 v -1.5 h 3 m -6,1.5 h -3 v -1.5 h 3 m -6,1.5 h -3 v -1.5 h 3 m -6,1.5 h -3 v -1.5 h 3 m -6,1.5 h -3 v -1.5 h 3 m -6,1.5 h -3 v -1.5 h 3 m -6,1.5 h -3 v -1.5 h 3 m -6,1.5 h -3 v -1.5 h 3 m -6,1.5 h -3 v -1.5 h 3 m -6,1.5 h -3 v -1.5 h 3 m -6,1.5 h -3 v -1.5 h 3 m -6,1.5 h -3 v -1.5 h 3 m -6,1.5 h -3 v -1.5 h 3 m -6,1.5 h -3 v -1.5 h 3 m -6,1.5 h -3 v -1.5 h 3 m -6,1.5 h -3 v -1.5 h 3 m -6,1.5 h -3 v -1.5 h 3 m -6,1.5 h -3 v -1.5 h 3 m -6,1.5 h -3 v -1.5 h 3 m -6,1.5 h -3 v -1.5 h 3 m -6,1.5 h -3 v -1.5 h 3 m -6,1.5 h -3 v -1.5 h 3 m -6,1.5 h -3 v -1.5 h 3 m -6,1.5 h -3 v -1.5 h 3 m -6,1.5 h -3 v -1.5 h 3 m -6,1.5 h -3 v -1.5 h 3 m -6,1.5 h -3 v -1.5 h 3 m -6,1.5 h -3 v -1.5 h 3 m -6,1.5 h -3 v -1.5 h 3 m -6,1.5 h -3 v -1.5 h 3 m -6,1.5 h -3 v -1.5 h 3 m -6,1.5 h -3 v -1.5 h 3 m -6,1.5 h -3 v -1.5 h 3 m -6,1.5 h -3 v -1.5 h 3 m -6,1.5 h -3 v -1.5 h 3 m -6,1.5 h -3 v -1.5 h 3 m -6,1.5 h -3 v -1.5 h 3 m -6,1.5 h -3 v -1.5 h 3 m -6,1.5 h -3 v -1.5 h 3 m -6,1.5 h -3 v -1.5 h 3 m -6,1.5 h -3 v -1.5 h 3 m -6,1.5 h -3 v -1.5 h 3 m -6,1.5 h -3 v -1.5 h 3 m -6,1.5 h -3 v -1.5 h 3 m -6,1.5 h -3 v -1.5 h 3 m -6,1.5 h -3 v -1.5 h 3 m -6,1.5 h -3 v -1.5 h 3 m -6,1.5 h -3 v -1.5 h 3 m -6,1.5 h -3 v -1.5 h 3 m -6,1.5 h -3 v -1.5 h 3 m -6,1.5 h -3 v -1.5 h 3 m -6,1.5 h -3 v -1.5 h 3 m -6,1.5 h -3 v -1.5 h 3 m -6,1.5 h -3 v -1.5 h 3 m -6,1.5 h -3 v -1.5 h 3 m -6,1.5 h -3 v -1.5 h 3 m -6,1.5 h -3 v -1.5 h 3 m -6,1.5 h -3 v -1.5 h 3 m -6,1.5 h -3 v -1.5 h 3 m -6,1.5 h -3 v -1.5 h 3 m -6,1.5 h -3 v -1.5 h 3 m -6,1.5 h -3 v -1.5 h 3 m -6,1.5 h -3 v -1.5 h 3 m -6,1.5 h -3 v -1.5 h 3 m -6,1.5 h -3 v -1.5 h 3 m -6,1.5 h -3 v -1.5 h 3 m -6,1.5 h -3 v -1.5 h 3 m -6,1.5 h -3 v -1.5 h 3 m -6,1.5 h -3 v -1.5 h 3 m -6,1.5 h -3 v -1.5 h 3 m -6,1.5 h -3 v -1.5 h 3 m -6,1.5 h -3 v -1.5 h 3 m -6,1.5 h -3 v -1.5 h 3 m -6,1.5 h -3 v -1.5 h 3 m -6,1.5 h -3 v -1.5 h 3 m -6,1.5 h -3 v -1.5 h 3 m -6,1.5 h -3 v -1.5 h 3 m -6,1.5 h -3 v -1.5 h 3 m -6,1.5 h -3 v -1.5 h 3 m -6,1.5 h -3 v -1.5 h 3 m -6,1.5 h -3 v -1.5 h 3 m -6,1.5 h -3 v -1.5 h 3 m -6,1.5 h -3 v -1.5 h 3 m -6,1.5 h -3 v -1.5 h 3 m -6,1.5 h -3 v -1.5 h 3 m -6,1.5 h -3 v -1.5 h 3 m -6,1.5 h -3 v -1.5 h 3 m -6,1.5 h -3 v -1.5 h 3 m -6,1.5 h -3 v -1.5 h 3 m -6,1.5 h -3 v -1.5 h 3 m -6,1.5 h -3 v -1.5 h 3 m -6,1.5 h -3 v -1.5 h 3 m -6,1.5 h -3 v -1.5 h 3 m -6,1.5 h -3 v -1.5 h 3 m -6,1.5 h -3 v -1.5 h 3 m -6,1.5 h -3 v -1.5 h 3 m -6,1.5 h -3 v -1.5 h 3 m -6,1.5 h -3 v -1.5 h 3 m -6,1.5 h -3 v -1.5 h 3 m -6,1.5 h -3 v -1.5 h 3 m -6,1.5 h -3 v -1.5 h 3 m -6,1.5 h -3 v -1.5 h 3 m -6,1.5 h -3 v -1.5 h 3 m -6,1.5 h -3 v -1.5 h 3 m -6,1.5 h -3 v -1.5 h 3 m -6,1.5 h -3 v -1.5 h 3 m -6,1.5 h -3 v -1.5 h 3 m -6,1.5 h -3 v -1.5 h 3 m -6,1.5 h -3 v -1.5 h 3 m -6,1.5 h -3 v -1.5 h 3 m -6,1.5 h -3 v -1.5 h 3 m -6,1.5 h -3 v -1.5 h 3 m -6,1.5 h -3 v -1.5 h 3 m -6,1.5 h -3 v -1.5 h 3 m -6,1.5 h -3 v -1.5 h 3 m -6,1.5 h -3 v -1.5 h 3 m -6,1.5 h -3 v -1.5 h 3 m -6,1.5 h -3 v -1.5 h 3"
                     style="fill:#000000;fill-opacity:1;fill-rule:nonzero;stroke:none;stroke-width:1.0516"
                     id="path5841" />
                </g>
              </g>
            </g>
            <g
               id="g5843"
               style="stroke-width:1.0516">
              <g
                 id="g5845"
                 clip-path="url(#clipPath5849)"
                 style="stroke-width:1.0516">
                <g
                   id="g5851"
                   clip-path="url(#clipPath5855)"
                   style="stroke-width:1.0516">
                  <g
                     id="g5857"
                     clip-path="url(#clipPath5861)"
                     style="stroke-width:1.0516">
                    <g
                       id="g5863"
                       transform="matrix(-1.8649631,0,0,-1.8649631,372.63757,563.97437)"
                       style="stroke-width:1.0516">
                      <path
                         d="M -1,0 10,5 0,10 Z"
                         style="fill:#000000;fill-opacity:1;fill-rule:nonzero;stroke:none;stroke-width:1.0516"
                         id="path5865" />
                      <path
                         d="M -1,0 10,5 0,10 Z"
                         style="fill:none;stroke:#333333;stroke-width:1.0516;stroke-linecap:butt;stroke-linejoin:miter;stroke-miterlimit:10;stroke-dasharray:none;stroke-opacity:1"
                         id="path5867" />
                    </g>
                  </g>
                </g>
              </g>
            </g>
            <g
               id="g5869"
               style="stroke-width:1.0516">
              <g
                 id="g5871"
                 clip-path="url(#clipPath5875)"
                 style="stroke-width:1.0516">
                <g
                   id="g5877"
                   transform="matrix(3.125,0,0,3.125,210.5723,43.649632)"
                   style="stroke-width:1.0516">
                  <text
                     xml:space="preserve"
                     transform="translate(97.96875,184.51563)"
                     style="font-variant:normal;font-weight:normal;font-size:9.54px;font-family:'DejaVu Sans';-inkscape-font-specification:DejaVuSans;writing-mode:lr-tb;fill:#000000;fill-opacity:1;fill-rule:nonzero;stroke:none;stroke-width:1.0516"
                     id="text5881"><tspan
                       x="0 4.965744 10.797119 14.715729 18.452835 22.171326 24.819412 30.860214 34.597321 38.315811 42.034302 45.064011 50.904694 54.655609 58.574219 64.414902 70.055466"
                       y="0"
                       id="tspan5879"
                       style="stroke-width:1.0516">sort(int[] array)</tspan></text>
                </g>
                <g
                   id="g5883"
                   transform="matrix(1.8649631,0,0,1.8649631,210.5723,43.649632)"
                   style="stroke-width:1.0516">
                  <path
                     d="M 76,322 H 376"
                     style="fill:none;stroke:#333333;stroke-width:1.0516;stroke-linecap:butt;stroke-linejoin:miter;stroke-miterlimit:10;stroke-dasharray:none;stroke-opacity:1"
                     id="path5885" />
                </g>
              </g>
            </g>
            <g
               id="g5887"
               style="stroke-width:1.0516">
              <g
                 id="g5889"
                 clip-path="url(#clipPath5893)"
                 style="stroke-width:1.0516">
                <g
                   id="g5895"
                   transform="matrix(1.8649631,0,0,1.8649631,897.06519,634.84296)"
                   style="stroke-width:1.0516">
                  <path
                     d="M -1,0 10,5 0,10 Z"
                     style="fill:#000000;fill-opacity:1;fill-rule:nonzero;stroke:none;stroke-width:1.0516"
                     id="path5897" />
                  <path
                     d="M -1,0 10,5 0,10 Z"
                     style="fill:none;stroke:#333333;stroke-width:1.0516;stroke-linecap:butt;stroke-linejoin:miter;stroke-miterlimit:10;stroke-dasharray:none;stroke-opacity:1"
                     id="path5899" />
                </g>
              </g>
            </g>
            <g
               id="g5901"
               style="stroke-width:1.0516">
              <g
                 id="g5903"
                 clip-path="url(#clipPath5907)"
                 style="stroke-width:1.0516">
                <g
                   id="g5909"
                   transform="matrix(3.125,0,0,3.125,210.5723,43.649632)"
                   style="stroke-width:1.0516">
                  <text
                     xml:space="preserve"
                     transform="translate(281.1875,213.15625)"
                     style="font-variant:normal;font-weight:normal;font-size:9.54px;font-family:'DejaVu Sans';-inkscape-font-specification:DejaVuSans;writing-mode:lr-tb;fill:#000000;fill-opacity:1;fill-rule:nonzero;stroke:none;stroke-width:1.0516"
                     id="text5913"><tspan
                       x="0 4.965744 10.797119 14.715729 18.452835 22.171326 24.819412 30.860214 34.597321 38.315811 42.034302 45.064011 50.904694 54.655609 58.574219 64.414902 70.055466"
                       y="0"
                       id="tspan5911"
                       style="stroke-width:1.0516">sort(int[] array)</tspan></text>
                </g>
                <g
                   id="g5915"
                   transform="matrix(1.8649631,0,0,1.8649631,210.5723,43.649632)"
                   style="stroke-width:1.0516">
                  <path
                     d="M 385,370 H 681"
                     style="fill:none;stroke:#333333;stroke-width:1.0516;stroke-linecap:butt;stroke-linejoin:miter;stroke-miterlimit:10;stroke-dasharray:none;stroke-opacity:1"
                     id="path5917" />
                </g>
              </g>
            </g>
            <g
               id="g5919"
               style="stroke-width:1.0516">
              <g
                 id="g5921"
                 clip-path="url(#clipPath5925)"
                 style="stroke-width:1.0516">
                <g
                   id="g5927"
                   transform="matrix(1.8649631,0,0,1.8649631,1465.8789,724.36115)"
                   style="stroke-width:1.0516">
                  <path
                     d="M -1,0 10,5 0,10 Z"
                     style="fill:#000000;fill-opacity:1;fill-rule:nonzero;stroke:none;stroke-width:1.0516"
                     id="path5929" />
                  <path
                     d="M -1,0 10,5 0,10 Z"
                     style="fill:none;stroke:#333333;stroke-width:1.0516;stroke-linecap:butt;stroke-linejoin:miter;stroke-miterlimit:10;stroke-dasharray:none;stroke-opacity:1"
                     id="path5931" />
                </g>
              </g>
            </g>
            <g
               id="g5933"
               style="stroke-width:1.0516">
              <g
                 id="g5935"
                 clip-path="url(#clipPath5939)"
                 style="stroke-width:1.0516">
                <g
                   id="g5941"
                   transform="matrix(3.125,0,0,3.125,210.5723,43.649632)"
                   style="stroke-width:1.0516">
                  <text
                     xml:space="preserve"
                     transform="translate(247.95313,241.79688)"
                     style="font-variant:normal;font-weight:normal;font-size:9.54px;font-family:'DejaVu Sans';-inkscape-font-specification:DejaVuSans;writing-mode:lr-tb;fill:#000000;fill-opacity:1;fill-rule:nonzero;stroke:none;stroke-width:1.0516"
                     id="text5945"><tspan
                       x="0 6.5387726 12.402725 18.443527 23.683853 29.724655 39.009247 44.84993 48.768539 54.288101 60.482086 66.346039 71.311783 77.352585 80.000671 83.737778 86.767487 90.485977 95.451721 98.099808 104.14061 110.19072 112.83881 118.70276 121.73247 125.65108 131.69188 137.73268"
                       y="0"
                       id="tspan5943"
                       style="stroke-width:1.0516">BenchmarkResult (single run)</tspan></text>
                </g>
                <g
                   id="g5947"
                   transform="matrix(1.8649631,0,0,1.8649631,210.5723,43.649632)"
                   style="stroke-width:1.0516">
                  <path
                     d="m 680,418.75 h -3 v -1.5 h 3 m -6,1.5 h -3 v -1.5 h 3 m -6,1.5 h -3 v -1.5 h 3 m -6,1.5 h -3 v -1.5 h 3 m -6,1.5 h -3 v -1.5 h 3 m -6,1.5 h -3 v -1.5 h 3 m -6,1.5 h -3 v -1.5 h 3 m -6,1.5 h -3 v -1.5 h 3 m -6,1.5 h -3 v -1.5 h 3 m -6,1.5 h -3 v -1.5 h 3 m -6,1.5 h -3 v -1.5 h 3 m -6,1.5 h -3 v -1.5 h 3 m -6,1.5 h -3 v -1.5 h 3 m -6,1.5 h -3 v -1.5 h 3 m -6,1.5 h -3 v -1.5 h 3 m -6,1.5 h -3 v -1.5 h 3 m -6,1.5 h -3 v -1.5 h 3 m -6,1.5 h -3 v -1.5 h 3 m -6,1.5 h -3 v -1.5 h 3 m -6,1.5 h -3 v -1.5 h 3 m -6,1.5 h -3 v -1.5 h 3 m -6,1.5 h -3 v -1.5 h 3 m -6,1.5 h -3 v -1.5 h 3 m -6,1.5 h -3 v -1.5 h 3 m -6,1.5 h -3 v -1.5 h 3 m -6,1.5 h -3 v -1.5 h 3 m -6,1.5 h -3 v -1.5 h 3 m -6,1.5 h -3 v -1.5 h 3 m -6,1.5 h -3 v -1.5 h 3 m -6,1.5 h -3 v -1.5 h 3 m -6,1.5 h -3 v -1.5 h 3 m -6,1.5 h -3 v -1.5 h 3 m -6,1.5 h -3 v -1.5 h 3 m -6,1.5 h -3 v -1.5 h 3 m -6,1.5 h -3 v -1.5 h 3 m -6,1.5 h -3 v -1.5 h 3 m -6,1.5 h -3 v -1.5 h 3 m -6,1.5 h -3 v -1.5 h 3 m -6,1.5 h -3 v -1.5 h 3 m -6,1.5 h -3 v -1.5 h 3 m -6,1.5 h -3 v -1.5 h 3 m -6,1.5 h -3 v -1.5 h 3 m -6,1.5 h -3 v -1.5 h 3 m -6,1.5 h -3 v -1.5 h 3 m -6,1.5 h -3 v -1.5 h 3 m -6,1.5 h -3 v -1.5 h 3 m -6,1.5 h -3 v -1.5 h 3 m -6,1.5 h -3 v -1.5 h 3 m -6,1.5 h -3 v -1.5 h 3"
                     style="fill:#000000;fill-opacity:1;fill-rule:nonzero;stroke:none;stroke-width:1.0516"
                     id="path5949" />
                </g>
              </g>
            </g>
            <g
               id="g5951"
               style="stroke-width:1.0516">
              <g
                 id="g5953"
                 clip-path="url(#clipPath5957)"
                 style="stroke-width:1.0516">
                <g
                   id="g5959"
                   clip-path="url(#clipPath5963)"
                   style="stroke-width:1.0516">
                  <g
                     id="g5965"
                     clip-path="url(#clipPath5969)"
                     style="stroke-width:1.0516">
                    <g
                       id="g5971"
                       transform="matrix(-1.8649631,0,0,-1.8649631,948.91113,832.52905)"
                       style="stroke-width:1.0516">
                      <path
                         d="M -1,0 10,5 0,10 Z"
                         style="fill:#000000;fill-opacity:1;fill-rule:nonzero;stroke:none;stroke-width:1.0516"
                         id="path5973" />
                      <path
                         d="M -1,0 10,5 0,10 Z"
                         style="fill:none;stroke:#333333;stroke-width:1.0516;stroke-linecap:butt;stroke-linejoin:miter;stroke-miterlimit:10;stroke-dasharray:none;stroke-opacity:1"
                         id="path5975" />
                    </g>
                  </g>
                </g>
              </g>
            </g>
            <g
               id="g5977"
               style="stroke-width:1.0516">
              <g
                 id="g5979"
                 clip-path="url(#clipPath5983)"
                 style="stroke-width:1.0516">
                <g
                   id="g5985"
                   transform="matrix(3.125,0,0,3.125,210.5723,43.649632)"
                   style="stroke-width:1.0516">
                  <text
                     xml:space="preserve"
                     transform="translate(64.734375,270.45313)"
                     style="font-variant:normal;font-weight:normal;font-size:9.54px;font-family:'DejaVu Sans';-inkscape-font-specification:DejaVuSans;writing-mode:lr-tb;fill:#000000;fill-opacity:1;fill-rule:nonzero;stroke:none;stroke-width:1.0516"
                     id="text5989"><tspan
                       x="0 6.5387726 12.402725 18.443527 23.683853 29.724655 39.009247 44.84993 48.768539 54.288101 60.482086 66.346039 71.311783 77.352585 80.000671 83.737778 86.767487 90.485977 95.451721 98.099808 104.14061 110.19072 112.83881 118.70276 121.73247 125.65108 131.69188 137.73268"
                       y="0"
                       id="tspan5987"
                       style="stroke-width:1.0516">BenchmarkResult (single run)</tspan></text>
                </g>
                <g
                   id="g5991"
                   transform="matrix(1.8649631,0,0,1.8649631,210.5723,43.649632)"
                   style="stroke-width:1.0516">
                  <path
                     d="m 375,466.75 h -3 v -1.5 h 3 m -6,1.5 h -3 v -1.5 h 3 m -6,1.5 h -3 v -1.5 h 3 m -6,1.5 h -3 v -1.5 h 3 m -6,1.5 h -3 v -1.5 h 3 m -6,1.5 h -3 v -1.5 h 3 m -6,1.5 h -3 v -1.5 h 3 m -6,1.5 h -3 v -1.5 h 3 m -6,1.5 h -3 v -1.5 h 3 m -6,1.5 h -3 v -1.5 h 3 m -6,1.5 h -3 v -1.5 h 3 m -6,1.5 h -3 v -1.5 h 3 m -6,1.5 h -3 v -1.5 h 3 m -6,1.5 h -3 v -1.5 h 3 m -6,1.5 h -3 v -1.5 h 3 m -6,1.5 h -3 v -1.5 h 3 m -6,1.5 h -3 v -1.5 h 3 m -6,1.5 h -3 v -1.5 h 3 m -6,1.5 h -3 v -1.5 h 3 m -6,1.5 h -3 v -1.5 h 3 m -6,1.5 h -3 v -1.5 h 3 m -6,1.5 h -3 v -1.5 h 3 m -6,1.5 h -3 v -1.5 h 3 m -6,1.5 h -3 v -1.5 h 3 m -6,1.5 h -3 v -1.5 h 3 m -6,1.5 h -3 v -1.5 h 3 m -6,1.5 h -3 v -1.5 h 3 m -6,1.5 h -3 v -1.5 h 3 m -6,1.5 h -3 v -1.5 h 3 m -6,1.5 h -3 v -1.5 h 3 m -6,1.5 h -3 v -1.5 h 3 m -6,1.5 h -3 v -1.5 h 3 m -6,1.5 h -3 v -1.5 h 3 m -6,1.5 h -3 v -1.5 h 3 m -6,1.5 h -3 v -1.5 h 3 m -6,1.5 h -3 v -1.5 h 3 m -6,1.5 h -3 v -1.5 h 3 m -6,1.5 h -3 v -1.5 h 3 m -6,1.5 h -3 v -1.5 h 3 m -6,1.5 h -3 v -1.5 h 3 m -6,1.5 h -3 v -1.5 h 3 m -6,1.5 h -3 v -1.5 h 3 m -6,1.5 h -3 v -1.5 h 3 m -6,1.5 h -3 v -1.5 h 3 m -6,1.5 h -3 v -1.5 h 3 m -6,1.5 h -3 v -1.5 h 3 m -6,1.5 h -3 v -1.5 h 3 m -6,1.5 h -3 v -1.5 h 3 m -6,1.5 h -3 v -1.5 h 3 m -6,1.5 h -2 v -1.5 h 2"
                     style="fill:#000000;fill-opacity:1;fill-rule:nonzero;stroke:none;stroke-width:1.0516"
                     id="path5993" />
                </g>
              </g>
            </g>
            <g
               id="g5995"
               style="stroke-width:1.0516">
              <g
                 id="g5997"
                 clip-path="url(#clipPath6001)"
                 style="stroke-width:1.0516">
                <g
                   id="g6003"
                   clip-path="url(#clipPath6007)"
                   style="stroke-width:1.0516">
                  <g
                     id="g6009"
                     clip-path="url(#clipPath6013)"
                     style="stroke-width:1.0516">
                    <g
                       id="g6015"
                       transform="matrix(-1.8649631,0,0,-1.8649631,372.63757,922.04724)"
                       style="stroke-width:1.0516">
                      <path
                         d="M -1,0 10,5 0,10 Z"
                         style="fill:#000000;fill-opacity:1;fill-rule:nonzero;stroke:none;stroke-width:1.0516"
                         id="path6017" />
                      <path
                         d="M -1,0 10,5 0,10 Z"
                         style="fill:none;stroke:#333333;stroke-width:1.0516;stroke-linecap:butt;stroke-linejoin:miter;stroke-miterlimit:10;stroke-dasharray:none;stroke-opacity:1"
                         id="path6019" />
                    </g>
                  </g>
                </g>
              </g>
            </g>
            <g
               id="g6021"
               style="stroke-width:1.0516">
              <g
                 id="g6023"
                 clip-path="url(#clipPath6027)"
                 style="stroke-width:1.0516">
                <g
                   id="g6029"
                   transform="matrix(3.125,0,0,3.125,210.5723,43.649632)"
                   style="stroke-width:1.0516">
                  <text
                     xml:space="preserve"
                     transform="translate(214.79688,305.0625)"
                     style="font-variant:normal;font-weight:normal;font-size:9.54px;font-family:'DejaVu Sans';-inkscape-font-specification:DejaVuSans;writing-mode:lr-tb;fill:#000000;fill-opacity:1;fill-rule:nonzero;stroke:none;stroke-width:1.0516"
                     id="text6033"><tspan
                       x="0 6.0501099 9.7590942 15.590469 20.830795 26.694748 31.660492 36.626236 40.344727 42.992813 45.6409 50.606644 54.34375 61.845886 65.20137 71.740143 77.604095 83.644897 88.885223 94.926025 104.21062 110.0513 113.96991 119.48947 125.68346 131.54741 136.51315 142.55396 145.20204 148.93915 153.90489"
                       y="0"
                       id="tspan6031"
                       style="stroke-width:1.0516">process(listOfBenchmarkResults)</tspan></text>
                </g>
                <g
                   id="g6035"
                   transform="matrix(1.8649631,0,0,1.8649631,210.5723,43.649632)"
                   style="stroke-width:1.0516">
                  <path
                     d="M 76,524 H 907.5"
                     style="fill:none;stroke:#333333;stroke-width:1.0516;stroke-linecap:butt;stroke-linejoin:miter;stroke-miterlimit:10;stroke-dasharray:none;stroke-opacity:1"
                     id="path6037" />
                </g>
              </g>
            </g>
            <g
               id="g6039"
               style="stroke-width:1.0516">
              <g
                 id="g6041"
                 clip-path="url(#clipPath6045)"
                 style="stroke-width:1.0516">
                <g
                   id="g6047"
                   transform="matrix(1.8649631,0,0,1.8649631,1888.293,1011.5655)"
                   style="stroke-width:1.0516">
                  <path
                     d="M -1,0 10,5 0,10 Z"
                     style="fill:#000000;fill-opacity:1;fill-rule:nonzero;stroke:none;stroke-width:1.0516"
                     id="path6049" />
                  <path
                     d="M -1,0 10,5 0,10 Z"
                     style="fill:none;stroke:#333333;stroke-width:1.0516;stroke-linecap:butt;stroke-linejoin:miter;stroke-miterlimit:10;stroke-dasharray:none;stroke-opacity:1"
                     id="path6051" />
                </g>
              </g>
            </g>
            <g
               id="g6053"
               style="stroke-width:1.0516">
              <g
                 id="g6055"
                 clip-path="url(#clipPath6059)"
                 style="stroke-width:1.0516">
                <g
                   id="g6061"
                   transform="matrix(3.125,0,0,3.125,210.5723,43.649632)"
                   style="stroke-width:1.0516">
                  <text
                     xml:space="preserve"
                     transform="translate(237.17188,333.70313)"
                     style="font-variant:normal;font-weight:normal;font-size:9.54px;font-family:'DejaVu Sans';-inkscape-font-specification:DejaVuSans;writing-mode:lr-tb;fill:#000000;fill-opacity:1;fill-rule:nonzero;stroke:none;stroke-width:1.0516"
                     id="text6065"><tspan
                       x="0 3.7089844 9.5403595 15.590469 21.631271 26.597015 30.334122 36.872894 42.736847 48.777649 54.017975 60.058777 69.343369 75.184052 79.102661 84.622223 90.816208 96.680161 101.6459 107.68671 110.33479"
                       y="0"
                       id="tspan6063"
                       style="stroke-width:1.0516">robustBenchmarkResult</tspan></text>
                </g>
                <g
                   id="g6067"
                   transform="matrix(1.8649631,0,0,1.8649631,210.5723,43.649632)"
                   style="stroke-width:1.0516">
                  <path
                     d="m 906.5,572.75 h -3 v -1.5 h 3 m -6,1.5 h -3 v -1.5 h 3 m -6,1.5 h -3 v -1.5 h 3 m -6,1.5 h -3 v -1.5 h 3 m -6,1.5 h -3 v -1.5 h 3 m -6,1.5 h -3 v -1.5 h 3 m -6,1.5 h -3 v -1.5 h 3 m -6,1.5 h -3 v -1.5 h 3 m -6,1.5 h -3 v -1.5 h 3 m -6,1.5 h -3 v -1.5 h 3 m -6,1.5 h -3 v -1.5 h 3 m -6,1.5 h -3 v -1.5 h 3 m -6,1.5 h -3 v -1.5 h 3 m -6,1.5 h -3 v -1.5 h 3 m -6,1.5 h -3 v -1.5 h 3 m -6,1.5 h -3 v -1.5 h 3 m -6,1.5 h -3 v -1.5 h 3 m -6,1.5 h -3 v -1.5 h 3 m -6,1.5 h -3 v -1.5 h 3 m -6,1.5 h -3 v -1.5 h 3 m -6,1.5 h -3 v -1.5 h 3 m -6,1.5 h -3 v -1.5 h 3 m -6,1.5 h -3 v -1.5 h 3 m -6,1.5 h -3 v -1.5 h 3 m -6,1.5 h -3 v -1.5 h 3 m -6,1.5 h -3 v -1.5 h 3 m -6,1.5 h -3 v -1.5 h 3 m -6,1.5 h -3 v -1.5 h 3 m -6,1.5 h -3 v -1.5 h 3 m -6,1.5 h -3 v -1.5 h 3 m -6,1.5 h -3 v -1.5 h 3 m -6,1.5 h -3 v -1.5 h 3 m -6,1.5 h -3 v -1.5 h 3 m -6,1.5 h -3 v -1.5 h 3 m -6,1.5 h -3 v -1.5 h 3 m -6,1.5 h -3 v -1.5 h 3 m -6,1.5 h -3 v -1.5 h 3 m -6,1.5 h -3 v -1.5 h 3 m -6,1.5 h -3 v -1.5 h 3 m -6,1.5 h -3 v -1.5 h 3 m -6,1.5 h -3 v -1.5 h 3 m -6,1.5 h -3 v -1.5 h 3 m -6,1.5 h -3 v -1.5 h 3 m -6,1.5 h -3 v -1.5 h 3 m -6,1.5 h -3 v -1.5 h 3 m -6,1.5 h -3 v -1.5 h 3 m -6,1.5 h -3 v -1.5 h 3 m -6,1.5 h -3 v -1.5 h 3 m -6,1.5 h -3 v -1.5 h 3 m -6,1.5 h -3 v -1.5 h 3 m -6,1.5 h -3 v -1.5 h 3 m -6,1.5 h -3 v -1.5 h 3 m -6,1.5 h -3 v -1.5 h 3 m -6,1.5 h -3 v -1.5 h 3 m -6,1.5 h -3 v -1.5 h 3 m -6,1.5 h -3 v -1.5 h 3 m -6,1.5 h -3 v -1.5 h 3 m -6,1.5 h -3 v -1.5 h 3 m -6,1.5 h -3 v -1.5 h 3 m -6,1.5 h -3 v -1.5 h 3 m -6,1.5 h -3 v -1.5 h 3 m -6,1.5 h -3 v -1.5 h 3 m -6,1.5 h -3 v -1.5 h 3 m -6,1.5 h -3 v -1.5 h 3 m -6,1.5 h -3 v -1.5 h 3 m -6,1.5 h -3 v -1.5 h 3 m -6,1.5 h -3 v -1.5 h 3 m -6,1.5 h -3 v -1.5 h 3 m -6,1.5 h -3 v -1.5 h 3 m -6,1.5 h -3 v -1.5 h 3 m -6,1.5 h -3 v -1.5 h 3 m -6,1.5 h -3 v -1.5 h 3 m -6,1.5 h -3 v -1.5 h 3 m -6,1.5 h -3 v -1.5 h 3 m -6,1.5 h -3 v -1.5 h 3 m -6,1.5 h -3 v -1.5 h 3 m -6,1.5 h -3 v -1.5 h 3 m -6,1.5 h -3 v -1.5 h 3 m -6,1.5 h -3 v -1.5 h 3 m -6,1.5 h -3 v -1.5 h 3 m -6,1.5 h -3 v -1.5 h 3 m -6,1.5 h -3 v -1.5 h 3 m -6,1.5 h -3 v -1.5 h 3 m -6,1.5 h -3 v -1.5 h 3 m -6,1.5 h -3 v -1.5 h 3 m -6,1.5 h -3 v -1.5 h 3 m -6,1.5 h -3 v -1.5 h 3 m -6,1.5 h -3 v -1.5 h 3 m -6,1.5 h -3 v -1.5 h 3 m -6,1.5 h -3 v -1.5 h 3 m -6,1.5 h -3 v -1.5 h 3 m -6,1.5 h -3 v -1.5 h 3 m -6,1.5 h -3 v -1.5 h 3 m -6,1.5 h -3 v -1.5 h 3 m -6,1.5 h -3 v -1.5 h 3 m -6,1.5 h -3 v -1.5 h 3 m -6,1.5 h -3 v -1.5 h 3 m -6,1.5 h -3 v -1.5 h 3 m -6,1.5 h -3 v -1.5 h 3 m -6,1.5 h -3 v -1.5 h 3 m -6,1.5 h -3 v -1.5 h 3 m -6,1.5 h -3 v -1.5 h 3 m -6,1.5 h -3 v -1.5 h 3 m -6,1.5 h -3 v -1.5 h 3 m -6,1.5 h -3 v -1.5 h 3 m -6,1.5 h -3 v -1.5 h 3 m -6,1.5 h -3 v -1.5 h 3 m -6,1.5 h -3 v -1.5 h 3 m -6,1.5 h -3 v -1.5 h 3 m -6,1.5 h -3 v -1.5 h 3 m -6,1.5 h -3 v -1.5 h 3 m -6,1.5 h -3 v -1.5 h 3 m -6,1.5 h -3 v -1.5 h 3 m -6,1.5 h -3 v -1.5 h 3 m -6,1.5 h -3 v -1.5 h 3 m -6,1.5 h -3 v -1.5 h 3 m -6,1.5 h -3 v -1.5 h 3 m -6,1.5 h -3 v -1.5 h 3 m -6,1.5 h -3 v -1.5 h 3 m -6,1.5 h -3 v -1.5 h 3 m -6,1.5 h -3 v -1.5 h 3 m -6,1.5 h -3 v -1.5 h 3 m -6,1.5 h -3 v -1.5 h 3 m -6,1.5 h -3 v -1.5 h 3 m -6,1.5 h -3 v -1.5 h 3 m -6,1.5 h -3 v -1.5 h 3 m -6,1.5 h -3 v -1.5 h 3 m -6,1.5 h -3 v -1.5 h 3 m -6,1.5 h -3 v -1.5 h 3 m -6,1.5 h -3 v -1.5 h 3 m -6,1.5 h -3 v -1.5 h 3 m -6,1.5 h -3 v -1.5 h 3 m -6,1.5 h -3 v -1.5 h 3 m -6,1.5 h -3 v -1.5 h 3 m -6,1.5 h -3 v -1.5 h 3 m -6,1.5 h -3 v -1.5 h 3 m -6,1.5 h -3 v -1.5 h 3 m -6,1.5 h -3 v -1.5 h 3"
                     style="fill:#000000;fill-opacity:1;fill-rule:nonzero;stroke:none;stroke-width:1.0516"
                     id="path6069" />
                </g>
              </g>
            </g>
            <g
               id="g6071"
               style="stroke-width:1.0516">
              <g
                 id="g6073"
                 clip-path="url(#clipPath6077)"
                 style="stroke-width:1.0516">
                <g
                   id="g6079"
                   clip-path="url(#clipPath6083)"
                   style="stroke-width:1.0516">
                  <g
                     id="g6085"
                     clip-path="url(#clipPath6089)"
                     style="stroke-width:1.0516">
                    <g
                       id="g6091"
                       transform="matrix(-1.8649631,0,0,-1.8649631,372.63757,1119.7334)"
                       style="stroke-width:1.0516">
                      <path
                         d="M -1,0 10,5 0,10 Z"
                         style="fill:#000000;fill-opacity:1;fill-rule:nonzero;stroke:none;stroke-width:1.0516"
                         id="path6093" />
                      <path
                         d="M -1,0 10,5 0,10 Z"
                         style="fill:none;stroke:#333333;stroke-width:1.0516;stroke-linecap:butt;stroke-linejoin:miter;stroke-miterlimit:10;stroke-dasharray:none;stroke-opacity:1"
                         id="path6095" />
                    </g>
                  </g>
                </g>
              </g>
            </g>
            <g
               id="g6115"
               style="stroke-width:1.0516">
              <g
                 id="g6117"
                 clip-path="url(#clipPath6121)"
                 style="stroke-width:1.0516">
                <g
                   id="g6123"
                   clip-path="url(#clipPath6127)"
                   style="stroke-width:1.0516">
                  <g
                     id="g6129"
                     clip-path="url(#clipPath6133)"
                     style="stroke-width:1.0516">
                    <g
                       id="g6135"
                       transform="matrix(-1.8395883,-0.30659816,0.30659816,-1.8395883,365.30927,1248.8461)"
                       style="stroke-width:1.0516">
                      <path
                         d="M -1,0 10,5 0,10 Z"
                         style="fill:#000000;fill-opacity:1;fill-rule:nonzero;stroke:none;stroke-width:1.0516"
                         id="path6137" />
                      <path
                         d="M -1,0 10,5 0,10 Z"
                         style="fill:none;stroke:#333333;stroke-width:1.0516;stroke-linecap:butt;stroke-linejoin:miter;stroke-miterlimit:10;stroke-dasharray:none;stroke-opacity:1"
                         id="path6139" />
                    </g>
                  </g>
                </g>
              </g>
            </g>
          </g>
          <g
             id="g6099"
             clip-path="url(#clipPath6103)"
             style="stroke-width:1.0516">
            <g
               id="g6105"
               transform="matrix(3.125,0,0,3.125,213.21314,34.325332)"
               style="stroke-width:1.0516">
              <text
                 xml:space="preserve"
                 transform="translate(-29.75,362.35938)"
                 style="font-variant:normal;font-weight:normal;font-size:9.54px;font-family:'DejaVu Sans';-inkscape-font-specification:DejaVuSans;writing-mode:lr-tb;fill:#000000;fill-opacity:1;fill-rule:nonzero;stroke:none;stroke-width:1.0516"
                 id="text6109"><tspan
                   x="0 7.5021362 13.542938 17.280045 23.330154 29.370956 33.108063 36.137772 39.846756 45.678131 51.728241 57.769043 62.734787 66.471893 73.010666 78.874619 84.915421 90.155746 96.196548 105.48114 111.32182 115.24043 120.75999 126.95398 132.81793 137.78368 143.82448 146.47256"
                   y="0"
                   id="tspan6107"
                   style="stroke-width:1.0516">Output robustBenchmarkResult</tspan></text>
            </g>
            <g
               id="g6111"
               transform="matrix(1.8649631,0,0,1.8649631,53.02897,26.489917)"
               style="stroke-width:1.0516">
              <path
                 d="m 76,620 c 60,-10 60,30 0,20"
                 style="fill:none;stroke:#333333;stroke-width:1.0516;stroke-linecap:butt;stroke-linejoin:miter;stroke-miterlimit:10;stroke-dasharray:none;stroke-opacity:1"
                 id="path6113" />
            </g>
          </g>
        </g>
      </g>
    </g>
  </g>
</svg>
