<?xml version="1.0" encoding="UTF-8" standalone="no"?>
<!-- Created with Inkscape (http://www.inkscape.org/) -->

<svg
   version="1.1"
   id="svg9646"
   width="713.05157"
   height="558.05945"
   viewBox="0 0 713.05157 558.05945"
   xmlns="http://www.w3.org/2000/svg"
   xmlns:svg="http://www.w3.org/2000/svg">
  <defs
     id="defs9650">
    <clipPath
       clipPathUnits="userSpaceOnUse"
       id="clipPath9664">
      <path
         d="M 0,0.723 H 535 V 419 H 0 Z"
         id="path9662" />
    </clipPath>
    <clipPath
       clipPathUnits="userSpaceOnUse"
       id="clipPath9674">
      <path
         d="M 0,0 H 535 V 419 H 0 Z"
         id="path9672" />
    </clipPath>
    <clipPath
       clipPathUnits="userSpaceOnUse"
       id="clipPath9698">
      <path
         d="M 0,0 H 535 V 419 H 0 Z"
         id="path9696" />
    </clipPath>
    <clipPath
       clipPathUnits="userSpaceOnUse"
       id="clipPath9722">
      <path
         d="M 0,0 H 535 V 419 H 0 Z"
         id="path9720" />
    </clipPath>
    <clipPath
       clipPathUnits="userSpaceOnUse"
       id="clipPath9746">
      <path
         d="M 0,0 H 535 V 419 H 0 Z"
         id="path9744" />
    </clipPath>
    <clipPath
       clipPathUnits="userSpaceOnUse"
       id="clipPath9770">
      <path
         d="M 0,0 H 535 V 419 H 0 Z"
         id="path9768" />
    </clipPath>
    <clipPath
       clipPathUnits="userSpaceOnUse"
       id="clipPath9814">
      <path
         d="M 0,0 H 535 V 419 H 0 Z"
         id="path9812" />
    </clipPath>
    <clipPath
       clipPathUnits="userSpaceOnUse"
       id="clipPath9846">
      <path
         d="M 0,0 H 535 V 419 H 0 Z"
         id="path9844" />
    </clipPath>
    <clipPath
       clipPathUnits="userSpaceOnUse"
       id="clipPath9872">
      <path
         d="M 0,0 H 535 V 419 H 0 Z"
         id="path9870" />
    </clipPath>
    <clipPath
       clipPathUnits="userSpaceOnUse"
       id="clipPath9886">
      <path
         d="m 342.977,116.074 h 7.648 v 7.645 h -7.648 z"
         id="path9884" />
    </clipPath>
    <clipPath
       clipPathUnits="userSpaceOnUse"
       id="clipPath9896">
      <path
         d="M 0,0 H 535 V 419 H 0 Z"
         id="path9894" />
    </clipPath>
    <clipPath
       clipPathUnits="userSpaceOnUse"
       id="clipPath9910">
      <path
         d="M 0,0.723 H 535 V 419 H 0 Z"
         id="path9908" />
    </clipPath>
    <clipPath
       clipPathUnits="userSpaceOnUse"
       id="clipPath9920">
      <path
         d="M 0,0 H 535 V 419 H 0 Z"
         id="path9918" />
    </clipPath>
    <clipPath
       clipPathUnits="userSpaceOnUse"
       id="clipPath9938">
      <path
         d="m 215.52,186.812 h 7.648 v 7.648 h -7.648 z"
         id="path9936" />
    </clipPath>
    <clipPath
       clipPathUnits="userSpaceOnUse"
       id="clipPath9948">
      <path
         d="M 0,0 H 535 V 419 H 0 Z"
         id="path9946" />
    </clipPath>
    <clipPath
       clipPathUnits="userSpaceOnUse"
       id="clipPath9962">
      <path
         d="M 0,0.723 H 535 V 419 H 0 Z"
         id="path9960" />
    </clipPath>
    <clipPath
       clipPathUnits="userSpaceOnUse"
       id="clipPath9972">
      <path
         d="M 0,0 H 535 V 419 H 0 Z"
         id="path9970" />
    </clipPath>
    <clipPath
       clipPathUnits="userSpaceOnUse"
       id="clipPath9992">
      <path
         d="M 0,0 H 535 V 419 H 0 Z"
         id="path9990" />
    </clipPath>
    <clipPath
       clipPathUnits="userSpaceOnUse"
       id="clipPath10002">
      <path
         d="M 0,0.723 H 535 V 419 H 0 Z"
         id="path10000" />
    </clipPath>
    <clipPath
       clipPathUnits="userSpaceOnUse"
       id="clipPath10012">
      <path
         d="M 0,0 H 535 V 419 H 0 Z"
         id="path10010" />
    </clipPath>
    <clipPath
       clipPathUnits="userSpaceOnUse"
       id="clipPath10022">
      <path
         d="m 92.074,216.129 h 7.648 v 7.648 h -7.648 z"
         id="path10020" />
    </clipPath>
    <clipPath
       clipPathUnits="userSpaceOnUse"
       id="clipPath10032">
      <path
         d="M 0,0 H 535 V 419 H 0 Z"
         id="path10030" />
    </clipPath>
    <clipPath
       clipPathUnits="userSpaceOnUse"
       id="clipPath10046">
      <path
         d="M 0,0.723 H 535 V 419 H 0 Z"
         id="path10044" />
    </clipPath>
    <clipPath
       clipPathUnits="userSpaceOnUse"
       id="clipPath10056">
      <path
         d="M 0,0 H 535 V 419 H 0 Z"
         id="path10054" />
    </clipPath>
    <clipPath
       clipPathUnits="userSpaceOnUse"
       id="clipPath10074">
      <path
         d="m 340.426,247.992 h 7.648 v 7.648 h -7.648 z"
         id="path10072" />
    </clipPath>
    <clipPath
       clipPathUnits="userSpaceOnUse"
       id="clipPath10084">
      <path
         d="M 0,0 H 535 V 419 H 0 Z"
         id="path10082" />
    </clipPath>
    <clipPath
       clipPathUnits="userSpaceOnUse"
       id="clipPath10098">
      <path
         d="M 0,0.723 H 535 V 419 H 0 Z"
         id="path10096" />
    </clipPath>
    <clipPath
       clipPathUnits="userSpaceOnUse"
       id="clipPath10108">
      <path
         d="M 0,0 H 535 V 419 H 0 Z"
         id="path10106" />
    </clipPath>
    <clipPath
       clipPathUnits="userSpaceOnUse"
       id="clipPath10126">
      <path
         d="m 470.434,278.582 h 7.648 v 7.648 h -7.648 z"
         id="path10124" />
    </clipPath>
    <clipPath
       clipPathUnits="userSpaceOnUse"
       id="clipPath10136">
      <path
         d="M 0,0 H 535 V 419 H 0 Z"
         id="path10134" />
    </clipPath>
    <clipPath
       clipPathUnits="userSpaceOnUse"
       id="clipPath10150">
      <path
         d="M 0,0.723 H 535 V 419 H 0 Z"
         id="path10148" />
    </clipPath>
    <clipPath
       clipPathUnits="userSpaceOnUse"
       id="clipPath10160">
      <path
         d="M 0,0 H 535 V 419 H 0 Z"
         id="path10158" />
    </clipPath>
    <clipPath
       clipPathUnits="userSpaceOnUse"
       id="clipPath10180">
      <path
         d="M 0,0 H 535 V 419 H 0 Z"
         id="path10178" />
    </clipPath>
    <clipPath
       clipPathUnits="userSpaceOnUse"
       id="clipPath10190">
      <path
         d="M 0,0.723 H 535 V 419 H 0 Z"
         id="path10188" />
    </clipPath>
    <clipPath
       clipPathUnits="userSpaceOnUse"
       id="clipPath10200">
      <path
         d="M 0,0 H 535 V 419 H 0 Z"
         id="path10198" />
    </clipPath>
    <clipPath
       clipPathUnits="userSpaceOnUse"
       id="clipPath10210">
      <path
         d="m 356.234,307.898 h 7.645 v 7.648 h -7.645 z"
         id="path10208" />
    </clipPath>
    <clipPath
       clipPathUnits="userSpaceOnUse"
       id="clipPath10220">
      <path
         d="M 0,0 H 535 V 419 H 0 Z"
         id="path10218" />
    </clipPath>
    <clipPath
       clipPathUnits="userSpaceOnUse"
       id="clipPath10234">
      <path
         d="M 0,0.723 H 535 V 419 H 0 Z"
         id="path10232" />
    </clipPath>
    <clipPath
       clipPathUnits="userSpaceOnUse"
       id="clipPath10244">
      <path
         d="M 0,0 H 535 V 419 H 0 Z"
         id="path10242" />
    </clipPath>
    <clipPath
       clipPathUnits="userSpaceOnUse"
       id="clipPath10264">
      <path
         d="M 0,0 H 535 V 419 H 0 Z"
         id="path10262" />
    </clipPath>
    <clipPath
       clipPathUnits="userSpaceOnUse"
       id="clipPath10274">
      <path
         d="M 0,0.723 H 535 V 419 H 0 Z"
         id="path10272" />
    </clipPath>
    <clipPath
       clipPathUnits="userSpaceOnUse"
       id="clipPath10284">
      <path
         d="M 0,0 H 535 V 419 H 0 Z"
         id="path10282" />
    </clipPath>
    <clipPath
       clipPathUnits="userSpaceOnUse"
       id="clipPath10294">
      <path
         d="m 92.074,338.488 h 7.648 v 7.648 h -7.648 z"
         id="path10292" />
    </clipPath>
    <clipPath
       clipPathUnits="userSpaceOnUse"
       id="clipPath10304">
      <path
         d="M 0,0 H 535 V 419 H 0 Z"
         id="path10302" />
    </clipPath>
  </defs>
  <g
     id="g9654"
     transform="matrix(1.3333333,0,0,1.3333333,0,1.5951486e-5)">
    <g
       id="g9658">
      <g
         id="g9660"
         clip-path="url(#clipPath9664)">
        <g
           id="g9666">
          <g
             id="g9668">
            <g
               id="g9670"
               clip-path="url(#clipPath9674)">
              <g
                 id="g9676">
                <g
                   id="g9678"
                   transform="scale(0.999985,1)">
                  <path
                     d="M 478.027,48.52 V 411.777"
                     style="fill:none;stroke:#d4d4d4;stroke-width:0.65861;stroke-linecap:butt;stroke-linejoin:miter;stroke-miterlimit:10;stroke-dasharray:none;stroke-opacity:1"
                     id="path9680" />
                </g>
                <g
                   id="g9682"
                   transform="scale(0.999985,1)">
                  <path
                     d="m 432.139,7.094 h 91.771 c 0.254,0 0.5,0.051 0.735,0.144 0.23,0.098 0.437,0.239 0.617,0.418 0.179,0.176 0.32,0.383 0.414,0.617 0.097,0.235 0.148,0.481 0.148,0.735 v 37.597 c 0,0.254 -0.051,0.5 -0.148,0.735 -0.094,0.234 -0.235,0.441 -0.414,0.621 -0.18,0.176 -0.387,0.316 -0.621,0.414 -0.231,0.094 -0.477,0.145 -0.731,0.145 h -91.771 c -0.254,0 -0.496,-0.051 -0.73,-0.145 -0.235,-0.098 -0.442,-0.238 -0.621,-0.414 -0.18,-0.18 -0.317,-0.387 -0.414,-0.621 -0.098,-0.235 -0.145,-0.481 -0.145,-0.735 V 9.008 c 0,-0.254 0.047,-0.5 0.145,-0.735 0.097,-0.234 0.234,-0.441 0.414,-0.617 0.179,-0.179 0.386,-0.32 0.621,-0.418 0.234,-0.093 0.476,-0.144 0.73,-0.144 z"
                     style="fill:#eeeeee;fill-opacity:1;fill-rule:nonzero;stroke:#d4d4d4;stroke-width:0.65861;stroke-linecap:butt;stroke-linejoin:miter;stroke-miterlimit:10;stroke-dasharray:none;stroke-opacity:1"
                     id="path9684" />
                </g>
              </g>
            </g>
          </g>
        </g>
        <text
           xml:space="preserve"
           transform="matrix(0.99998509,0,0,1,445.72849,31.429465)"
           style="font-variant:normal;font-weight:normal;font-size:10.1966px;font-family:'DejaVu Sans';-inkscape-font-specification:DejaVuSans;writing-mode:lr-tb;fill:#333333;fill-opacity:1;fill-rule:nonzero;stroke:none"
           id="text9688"><tspan
             x="0 6.4724345 12.710866 16.903011 20.900986 27.373421 31.371393 35.563538 41.811928 45.809902 52.083183 58.555618"
             y="0"
             id="tspan9686">SortStrategy</tspan></text>
        <g
           id="g9690">
          <g
             id="g9692">
            <g
               id="g9694"
               clip-path="url(#clipPath9698)">
              <g
                 id="g9700">
                <g
                   id="g9702"
                   transform="scale(0.999985,1)">
                  <path
                     d="M 350.568,48.52 V 411.777"
                     style="fill:none;stroke:#d4d4d4;stroke-width:0.65861;stroke-linecap:butt;stroke-linejoin:miter;stroke-miterlimit:10;stroke-dasharray:none;stroke-opacity:1"
                     id="path9704" />
                </g>
                <g
                   id="g9706"
                   transform="scale(0.999985,1)">
                  <path
                     d="m 304.68,7.094 h 91.771 c 0.254,0 0.496,0.051 0.731,0.144 0.234,0.098 0.441,0.239 0.621,0.418 0.179,0.176 0.316,0.383 0.414,0.617 0.098,0.235 0.144,0.481 0.144,0.735 v 37.597 c 0,0.254 -0.046,0.5 -0.144,0.735 -0.098,0.234 -0.235,0.441 -0.414,0.621 -0.18,0.176 -0.387,0.316 -0.621,0.414 -0.235,0.094 -0.477,0.145 -0.731,0.145 H 304.68 c -0.254,0 -0.496,-0.051 -0.73,-0.145 -0.235,-0.098 -0.442,-0.238 -0.621,-0.414 -0.18,-0.18 -0.317,-0.387 -0.414,-0.621 -0.098,-0.235 -0.145,-0.481 -0.145,-0.735 V 9.008 c 0,-0.254 0.047,-0.5 0.145,-0.735 0.097,-0.234 0.234,-0.441 0.414,-0.617 0.179,-0.179 0.386,-0.32 0.621,-0.418 0.234,-0.093 0.476,-0.144 0.73,-0.144 z"
                     style="fill:#eeeeee;fill-opacity:1;fill-rule:nonzero;stroke:#d4d4d4;stroke-width:0.65861;stroke-linecap:butt;stroke-linejoin:miter;stroke-miterlimit:10;stroke-dasharray:none;stroke-opacity:1"
                     id="path9708" />
                </g>
              </g>
            </g>
          </g>
        </g>
        <text
           xml:space="preserve"
           transform="matrix(0.99998509,0,0,1,334.87415,31.429465)"
           style="font-variant:normal;font-weight:normal;font-size:10.1966px;font-family:'DejaVu Sans';-inkscape-font-specification:DejaVuSans;writing-mode:lr-tb;fill:#333333;fill-opacity:1;fill-rule:nonzero;stroke:none"
           id="text9712"><tspan
             x="0 6.4724345 12.710866 16.903011 20.900986 27.174269"
             y="0"
             id="tspan9710">Sorter</tspan></text>
        <g
           id="g9714">
          <g
             id="g9716">
            <g
               id="g9718"
               clip-path="url(#clipPath9722)">
              <g
                 id="g9724">
                <g
                   id="g9726"
                   transform="scale(0.999985,1)">
                  <path
                     d="M 223.105,48.52 V 411.777"
                     style="fill:none;stroke:#d4d4d4;stroke-width:0.65861;stroke-linecap:butt;stroke-linejoin:miter;stroke-miterlimit:10;stroke-dasharray:none;stroke-opacity:1"
                     id="path9728" />
                </g>
                <g
                   id="g9730"
                   transform="scale(0.999985,1)">
                  <path
                     d="m 177.221,7.094 h 91.771 c 0.254,0 0.496,0.051 0.731,0.144 0.234,0.098 0.441,0.239 0.621,0.418 0.18,0.176 0.316,0.383 0.414,0.617 0.098,0.235 0.144,0.481 0.144,0.735 v 37.597 c 0,0.254 -0.046,0.5 -0.144,0.735 -0.098,0.234 -0.234,0.441 -0.414,0.621 -0.18,0.176 -0.387,0.316 -0.621,0.414 -0.235,0.094 -0.477,0.145 -0.731,0.145 h -91.771 c -0.254,0 -0.5,-0.051 -0.734,-0.145 -0.23,-0.098 -0.438,-0.238 -0.617,-0.414 -0.18,-0.18 -0.321,-0.387 -0.414,-0.621 -0.098,-0.235 -0.149,-0.481 -0.149,-0.735 V 9.008 c 0,-0.254 0.051,-0.5 0.149,-0.735 0.093,-0.234 0.234,-0.441 0.414,-0.617 0.179,-0.179 0.387,-0.32 0.617,-0.418 0.234,-0.093 0.48,-0.144 0.734,-0.144 z"
                     style="fill:#eeeeee;fill-opacity:1;fill-rule:nonzero;stroke:#d4d4d4;stroke-width:0.65861;stroke-linecap:butt;stroke-linejoin:miter;stroke-miterlimit:10;stroke-dasharray:none;stroke-opacity:1"
                     id="path9732" />
                </g>
              </g>
            </g>
          </g>
        </g>
        <text
           xml:space="preserve"
           transform="matrix(0.99998509,0,0,1,181.8938,31.429465)"
           style="font-variant:normal;font-weight:normal;font-size:10.1966px;font-family:'DejaVu Sans';-inkscape-font-specification:DejaVuSans;writing-mode:lr-tb;fill:#333333;fill-opacity:1;fill-rule:nonzero;stroke:none"
           id="text9736"><tspan
             x="0 6.9952083 13.268491 19.730968 25.337091 31.79957 41.732265 47.980656 52.172802 58.077656 65.929214 72.177605 76.175575"
             y="0"
             id="tspan9734">BenchmarkData</tspan></text>
        <g
           id="g9738">
          <g
             id="g9740">
            <g
               id="g9742"
               clip-path="url(#clipPath9746)">
              <g
                 id="g9748">
                <g
                   id="g9750"
                   transform="scale(0.999985,1)">
                  <path
                     d="M 89.591,48.52 V 411.777"
                     style="fill:none;stroke:#d4d4d4;stroke-width:0.65861;stroke-linecap:butt;stroke-linejoin:miter;stroke-miterlimit:10;stroke-dasharray:none;stroke-opacity:1"
                     id="path9752" />
                </g>
                <g
                   id="g9754"
                   transform="scale(0.999985,1)">
                  <path
                     d="m 37.653,7.094 h 103.88 c 0.254,0 0.496,0.051 0.731,0.144 0.234,0.098 0.441,0.239 0.621,0.418 0.18,0.176 0.316,0.383 0.414,0.617 0.098,0.235 0.145,0.481 0.145,0.735 v 37.597 c 0,0.254 -0.047,0.5 -0.145,0.735 -0.098,0.234 -0.234,0.441 -0.414,0.621 -0.18,0.176 -0.387,0.316 -0.621,0.414 -0.235,0.094 -0.477,0.145 -0.731,0.145 H 37.653 c -0.254,0 -0.5,-0.051 -0.731,-0.145 -0.234,-0.098 -0.441,-0.238 -0.621,-0.414 -0.179,-0.18 -0.32,-0.387 -0.414,-0.621 -0.097,-0.235 -0.148,-0.481 -0.148,-0.735 V 9.008 c 0,-0.254 0.051,-0.5 0.148,-0.735 0.094,-0.234 0.235,-0.441 0.414,-0.617 0.18,-0.179 0.387,-0.32 0.621,-0.418 0.231,-0.093 0.477,-0.144 0.731,-0.144 z"
                     style="fill:#eeeeee;fill-opacity:1;fill-rule:nonzero;stroke:#d4d4d4;stroke-width:0.65861;stroke-linecap:butt;stroke-linejoin:miter;stroke-miterlimit:10;stroke-dasharray:none;stroke-opacity:1"
                     id="path9756" />
                </g>
              </g>
            </g>
          </g>
        </g>
        <text
           xml:space="preserve"
           transform="matrix(0.99998509,0,0,1,42.316659,31.429465)"
           style="font-variant:normal;font-weight:normal;font-size:10.1966px;font-family:'DejaVu Sans';-inkscape-font-specification:DejaVuSans;writing-mode:lr-tb;fill:#333333;fill-opacity:1;fill-rule:nonzero;stroke:none"
           id="text9760"><tspan
             x="0 6.9952083 13.268491 19.730968 25.337091 31.79957 41.732265 47.980656 52.172802 58.077656 64.693436 71.155914 77.618393 84.080872 90.354149"
             y="0"
             id="tspan9758">BenchmarkRunner</tspan></text>
        <g
           id="g9762">
          <g
             id="g9764">
            <g
               id="g9766"
               clip-path="url(#clipPath9770)">
              <g
                 id="g9772">
                <g
                   id="g9774"
                   transform="scale(0.999985,1)">
                  <path
                     d="m 86.404,49.793 h 6.375 v 349.242 h -6.375 z"
                     style="fill:#f4f4f4;fill-opacity:1;fill-rule:nonzero;stroke:#666666;stroke-width:0.65861;stroke-linecap:butt;stroke-linejoin:miter;stroke-miterlimit:10;stroke-dasharray:none;stroke-opacity:1"
                     id="path9776" />
                </g>
                <g
                   id="g9778"
                   transform="scale(0.999985,1)">
                  <path
                     d="m 350.568,252.453 h 6.371 v 90.496 h -6.371 z"
                     style="fill:#f4f4f4;fill-opacity:1;fill-rule:nonzero;stroke:#666666;stroke-width:0.65861;stroke-linecap:butt;stroke-linejoin:miter;stroke-miterlimit:10;stroke-dasharray:none;stroke-opacity:1"
                     id="path9780" />
                </g>
                <g
                   id="g9782"
                   transform="scale(0.999985,1)">
                  <path
                     d="m 474.839,283.047 h 6.371 v 29.312 h -6.371 z"
                     style="fill:#f4f4f4;fill-opacity:1;fill-rule:nonzero;stroke:#666666;stroke-width:0.65861;stroke-linecap:butt;stroke-linejoin:miter;stroke-miterlimit:10;stroke-dasharray:none;stroke-opacity:1"
                     id="path9784" />
                </g>
                <path
                   d="m 80.031,124.996 h 1.274 v 1.274 h -1.274 m 2.551,-1.274 h 1.273 v 1.274 h -1.273 m 2.547,-1.274 h 1.273 v 1.274 h -1.273 m 2.551,-1.274 h 1.273 v 1.274 H 87.68 m 2.547,-1.274 h 1.277 v 1.274 h -1.277 m 2.55,-1.274 h 1.274 v 1.274 h -1.274 m 2.551,-1.274 h 1.274 v 1.274 h -1.274 m 2.547,-1.274 h 1.273 v 1.274 h -1.273 m 2.551,-1.274 h 1.273 v 1.274 h -1.273 m 2.547,-1.274 h 1.277 v 1.274 h -1.277 m 2.55,-1.274 h 1.274 v 1.274 h -1.274 m 2.547,-1.274 h 1.278 v 1.274 h -1.278 m 2.551,-1.274 h 1.274 v 1.274 h -1.274 m 2.551,-1.274 h 1.273 v 1.274 h -1.273 m 2.547,-1.274 h 1.273 v 1.274 h -1.273 m 2.551,-1.274 h 1.273 v 1.274 h -1.273 m 2.546,-1.274 h 1.278 v 1.274 h -1.278 m 2.551,-1.274 h 1.274 v 1.274 h -1.274 m 2.551,-1.274 h 1.273 v 1.274 h -1.273 m 2.547,-1.274 h 1.273 v 1.274 h -1.273 m 2.551,-1.274 h 1.273 v 1.274 h -1.273 m 2.546,-1.274 h 1.278 v 1.274 h -1.278 m 2.551,-1.274 h 1.274 v 1.274 h -1.274 m 2.547,-1.274 h 1.278 v 1.274 h -1.278 m 2.551,-1.274 h 1.273 v 1.274 h -1.273 m 2.551,-1.274 h 1.273 v 1.274 h -1.273 m 2.547,-1.274 h 1.277 v 1.274 h -1.277 m 2.55,-1.274 h 1.274 v 1.274 h -1.274 m 2.547,-1.274 h 1.278 v 1.274 h -1.278 m 2.551,-1.274 h 1.273 v 1.274 h -1.273 m 2.551,-1.274 h 1.273 v 1.274 h -1.273 m 2.547,-1.274 h 1.273 v 1.274 h -1.273 m 2.55,-1.274 h 1.274 v 1.274 h -1.274 m 2.547,-1.274 h 1.278 v 1.274 h -1.278 m 2.551,-1.274 h 1.274 v 1.274 h -1.274 m 2.547,-1.274 h 1.277 v 1.274 h -1.277 m 2.551,-1.274 h 1.273 v 1.274 h -1.273 m 2.551,-1.274 h 1.273 v 1.274 h -1.273 m 2.546,-1.274 h 1.278 v 1.274 h -1.278 m 2.551,-1.274 h 1.274 v 1.274 h -1.274 m 2.547,-1.274 h 1.277 v 1.274 h -1.277 m 2.551,-1.274 h 1.273 v 1.274 h -1.273 m 2.551,-1.274 h 1.273 v 1.274 h -1.273 m 2.547,-1.274 h 1.273 v 1.274 h -1.273 m 2.55,-1.274 h 1.274 v 1.274 h -1.274 m 2.547,-1.274 h 1.278 v 1.274 h -1.278 m 2.551,-1.274 h 1.273 v 1.274 h -1.273 m 2.547,-1.274 h 1.277 v 1.274 h -1.277 m 2.551,-1.274 h 1.273 v 1.274 h -1.273 m 2.55,-1.274 h 1.274 v 1.274 h -1.274 m 2.547,-1.274 h 1.278 v 1.274 h -1.278 m 2.551,-1.274 h 1.273 v 1.274 h -1.273 m 2.547,-1.274 h 1.277 v 1.274 h -1.277 m 2.551,-1.274 h 1.273 v 1.274 h -1.273 m 2.551,-1.274 h 1.273 v 1.274 h -1.273 m 2.546,-1.274 h 1.274 v 1.274 h -1.274 m 2.551,-1.274 h 1.274 v 1.274 h -1.274 m 2.547,-1.274 h 1.277 v 1.274 h -1.277 m 2.551,-1.274 h 1.273 v 1.274 h -1.273 m 2.547,-1.274 h 1.277 v 1.274 h -1.277 m 2.55,-1.274 h 1.274 v 1.274 h -1.274 m 2.551,-1.274 h 1.274 v 1.274 h -1.274 m 2.547,-1.274 h 1.277 v 1.274 h -1.277 m 2.551,-1.274 h 1.273 v 1.274 h -1.273 m 2.547,-1.274 h 1.277 v 1.274 h -1.277 m 2.551,-1.274 H 247 v 1.274 h -1.273 m 2.55,-1.274 h 1.274 v 1.274 h -1.274 m 2.547,-1.274 h 1.274 v 1.274 h -1.274 m 2.551,-1.274 h 1.273 v 1.274 h -1.273 m 2.547,-1.274 h 1.277 v 1.274 h -1.277 m 2.551,-1.274 h 1.273 v 1.274 h -1.273 m 2.547,-1.274 h 1.277 v 1.274 h -1.277 m 2.55,-1.274 h 1.274 v 1.274 h -1.274 m 2.551,-1.274 h 1.274 v 1.274 h -1.274 m 2.547,-1.274 h 1.277 v 1.274 h -1.277 m 2.551,-1.274 h 1.273 v 1.274 h -1.273 m 2.547,-1.274 h 1.277 v 1.274 h -1.277 m 2.55,-1.274 h 1.274 v 1.274 h -1.274 m 2.551,-1.274 h 1.274 v 1.274 h -1.274 m 2.547,-1.274 h 1.274 v 1.274 h -1.274 m 2.551,-1.274 h 1.273 v 1.274 h -1.273 m 2.547,-1.274 h 1.277 v 1.274 h -1.277 m 2.55,-1.274 h 1.274 v 1.274 h -1.274 m 2.547,-1.274 h 1.278 v 1.274 h -1.278 m 2.551,-1.274 h 1.274 v 1.274 h -1.274 m 2.551,-1.274 h 1.273 v 1.274 h -1.273 m 2.547,-1.274 h 1.277 v 1.274 h -1.277 m 2.551,-1.274 h 1.273 v 1.274 h -1.273 m 2.546,-1.274 h 1.278 v 1.274 h -1.278 m 2.551,-1.274 h 1.274 v 1.274 h -1.274 m 2.551,-1.274 h 1.273 v 1.274 h -1.273 m 2.547,-1.274 h 1.273 v 1.274 h -1.273 m 2.551,-1.274 h 1.273 v 1.274 h -1.273 m 2.547,-1.274 h 1.277 v 1.274 h -1.277 m 2.55,-1.274 h 1.274 v 1.274 h -1.274 m 2.551,-1.274 h 1.274 v 1.274 h -1.274 m 2.547,-1.274 h 1.273 v 1.274 h -1.273 m 2.551,-1.274 h 1.273 v 1.274 h -1.273 m 2.547,-1.274 h 1.277 v 1.274 h -1.277 m 2.55,-1.274 h 1.274 v 1.274 h -1.274 m 2.547,-1.274 h 1.278 v 1.274 h -1.278 m 2.551,-1.274 h 1.274 v 1.274 h -1.274 m 2.551,-1.274 h 1.273 v 1.274 h -1.273 m 2.547,-1.274 h 1.273 v 1.274 h -1.273 m 2.551,-1.274 h 1.273 v 1.274 h -1.273 m 2.546,-1.274 h 1.278 v 1.274 h -1.278 m 2.551,-1.274 h 1.274 v 1.274 h -1.274 m 2.551,-1.274 h 1.273 v 1.274 h -1.273 m 2.547,-1.274 h 1.273 v 1.274 h -1.273 m 2.551,-1.274 h 1.273 v 1.274 h -1.273 m 2.547,-1.274 h 1.277 v 1.274 h -1.277 m 2.55,-1.274 h 1.274 v 1.274 h -1.274 m 2.547,-1.274 h 1.277 v 1.274 h -1.277 m 2.551,-1.274 h 1.273 v 1.274 h -1.273 m 2.551,-1.274 h 1.273 v 1.274 h -1.273 m 2.547,-1.274 h 1.273 v 1.274 h -1.273 m 2.55,-1.274 h 1.274 v 1.274 h -1.274 m 2.547,-1.274 h 1.278 v 1.274 h -1.278 m 2.551,-1.274 h 1.273 v 1.274 h -1.273 m 2.551,-1.274 h 1.273 v 1.274 h -1.273 m 2.547,-1.274 h 1.273 v 1.274 h -1.273 m 2.55,-1.274 h 1.274 v 1.274 h -1.274 m 2.547,-1.274 h 1.278 v 1.274 h -1.278 m 2.551,-1.274 h 1.274 v 1.274 h -1.274 m 2.547,-1.274 h 1.277 v 1.274 h -1.277 m 2.551,-1.274 h 1.273 v 1.274 h -1.273 m 2.551,-1.274 h 1.273 v 1.274 h -1.273 m 2.546,-1.274 h 1.274 v 1.274 h -1.274 m 2.551,-1.274 h 1.274 v 1.274 h -1.274 m 2.547,-1.274 h 1.277 v 1.274 h -1.277 m 2.551,-1.274 h 1.273 v 1.274 h -1.273 m 2.551,-1.274 h 1.273 v 1.274 h -1.273 m 2.547,-1.274 h 1.273 v 1.274 h -1.273 m 2.55,-1.274 h 1.274 v 1.274 h -1.274 m 2.547,-1.274 h 1.278 v 1.274 h -1.278 m 2.551,-1.274 h 1.273 v 1.274 h -1.273 m 2.547,-1.274 h 1.277 v 1.274 h -1.277 m 2.551,-1.274 h 1.273 v 1.274 h -1.273 m 2.55,-1.274 h 1.274 v 1.274 h -1.274 m 2.547,-1.274 h 1.274 v 1.274 h -1.274 m 2.551,-1.274 h 1.274 v 1.274 h -1.274 m 2.547,-1.274 h 1.277 v 1.274 h -1.277 m 2.551,-1.274 h 1.273 v 1.274 h -1.273 m 2.55,-1.274 h 1.274 v 1.274 h -1.274 m 2.547,-1.274 h 1.274 v 1.274 h -1.274 m 2.551,-1.274 h 1.274 v 1.274 h -1.274 m 2.547,-1.274 h 1.277 v 1.274 h -1.277 m 2.551,-1.274 h 1.273 v 1.274 h -1.273 m 2.547,-1.274 h 1.277 v 1.274 h -1.277 m 2.55,-1.274 h 1.274 v 1.274 h -1.274 m 2.551,-1.274 h 1.274 v 1.274 h -1.274 m 2.547,-1.274 h 1.274 v 1.274 h -1.274 m 2.551,-1.274 h 1.273 v 1.274 h -1.273 m 2.547,-1.274 h 1.277 v 1.274 h -1.277 m 2.551,-1.274 h 1.273 v 1.274 h -1.273 m 2.55,-1.274 h 1.274 v 1.274 h -1.274 m 2.547,-1.274 h 1.274 v 1.274 h -1.274 m 2.551,-1.274 h 1.273 v 1.274 h -1.273 m 2.547,-1.274 h 1.277 v 1.274 h -1.277 m 2.551,-1.274 h 1.273 v 1.274 h -1.273"
                   style="fill:#d4d4d4;fill-opacity:1;fill-rule:nonzero;stroke:none"
                   id="path9786" />
                <path
                   d="m 488.215,125.633 v 1.273 h -1.274 v -1.273 m 1.274,2.547 v 1.277 h -1.274 v -1.277 m 1.274,2.55 v 1.274 h -1.274 v -1.274 m 1.274,2.551 v 1.274 h -1.274 v -1.274 m 1.274,2.547 v 1.277 h -1.274 v -1.277 m 1.274,2.551 v 1.273 h -1.274 v -1.273 m 1.274,2.547 v 1.277 h -1.274 v -1.277 m 1.274,2.551 v 1.273 h -1.274 v -1.273 m 1.274,2.55 v 1.274 h -1.274 v -1.274 m 1.274,2.547 v 1.274 h -1.274 v -1.274 m 1.274,2.551 v 1.273 h -1.274 v -1.273 m 1.274,2.547 v 1.277 h -1.274 v -1.277 m 1.274,2.551 v 1.273 h -1.274 v -1.273 m 1.274,2.55 v 1.274 h -1.274 v -1.274 m 1.274,2.547 v 1.274 h -1.274 v -1.274 m 1.274,2.551 v 1.274 h -1.274 v -1.274 m 1.274,2.547 v 1.277 h -1.274 v -1.277 m 1.274,2.551 v 1.273 h -1.274 v -1.273 m 1.274,2.551 v 1.273 h -1.274 v -1.273 m 1.274,2.546 v 1.274 h -1.274 v -1.274 m 1.274,2.551 v 1.274 h -1.274 v -1.274 m 1.274,2.547 v 1.277 h -1.274 v -1.277 m 1.274,2.551 v 1.273 h -1.274 v -1.273 m 1.274,2.547 v 1.277 h -1.274 v -1.277 m 1.274,2.55 v 1.274 h -1.274 v -1.274 m 1.274,2.551 v 1.274 h -1.274 v -1.274 m 1.274,2.547 v 1.278 h -1.274 v -1.278 m 1.274,2.551 v 1.273 h -1.274 v -1.273 m 1.274,2.547 v 1.277 h -1.274 v -1.277 m 1.274,2.551 v 1.273 h -1.274 v -1.273 m 1.274,2.55 v 1.274 h -1.274 v -1.274 m 1.274,2.547 v 1.278 h -1.274 v -1.278 m 1.274,2.551 v 1.273 h -1.274 v -1.273 m 1.274,2.547 v 1.277 h -1.274 v -1.277 m 1.274,2.551 v 1.273 h -1.274 v -1.273 m 1.274,2.55 v 1.274 h -1.274 v -1.274 m 1.274,2.547 v 1.278 h -1.274 v -1.278 m 1.274,2.551 v 1.274 h -1.274 v -1.274 m 1.274,2.547 v 1.277 h -1.274 V 222.5 m 1.274,2.551 v 1.273 h -1.274 v -1.273 m 1.274,2.551 v 1.273 h -1.274 v -1.273 m 1.274,2.546 v 1.274 h -1.274 v -1.274 m 1.274,2.551 v 1.274 h -1.274 v -1.274 m 1.274,2.547 v 1.277 h -1.274 v -1.277 m 1.274,2.551 v 1.273 h -1.274 v -1.273 m 1.274,2.551 v 1.273 h -1.274 v -1.273 m 1.274,2.547 v 1.273 h -1.274 v -1.273 m 1.274,2.55 v 1.274 h -1.274 v -1.274 m 1.274,2.547 v 1.278 h -1.274 v -1.278 m 1.274,2.551 v 1.273 h -1.274 v -1.273 m 1.274,2.551 v 1.273 h -1.274 v -1.273 m 1.274,2.547 v 1.273 h -1.274 v -1.273 m 1.274,2.55 v 1.274 h -1.274 v -1.274 m 1.274,2.547 v 1.278 h -1.274 v -1.278 m 1.274,2.551 v 1.273 h -1.274 v -1.273 m 1.274,2.547 v 1.277 h -1.274 v -1.277 m 1.274,2.551 v 1.273 h -1.274 v -1.273 m 1.274,2.551 v 1.273 h -1.274 v -1.273 m 1.274,2.546 v 1.278 h -1.274 v -1.278 m 1.274,2.551 v 1.274 h -1.274 v -1.274 m 1.274,2.547 v 1.277 h -1.274 v -1.277 m 1.274,2.551 v 1.273 h -1.274 v -1.273 m 1.274,2.551 v 1.273 h -1.274 v -1.273 m 1.274,2.546 v 1.278 h -1.274 v -1.278 m 1.274,2.551 v 1.274 h -1.274 v -1.274 m 1.274,2.547 v 1.277 h -1.274 v -1.277 m 1.274,2.551 v 1.273 h -1.274 v -1.273 m 1.274,2.551 v 1.273 h -1.274 v -1.273 m 1.274,2.547 v 1.277 h -1.274 v -1.277 m 1.274,2.55 v 1.274 h -1.274 v -1.274 m 1.274,2.547 v 1.278 h -1.274 v -1.278 m 1.274,2.551 v 1.273 h -1.274 v -1.273 m 1.274,2.551 v 1.273 h -1.274 v -1.273 m 1.274,2.547 v 1.273 h -1.274 v -1.273 m 1.274,2.55 v 1.274 h -1.274 v -1.274 m 1.274,2.547 v 1.278 h -1.274 v -1.278 m 1.274,2.551 v 1.274 h -1.274 v -1.274 m 1.274,2.551 v 1.273 h -1.274 v -1.273 m 1.274,2.547 v 1.273 h -1.274 v -1.273 m 1.274,2.551 v 1.273 h -1.274 v -1.273 m 1.274,2.546 v 1.278 h -1.274 v -1.278 m 1.274,2.551 v 1.274 h -1.274 v -1.274 m 1.274,2.551 v 1.273 h -1.274 v -1.273 m 1.274,2.547 v 1.273 h -1.274 v -1.273 m 1.274,2.551 v 1.273 h -1.274 v -1.273 m 1.274,2.546 v 1.278 h -1.274 v -1.278 m 1.274,2.551 v 1.274 h -1.274 v -1.274 m 1.274,2.547 v 1.278 h -1.274 v -1.278"
                   style="fill:#d4d4d4;fill-opacity:1;fill-rule:nonzero;stroke:none"
                   id="path9788" />
                <path
                   d="m 80.031,348.688 h 1.274 v 1.273 h -1.274 m 2.551,-1.273 h 1.273 v 1.273 h -1.273 m 2.547,-1.273 h 1.273 v 1.273 h -1.273 m 2.551,-1.273 h 1.273 v 1.273 H 87.68 m 2.547,-1.273 h 1.277 v 1.273 h -1.277 m 2.55,-1.273 h 1.274 v 1.273 h -1.274 m 2.551,-1.273 h 1.274 v 1.273 h -1.274 m 2.547,-1.273 h 1.273 v 1.273 h -1.273 m 2.551,-1.273 h 1.273 v 1.273 h -1.273 m 2.547,-1.273 h 1.277 v 1.273 h -1.277 m 2.55,-1.273 h 1.274 v 1.273 h -1.274 m 2.547,-1.273 h 1.278 v 1.273 h -1.278 m 2.551,-1.273 h 1.274 v 1.273 h -1.274 m 2.551,-1.273 h 1.273 v 1.273 h -1.273 m 2.547,-1.273 h 1.273 v 1.273 h -1.273 m 2.551,-1.273 h 1.273 v 1.273 h -1.273 m 2.546,-1.273 h 1.278 v 1.273 h -1.278 m 2.551,-1.273 h 1.274 v 1.273 h -1.274 m 2.551,-1.273 h 1.273 v 1.273 h -1.273 m 2.547,-1.273 h 1.273 v 1.273 h -1.273 m 2.551,-1.273 h 1.273 v 1.273 h -1.273 m 2.546,-1.273 h 1.278 v 1.273 h -1.278 m 2.551,-1.273 h 1.274 v 1.273 h -1.274 m 2.547,-1.273 h 1.278 v 1.273 h -1.278 m 2.551,-1.273 h 1.273 v 1.273 h -1.273 m 2.551,-1.273 h 1.273 v 1.273 h -1.273 m 2.547,-1.273 h 1.277 v 1.273 h -1.277 m 2.55,-1.273 h 1.274 v 1.273 h -1.274 m 2.547,-1.273 h 1.278 v 1.273 h -1.278 m 2.551,-1.273 h 1.273 v 1.273 h -1.273 m 2.551,-1.273 h 1.273 v 1.273 h -1.273 m 2.547,-1.273 h 1.273 v 1.273 h -1.273 m 2.55,-1.273 h 1.274 v 1.273 h -1.274 m 2.547,-1.273 h 1.278 v 1.273 h -1.278 m 2.551,-1.273 h 1.274 v 1.273 h -1.274 m 2.547,-1.273 h 1.277 v 1.273 h -1.277 m 2.551,-1.273 h 1.273 v 1.273 h -1.273 m 2.551,-1.273 h 1.273 v 1.273 h -1.273 m 2.546,-1.273 h 1.278 v 1.273 h -1.278 m 2.551,-1.273 h 1.274 v 1.273 h -1.274 m 2.547,-1.273 h 1.277 v 1.273 h -1.277 m 2.551,-1.273 h 1.273 v 1.273 h -1.273 m 2.551,-1.273 h 1.273 v 1.273 h -1.273 m 2.547,-1.273 h 1.273 v 1.273 h -1.273 m 2.55,-1.273 h 1.274 v 1.273 h -1.274 m 2.547,-1.273 h 1.278 v 1.273 h -1.278 m 2.551,-1.273 h 1.273 v 1.273 h -1.273 m 2.547,-1.273 h 1.277 v 1.273 h -1.277 m 2.551,-1.273 h 1.273 v 1.273 h -1.273 m 2.55,-1.273 h 1.274 v 1.273 h -1.274 m 2.547,-1.273 h 1.278 v 1.273 h -1.278 m 2.551,-1.273 h 1.273 v 1.273 h -1.273 m 2.547,-1.273 h 1.277 v 1.273 h -1.277 m 2.551,-1.273 h 1.273 v 1.273 h -1.273 m 2.551,-1.273 h 1.273 v 1.273 h -1.273 m 2.546,-1.273 h 1.274 v 1.273 h -1.274 m 2.551,-1.273 h 1.274 v 1.273 h -1.274 m 2.547,-1.273 h 1.277 v 1.273 h -1.277 m 2.551,-1.273 h 1.273 v 1.273 h -1.273 m 2.547,-1.273 h 1.277 v 1.273 h -1.277 m 2.55,-1.273 h 1.274 v 1.273 h -1.274 m 2.551,-1.273 h 1.274 v 1.273 h -1.274 m 2.547,-1.273 h 1.277 v 1.273 h -1.277 m 2.551,-1.273 h 1.273 v 1.273 h -1.273 m 2.547,-1.273 h 1.277 v 1.273 h -1.277 m 2.551,-1.273 H 247 v 1.273 h -1.273 m 2.55,-1.273 h 1.274 v 1.273 h -1.274 m 2.547,-1.273 h 1.274 v 1.273 h -1.274 m 2.551,-1.273 h 1.273 v 1.273 h -1.273 m 2.547,-1.273 h 1.277 v 1.273 h -1.277 m 2.551,-1.273 h 1.273 v 1.273 h -1.273 m 2.547,-1.273 h 1.277 v 1.273 h -1.277 m 2.55,-1.273 h 1.274 v 1.273 h -1.274 m 2.551,-1.273 h 1.274 v 1.273 h -1.274 m 2.547,-1.273 h 1.277 v 1.273 h -1.277 m 2.551,-1.273 h 1.273 v 1.273 h -1.273 m 2.547,-1.273 h 1.277 v 1.273 h -1.277 m 2.55,-1.273 h 1.274 v 1.273 h -1.274 m 2.551,-1.273 h 1.274 v 1.273 h -1.274 m 2.547,-1.273 h 1.274 v 1.273 h -1.274 m 2.551,-1.273 h 1.273 v 1.273 h -1.273 m 2.547,-1.273 h 1.277 v 1.273 h -1.277 m 2.55,-1.273 h 1.274 v 1.273 h -1.274 m 2.547,-1.273 h 1.278 v 1.273 h -1.278 m 2.551,-1.273 h 1.274 v 1.273 h -1.274 m 2.551,-1.273 h 1.273 v 1.273 h -1.273 m 2.547,-1.273 h 1.277 v 1.273 h -1.277 m 2.551,-1.273 h 1.273 v 1.273 h -1.273 m 2.546,-1.273 h 1.278 v 1.273 h -1.278 m 2.551,-1.273 h 1.274 v 1.273 h -1.274 m 2.551,-1.273 h 1.273 v 1.273 h -1.273 m 2.547,-1.273 h 1.273 v 1.273 h -1.273 m 2.551,-1.273 h 1.273 v 1.273 h -1.273 m 2.547,-1.273 h 1.277 v 1.273 h -1.277 m 2.55,-1.273 h 1.274 v 1.273 h -1.274 m 2.551,-1.273 h 1.274 v 1.273 h -1.274 m 2.547,-1.273 h 1.273 v 1.273 h -1.273 m 2.551,-1.273 h 1.273 v 1.273 h -1.273 m 2.547,-1.273 h 1.277 v 1.273 h -1.277 m 2.55,-1.273 h 1.274 v 1.273 h -1.274 m 2.547,-1.273 h 1.278 v 1.273 h -1.278 m 2.551,-1.273 h 1.274 v 1.273 h -1.274 m 2.551,-1.273 h 1.273 v 1.273 h -1.273 m 2.547,-1.273 h 1.273 v 1.273 h -1.273 m 2.551,-1.273 h 1.273 v 1.273 h -1.273 m 2.546,-1.273 h 1.278 v 1.273 h -1.278 m 2.551,-1.273 h 1.274 v 1.273 h -1.274 m 2.551,-1.273 h 1.273 v 1.273 h -1.273 m 2.547,-1.273 h 1.273 v 1.273 h -1.273 m 2.551,-1.273 h 1.273 v 1.273 h -1.273 m 2.547,-1.273 h 1.277 v 1.273 h -1.277 m 2.55,-1.273 h 1.274 v 1.273 h -1.274 m 2.547,-1.273 h 1.277 v 1.273 h -1.277 m 2.551,-1.273 h 1.273 v 1.273 h -1.273 m 2.551,-1.273 h 1.273 v 1.273 h -1.273 m 2.547,-1.273 h 1.273 v 1.273 h -1.273 m 2.55,-1.273 h 1.274 v 1.273 h -1.274 m 2.547,-1.273 h 1.278 v 1.273 h -1.278 m 2.551,-1.273 h 1.273 v 1.273 h -1.273 m 2.551,-1.273 h 1.273 v 1.273 h -1.273 m 2.547,-1.273 h 1.273 v 1.273 h -1.273 m 2.55,-1.273 h 1.274 v 1.273 h -1.274 m 2.547,-1.273 h 1.278 v 1.273 h -1.278 m 2.551,-1.273 h 1.274 v 1.273 h -1.274 m 2.547,-1.273 h 1.277 v 1.273 h -1.277 m 2.551,-1.273 h 1.273 v 1.273 h -1.273 m 2.551,-1.273 h 1.273 v 1.273 h -1.273 m 2.546,-1.273 h 1.274 v 1.273 h -1.274 m 2.551,-1.273 h 1.274 v 1.273 h -1.274 m 2.547,-1.273 h 1.277 v 1.273 h -1.277 m 2.551,-1.273 h 1.273 v 1.273 h -1.273 m 2.551,-1.273 h 1.273 v 1.273 h -1.273 m 2.547,-1.273 h 1.273 v 1.273 h -1.273 m 2.55,-1.273 h 1.274 v 1.273 h -1.274 m 2.547,-1.273 h 1.278 v 1.273 h -1.278 m 2.551,-1.273 h 1.273 v 1.273 h -1.273 m 2.547,-1.273 h 1.277 v 1.273 h -1.277 m 2.551,-1.273 h 1.273 v 1.273 h -1.273 m 2.55,-1.273 h 1.274 v 1.273 h -1.274 m 2.547,-1.273 h 1.274 v 1.273 h -1.274 m 2.551,-1.273 h 1.274 v 1.273 h -1.274 m 2.547,-1.273 h 1.277 v 1.273 h -1.277 m 2.551,-1.273 h 1.273 v 1.273 h -1.273 m 2.55,-1.273 h 1.274 v 1.273 h -1.274 m 2.547,-1.273 h 1.274 v 1.273 h -1.274 m 2.551,-1.273 h 1.274 v 1.273 h -1.274 m 2.547,-1.273 h 1.277 v 1.273 h -1.277 m 2.551,-1.273 h 1.273 v 1.273 h -1.273 m 2.547,-1.273 h 1.277 v 1.273 h -1.277 m 2.55,-1.273 h 1.274 v 1.273 h -1.274 m 2.551,-1.273 h 1.274 v 1.273 h -1.274 m 2.547,-1.273 h 1.274 v 1.273 h -1.274 m 2.551,-1.273 h 1.273 v 1.273 h -1.273 m 2.547,-1.273 h 1.277 v 1.273 h -1.277 m 2.551,-1.273 h 1.273 v 1.273 h -1.273 m 2.55,-1.273 h 1.274 v 1.273 h -1.274 m 2.547,-1.273 h 1.274 v 1.273 h -1.274 m 2.551,-1.273 h 1.273 v 1.273 h -1.273 m 2.547,-1.273 h 1.277 v 1.273 h -1.277 m 2.551,-1.273 h 1.273 v 1.273 h -1.273"
                   style="fill:#d4d4d4;fill-opacity:1;fill-rule:nonzero;stroke:none"
                   id="path9790" />
                <path
                   d="m 80.668,125.633 v 1.273 h -1.273 v -1.273 m 1.273,2.547 v 1.277 h -1.273 v -1.277 m 1.273,2.55 v 1.274 h -1.273 v -1.274 m 1.273,2.551 v 1.274 h -1.273 v -1.274 m 1.273,2.547 v 1.277 h -1.273 v -1.277 m 1.273,2.551 v 1.273 h -1.273 v -1.273 m 1.273,2.547 v 1.277 h -1.273 v -1.277 m 1.273,2.551 v 1.273 h -1.273 v -1.273 m 1.273,2.55 v 1.274 h -1.273 v -1.274 m 1.273,2.547 v 1.274 h -1.273 v -1.274 m 1.273,2.551 v 1.273 h -1.273 v -1.273 m 1.273,2.547 v 1.277 h -1.273 v -1.277 m 1.273,2.551 v 1.273 h -1.273 v -1.273 m 1.273,2.55 v 1.274 h -1.273 v -1.274 m 1.273,2.547 v 1.274 h -1.273 v -1.274 m 1.273,2.551 v 1.274 h -1.273 v -1.274 m 1.273,2.547 v 1.277 h -1.273 v -1.277 m 1.273,2.551 v 1.273 h -1.273 v -1.273 m 1.273,2.551 v 1.273 h -1.273 v -1.273 m 1.273,2.546 v 1.274 h -1.273 v -1.274 m 1.273,2.551 v 1.274 h -1.273 v -1.274 m 1.273,2.547 v 1.277 h -1.273 v -1.277 m 1.273,2.551 v 1.273 h -1.273 v -1.273 m 1.273,2.547 v 1.277 h -1.273 v -1.277 m 1.273,2.55 v 1.274 h -1.273 v -1.274 m 1.273,2.551 v 1.274 h -1.273 v -1.274 m 1.273,2.547 v 1.278 h -1.273 v -1.278 m 1.273,2.551 v 1.273 h -1.273 v -1.273 m 1.273,2.547 v 1.277 h -1.273 v -1.277 m 1.273,2.551 v 1.273 h -1.273 v -1.273 m 1.273,2.55 v 1.274 h -1.273 v -1.274 m 1.273,2.547 v 1.278 h -1.273 v -1.278 m 1.273,2.551 v 1.273 h -1.273 v -1.273 m 1.273,2.547 v 1.277 h -1.273 v -1.277 m 1.273,2.551 v 1.273 h -1.273 v -1.273 m 1.273,2.55 v 1.274 h -1.273 v -1.274 m 1.273,2.547 v 1.278 h -1.273 v -1.278 m 1.273,2.551 v 1.274 h -1.273 v -1.274 m 1.273,2.547 v 1.277 H 79.395 V 222.5 m 1.273,2.551 v 1.273 h -1.273 v -1.273 m 1.273,2.551 v 1.273 h -1.273 v -1.273 m 1.273,2.546 v 1.274 h -1.273 v -1.274 m 1.273,2.551 v 1.274 h -1.273 v -1.274 m 1.273,2.547 v 1.277 h -1.273 v -1.277 m 1.273,2.551 v 1.273 h -1.273 v -1.273 m 1.273,2.551 v 1.273 h -1.273 v -1.273 m 1.273,2.547 v 1.273 h -1.273 v -1.273 m 1.273,2.55 v 1.274 h -1.273 v -1.274 m 1.273,2.547 v 1.278 h -1.273 v -1.278 m 1.273,2.551 v 1.273 h -1.273 v -1.273 m 1.273,2.551 v 1.273 h -1.273 v -1.273 m 1.273,2.547 v 1.273 h -1.273 v -1.273 m 1.273,2.55 v 1.274 h -1.273 v -1.274 m 1.273,2.547 v 1.278 h -1.273 v -1.278 m 1.273,2.551 v 1.273 h -1.273 v -1.273 m 1.273,2.547 v 1.277 h -1.273 v -1.277 m 1.273,2.551 v 1.273 h -1.273 v -1.273 m 1.273,2.551 v 1.273 h -1.273 v -1.273 m 1.273,2.546 v 1.278 h -1.273 v -1.278 m 1.273,2.551 v 1.274 h -1.273 v -1.274 m 1.273,2.547 v 1.277 h -1.273 v -1.277 m 1.273,2.551 v 1.273 h -1.273 v -1.273 m 1.273,2.551 v 1.273 h -1.273 v -1.273 m 1.273,2.546 v 1.278 h -1.273 v -1.278 m 1.273,2.551 v 1.274 h -1.273 v -1.274 m 1.273,2.547 v 1.277 h -1.273 v -1.277 m 1.273,2.551 v 1.273 h -1.273 v -1.273 m 1.273,2.551 v 1.273 h -1.273 v -1.273 m 1.273,2.547 v 1.277 h -1.273 v -1.277 m 1.273,2.55 v 1.274 h -1.273 v -1.274 m 1.273,2.547 v 1.278 h -1.273 v -1.278 m 1.273,2.551 v 1.273 h -1.273 v -1.273 m 1.273,2.551 v 1.273 h -1.273 v -1.273 m 1.273,2.547 v 1.273 h -1.273 v -1.273 m 1.273,2.55 v 1.274 h -1.273 v -1.274 m 1.273,2.547 v 1.278 h -1.273 v -1.278 m 1.273,2.551 v 1.274 h -1.273 v -1.274 m 1.273,2.551 v 1.273 h -1.273 v -1.273 m 1.273,2.547 v 1.273 h -1.273 v -1.273 m 1.273,2.551 v 1.273 h -1.273 v -1.273 m 1.273,2.546 v 1.278 h -1.273 v -1.278 m 1.273,2.551 v 1.274 h -1.273 v -1.274 m 1.273,2.551 v 1.273 h -1.273 v -1.273 m 1.273,2.547 v 1.273 h -1.273 v -1.273 m 1.273,2.551 v 1.273 h -1.273 v -1.273 m 1.273,2.546 v 1.278 h -1.273 v -1.278 m 1.273,2.551 v 1.274 h -1.273 v -1.274 m 1.273,2.547 v 1.278 h -1.273 v -1.278"
                   style="fill:#d4d4d4;fill-opacity:1;fill-rule:nonzero;stroke:none"
                   id="path9792" />
                <g
                   id="g9794"
                   transform="scale(0.999985,1)">
                  <path
                     d="m 80.032,125.633 h 31.864 v 8.285 l -5.351,4.461 H 80.032 Z"
                     style="fill:#eeeeee;fill-opacity:1;fill-rule:nonzero;stroke:#d4d4d4;stroke-width:0.65861;stroke-linecap:butt;stroke-linejoin:miter;stroke-miterlimit:10;stroke-dasharray:none;stroke-opacity:1"
                     id="path9796" />
                </g>
              </g>
            </g>
          </g>
        </g>
        <text
           xml:space="preserve"
           transform="matrix(0.99998509,0,0,1,85.383843,136.81977)"
           style="font-variant:normal;font-weight:normal;font-size:10.1966px;font-family:'DejaVu Sans';-inkscape-font-specification:DejaVuSans;writing-mode:lr-tb;fill:#333333;fill-opacity:1;fill-rule:nonzero;stroke:none"
           id="text9804"><tspan
             x="0 2.8329349 9.0713663 15.309797"
             y="0"
             id="tspan9798">loop</tspan><tspan
             x="142.60689 146.58495 150.17465 156.41309 160.60524 163.84644 170.11972 176.3681 181.97423 188.43671 191.6779 198.15033 204.42361 210.88609 216.49222 222.9547 232.88739 239.13579 243.32793 249.23279 257.08435 263.30215 267.30011 273.54849 276.7897 279.62262"
             y="0.28349331"
             id="tspan9800">[for each benchmarkData in</tspan><tspan
             x="162.5079 168.98033 175.25362 181.71609 187.32222 193.7847 203.71739 209.96577 214.15793 220.06277 227.91434 234.16273 238.16071 244.40909 250.08989 252.92284 258.2352 262.23318"
             y="12.38285"
             id="tspan9802">benchmarkDataList]</tspan></text>
        <g
           id="g9806">
          <g
             id="g9808">
            <g
               id="g9810"
               clip-path="url(#clipPath9814)">
              <g
                 id="g9816">
                <path
                   d="m 73.66,54.254 h 1.274 v 1.277 H 73.66 m 2.547,-1.277 h 1.273 v 1.277 h -1.273 m 2.551,-1.277 h 1.273 v 1.277 h -1.273 m 2.547,-1.277 h 1.277 v 1.277 h -1.277 m 2.55,-1.277 h 1.274 v 1.277 h -1.274 m 2.547,-1.277 h 1.278 v 1.277 h -1.278 m 2.551,-1.277 h 1.274 v 1.277 h -1.274 m 2.551,-1.277 h 1.273 v 1.277 h -1.273 m 2.547,-1.277 h 1.277 v 1.277 h -1.277 m 2.551,-1.277 h 1.273 v 1.277 h -1.273 m 2.546,-1.277 h 1.278 v 1.277 h -1.278 m 2.551,-1.277 h 1.274 v 1.277 h -1.274 m 2.551,-1.277 h 1.273 v 1.277 h -1.273 m 2.547,-1.277 h 1.273 v 1.277 h -1.273 m 2.551,-1.277 h 1.273 v 1.277 h -1.273 m 2.547,-1.277 h 1.277 v 1.277 h -1.277 m 2.55,-1.277 h 1.274 v 1.277 h -1.274 m 2.547,-1.277 h 1.278 v 1.277 h -1.278 m 2.551,-1.277 h 1.273 v 1.277 h -1.273 m 2.551,-1.277 h 1.273 v 1.277 h -1.273 m 2.547,-1.277 h 1.277 v 1.277 h -1.277 m 2.55,-1.277 h 1.274 v 1.277 h -1.274 m 2.547,-1.277 h 1.278 v 1.277 h -1.278 m 2.551,-1.277 h 1.273 v 1.277 h -1.273 m 2.551,-1.277 h 1.273 v 1.277 h -1.273 m 2.547,-1.277 h 1.273 v 1.277 h -1.273 m 2.551,-1.277 h 1.273 v 1.277 h -1.273 m 2.546,-1.277 h 1.278 v 1.277 h -1.278 m 2.551,-1.277 h 1.274 v 1.277 h -1.274 m 2.551,-1.277 h 1.273 v 1.277 h -1.273 m 2.547,-1.277 h 1.273 v 1.277 h -1.273 m 2.551,-1.277 h 1.273 v 1.277 h -1.273 m 2.546,-1.277 h 1.278 v 1.277 h -1.278 m 2.551,-1.277 h 1.274 v 1.277 h -1.274 m 2.547,-1.277 h 1.277 v 1.277 h -1.277 m 2.551,-1.277 h 1.273 v 1.277 h -1.273 m 2.551,-1.277 h 1.273 v 1.277 h -1.273 m 2.547,-1.277 h 1.273 v 1.277 h -1.273 m 2.55,-1.277 h 1.274 v 1.277 h -1.274 m 2.547,-1.277 h 1.278 v 1.277 h -1.278 m 2.551,-1.277 h 1.273 v 1.277 h -1.273 m 2.551,-1.277 h 1.273 v 1.277 h -1.273 m 2.547,-1.277 h 1.273 v 1.277 h -1.273 m 2.55,-1.277 h 1.274 v 1.277 h -1.274 m 2.547,-1.277 h 1.278 v 1.277 h -1.278 m 2.551,-1.277 h 1.274 v 1.277 h -1.274 m 2.547,-1.277 h 1.277 v 1.277 h -1.277 m 2.551,-1.277 h 1.273 v 1.277 h -1.273 m 2.551,-1.277 h 1.273 v 1.277 h -1.273 m 2.546,-1.277 h 1.274 v 1.277 h -1.274 m 2.551,-1.277 h 1.274 v 1.277 h -1.274 m 2.547,-1.277 h 1.277 v 1.277 h -1.277 m 2.551,-1.277 h 1.273 v 1.277 h -1.273 m 2.551,-1.277 h 1.273 v 1.277 h -1.273 m 2.546,-1.277 h 1.274 v 1.277 h -1.274 m 2.551,-1.277 h 1.274 v 1.277 h -1.274 m 2.547,-1.277 h 1.278 v 1.277 h -1.278 m 2.551,-1.277 h 1.273 v 1.277 h -1.273 m 2.547,-1.277 h 1.277 v 1.277 h -1.277 m 2.551,-1.277 h 1.273 v 1.277 h -1.273 m 2.55,-1.277 h 1.274 v 1.277 h -1.274 m 2.547,-1.277 h 1.274 v 1.277 h -1.274 m 2.551,-1.277 h 1.273 v 1.277 h -1.273 m 2.547,-1.277 h 1.277 v 1.277 h -1.277 m 2.551,-1.277 h 1.273 v 1.277 h -1.273 m 2.55,-1.277 h 1.274 v 1.277 h -1.274 m 2.547,-1.277 h 1.274 v 1.277 h -1.274 m 2.551,-1.277 h 1.274 v 1.277 h -1.274 M 247,54.254 h 1.277 v 1.277 H 247 m 2.551,-1.277 h 1.273 v 1.277 h -1.273 m 2.547,-1.277 h 1.277 v 1.277 h -1.277 m 2.55,-1.277 h 1.274 v 1.277 h -1.274 m 2.551,-1.277 h 1.274 v 1.277 h -1.274 m 2.547,-1.277 h 1.274 v 1.277 h -1.274 m 2.551,-1.277 h 1.273 v 1.277 h -1.273 m 2.547,-1.277 h 1.277 v 1.277 h -1.277 m 2.551,-1.277 h 1.273 v 1.277 h -1.273 m 2.55,-1.277 h 1.274 v 1.277 h -1.274 m 2.547,-1.277 h 1.274 v 1.277 h -1.274 m 2.551,-1.277 h 1.273 v 1.277 h -1.273 m 2.547,-1.277 h 1.277 v 1.277 h -1.277 m 2.551,-1.277 h 1.273 v 1.277 h -1.273 m 2.547,-1.277 h 1.277 v 1.277 h -1.277 m 2.55,-1.277 h 1.274 v 1.277 h -1.274 m 2.551,-1.277 h 1.273 v 1.277 h -1.273 m 2.547,-1.277 h 1.273 v 1.277 h -1.273 m 2.551,-1.277 h 1.273 v 1.277 h -1.273 m 2.547,-1.277 h 1.277 v 1.277 h -1.277 m 2.55,-1.277 h 1.274 v 1.277 h -1.274 m 2.551,-1.277 h 1.274 v 1.277 h -1.274 m 2.547,-1.277 h 1.273 v 1.277 h -1.273 m 2.551,-1.277 h 1.273 v 1.277 h -1.273 m 2.547,-1.277 h 1.277 v 1.277 h -1.277 m 2.55,-1.277 h 1.274 v 1.277 h -1.274 m 2.547,-1.277 h 1.278 v 1.277 h -1.278 m 2.551,-1.277 h 1.274 v 1.277 h -1.274 m 2.551,-1.277 h 1.273 v 1.277 h -1.273 m 2.547,-1.277 h 1.277 v 1.277 h -1.277 m 2.551,-1.277 h 1.273 v 1.277 h -1.273 m 2.546,-1.277 h 1.278 v 1.277 h -1.278 m 2.551,-1.277 h 1.274 v 1.277 h -1.274 m 2.551,-1.277 h 1.273 v 1.277 h -1.273 m 2.547,-1.277 h 1.273 v 1.277 h -1.273 m 2.551,-1.277 h 1.273 v 1.277 h -1.273 m 2.547,-1.277 h 1.277 v 1.277 h -1.277 m 2.55,-1.277 h 1.274 v 1.277 h -1.274 m 2.547,-1.277 h 1.278 v 1.277 h -1.278 m 2.551,-1.277 h 1.273 v 1.277 h -1.273 m 2.551,-1.277 h 1.273 v 1.277 h -1.273 m 2.547,-1.277 h 1.277 v 1.277 h -1.277 m 2.55,-1.277 h 1.274 v 1.277 h -1.274 m 2.547,-1.277 h 1.278 v 1.277 h -1.278 m 2.551,-1.277 h 1.274 v 1.277 h -1.274 m 2.551,-1.277 h 1.273 v 1.277 h -1.273 m 2.547,-1.277 h 1.273 v 1.277 h -1.273 m 2.55,-1.277 h 1.274 v 1.277 h -1.274 m 2.547,-1.277 h 1.278 v 1.277 h -1.278 m 2.551,-1.277 h 1.274 v 1.277 h -1.274 m 2.547,-1.277 h 1.277 v 1.277 h -1.277 m 2.551,-1.277 h 1.273 v 1.277 h -1.273 m 2.551,-1.277 h 1.273 v 1.277 h -1.273 m 2.546,-1.277 h 1.278 v 1.277 h -1.278 m 2.551,-1.277 h 1.274 v 1.277 h -1.274 m 2.547,-1.277 h 1.277 v 1.277 h -1.277 m 2.551,-1.277 h 1.273 v 1.277 h -1.273 m 2.551,-1.277 h 1.273 v 1.277 h -1.273 m 2.547,-1.277 h 1.273 v 1.277 h -1.273 m 2.55,-1.277 h 1.274 v 1.277 h -1.274 m 2.547,-1.277 h 1.278 v 1.277 h -1.278 m 2.551,-1.277 h 1.273 v 1.277 H 402.5 m 2.547,-1.277 h 1.277 v 1.277 h -1.277 m 2.551,-1.277 h 1.273 v 1.277 h -1.273 m 2.55,-1.277 h 1.274 v 1.277 h -1.274 m 2.547,-1.277 h 1.278 v 1.277 h -1.278 m 2.551,-1.277 h 1.274 v 1.277 h -1.274 m 2.547,-1.277 h 1.277 v 1.277 h -1.277 m 2.551,-1.277 h 1.273 v 1.277 h -1.273 m 2.551,-1.277 h 1.273 v 1.277 h -1.273 m 2.546,-1.277 h 1.274 v 1.277 h -1.274 m 2.551,-1.277 h 1.274 v 1.277 h -1.274 m 2.547,-1.277 h 1.277 v 1.277 h -1.277 m 2.551,-1.277 h 1.273 v 1.277 h -1.273 m 2.547,-1.277 h 1.277 v 1.277 h -1.277 m 2.551,-1.277 h 1.273 v 1.277 h -1.273 m 2.55,-1.277 h 1.274 v 1.277 h -1.274 m 2.547,-1.277 h 1.277 v 1.277 h -1.277 m 2.551,-1.277 h 1.273 v 1.277 h -1.273 m 2.547,-1.277 h 1.277 v 1.277 h -1.277 m 2.551,-1.277 h 1.273 v 1.277 h -1.273 m 2.55,-1.277 h 1.274 v 1.277 h -1.274 m 2.547,-1.277 h 1.274 v 1.277 h -1.274 m 2.551,-1.277 h 1.273 v 1.277 h -1.273 m 2.547,-1.277 h 1.277 v 1.277 h -1.277 m 2.551,-1.277 h 1.273 v 1.277 h -1.273 m 2.547,-1.277 h 1.277 v 1.277 h -1.277 m 2.55,-1.277 h 1.274 v 1.277 h -1.274 m 2.551,-1.277 h 1.274 v 1.277 h -1.274 m 2.547,-1.277 h 1.277 v 1.277 h -1.277 m 2.551,-1.277 h 1.273 v 1.277 h -1.273 m 2.547,-1.277 h 1.277 v 1.277 h -1.277 m 2.55,-1.277 h 1.274 v 1.277 h -1.274 m 2.551,-1.277 h 1.274 v 1.277 h -1.274 m 2.547,-1.277 h 1.274 v 1.277 h -1.274 m 2.551,-1.277 h 1.273 v 1.277 h -1.273 m 2.547,-1.277 h 1.277 v 1.277 h -1.277"
                   style="fill:#d4d4d4;fill-opacity:1;fill-rule:nonzero;stroke:none"
                   id="path9818" />
                <path
                   d="m 494.586,54.891 v 1.277 h -1.274 v -1.277 m 1.274,2.55 v 1.274 h -1.274 v -1.274 m 1.274,2.551 v 1.274 h -1.274 v -1.274 m 1.274,2.547 v 1.273 h -1.274 v -1.273 m 1.274,2.551 v 1.273 h -1.274 V 65.09 m 1.274,2.547 v 1.277 h -1.274 v -1.277 m 1.274,2.551 v 1.273 h -1.274 v -1.273 m 1.274,2.55 v 1.274 h -1.274 v -1.274 m 1.274,2.547 v 1.274 h -1.274 v -1.274 m 1.274,2.551 v 1.273 h -1.274 v -1.273 m 1.274,2.547 v 1.277 h -1.274 v -1.277 m 1.274,2.551 v 1.273 h -1.274 v -1.273 m 1.274,2.546 v 1.278 h -1.274 V 85.48 m 1.274,2.551 v 1.274 h -1.274 v -1.274 m 1.274,2.551 v 1.273 h -1.274 v -1.273 m 1.274,2.547 v 1.277 h -1.274 v -1.277 m 1.274,2.551 v 1.273 h -1.274 V 95.68 m 1.274,2.547 v 1.277 h -1.274 v -1.277 m 1.274,2.55 v 1.274 h -1.274 v -1.274 m 1.274,2.551 v 1.274 h -1.274 v -1.274 m 1.274,2.547 v 1.277 h -1.274 v -1.277 m 1.274,2.551 v 1.273 h -1.274 v -1.273 m 1.274,2.547 v 1.277 h -1.274 v -1.277 m 1.274,2.55 v 1.274 h -1.274 v -1.274 m 1.274,2.551 v 1.274 h -1.274 v -1.274 m 1.274,2.547 v 1.277 h -1.274 v -1.277 m 1.274,2.551 v 1.273 h -1.274 v -1.273 m 1.274,2.547 v 1.277 h -1.274 v -1.277 m 1.274,2.551 v 1.273 h -1.274 v -1.273 m 1.274,2.55 v 1.274 h -1.274 v -1.274 m 1.274,2.547 v 1.274 h -1.274 v -1.274 m 1.274,2.551 v 1.273 h -1.274 v -1.273 m 1.274,2.547 v 1.277 h -1.274 v -1.277 m 1.274,2.551 v 1.273 h -1.274 v -1.273 m 1.274,2.55 v 1.274 h -1.274 v -1.274 m 1.274,2.547 v 1.274 h -1.274 v -1.274 m 1.274,2.551 v 1.274 h -1.274 v -1.274 m 1.274,2.547 v 1.277 h -1.274 v -1.277 m 1.274,2.551 v 1.273 h -1.274 v -1.273 m 1.274,2.55 v 1.274 h -1.274 v -1.274 m 1.274,2.547 v 1.274 h -1.274 v -1.274 m 1.274,2.551 v 1.274 h -1.274 v -1.274 m 1.274,2.547 v 1.277 h -1.274 v -1.277 m 1.274,2.551 v 1.273 h -1.274 v -1.273 m 1.274,2.547 v 1.277 h -1.274 v -1.277 m 1.274,2.55 v 1.274 h -1.274 v -1.274 m 1.274,2.551 v 1.274 h -1.274 v -1.274 m 1.274,2.547 v 1.277 h -1.274 v -1.277 m 1.274,2.551 v 1.273 h -1.274 v -1.273 m 1.274,2.547 v 1.277 h -1.274 v -1.277 m 1.274,2.551 v 1.273 h -1.274 v -1.273 m 1.274,2.55 v 1.274 h -1.274 v -1.274 m 1.274,2.547 v 1.278 h -1.274 v -1.278 m 1.274,2.551 v 1.273 h -1.274 V 190 m 1.274,2.547 v 1.277 h -1.274 v -1.277 m 1.274,2.551 v 1.273 h -1.274 v -1.273 m 1.274,2.55 v 1.274 h -1.274 v -1.274 m 1.274,2.547 v 1.278 h -1.274 v -1.278 m 1.274,2.551 v 1.274 h -1.274 v -1.274 m 1.274,2.547 v 1.277 h -1.274 v -1.277 m 1.274,2.551 v 1.273 h -1.274 v -1.273 m 1.274,2.551 v 1.273 h -1.274 v -1.273 m 1.274,2.546 v 1.274 h -1.274 v -1.274 m 1.274,2.551 v 1.274 h -1.274 v -1.274 m 1.274,2.547 v 1.277 h -1.274 v -1.277 m 1.274,2.551 v 1.273 h -1.274 v -1.273 m 1.274,2.551 v 1.273 h -1.274 v -1.273 m 1.274,2.547 v 1.273 h -1.274 v -1.273 m 1.274,2.55 v 1.274 h -1.274 v -1.274 m 1.274,2.547 v 1.277 h -1.274 v -1.277 m 1.274,2.551 v 1.273 h -1.274 v -1.273 m 1.274,2.551 v 1.273 h -1.274 v -1.273 m 1.274,2.547 v 1.273 h -1.274 v -1.273 m 1.274,2.55 v 1.274 h -1.274 v -1.274 m 1.274,2.547 v 1.278 h -1.274 v -1.278 m 1.274,2.551 v 1.273 h -1.274 v -1.273 m 1.274,2.547 v 1.277 h -1.274 v -1.277 m 1.274,2.551 v 1.273 h -1.274 v -1.273 m 1.274,2.55 v 1.274 h -1.274 v -1.274 m 1.274,2.547 v 1.278 h -1.274 v -1.278 m 1.274,2.551 v 1.274 h -1.274 v -1.274 m 1.274,2.547 v 1.277 h -1.274 v -1.277 m 1.274,2.551 v 1.273 h -1.274 v -1.273 m 1.274,2.551 v 1.273 h -1.274 v -1.273 m 1.274,2.546 v 1.278 h -1.274 v -1.278 m 1.274,2.551 v 1.274 h -1.274 v -1.274 m 1.274,2.547 v 1.277 h -1.274 v -1.277 m 1.274,2.551 v 1.273 h -1.274 v -1.273 m 1.274,2.551 v 1.273 h -1.274 v -1.273 m 1.274,2.547 v 1.277 h -1.274 v -1.277 m 1.274,2.55 v 1.274 h -1.274 v -1.274 m 1.274,2.547 v 1.278 h -1.274 v -1.278 m 1.274,2.551 v 1.273 h -1.274 v -1.273 m 1.274,2.551 v 1.273 h -1.274 v -1.273 m 1.274,2.547 v 1.273 h -1.274 v -1.273 m 1.274,2.55 v 1.274 h -1.274 v -1.274 m 1.274,2.547 v 1.278 h -1.274 v -1.278 m 1.274,2.551 v 1.274 h -1.274 v -1.274 m 1.274,2.551 v 1.273 h -1.274 v -1.273 m 1.274,2.547 v 1.273 h -1.274 v -1.273 m 1.274,2.55 v 1.274 h -1.274 v -1.274 m 1.274,2.547 v 1.278 h -1.274 v -1.278 m 1.274,2.551 v 1.274 h -1.274 v -1.274 m 1.274,2.551 v 1.273 h -1.274 v -1.273 m 1.274,2.547 v 1.273 h -1.274 v -1.273 m 1.274,2.551 v 1.273 h -1.274 v -1.273 m 1.274,2.546 v 1.278 h -1.274 v -1.278 m 1.274,2.551 v 1.274 h -1.274 v -1.274 m 1.274,2.547 v 1.277 h -1.274 v -1.277 m 1.274,2.551 v 1.273 h -1.274 v -1.273 m 1.274,2.551 v 1.273 h -1.274 v -1.273 m 1.274,2.547 v 1.277 h -1.274 v -1.277 m 1.274,2.55 v 1.274 h -1.274 v -1.274 m 1.274,2.547 v 1.278 h -1.274 v -1.278 m 1.274,2.551 v 1.273 h -1.274 V 345.5 m 1.274,2.551 v 1.273 h -1.274 v -1.273 m 1.274,2.547 v 1.277 h -1.274 v -1.277 m 1.274,2.55 v 1.274 h -1.274 v -1.274"
                   style="fill:#d4d4d4;fill-opacity:1;fill-rule:nonzero;stroke:none"
                   id="path9820" />
                <path
                   d="m 73.66,355.059 h 1.274 v 1.277 H 73.66 m 2.547,-1.277 h 1.273 v 1.277 h -1.273 m 2.551,-1.277 h 1.273 v 1.277 h -1.273 m 2.547,-1.277 h 1.277 v 1.277 h -1.277 m 2.55,-1.277 h 1.274 v 1.277 h -1.274 m 2.547,-1.277 h 1.278 v 1.277 h -1.278 m 2.551,-1.277 h 1.274 v 1.277 h -1.274 m 2.551,-1.277 h 1.273 v 1.277 h -1.273 m 2.547,-1.277 h 1.277 v 1.277 h -1.277 m 2.551,-1.277 h 1.273 v 1.277 h -1.273 m 2.546,-1.277 h 1.278 v 1.277 h -1.278 m 2.551,-1.277 h 1.274 v 1.277 h -1.274 m 2.551,-1.277 h 1.273 v 1.277 h -1.273 m 2.547,-1.277 h 1.273 v 1.277 h -1.273 m 2.551,-1.277 h 1.273 v 1.277 h -1.273 m 2.547,-1.277 h 1.277 v 1.277 h -1.277 m 2.55,-1.277 h 1.274 v 1.277 h -1.274 m 2.547,-1.277 h 1.278 v 1.277 h -1.278 m 2.551,-1.277 h 1.273 v 1.277 h -1.273 m 2.551,-1.277 h 1.273 v 1.277 h -1.273 m 2.547,-1.277 h 1.277 v 1.277 h -1.277 m 2.55,-1.277 h 1.274 v 1.277 h -1.274 m 2.547,-1.277 h 1.278 v 1.277 h -1.278 m 2.551,-1.277 h 1.273 v 1.277 h -1.273 m 2.551,-1.277 h 1.273 v 1.277 h -1.273 m 2.547,-1.277 h 1.273 v 1.277 h -1.273 m 2.551,-1.277 h 1.273 v 1.277 h -1.273 m 2.546,-1.277 h 1.278 v 1.277 h -1.278 m 2.551,-1.277 h 1.274 v 1.277 h -1.274 m 2.551,-1.277 h 1.273 v 1.277 h -1.273 m 2.547,-1.277 h 1.273 v 1.277 h -1.273 m 2.551,-1.277 h 1.273 v 1.277 h -1.273 m 2.546,-1.277 h 1.278 v 1.277 h -1.278 m 2.551,-1.277 h 1.274 v 1.277 h -1.274 m 2.547,-1.277 h 1.277 v 1.277 h -1.277 m 2.551,-1.277 h 1.273 v 1.277 h -1.273 m 2.551,-1.277 h 1.273 v 1.277 h -1.273 m 2.547,-1.277 h 1.273 v 1.277 h -1.273 m 2.55,-1.277 h 1.274 v 1.277 h -1.274 m 2.547,-1.277 h 1.278 v 1.277 h -1.278 m 2.551,-1.277 h 1.273 v 1.277 h -1.273 m 2.551,-1.277 h 1.273 v 1.277 h -1.273 m 2.547,-1.277 h 1.273 v 1.277 h -1.273 m 2.55,-1.277 h 1.274 v 1.277 h -1.274 m 2.547,-1.277 h 1.278 v 1.277 h -1.278 m 2.551,-1.277 h 1.274 v 1.277 h -1.274 m 2.547,-1.277 h 1.277 v 1.277 h -1.277 m 2.551,-1.277 h 1.273 v 1.277 h -1.273 m 2.551,-1.277 h 1.273 v 1.277 h -1.273 m 2.546,-1.277 h 1.274 v 1.277 h -1.274 m 2.551,-1.277 h 1.274 v 1.277 h -1.274 m 2.547,-1.277 h 1.277 v 1.277 h -1.277 m 2.551,-1.277 h 1.273 v 1.277 h -1.273 m 2.551,-1.277 h 1.273 v 1.277 h -1.273 m 2.546,-1.277 h 1.274 v 1.277 h -1.274 m 2.551,-1.277 h 1.274 v 1.277 h -1.274 m 2.547,-1.277 h 1.278 v 1.277 h -1.278 m 2.551,-1.277 h 1.273 v 1.277 h -1.273 m 2.547,-1.277 h 1.277 v 1.277 h -1.277 m 2.551,-1.277 h 1.273 v 1.277 h -1.273 m 2.55,-1.277 h 1.274 v 1.277 h -1.274 m 2.547,-1.277 h 1.274 v 1.277 h -1.274 m 2.551,-1.277 h 1.273 v 1.277 h -1.273 m 2.547,-1.277 h 1.277 v 1.277 h -1.277 m 2.551,-1.277 h 1.273 v 1.277 h -1.273 m 2.55,-1.277 h 1.274 v 1.277 h -1.274 m 2.547,-1.277 h 1.274 v 1.277 h -1.274 m 2.551,-1.277 h 1.274 v 1.277 h -1.274 M 247,355.059 h 1.277 v 1.277 H 247 m 2.551,-1.277 h 1.273 v 1.277 h -1.273 m 2.547,-1.277 h 1.277 v 1.277 h -1.277 m 2.55,-1.277 h 1.274 v 1.277 h -1.274 m 2.551,-1.277 h 1.274 v 1.277 h -1.274 m 2.547,-1.277 h 1.274 v 1.277 h -1.274 m 2.551,-1.277 h 1.273 v 1.277 h -1.273 m 2.547,-1.277 h 1.277 v 1.277 h -1.277 m 2.551,-1.277 h 1.273 v 1.277 h -1.273 m 2.55,-1.277 h 1.274 v 1.277 h -1.274 m 2.547,-1.277 h 1.274 v 1.277 h -1.274 m 2.551,-1.277 h 1.273 v 1.277 h -1.273 m 2.547,-1.277 h 1.277 v 1.277 h -1.277 m 2.551,-1.277 h 1.273 v 1.277 h -1.273 m 2.547,-1.277 h 1.277 v 1.277 h -1.277 m 2.55,-1.277 h 1.274 v 1.277 h -1.274 m 2.551,-1.277 h 1.273 v 1.277 h -1.273 m 2.547,-1.277 h 1.273 v 1.277 h -1.273 m 2.551,-1.277 h 1.273 v 1.277 h -1.273 m 2.547,-1.277 h 1.277 v 1.277 h -1.277 m 2.55,-1.277 h 1.274 v 1.277 h -1.274 m 2.551,-1.277 h 1.274 v 1.277 h -1.274 m 2.547,-1.277 h 1.273 v 1.277 h -1.273 m 2.551,-1.277 h 1.273 v 1.277 h -1.273 m 2.547,-1.277 h 1.277 v 1.277 h -1.277 m 2.55,-1.277 h 1.274 v 1.277 h -1.274 m 2.547,-1.277 h 1.278 v 1.277 h -1.278 m 2.551,-1.277 h 1.274 v 1.277 h -1.274 m 2.551,-1.277 h 1.273 v 1.277 h -1.273 m 2.547,-1.277 h 1.277 v 1.277 h -1.277 m 2.551,-1.277 h 1.273 v 1.277 h -1.273 m 2.546,-1.277 h 1.278 v 1.277 h -1.278 m 2.551,-1.277 h 1.274 v 1.277 h -1.274 m 2.551,-1.277 h 1.273 v 1.277 h -1.273 m 2.547,-1.277 h 1.273 v 1.277 h -1.273 m 2.551,-1.277 h 1.273 v 1.277 h -1.273 m 2.547,-1.277 h 1.277 v 1.277 h -1.277 m 2.55,-1.277 h 1.274 v 1.277 h -1.274 m 2.547,-1.277 h 1.278 v 1.277 h -1.278 m 2.551,-1.277 h 1.273 v 1.277 h -1.273 m 2.551,-1.277 h 1.273 v 1.277 h -1.273 m 2.547,-1.277 h 1.277 v 1.277 h -1.277 m 2.55,-1.277 h 1.274 v 1.277 h -1.274 m 2.547,-1.277 h 1.278 v 1.277 h -1.278 m 2.551,-1.277 h 1.274 v 1.277 h -1.274 m 2.551,-1.277 h 1.273 v 1.277 h -1.273 m 2.547,-1.277 h 1.273 v 1.277 h -1.273 m 2.55,-1.277 h 1.274 v 1.277 h -1.274 m 2.547,-1.277 h 1.278 v 1.277 h -1.278 m 2.551,-1.277 h 1.274 v 1.277 h -1.274 m 2.547,-1.277 h 1.277 v 1.277 h -1.277 m 2.551,-1.277 h 1.273 v 1.277 h -1.273 m 2.551,-1.277 h 1.273 v 1.277 h -1.273 m 2.546,-1.277 h 1.278 v 1.277 h -1.278 m 2.551,-1.277 h 1.274 v 1.277 h -1.274 m 2.547,-1.277 h 1.277 v 1.277 h -1.277 m 2.551,-1.277 h 1.273 v 1.277 h -1.273 m 2.551,-1.277 h 1.273 v 1.277 h -1.273 m 2.547,-1.277 h 1.273 v 1.277 h -1.273 m 2.55,-1.277 h 1.274 v 1.277 h -1.274 m 2.547,-1.277 h 1.278 v 1.277 h -1.278 m 2.551,-1.277 h 1.273 v 1.277 H 402.5 m 2.547,-1.277 h 1.277 v 1.277 h -1.277 m 2.551,-1.277 h 1.273 v 1.277 h -1.273 m 2.55,-1.277 h 1.274 v 1.277 h -1.274 m 2.547,-1.277 h 1.278 v 1.277 h -1.278 m 2.551,-1.277 h 1.274 v 1.277 h -1.274 m 2.547,-1.277 h 1.277 v 1.277 h -1.277 m 2.551,-1.277 h 1.273 v 1.277 h -1.273 m 2.551,-1.277 h 1.273 v 1.277 h -1.273 m 2.546,-1.277 h 1.274 v 1.277 h -1.274 m 2.551,-1.277 h 1.274 v 1.277 h -1.274 m 2.547,-1.277 h 1.277 v 1.277 h -1.277 m 2.551,-1.277 h 1.273 v 1.277 h -1.273 m 2.547,-1.277 h 1.277 v 1.277 h -1.277 m 2.551,-1.277 h 1.273 v 1.277 h -1.273 m 2.55,-1.277 h 1.274 v 1.277 h -1.274 m 2.547,-1.277 h 1.277 v 1.277 h -1.277 m 2.551,-1.277 h 1.273 v 1.277 h -1.273 m 2.547,-1.277 h 1.277 v 1.277 h -1.277 m 2.551,-1.277 h 1.273 v 1.277 h -1.273 m 2.55,-1.277 h 1.274 v 1.277 h -1.274 m 2.547,-1.277 h 1.274 v 1.277 h -1.274 m 2.551,-1.277 h 1.273 v 1.277 h -1.273 m 2.547,-1.277 h 1.277 v 1.277 h -1.277 m 2.551,-1.277 h 1.273 v 1.277 h -1.273 m 2.547,-1.277 h 1.277 v 1.277 h -1.277 m 2.55,-1.277 h 1.274 v 1.277 h -1.274 m 2.551,-1.277 h 1.274 v 1.277 h -1.274 m 2.547,-1.277 h 1.277 v 1.277 h -1.277 m 2.551,-1.277 h 1.273 v 1.277 h -1.273 m 2.547,-1.277 h 1.277 v 1.277 h -1.277 m 2.55,-1.277 h 1.274 v 1.277 h -1.274 m 2.551,-1.277 h 1.274 v 1.277 h -1.274 m 2.547,-1.277 h 1.274 v 1.277 h -1.274 m 2.551,-1.277 h 1.273 v 1.277 h -1.273 m 2.547,-1.277 h 1.277 v 1.277 h -1.277"
                   style="fill:#d4d4d4;fill-opacity:1;fill-rule:nonzero;stroke:none"
                   id="path9822" />
                <path
                   d="m 74.297,54.891 v 1.277 H 73.02 v -1.277 m 1.277,2.55 v 1.274 H 73.02 v -1.274 m 1.277,2.551 v 1.274 H 73.02 v -1.274 m 1.277,2.547 v 1.273 H 73.02 v -1.273 m 1.277,2.551 v 1.273 H 73.02 V 65.09 m 1.277,2.547 v 1.277 H 73.02 v -1.277 m 1.277,2.551 v 1.273 H 73.02 v -1.273 m 1.277,2.55 v 1.274 H 73.02 v -1.274 m 1.277,2.547 v 1.274 H 73.02 v -1.274 m 1.277,2.551 v 1.273 H 73.02 v -1.273 m 1.277,2.547 V 81.66 H 73.02 v -1.277 m 1.277,2.551 v 1.273 H 73.02 v -1.273 m 1.277,2.546 v 1.278 H 73.02 V 85.48 m 1.277,2.551 v 1.274 H 73.02 v -1.274 m 1.277,2.551 v 1.273 H 73.02 v -1.273 m 1.277,2.547 v 1.277 H 73.02 v -1.277 m 1.277,2.551 v 1.273 H 73.02 V 95.68 m 1.277,2.547 v 1.277 H 73.02 v -1.277 m 1.277,2.55 v 1.274 H 73.02 v -1.274 m 1.277,2.551 v 1.274 H 73.02 v -1.274 m 1.277,2.547 v 1.277 H 73.02 v -1.277 m 1.277,2.551 v 1.273 H 73.02 v -1.273 m 1.277,2.547 v 1.277 H 73.02 v -1.277 m 1.277,2.55 v 1.274 H 73.02 v -1.274 m 1.277,2.551 v 1.274 H 73.02 v -1.274 m 1.277,2.547 v 1.277 H 73.02 v -1.277 m 1.277,2.551 v 1.273 H 73.02 v -1.273 m 1.277,2.547 v 1.277 H 73.02 v -1.277 m 1.277,2.551 v 1.273 H 73.02 v -1.273 m 1.277,2.55 v 1.274 H 73.02 v -1.274 m 1.277,2.547 v 1.274 H 73.02 v -1.274 m 1.277,2.551 v 1.273 H 73.02 v -1.273 m 1.277,2.547 v 1.277 H 73.02 v -1.277 m 1.277,2.551 v 1.273 H 73.02 v -1.273 m 1.277,2.55 v 1.274 H 73.02 v -1.274 m 1.277,2.547 v 1.274 H 73.02 v -1.274 m 1.277,2.551 v 1.274 H 73.02 v -1.274 m 1.277,2.547 v 1.277 H 73.02 v -1.277 m 1.277,2.551 v 1.273 H 73.02 v -1.273 m 1.277,2.55 v 1.274 H 73.02 v -1.274 m 1.277,2.547 v 1.274 H 73.02 v -1.274 m 1.277,2.551 v 1.274 H 73.02 v -1.274 m 1.277,2.547 v 1.277 H 73.02 v -1.277 m 1.277,2.551 v 1.273 H 73.02 v -1.273 m 1.277,2.547 v 1.277 H 73.02 v -1.277 m 1.277,2.55 v 1.274 H 73.02 v -1.274 m 1.277,2.551 v 1.274 H 73.02 v -1.274 m 1.277,2.547 v 1.277 H 73.02 v -1.277 m 1.277,2.551 v 1.273 H 73.02 v -1.273 m 1.277,2.547 v 1.277 H 73.02 v -1.277 m 1.277,2.551 v 1.273 H 73.02 v -1.273 m 1.277,2.55 v 1.274 H 73.02 v -1.274 m 1.277,2.547 v 1.278 H 73.02 v -1.278 M 74.297,190 v 1.273 H 73.02 V 190 m 1.277,2.547 v 1.277 H 73.02 v -1.277 m 1.277,2.551 v 1.273 H 73.02 v -1.273 m 1.277,2.55 v 1.274 H 73.02 v -1.274 m 1.277,2.547 v 1.278 H 73.02 v -1.278 m 1.277,2.551 v 1.274 H 73.02 v -1.274 m 1.277,2.547 v 1.277 H 73.02 v -1.277 m 1.277,2.551 v 1.273 H 73.02 v -1.273 m 1.277,2.551 v 1.273 H 73.02 v -1.273 m 1.277,2.546 v 1.274 H 73.02 v -1.274 m 1.277,2.551 v 1.274 H 73.02 v -1.274 m 1.277,2.547 v 1.277 H 73.02 v -1.277 m 1.277,2.551 v 1.273 H 73.02 v -1.273 m 1.277,2.551 v 1.273 H 73.02 v -1.273 m 1.277,2.547 v 1.273 H 73.02 v -1.273 m 1.277,2.55 v 1.274 H 73.02 v -1.274 m 1.277,2.547 v 1.277 H 73.02 v -1.277 m 1.277,2.551 v 1.273 H 73.02 v -1.273 m 1.277,2.551 v 1.273 H 73.02 v -1.273 m 1.277,2.547 v 1.273 H 73.02 v -1.273 m 1.277,2.55 v 1.274 H 73.02 v -1.274 m 1.277,2.547 v 1.278 H 73.02 v -1.278 m 1.277,2.551 v 1.273 H 73.02 v -1.273 m 1.277,2.547 v 1.277 H 73.02 v -1.277 m 1.277,2.551 v 1.273 H 73.02 v -1.273 m 1.277,2.55 v 1.274 H 73.02 v -1.274 m 1.277,2.547 v 1.278 H 73.02 v -1.278 m 1.277,2.551 v 1.274 H 73.02 v -1.274 m 1.277,2.547 v 1.277 H 73.02 v -1.277 m 1.277,2.551 v 1.273 H 73.02 v -1.273 m 1.277,2.551 v 1.273 H 73.02 v -1.273 m 1.277,2.546 v 1.278 H 73.02 v -1.278 m 1.277,2.551 v 1.274 H 73.02 v -1.274 m 1.277,2.547 v 1.277 H 73.02 v -1.277 m 1.277,2.551 v 1.273 H 73.02 v -1.273 m 1.277,2.551 v 1.273 H 73.02 v -1.273 m 1.277,2.547 v 1.277 H 73.02 v -1.277 m 1.277,2.55 v 1.274 H 73.02 v -1.274 m 1.277,2.547 v 1.278 H 73.02 v -1.278 m 1.277,2.551 v 1.273 H 73.02 v -1.273 m 1.277,2.551 v 1.273 H 73.02 v -1.273 m 1.277,2.547 v 1.273 H 73.02 v -1.273 m 1.277,2.55 v 1.274 H 73.02 v -1.274 m 1.277,2.547 v 1.278 H 73.02 v -1.278 m 1.277,2.551 v 1.274 H 73.02 v -1.274 m 1.277,2.551 v 1.273 H 73.02 v -1.273 m 1.277,2.547 v 1.273 H 73.02 v -1.273 m 1.277,2.55 v 1.274 H 73.02 v -1.274 m 1.277,2.547 v 1.278 H 73.02 v -1.278 m 1.277,2.551 v 1.274 H 73.02 v -1.274 m 1.277,2.551 v 1.273 H 73.02 v -1.273 m 1.277,2.547 v 1.273 H 73.02 v -1.273 m 1.277,2.551 v 1.273 H 73.02 v -1.273 m 1.277,2.546 v 1.278 H 73.02 v -1.278 m 1.277,2.551 v 1.274 H 73.02 v -1.274 m 1.277,2.547 v 1.277 H 73.02 v -1.277 m 1.277,2.551 v 1.273 H 73.02 v -1.273 m 1.277,2.551 v 1.273 H 73.02 v -1.273 m 1.277,2.547 v 1.277 H 73.02 v -1.277 m 1.277,2.55 v 1.274 H 73.02 v -1.274 m 1.277,2.547 v 1.278 H 73.02 v -1.278 m 1.277,2.551 v 1.273 H 73.02 V 345.5 m 1.277,2.551 v 1.273 H 73.02 v -1.273 m 1.277,2.547 v 1.277 H 73.02 v -1.277 m 1.277,2.55 v 1.274 H 73.02 v -1.274"
                   style="fill:#d4d4d4;fill-opacity:1;fill-rule:nonzero;stroke:none"
                   id="path9824" />
                <g
                   id="g9826"
                   transform="scale(0.999985,1)">
                  <path
                     d="m 73.661,54.891 h 31.864 v 8.285 l -5.356,4.461 H 73.661 Z"
                     style="fill:#eeeeee;fill-opacity:1;fill-rule:nonzero;stroke:#d4d4d4;stroke-width:0.65861;stroke-linecap:butt;stroke-linejoin:miter;stroke-miterlimit:10;stroke-dasharray:none;stroke-opacity:1"
                     id="path9828" />
                </g>
              </g>
            </g>
          </g>
        </g>
        <text
           xml:space="preserve"
           transform="matrix(0.99998509,0,0,1,79.011079,66.071962)"
           style="font-variant:normal;font-weight:normal;font-size:10.1966px;font-family:'DejaVu Sans';-inkscape-font-specification:DejaVuSans;writing-mode:lr-tb;fill:#333333;fill-opacity:1;fill-rule:nonzero;stroke:none"
           id="text9836"><tspan
             x="0 2.8329349 9.0713663 15.309797"
             y="0"
             id="tspan9830">loop</tspan><tspan
             x="113.64553 117.62359 121.21329 127.45173 131.64388 134.88507 141.15836 147.40674 153.01286 159.47534 162.71654 166.6946 172.30072 178.53915 185.00163 188.9996 195.07915 201.11345 205.11142 208.35262 211.59381 218.06625 224.33954 230.80202 236.40814 242.87062 252.80331 259.0517 263.24384 269.14871 277.00027 283.24866 287.24661 293.49503 299.14523 301.97815 307.29053 311.28851 315.26657 318.50775 321.3407"
             y="0.28349024"
             id="tspan9832">[for each (context, benchmarkDataList) in</tspan><tspan
             x="167.03239 173.50482 179.77811 186.24059 191.84671 198.30919 208.24188 214.49028 218.68242 224.58728 232.43883 238.68723 242.6852 248.93358 257.73111 263.97949 270.45193"
             y="12.394186"
             id="tspan9834">benchmarkDataMap]</tspan></text>
        <g
           id="g9838">
          <g
             id="g9840">
            <g
               id="g9842"
               clip-path="url(#clipPath9846)">
              <g
                 id="g9848">
                <g
                   id="g9850"
                   transform="scale(0.999985,1)">
                  <path
                     d="M 8.973,362.07 H 170.21 v 36.965 H 8.973 Z"
                     style="fill:#666666;fill-opacity:1;fill-rule:nonzero;stroke:#999999;stroke-width:0.65861;stroke-linecap:butt;stroke-linejoin:miter;stroke-miterlimit:10;stroke-dasharray:none;stroke-opacity:1"
                     id="path9852" />
                </g>
              </g>
            </g>
          </g>
        </g>
        <text
           xml:space="preserve"
           transform="matrix(0.99998509,0,0,1,15.430853,378.35338)"
           style="font-variant:normal;font-weight:normal;font-size:10.1966px;font-family:'DejaVu Sans';-inkscape-font-specification:DejaVuSans;writing-mode:lr-tb;fill:#ffffff;fill-opacity:1;fill-rule:nonzero;stroke:none"
           id="text9858"><tspan
             x="0 7.9013491 14.174632 20.63711 26.910393 31.102537 37.350925 41.3489 47.622181 50.86338 57.858585 64.131866 70.594345 76.20047 82.662949 92.59565 98.844032 103.03618 108.94103 112.18223 118.77762 125.0509 130.36328 136.82576 139.65869 143.65666"
             y="0"
             id="tspan9854">Generate Benchmark Results</tspan><tspan
             x="27.169699 31.147757 38.267437 44.505867 50.968342 54.966316 61.056061 67.090363 71.088333 74.329529 82.873146 86.114342 94.911873 101.18516 105.18313 109.37527 112.20821 117.81433"
             y="12.110695"
             id="tspan9856">(Context + Metric)</tspan></text>
        <text
           xml:space="preserve"
           transform="matrix(0.99998509,0,0,1,165.6784,111.31699)"
           style="font-variant:normal;font-weight:normal;font-size:10.1966px;font-family:'DejaVu Sans';-inkscape-font-specification:DejaVuSans;writing-mode:lr-tb;fill:#333333;fill-opacity:1;fill-rule:nonzero;stroke:none"
           id="text9862"><tspan
             x="0 5.3123751 11.585658 15.583632 22.056067 26.054039 30.246185 36.494576 40.492546 46.765831 53.238266 59.272564 63.250622 68.562996 72.560974 76.75312 83.001503 86.999481 93.272766 99.745193 105.7795"
             y="0"
             id="tspan9860">setStrategy(strategy)</tspan></text>
        <g
           id="g9864">
          <g
             id="g9866">
            <g
               id="g9868"
               clip-path="url(#clipPath9872)">
              <g
                 id="g9874">
                <g
                   id="g9876"
                   transform="scale(0.999985,1)">
                  <path
                     d="M 92.779,119.258 H 348.017"
                     style="fill:none;stroke:#333333;stroke-width:0.65861;stroke-linecap:butt;stroke-linejoin:miter;stroke-miterlimit:10;stroke-dasharray:none;stroke-opacity:1"
                     id="path9878" />
                </g>
              </g>
            </g>
          </g>
        </g>
      </g>
    </g>
    <g
       id="g9880">
      <g
         id="g9882"
         clip-path="url(#clipPath9886)">
        <g
           id="g9888">
          <g
             id="g9890">
            <g
               id="g9892"
               clip-path="url(#clipPath9896)">
              <g
                 id="g9898">
                <g
                   id="g9900"
                   transform="scale(0.999985,1)">
                  <path
                     d="m 342.345,116.074 7.012,3.184 -6.375,3.187 z"
                     style="fill:#333333;fill-opacity:1;fill-rule:nonzero;stroke:#333333;stroke-width:0.65861;stroke-linecap:butt;stroke-linejoin:miter;stroke-miterlimit:10;stroke-dasharray:none;stroke-opacity:1"
                     id="path9902" />
                </g>
              </g>
            </g>
          </g>
        </g>
      </g>
    </g>
    <g
       id="g9904">
      <g
         id="g9906"
         clip-path="url(#clipPath9910)">
        <g
           id="g9912">
          <g
             id="g9914">
            <g
               id="g9916"
               clip-path="url(#clipPath9920)">
              <g
                 id="g9922">
                <text
                   xml:space="preserve"
                   transform="matrix(0.99998509,0,0,1,132.29509,182.0648)"
                   style="font-variant:normal;font-weight:normal;font-size:10.1966px;font-family:'DejaVu Sans';-inkscape-font-specification:DejaVuSans;writing-mode:lr-tb;fill:#333333;fill-opacity:1;fill-rule:nonzero;stroke:none"
                   id="text9926"><tspan
                     x="0 6.4724345 12.745717 16.74369 24.595251 30.843641 34.841614 41.090004 45.068062"
                     y="0"
                     id="tspan9924">getData()</tspan></text>
                <g
                   id="g9928"
                   transform="scale(0.999985,1)">
                  <path
                     d="M 92.779,190 H 220.558"
                     style="fill:none;stroke:#333333;stroke-width:0.65861;stroke-linecap:butt;stroke-linejoin:miter;stroke-miterlimit:10;stroke-dasharray:none;stroke-opacity:1"
                     id="path9930" />
                </g>
              </g>
            </g>
          </g>
        </g>
      </g>
    </g>
    <g
       id="g9932">
      <g
         id="g9934"
         clip-path="url(#clipPath9938)">
        <g
           id="g9940">
          <g
             id="g9942">
            <g
               id="g9944"
               clip-path="url(#clipPath9948)">
              <g
                 id="g9950">
                <g
                   id="g9952"
                   transform="scale(0.999985,1)">
                  <path
                     d="m 214.886,186.812 7.008,3.188 -6.371,3.188 z"
                     style="fill:#333333;fill-opacity:1;fill-rule:nonzero;stroke:#333333;stroke-width:0.65861;stroke-linecap:butt;stroke-linejoin:miter;stroke-miterlimit:10;stroke-dasharray:none;stroke-opacity:1"
                     id="path9954" />
                </g>
              </g>
            </g>
          </g>
        </g>
      </g>
    </g>
    <g
       id="g9956">
      <g
         id="g9958"
         clip-path="url(#clipPath9962)">
        <g
           id="g9964">
          <g
             id="g9966">
            <g
               id="g9968"
               clip-path="url(#clipPath9972)">
              <g
                 id="g9974">
                <text
                   xml:space="preserve"
                   transform="matrix(0.99998509,0,0,1,147.25181,212.64772)"
                   style="font-variant:normal;font-weight:normal;font-size:10.1966px;font-family:'DejaVu Sans';-inkscape-font-specification:DejaVuSans;writing-mode:lr-tb;fill:#333333;fill-opacity:1;fill-rule:nonzero;stroke:none"
                   id="text9978"><tspan
                     x="0 6.4724345 12.720823 16.718796"
                     y="0"
                     id="tspan9976">data</tspan></text>
                <path
                   d="m 222.465,221.066 h -1.91 v -0.953 h 1.91 m -3.824,0.953 h -1.911 v -0.953 h 1.911 m -3.825,0.953 h -1.91 v -0.953 h 1.91 m -3.82,0.953 h -1.914 v -0.953 h 1.914 m -3.824,0.953 h -1.914 v -0.953 h 1.914 m -3.824,0.953 h -1.914 v -0.953 h 1.914 m -3.825,0.953 h -1.914 v -0.953 h 1.914 m -3.824,0.953 h -1.91 v -0.953 h 1.91 m -3.824,0.953 h -1.91 v -0.953 h 1.91 m -3.824,0.953 h -1.91 v -0.953 h 1.91 m -3.824,0.953 h -1.911 v -0.953 h 1.911 m -3.821,0.953 h -1.914 v -0.953 h 1.914 m -3.824,0.953 h -1.914 v -0.953 h 1.914 m -3.824,0.953 h -1.914 v -0.953 h 1.914 m -3.824,0.953 h -1.914 v -0.953 h 1.914 m -3.825,0.953 h -1.91 v -0.953 h 1.91 m -3.824,0.953 h -1.91 v -0.953 h 1.91 m -3.824,0.953 h -1.91 v -0.953 h 1.91 m -3.824,0.953 h -1.91 v -0.953 h 1.91 m -3.821,0.953 h -1.914 v -0.953 h 1.914 m -3.824,0.953 h -1.914 v -0.953 h 1.914 m -3.824,0.953 h -1.914 v -0.953 h 1.914 m -3.824,0.953 h -1.914 v -0.953 h 1.914 m -3.824,0.953 h -1.911 v -0.953 h 1.911 m -3.825,0.953 h -1.91 v -0.953 h 1.91 m -3.824,0.953 h -1.91 v -0.953 h 1.91 m -3.824,0.953 h -1.91 v -0.953 h 1.91 m -3.82,0.953 h -1.915 v -0.953 h 1.915 m -3.825,0.953 h -1.914 v -0.953 h 1.914 m -3.824,0.953 h -1.914 v -0.953 h 1.914 m -3.824,0.953 h -1.914 v -0.953 h 1.914 m -3.824,0.953 h -1.91 v -0.953 h 1.91 m -3.825,0.953 h -1.91 v -0.953 h 1.91 m -3.824,0.953 h -1.593 v -0.953 h 1.593"
                   style="fill:#333333;fill-opacity:1;fill-rule:nonzero;stroke:none"
                   id="path9980" />
              </g>
            </g>
          </g>
        </g>
      </g>
    </g>
    <g
       id="g9982">
      <g
         id="g9984">
        <g
           id="g9986">
          <g
             id="g9988"
             clip-path="url(#clipPath9992)">
            <g
               id="g9994" />
            <g
               id="g9996">
              <g
                 id="g9998"
                 clip-path="url(#clipPath10002)">
                <g
                   id="g10004">
                  <g
                     id="g10006">
                    <g
                       id="g10008"
                       clip-path="url(#clipPath10012)">
                      <g
                         id="g10014" />
                      <g
                         id="g10016">
                        <g
                           id="g10018"
                           clip-path="url(#clipPath10022)">
                          <g
                             id="g10024">
                            <g
                               id="g10026">
                              <g
                                 id="g10028"
                                 clip-path="url(#clipPath10032)">
                                <g
                                   id="g10034">
                                <g
                                   id="g10036"
                                   transform="scale(-0.999985,-1)">
                                <path
                                   d="m -100.361,-223.777 7.008,3.187 -6.371,3.188 z"
                                   style="fill:#333333;fill-opacity:1;fill-rule:nonzero;stroke:#333333;stroke-width:0.65861;stroke-linecap:butt;stroke-linejoin:miter;stroke-miterlimit:10;stroke-dasharray:none;stroke-opacity:1"
                                   id="path10038" />
                                </g>
                                </g>
                              </g>
                            </g>
                          </g>
                        </g>
                      </g>
                    </g>
                  </g>
                </g>
              </g>
            </g>
          </g>
        </g>
      </g>
    </g>
    <g
       id="g10040">
      <g
         id="g10042"
         clip-path="url(#clipPath10046)">
        <g
           id="g10048">
          <g
             id="g10050">
            <g
               id="g10052"
               clip-path="url(#clipPath10056)">
              <g
                 id="g10058">
                <text
                   xml:space="preserve"
                   transform="matrix(0.99998509,0,0,1,193.94762,243.24198)"
                   style="font-variant:normal;font-weight:normal;font-size:10.1966px;font-family:'DejaVu Sans';-inkscape-font-specification:DejaVuSans;writing-mode:lr-tb;fill:#333333;fill-opacity:1;fill-rule:nonzero;stroke:none"
                   id="text10062"><tspan
                     x="0 5.3123751 11.550806 15.742952 19.740925 23.718985 30.191418 36.439808 40.437778 46.686169"
                     y="0"
                     id="tspan10060">sort(data)</tspan></text>
                <g
                   id="g10064"
                   transform="scale(0.999985,1)">
                  <path
                     d="M 92.779,251.18 H 345.466"
                     style="fill:none;stroke:#333333;stroke-width:0.65861;stroke-linecap:butt;stroke-linejoin:miter;stroke-miterlimit:10;stroke-dasharray:none;stroke-opacity:1"
                     id="path10066" />
                </g>
              </g>
            </g>
          </g>
        </g>
      </g>
    </g>
    <g
       id="g10068">
      <g
         id="g10070"
         clip-path="url(#clipPath10074)">
        <g
           id="g10076">
          <g
             id="g10078">
            <g
               id="g10080"
               clip-path="url(#clipPath10084)">
              <g
                 id="g10086">
                <g
                   id="g10088"
                   transform="scale(0.999985,1)">
                  <path
                     d="m 339.794,247.992 7.012,3.188 -6.375,3.187 z"
                     style="fill:#333333;fill-opacity:1;fill-rule:nonzero;stroke:#333333;stroke-width:0.65861;stroke-linecap:butt;stroke-linejoin:miter;stroke-miterlimit:10;stroke-dasharray:none;stroke-opacity:1"
                     id="path10090" />
                </g>
              </g>
            </g>
          </g>
        </g>
      </g>
    </g>
    <g
       id="g10092">
      <g
         id="g10094"
         clip-path="url(#clipPath10098)">
        <g
           id="g10100">
          <g
             id="g10102">
            <g
               id="g10104"
               clip-path="url(#clipPath10108)">
              <g
                 id="g10110">
                <text
                   xml:space="preserve"
                   transform="matrix(0.99998509,0,0,1,390.86829,273.83623)"
                   style="font-variant:normal;font-weight:normal;font-size:10.1966px;font-family:'DejaVu Sans';-inkscape-font-specification:DejaVuSans;writing-mode:lr-tb;fill:#333333;fill-opacity:1;fill-rule:nonzero;stroke:none"
                   id="text10114"><tspan
                     x="0 5.3123751 11.550806 15.742952 19.740925 23.718985 30.191418 36.439808 40.437778 46.686169"
                     y="0"
                     id="tspan10112">sort(data)</tspan></text>
                <g
                   id="g10116"
                   transform="scale(0.999985,1)">
                  <path
                     d="M 356.939,281.77 H 475.476"
                     style="fill:none;stroke:#333333;stroke-width:0.65861;stroke-linecap:butt;stroke-linejoin:miter;stroke-miterlimit:10;stroke-dasharray:none;stroke-opacity:1"
                     id="path10118" />
                </g>
              </g>
            </g>
          </g>
        </g>
      </g>
    </g>
    <g
       id="g10120">
      <g
         id="g10122"
         clip-path="url(#clipPath10126)">
        <g
           id="g10128">
          <g
             id="g10130">
            <g
               id="g10132"
               clip-path="url(#clipPath10136)">
              <g
                 id="g10138">
                <g
                   id="g10140"
                   transform="scale(0.999985,1)">
                  <path
                     d="m 469.804,278.582 7.012,3.188 -6.375,3.187 z"
                     style="fill:#333333;fill-opacity:1;fill-rule:nonzero;stroke:#333333;stroke-width:0.65861;stroke-linecap:butt;stroke-linejoin:miter;stroke-miterlimit:10;stroke-dasharray:none;stroke-opacity:1"
                     id="path10142" />
                </g>
              </g>
            </g>
          </g>
        </g>
      </g>
    </g>
    <g
       id="g10144">
      <g
         id="g10146"
         clip-path="url(#clipPath10150)">
        <g
           id="g10152">
          <g
             id="g10154">
            <g
               id="g10156"
               clip-path="url(#clipPath10160)">
              <g
                 id="g10162">
                <text
                   xml:space="preserve"
                   transform="matrix(0.99998509,0,0,1,400.41609,304.41915)"
                   style="font-variant:normal;font-weight:normal;font-size:10.1966px;font-family:'DejaVu Sans';-inkscape-font-specification:DejaVuSans;writing-mode:lr-tb;fill:#333333;fill-opacity:1;fill-rule:nonzero;stroke:none"
                   id="text10166"><tspan
                     x="0 9.9326982 16.20598 20.203955 24.396099 27.229034"
                     y="0"
                     id="tspan10164">metric</tspan></text>
                <path
                   d="m 474.832,312.84 h -1.91 v -0.957 h 1.91 m -3.824,0.957 h -1.91 v -0.957 h 1.91 m -3.824,0.957 h -1.911 v -0.957 h 1.911 m -3.825,0.957 h -1.91 v -0.957 h 1.91 m -3.824,0.957 h -1.91 v -0.957 h 1.91 m -3.82,0.957 h -1.914 v -0.957 h 1.914 m -3.824,0.957 h -1.914 v -0.957 h 1.914 m -3.825,0.957 h -1.914 v -0.957 h 1.914 m -3.824,0.957 h -1.91 v -0.957 h 1.91 m -3.824,0.957 h -1.91 v -0.957 h 1.91 m -3.824,0.957 h -1.91 v -0.957 h 1.91 m -3.824,0.957 h -1.911 v -0.957 h 1.911 m -3.825,0.957 h -1.91 v -0.957 h 1.91 m -3.82,0.957 h -1.914 v -0.957 h 1.914 m -3.824,0.957 h -1.914 v -0.957 h 1.914 m -3.824,0.957 h -1.915 v -0.957 h 1.915 m -3.825,0.957 h -1.91 v -0.957 h 1.91 m -3.824,0.957 h -1.91 v -0.957 h 1.91 m -3.824,0.957 h -1.91 v -0.957 h 1.91 m -3.824,0.957 h -1.91 v -0.957 h 1.91 m -3.825,0.957 h -1.91 v -0.957 h 1.91 m -3.82,0.957 h -1.914 v -0.957 h 1.914 m -3.824,0.957 h -1.914 v -0.957 h 1.914 m -3.824,0.957 h -1.914 v -0.957 h 1.914 m -3.825,0.957 h -1.91 v -0.957 h 1.91 m -3.824,0.957 h -1.91 v -0.957 h 1.91 m -3.824,0.957 h -1.91 v -0.957 h 1.91 m -3.824,0.957 h -1.91 v -0.957 h 1.91 m -3.824,0.957 h -1.911 v -0.957 h 1.911 m -3.821,0.957 h -1.914 v -0.957 h 1.914 m -3.824,0.957 h -1.277 v -0.957 h 1.277"
                   style="fill:#333333;fill-opacity:1;fill-rule:nonzero;stroke:none"
                   id="path10168" />
              </g>
            </g>
          </g>
        </g>
      </g>
    </g>
    <g
       id="g10170">
      <g
         id="g10172">
        <g
           id="g10174">
          <g
             id="g10176"
             clip-path="url(#clipPath10180)">
            <g
               id="g10182" />
            <g
               id="g10184">
              <g
                 id="g10186"
                 clip-path="url(#clipPath10190)">
                <g
                   id="g10192">
                  <g
                     id="g10194">
                    <g
                       id="g10196"
                       clip-path="url(#clipPath10200)">
                      <g
                         id="g10202" />
                      <g
                         id="g10204">
                        <g
                           id="g10206"
                           clip-path="url(#clipPath10210)">
                          <g
                             id="g10212">
                            <g
                               id="g10214">
                              <g
                                 id="g10216"
                                 clip-path="url(#clipPath10220)">
                                <g
                                   id="g10222">
                                <g
                                   id="g10224"
                                   transform="scale(-0.999985,-1)">
                                <path
                                   d="m -364.521,-315.547 7.008,3.188 -6.371,3.183 z"
                                   style="fill:#333333;fill-opacity:1;fill-rule:nonzero;stroke:#333333;stroke-width:0.65861;stroke-linecap:butt;stroke-linejoin:miter;stroke-miterlimit:10;stroke-dasharray:none;stroke-opacity:1"
                                   id="path10226" />
                                </g>
                                </g>
                              </g>
                            </g>
                          </g>
                        </g>
                      </g>
                    </g>
                  </g>
                </g>
              </g>
            </g>
          </g>
        </g>
      </g>
    </g>
    <g
       id="g10228">
      <g
         id="g10230"
         clip-path="url(#clipPath10234)">
        <g
           id="g10236">
          <g
             id="g10238">
            <g
               id="g10240"
               clip-path="url(#clipPath10244)">
              <g
                 id="g10246">
                <text
                   xml:space="preserve"
                   transform="matrix(0.99998509,0,0,1,204.77678,335.01341)"
                   style="font-variant:normal;font-weight:normal;font-size:10.1966px;font-family:'DejaVu Sans';-inkscape-font-specification:DejaVuSans;writing-mode:lr-tb;fill:#333333;fill-opacity:1;fill-rule:nonzero;stroke:none"
                   id="text10250"><tspan
                     x="0 9.9326982 16.20598 20.203955 24.396099 27.229034"
                     y="0"
                     id="tspan10248">metric</tspan></text>
                <path
                   d="m 347.375,343.43 h -1.914 v -0.957 h 1.914 m -3.824,0.957 h -1.914 v -0.957 h 1.914 m -3.824,0.957 h -1.911 v -0.957 h 1.911 m -3.825,0.957 h -1.91 v -0.957 h 1.91 m -3.824,0.957 h -1.91 v -0.957 h 1.91 m -3.824,0.957 h -1.91 v -0.957 h 1.91 m -3.82,0.957 h -1.914 v -0.957 h 1.914 m -3.825,0.957 h -1.914 v -0.957 h 1.914 m -3.824,0.957 h -1.914 v -0.957 h 1.914 m -3.824,0.957 h -1.914 v -0.957 h 1.914 m -3.824,0.957 h -1.91 v -0.957 h 1.91 m -3.825,0.957 h -1.91 v -0.957 h 1.91 m -3.824,0.957 h -1.91 v -0.957 h 1.91 m -3.824,0.957 h -1.91 v -0.957 h 1.91 m -3.82,0.957 h -1.914 v -0.957 h 1.914 m -3.824,0.957 h -1.915 v -0.957 h 1.915 m -3.825,0.957 h -1.914 v -0.957 h 1.914 m -3.824,0.957 h -1.914 v -0.957 h 1.914 m -3.824,0.957 h -1.91 v -0.957 h 1.91 m -3.824,0.957 h -1.911 v -0.957 h 1.911 m -3.825,0.957 h -1.91 v -0.957 h 1.91 m -3.824,0.957 h -1.91 v -0.957 h 1.91 m -3.82,0.957 h -1.914 v -0.957 h 1.914 m -3.824,0.957 h -1.914 v -0.957 h 1.914 m -3.825,0.957 h -1.914 v -0.957 h 1.914 m -3.824,0.957 h -1.914 v -0.957 h 1.914 m -3.824,0.957 h -1.91 v -0.957 h 1.91 m -3.824,0.957 h -1.91 v -0.957 h 1.91 m -3.824,0.957 h -1.911 v -0.957 h 1.911 m -3.825,0.957 h -1.91 v -0.957 h 1.91 m -3.824,0.957 h -1.91 v -0.957 h 1.91 m -3.82,0.957 h -1.914 v -0.957 h 1.914 m -3.824,0.957 h -1.914 v -0.957 h 1.914 m -3.825,0.957 h -1.914 v -0.957 h 1.914 m -3.824,0.957 h -1.91 v -0.957 h 1.91 m -3.824,0.957 h -1.91 v -0.957 h 1.91 m -3.824,0.957 h -1.91 v -0.957 h 1.91 m -3.824,0.957 h -1.911 v -0.957 h 1.911 m -3.825,0.957 h -1.91 v -0.957 h 1.91 m -3.82,0.957 h -1.914 v -0.957 h 1.914 m -3.824,0.957 h -1.914 v -0.957 h 1.914 m -3.824,0.957 h -1.914 v -0.957 h 1.914 m -3.825,0.957 h -1.91 v -0.957 h 1.91 m -3.824,0.957 h -1.91 v -0.957 h 1.91 m -3.824,0.957 h -1.91 v -0.957 h 1.91 m -3.824,0.957 h -1.91 v -0.957 h 1.91 m -3.825,0.957 h -1.91 v -0.957 h 1.91 m -3.82,0.957 h -1.914 v -0.957 h 1.914 m -3.824,0.957 h -1.914 v -0.957 h 1.914 m -3.824,0.957 h -1.914 v -0.957 h 1.914 m -3.824,0.957 h -1.911 v -0.957 h 1.911 m -3.825,0.957 h -1.91 v -0.957 h 1.91 m -3.824,0.957 h -1.91 v -0.957 h 1.91 m -3.824,0.957 h -1.91 v -0.957 h 1.91 m -3.824,0.957 h -1.911 v -0.957 h 1.911 m -3.821,0.957 h -1.914 v -0.957 h 1.914 m -3.824,0.957 h -1.914 v -0.957 h 1.914 m -3.824,0.957 h -1.914 v -0.957 h 1.914 m -3.824,0.957 h -1.91 v -0.957 h 1.91 m -3.825,0.957 h -1.91 v -0.957 h 1.91 m -3.824,0.957 h -1.91 v -0.957 h 1.91 m -3.824,0.957 h -1.91 v -0.957 h 1.91 m -3.824,0.957 h -1.91 v -0.957 h 1.91 m -3.821,0.957 h -1.914 v -0.957 h 1.914 m -3.824,0.957 h -1.914 v -0.957 h 1.914 m -3.824,0.957 h -1.914 v -0.957 h 1.914 m -3.824,0.957 h -0.32 v -0.957 h 0.32"
                   style="fill:#333333;fill-opacity:1;fill-rule:nonzero;stroke:none"
                   id="path10252" />
              </g>
            </g>
          </g>
        </g>
      </g>
    </g>
    <g
       id="g10254">
      <g
         id="g10256">
        <g
           id="g10258">
          <g
             id="g10260"
             clip-path="url(#clipPath10264)">
            <g
               id="g10266" />
            <g
               id="g10268">
              <g
                 id="g10270"
                 clip-path="url(#clipPath10274)">
                <g
                   id="g10276">
                  <g
                     id="g10278">
                    <g
                       id="g10280"
                       clip-path="url(#clipPath10284)">
                      <g
                         id="g10286" />
                      <g
                         id="g10288">
                        <g
                           id="g10290"
                           clip-path="url(#clipPath10294)">
                          <g
                             id="g10296">
                            <g
                               id="g10298">
                              <g
                                 id="g10300"
                                 clip-path="url(#clipPath10304)">
                                <g
                                   id="g10306">
                                <g
                                   id="g10308"
                                   transform="scale(-0.999985,-1)">
                                <path
                                   d="m -100.361,-346.137 7.008,3.188 -6.371,3.183 z"
                                   style="fill:#333333;fill-opacity:1;fill-rule:nonzero;stroke:#333333;stroke-width:0.65861;stroke-linecap:butt;stroke-linejoin:miter;stroke-miterlimit:10;stroke-dasharray:none;stroke-opacity:1"
                                   id="path10310" />
                                </g>
                                </g>
                              </g>
                            </g>
                          </g>
                        </g>
                      </g>
                    </g>
                  </g>
                </g>
              </g>
            </g>
          </g>
        </g>
      </g>
    </g>
  </g>
</svg>
