<?xml version="1.0" encoding="UTF-8" standalone="no"?>
<!-- Created with Inkscape (http://www.inkscape.org/) -->

<svg
   version="1.1"
   id="svg5736"
   width="738.2749"
   height="421.67566"
   viewBox="0 0 738.2749 421.67566"
   xmlns="http://www.w3.org/2000/svg"
   xmlns:svg="http://www.w3.org/2000/svg">
  <defs
     id="defs5740">
    <clipPath
       clipPathUnits="userSpaceOnUse"
       id="clipPath5756">
      <path
         d="M 0,0 H 554 V 317 H 0 Z"
         id="path5754" />
    </clipPath>
    <clipPath
       clipPathUnits="userSpaceOnUse"
       id="clipPath5780">
      <path
         d="M 0,0 H 554 V 317 H 0 Z"
         id="path5778" />
    </clipPath>
    <clipPath
       clipPathUnits="userSpaceOnUse"
       id="clipPath5812">
      <path
         d="M 0,0 H 554 V 317 H 0 Z"
         id="path5810" />
    </clipPath>
    <clipPath
       clipPathUnits="userSpaceOnUse"
       id="clipPath5836">
      <path
         d="M 0,0 H 554 V 317 H 0 Z"
         id="path5834" />
    </clipPath>
    <clipPath
       clipPathUnits="userSpaceOnUse"
       id="clipPath5860">
      <path
         d="M 0,0 H 554 V 317 H 0 Z"
         id="path5858" />
    </clipPath>
    <clipPath
       clipPathUnits="userSpaceOnUse"
       id="clipPath5884">
      <path
         d="M 0,0 H 554 V 317 H 0 Z"
         id="path5882" />
    </clipPath>
    <clipPath
       clipPathUnits="userSpaceOnUse"
       id="clipPath5934">
      <path
         d="M 0,0 H 554 V 317 H 0 Z"
         id="path5932" />
    </clipPath>
    <clipPath
       clipPathUnits="userSpaceOnUse"
       id="clipPath5966">
      <path
         d="M 0,0 H 554 V 317 H 0 Z"
         id="path5964" />
    </clipPath>
    <clipPath
       clipPathUnits="userSpaceOnUse"
       id="clipPath5980">
      <path
         d="m 162.098,53.094 h 5.438 v 5.441 h -5.438 z"
         id="path5978" />
    </clipPath>
    <clipPath
       clipPathUnits="userSpaceOnUse"
       id="clipPath5990">
      <path
         d="M 0,0 H 554 V 317 H 0 Z"
         id="path5988" />
    </clipPath>
    <clipPath
       clipPathUnits="userSpaceOnUse"
       id="clipPath6008">
      <path
         d="M 0,0 H 554 V 317 H 0 Z"
         id="path6006" />
    </clipPath>
    <clipPath
       clipPathUnits="userSpaceOnUse"
       id="clipPath6034">
      <path
         d="m 412.508,95.246 h 5.441 v 5.438 h -5.441 z"
         id="path6032" />
    </clipPath>
    <clipPath
       clipPathUnits="userSpaceOnUse"
       id="clipPath6044">
      <path
         d="M 0,0 H 554 V 317 H 0 Z"
         id="path6042" />
    </clipPath>
    <clipPath
       clipPathUnits="userSpaceOnUse"
       id="clipPath6062">
      <path
         d="M 0,0 H 554 V 317 H 0 Z"
         id="path6060" />
    </clipPath>
    <clipPath
       clipPathUnits="userSpaceOnUse"
       id="clipPath6088">
      <path
         d="M 0,0 H 554 V 317 H 0 Z"
         id="path6086" />
    </clipPath>
    <clipPath
       clipPathUnits="userSpaceOnUse"
       id="clipPath6100">
      <path
         d="M 0,0 H 554 V 317 H 0 Z"
         id="path6098" />
    </clipPath>
    <clipPath
       clipPathUnits="userSpaceOnUse"
       id="clipPath6110">
      <path
         d="m 169.258,116.094 h 5.441 v 5.438 h -5.441 z"
         id="path6108" />
    </clipPath>
    <clipPath
       clipPathUnits="userSpaceOnUse"
       id="clipPath6120">
      <path
         d="M 0,0 H 554 V 317 H 0 Z"
         id="path6118" />
    </clipPath>
    <clipPath
       clipPathUnits="userSpaceOnUse"
       id="clipPath6136">
      <path
         d="M 0,0 H 554 V 317 H 0 Z"
         id="path6134" />
    </clipPath>
    <clipPath
       clipPathUnits="userSpaceOnUse"
       id="clipPath6154">
      <path
         d="m 308.492,143.289 h 5.438 v 5.438 h -5.438 z"
         id="path6152" />
    </clipPath>
    <clipPath
       clipPathUnits="userSpaceOnUse"
       id="clipPath6164">
      <path
         d="M 0,0 H 554 V 317 H 0 Z"
         id="path6162" />
    </clipPath>
    <clipPath
       clipPathUnits="userSpaceOnUse"
       id="clipPath6182">
      <path
         d="M 0,0 H 554 V 317 H 0 Z"
         id="path6180" />
    </clipPath>
    <clipPath
       clipPathUnits="userSpaceOnUse"
       id="clipPath6200">
      <path
         d="M 0,0 H 554 V 317 H 0 Z"
         id="path6198" />
    </clipPath>
    <clipPath
       clipPathUnits="userSpaceOnUse"
       id="clipPath6212">
      <path
         d="M 0,0 H 554 V 317 H 0 Z"
         id="path6210" />
    </clipPath>
    <clipPath
       clipPathUnits="userSpaceOnUse"
       id="clipPath6222">
      <path
         d="m 169.258,164.137 h 5.441 v 5.438 h -5.441 z"
         id="path6220" />
    </clipPath>
    <clipPath
       clipPathUnits="userSpaceOnUse"
       id="clipPath6232">
      <path
         d="M 0,0 H 554 V 317 H 0 Z"
         id="path6230" />
    </clipPath>
    <clipPath
       clipPathUnits="userSpaceOnUse"
       id="clipPath6248">
      <path
         d="M 0,0 H 554 V 317 H 0 Z"
         id="path6246" />
    </clipPath>
    <clipPath
       clipPathUnits="userSpaceOnUse"
       id="clipPath6268">
      <path
         d="M 0,0 H 554 V 317 H 0 Z"
         id="path6266" />
    </clipPath>
    <clipPath
       clipPathUnits="userSpaceOnUse"
       id="clipPath6280">
      <path
         d="M 0,0 H 554 V 317 H 0 Z"
         id="path6278" />
    </clipPath>
    <clipPath
       clipPathUnits="userSpaceOnUse"
       id="clipPath6290">
      <path
         d="m 167,194 h 7 v 7 h -7 z"
         id="path6288" />
    </clipPath>
    <clipPath
       clipPathUnits="userSpaceOnUse"
       id="clipPath6296">
      <path
         d="m 172.918,200.953 -5.367,-0.894 0.894,-5.364 5.367,0.895 z"
         id="path6294" />
    </clipPath>
    <clipPath
       clipPathUnits="userSpaceOnUse"
       id="clipPath6306">
      <path
         d="M 0,0 H 554 V 317 H 0 Z"
         id="path6304" />
    </clipPath>
    <clipPath
       clipPathUnits="userSpaceOnUse"
       id="clipPath6322">
      <path
         d="M 0,0 H 554 V 317 H 0 Z"
         id="path6320" />
    </clipPath>
    <clipPath
       clipPathUnits="userSpaceOnUse"
       id="clipPath6340">
      <path
         d="M 0,0 H 554 V 317 H 0 Z"
         id="path6338" />
    </clipPath>
    <clipPath
       clipPathUnits="userSpaceOnUse"
       id="clipPath6352">
      <path
         d="M 0,0 H 554 V 317 H 0 Z"
         id="path6350" />
    </clipPath>
    <clipPath
       clipPathUnits="userSpaceOnUse"
       id="clipPath6362">
      <path
         d="m 53.684,221.242 h 5.441 v 5.441 h -5.441 z"
         id="path6360" />
    </clipPath>
    <clipPath
       clipPathUnits="userSpaceOnUse"
       id="clipPath6372">
      <path
         d="M 0,0 H 554 V 317 H 0 Z"
         id="path6370" />
    </clipPath>
    <clipPath
       clipPathUnits="userSpaceOnUse"
       id="clipPath6388">
      <path
         d="M 0,0 H 554 V 317 H 0 Z"
         id="path6386" />
    </clipPath>
    <clipPath
       clipPathUnits="userSpaceOnUse"
       id="clipPath6406">
      <path
         d="m 505.195,243.906 h 5.438 v 5.438 h -5.438 z"
         id="path6404" />
    </clipPath>
    <clipPath
       clipPathUnits="userSpaceOnUse"
       id="clipPath6416">
      <path
         d="M 0,0 H 554 V 317 H 0 Z"
         id="path6414" />
    </clipPath>
    <clipPath
       clipPathUnits="userSpaceOnUse"
       id="clipPath6434">
      <path
         d="M 0,0 H 554 V 317 H 0 Z"
         id="path6432" />
    </clipPath>
    <clipPath
       clipPathUnits="userSpaceOnUse"
       id="clipPath6452">
      <path
         d="M 0,0 H 554 V 317 H 0 Z"
         id="path6450" />
    </clipPath>
    <clipPath
       clipPathUnits="userSpaceOnUse"
       id="clipPath6464">
      <path
         d="M 0,0 H 554 V 317 H 0 Z"
         id="path6462" />
    </clipPath>
    <clipPath
       clipPathUnits="userSpaceOnUse"
       id="clipPath6474">
      <path
         d="m 53.684,264.754 h 5.441 v 5.438 h -5.441 z"
         id="path6472" />
    </clipPath>
    <clipPath
       clipPathUnits="userSpaceOnUse"
       id="clipPath6484">
      <path
         d="M 0,0 H 554 V 317 H 0 Z"
         id="path6482" />
    </clipPath>
    <clipPath
       clipPathUnits="userSpaceOnUse"
       id="clipPath6500">
      <path
         d="M 0,0 H 554 V 317 H 0 Z"
         id="path6498" />
    </clipPath>
    <clipPath
       clipPathUnits="userSpaceOnUse"
       id="clipPath6520">
      <path
         d="M 0,0 H 554 V 317 H 0 Z"
         id="path6518" />
    </clipPath>
    <clipPath
       clipPathUnits="userSpaceOnUse"
       id="clipPath6532">
      <path
         d="M 0,0 H 554 V 317 H 0 Z"
         id="path6530" />
    </clipPath>
    <clipPath
       clipPathUnits="userSpaceOnUse"
       id="clipPath6542">
      <path
         d="m 51,295 h 8 v 7 h -8 z"
         id="path6540" />
    </clipPath>
    <clipPath
       clipPathUnits="userSpaceOnUse"
       id="clipPath6548">
      <path
         d="m 57.344,301.57 -5.367,-0.894 0.894,-5.364 5.367,0.891 z"
         id="path6546" />
    </clipPath>
    <clipPath
       clipPathUnits="userSpaceOnUse"
       id="clipPath6558">
      <path
         d="M 0,0 H 554 V 317 H 0 Z"
         id="path6556" />
    </clipPath>
  </defs>
  <g
     id="g5744"
     transform="matrix(1.3333333,0,0,1.3333333,0,1.1875225e-5)">
    <g
       id="g5746">
      <g
         id="g5748">
        <g
           id="g5750">
          <g
             id="g5752"
             clip-path="url(#clipPath5756)">
            <g
               id="g5758">
              <g
                 id="g5760">
                <path
                   d="m 510.59,33.606 v 278.74"
                   style="fill:none;stroke:#d4d4d4;stroke-width:0.464745;stroke-linecap:butt;stroke-linejoin:miter;stroke-miterlimit:10;stroke-dasharray:none;stroke-opacity:1"
                   id="path5762" />
              </g>
              <g
                 id="g5764">
                <path
                   d="m 475.918,4.148 h 69.344 c 0.179,0 0.351,0.032 0.519,0.102 0.168,0.07 0.313,0.168 0.442,0.293 0.129,0.129 0.226,0.277 0.293,0.441 0.07,0.168 0.105,0.34 0.105,0.524 v 26.738 c 0,0.18 -0.035,0.356 -0.105,0.52 -0.067,0.168 -0.164,0.316 -0.293,0.441 -0.129,0.129 -0.274,0.227 -0.442,0.297 -0.168,0.067 -0.34,0.102 -0.519,0.102 h -69.344 c -0.184,0 -0.356,-0.035 -0.523,-0.102 -0.165,-0.07 -0.313,-0.168 -0.442,-0.297 -0.125,-0.125 -0.223,-0.273 -0.293,-0.441 -0.07,-0.164 -0.101,-0.34 -0.101,-0.52 V 5.508 c 0,-0.184 0.031,-0.356 0.101,-0.524 0.07,-0.164 0.168,-0.312 0.293,-0.441 0.129,-0.125 0.277,-0.223 0.442,-0.293 0.167,-0.07 0.339,-0.102 0.523,-0.102 z"
                   style="fill:#eeeeee;fill-opacity:1;fill-rule:nonzero;stroke:#d4d4d4;stroke-width:0.464745;stroke-linecap:butt;stroke-linejoin:miter;stroke-miterlimit:10;stroke-dasharray:none;stroke-opacity:1"
                   id="path5766" />
              </g>
            </g>
          </g>
        </g>
      </g>
      <text
         xml:space="preserve"
         transform="matrix(1,0,0,0.99999186,479.02792,21.792141)"
         style="font-variant:normal;font-weight:normal;font-size:7.24844px;font-family:'DejaVu Sans';-inkscape-font-specification:DejaVuSans;writing-mode:lr-tb;fill:#333333;fill-opacity:1;fill-rule:nonzero;stroke:none"
         id="text5770"><tspan
           x="0 4.7102132 9.1697035 12.946114 17.540096 19.553946 22.395987 27.354515 31.955578 36.556641 39.362751 43.822239 48.423302 52.865097 55.707138 60.141853"
           y="0"
           id="tspan5768">ResultAggregator</tspan></text>
      <g
         id="g5772">
        <g
           id="g5774">
          <g
             id="g5776"
             clip-path="url(#clipPath5780)">
            <g
               id="g5782">
              <g
                 id="g5784">
                <path
                   d="m 417.902,33.606 v 278.74"
                   style="fill:none;stroke:#d4d4d4;stroke-width:0.464745;stroke-linecap:butt;stroke-linejoin:miter;stroke-miterlimit:10;stroke-dasharray:none;stroke-opacity:1"
                   id="path5786" />
              </g>
              <g
                 id="g5788">
                <path
                   d="m 385.27,4.148 h 65.265 c 0.18,0 0.356,0.032 0.52,0.102 0.168,0.07 0.316,0.168 0.441,0.293 0.129,0.129 0.227,0.277 0.297,0.441 0.066,0.168 0.102,0.34 0.102,0.524 v 26.738 c 0,0.18 -0.036,0.356 -0.102,0.52 -0.07,0.168 -0.168,0.316 -0.297,0.441 -0.125,0.129 -0.273,0.227 -0.441,0.297 -0.164,0.067 -0.34,0.102 -0.52,0.102 H 385.27 c -0.18,0 -0.352,-0.035 -0.52,-0.102 -0.168,-0.07 -0.312,-0.168 -0.441,-0.297 -0.129,-0.125 -0.227,-0.273 -0.297,-0.441 -0.067,-0.164 -0.102,-0.34 -0.102,-0.52 V 5.508 c 0,-0.184 0.035,-0.356 0.102,-0.524 0.07,-0.164 0.168,-0.312 0.297,-0.441 0.129,-0.125 0.273,-0.223 0.441,-0.293 0.168,-0.07 0.34,-0.102 0.52,-0.102 z"
                   style="fill:#eeeeee;fill-opacity:1;fill-rule:nonzero;stroke:#d4d4d4;stroke-width:0.464745;stroke-linecap:butt;stroke-linejoin:miter;stroke-miterlimit:10;stroke-dasharray:none;stroke-opacity:1"
                   id="path5790" />
              </g>
            </g>
          </g>
        </g>
      </g>
      <text
         xml:space="preserve"
         transform="matrix(1,0,0,0.99999186,390.19383,21.792141)"
         style="font-variant:normal;font-weight:normal;font-size:7.24844px;font-family:'DejaVu Sans';-inkscape-font-specification:DejaVuSans;writing-mode:lr-tb;fill:#333333;fill-opacity:1;fill-rule:nonzero;stroke:none"
         id="text5794"><tspan
           x="0 5.0611682 9.4958839"
           y="0"
           id="tspan5792">Con</tspan></text>
      <text
         xml:space="preserve"
         transform="matrix(1,0,0,0.99999186,404.28369,21.792141)"
         style="font-variant:normal;font-weight:normal;font-size:7.24844px;font-family:'DejaVu Sans';-inkscape-font-specification:DejaVuSans;writing-mode:lr-tb;fill:#333333;fill-opacity:1;fill-rule:nonzero;stroke:none"
         id="text5798"><tspan
           x="0"
           y="0"
           id="tspan5796">ﬁ</tspan></text>
      <text
         xml:space="preserve"
         transform="matrix(1,0,0,0.99999186,408.84936,21.792141)"
         style="font-variant:normal;font-weight:normal;font-size:7.24844px;font-family:'DejaVu Sans';-inkscape-font-specification:DejaVuSans;writing-mode:lr-tb;fill:#333333;fill-opacity:1;fill-rule:nonzero;stroke:none"
         id="text5802"><tspan
           x="0 4.6010618 8.9869642 13.428758 15.442608 17.456457 22.057518 26.499313 29.341354 33.77607"
           y="0"
           id="tspan5800">gValidator</tspan></text>
      <g
         id="g5804">
        <g
           id="g5806">
          <g
             id="g5808"
             clip-path="url(#clipPath5812)">
            <g
               id="g5814">
              <g
                 id="g5816">
                <path
                   d="m 313.887,33.606 v 278.74"
                   style="fill:none;stroke:#d4d4d4;stroke-width:0.464745;stroke-linecap:butt;stroke-linejoin:miter;stroke-miterlimit:10;stroke-dasharray:none;stroke-opacity:1"
                   id="path5818" />
              </g>
              <g
                 id="g5820">
                <path
                   d="m 267.883,4.148 h 92.008 c 0.179,0 0.351,0.032 0.519,0.102 0.164,0.07 0.313,0.168 0.442,0.293 0.125,0.129 0.222,0.277 0.293,0.441 0.07,0.168 0.105,0.34 0.105,0.524 v 26.738 c 0,0.18 -0.035,0.356 -0.105,0.52 -0.071,0.168 -0.168,0.316 -0.293,0.441 -0.129,0.129 -0.278,0.227 -0.442,0.297 -0.168,0.067 -0.34,0.102 -0.519,0.102 h -92.008 c -0.18,0 -0.356,-0.035 -0.52,-0.102 -0.168,-0.07 -0.316,-0.168 -0.441,-0.297 -0.129,-0.125 -0.227,-0.273 -0.297,-0.441 -0.066,-0.164 -0.102,-0.34 -0.102,-0.52 V 5.508 c 0,-0.184 0.036,-0.356 0.102,-0.524 0.07,-0.164 0.168,-0.312 0.297,-0.441 0.125,-0.125 0.273,-0.223 0.441,-0.293 0.164,-0.07 0.34,-0.102 0.52,-0.102 z"
                   style="fill:#eeeeee;fill-opacity:1;fill-rule:nonzero;stroke:#d4d4d4;stroke-width:0.464745;stroke-linecap:butt;stroke-linejoin:miter;stroke-miterlimit:10;stroke-dasharray:none;stroke-opacity:1"
                   id="path5822" />
              </g>
            </g>
          </g>
        </g>
      </g>
      <text
         xml:space="preserve"
         transform="matrix(1,0,0,0.99999186,271.35979,21.792141)"
         style="font-variant:normal;font-weight:normal;font-size:7.24844px;font-family:'DejaVu Sans';-inkscape-font-specification:DejaVuSans;writing-mode:lr-tb;fill:#333333;fill-opacity:1;fill-rule:nonzero;stroke:none"
         id="text5826"><tspan
           x="0 4.9726858 9.4321766 14.02616 18.011387 22.605371 29.666231 34.108025 37.088097 41.285683 46.867123 51.287174 54.129211 58.571007 62.073421 66.515213 70.500443 73.342484 77.777199 80.757271"
           y="0"
           id="tspan5824">BenchmarkDataFactory</tspan></text>
      <g
         id="g5828">
        <g
           id="g5830">
          <g
             id="g5832"
             clip-path="url(#clipPath5836)">
            <g
               id="g5838">
              <g
                 id="g5840">
                <path
                   d="m 167.492,33.606 v 278.74"
                   style="fill:none;stroke:#d4d4d4;stroke-width:0.464745;stroke-linecap:butt;stroke-linejoin:miter;stroke-miterlimit:10;stroke-dasharray:none;stroke-opacity:1"
                   id="path5842" />
              </g>
              <g
                 id="g5844">
                <path
                   d="m 130.555,4.148 h 73.875 c 0.179,0 0.355,0.032 0.519,0.102 0.168,0.07 0.317,0.168 0.442,0.293 0.129,0.129 0.226,0.277 0.297,0.441 0.066,0.168 0.101,0.34 0.101,0.524 v 26.738 c 0,0.18 -0.035,0.356 -0.101,0.52 -0.071,0.168 -0.168,0.316 -0.297,0.441 -0.125,0.129 -0.274,0.227 -0.442,0.297 -0.164,0.067 -0.34,0.102 -0.519,0.102 h -73.875 c -0.184,0 -0.356,-0.035 -0.524,-0.102 -0.164,-0.07 -0.312,-0.168 -0.441,-0.297 -0.125,-0.125 -0.223,-0.273 -0.293,-0.441 -0.07,-0.164 -0.106,-0.34 -0.106,-0.52 V 5.508 c 0,-0.184 0.036,-0.356 0.106,-0.524 0.07,-0.164 0.168,-0.312 0.293,-0.441 0.129,-0.125 0.277,-0.223 0.441,-0.293 0.168,-0.07 0.34,-0.102 0.524,-0.102 z"
                   style="fill:#eeeeee;fill-opacity:1;fill-rule:nonzero;stroke:#d4d4d4;stroke-width:0.464745;stroke-linecap:butt;stroke-linejoin:miter;stroke-miterlimit:10;stroke-dasharray:none;stroke-opacity:1"
                   id="path5846" />
              </g>
            </g>
          </g>
        </g>
      </g>
      <text
         xml:space="preserve"
         transform="matrix(1,0,0,0.99999186,133.8858,21.792141)"
         style="font-variant:normal;font-weight:normal;font-size:7.24844px;font-family:'DejaVu Sans';-inkscape-font-specification:DejaVuSans;writing-mode:lr-tb;fill:#333333;fill-opacity:1;fill-rule:nonzero;stroke:none"
         id="text5850"><tspan
           x="0 4.9726858 9.4321766 14.02616 18.011387 22.605371 29.666231 34.108025 37.088097 41.285683 45.9814 50.575382 55.169365 59.763348 64.222839"
           y="0"
           id="tspan5848">BenchmarkRunner</tspan></text>
      <g
         id="g5852">
        <g
           id="g5854">
          <g
             id="g5856"
             clip-path="url(#clipPath5860)">
            <g
               id="g5862">
              <g
                 id="g5864">
                <path
                   d="m 53.73,33.606 v 278.74"
                   style="fill:none;stroke:#d4d4d4;stroke-width:0.464745;stroke-linecap:butt;stroke-linejoin:miter;stroke-miterlimit:10;stroke-dasharray:none;stroke-opacity:1"
                   id="path5866" />
              </g>
              <g
                 id="g5868">
                <path
                   d="m 21.098,4.148 h 65.265 c 0.18,0 0.352,0.032 0.52,0.102 0.168,0.07 0.312,0.168 0.441,0.293 0.129,0.129 0.227,0.277 0.293,0.441 0.071,0.168 0.106,0.34 0.106,0.524 v 26.738 c 0,0.18 -0.035,0.356 -0.106,0.52 -0.066,0.168 -0.164,0.316 -0.293,0.441 -0.129,0.129 -0.273,0.227 -0.441,0.297 -0.168,0.067 -0.34,0.102 -0.52,0.102 H 21.098 c -0.18,0 -0.356,-0.035 -0.52,-0.102 -0.168,-0.07 -0.316,-0.168 -0.441,-0.297 -0.129,-0.125 -0.227,-0.273 -0.297,-0.441 -0.067,-0.164 -0.102,-0.34 -0.102,-0.52 V 5.508 c 0,-0.184 0.035,-0.356 0.102,-0.524 0.07,-0.164 0.168,-0.312 0.297,-0.441 0.125,-0.125 0.273,-0.223 0.441,-0.293 0.164,-0.07 0.34,-0.102 0.52,-0.102 z"
                   style="fill:#eeeeee;fill-opacity:1;fill-rule:nonzero;stroke:#d4d4d4;stroke-width:0.464745;stroke-linecap:butt;stroke-linejoin:miter;stroke-miterlimit:10;stroke-dasharray:none;stroke-opacity:1"
                   id="path5870" />
              </g>
            </g>
          </g>
        </g>
      </g>
      <text
         xml:space="preserve"
         transform="matrix(1,0,0,0.99999186,45.074561,21.792141)"
         style="font-variant:normal;font-weight:normal;font-size:7.24844px;font-family:'DejaVu Sans';-inkscape-font-specification:DejaVuSans;writing-mode:lr-tb;fill:#333333;fill-opacity:1;fill-rule:nonzero;stroke:none"
         id="text5874"><tspan
           x="0 6.2539048 10.695699 12.709548"
           y="0"
           id="tspan5872">Main</tspan></text>
      <g
         id="g5876">
        <g
           id="g5878">
          <g
             id="g5880"
             clip-path="url(#clipPath5884)">
            <g
               id="g5886">
              <g
                 id="g5888">
                <path
                   d="m 165.227,56.27 h 4.531 v 168.15 h -4.531 z"
                   style="fill:#f4f4f4;fill-opacity:1;fill-rule:nonzero;stroke:#666666;stroke-width:0.464745;stroke-linecap:butt;stroke-linejoin:miter;stroke-miterlimit:10;stroke-dasharray:none;stroke-opacity:1"
                   id="path5890" />
              </g>
              <path
                 d="m 160.691,59.441 h 0.907 v 0.907 h -0.907 m 1.813,-0.907 h 0.91 v 0.907 h -0.91 m 1.816,-0.907 h 0.907 v 0.907 h -0.907 m 1.813,-0.907 h 0.906 v 0.907 h -0.906 m 1.812,-0.907 h 0.907 v 0.907 h -0.907 m 1.813,-0.907 h 0.906 v 0.907 h -0.906 m 1.812,-0.907 h 0.907 v 0.907 h -0.907 m 1.813,-0.907 h 0.906 v 0.907 h -0.906 m 1.812,-0.907 h 0.907 v 0.907 h -0.907 m 1.813,-0.907 h 0.906 v 0.907 h -0.906 m 1.812,-0.907 h 0.91 v 0.907 h -0.91 m 1.817,-0.907 h 0.906 v 0.907 h -0.906 m 1.812,-0.907 h 0.906 v 0.907 h -0.906 m 1.813,-0.907 h 0.906 v 0.907 h -0.906 m 1.812,-0.907 h 0.906 v 0.907 h -0.906 m 1.813,-0.907 h 0.906 v 0.907 h -0.906 m 1.812,-0.907 h 0.906 v 0.907 h -0.906 m 1.813,-0.907 h 0.906 v 0.907 h -0.906 m 1.812,-0.907 h 0.906 v 0.907 h -0.906 m 1.813,-0.907 h 0.91 v 0.907 h -0.91 m 1.816,-0.907 h 0.906 v 0.907 h -0.906 m 1.813,-0.907 h 0.906 v 0.907 h -0.906 m 1.812,-0.907 h 0.906 v 0.907 h -0.906 m 1.813,-0.907 h 0.906 v 0.907 h -0.906 m 1.812,-0.907 h 0.906 v 0.907 h -0.906 m 1.813,-0.907 h 0.906 v 0.907 h -0.906 m 1.812,-0.907 h 0.906 v 0.907 h -0.906 m 1.813,-0.907 h 0.906 v 0.907 h -0.906 m 1.812,-0.907 h 0.91 v 0.907 h -0.91 m 1.817,-0.907 h 0.906 v 0.907 h -0.906 m 1.812,-0.907 h 0.906 v 0.907 h -0.906 m 1.813,-0.907 h 0.906 v 0.907 h -0.906 m 1.812,-0.907 h 0.906 v 0.907 h -0.906 m 1.813,-0.907 h 0.906 v 0.907 h -0.906 m 1.812,-0.907 h 0.906 v 0.907 h -0.906 m 1.813,-0.907 h 0.906 v 0.907 h -0.906 m 1.812,-0.907 h 0.906 v 0.907 h -0.906 m 1.813,-0.907 h 0.91 v 0.907 h -0.91 m 1.816,-0.907 h 0.906 v 0.907 h -0.906 m 1.812,-0.907 h 0.907 v 0.907 h -0.907 m 1.813,-0.907 h 0.906 v 0.907 h -0.906 m 1.812,-0.907 h 0.907 v 0.907 h -0.907 m 1.813,-0.907 h 0.906 v 0.907 h -0.906 m 1.812,-0.907 h 0.907 v 0.907 h -0.907 m 1.813,-0.907 h 0.906 v 0.907 h -0.906 m 1.812,-0.907 h 0.907 v 0.907 h -0.907 m 1.813,-0.907 h 0.91 v 0.907 h -0.91 m 1.816,-0.907 h 0.907 v 0.907 h -0.907 m 1.813,-0.907 h 0.906 v 0.907 h -0.906 m 1.812,-0.907 h 0.907 v 0.907 h -0.907 m 1.813,-0.907 h 0.906 v 0.907 h -0.906 m 1.812,-0.907 h 0.907 v 0.907 h -0.907 m 1.813,-0.907 h 0.906 v 0.907 h -0.906 m 1.812,-0.907 h 0.907 v 0.907 h -0.907 m 1.813,-0.907 h 0.906 v 0.907 h -0.906 m 1.812,-0.907 h 0.91 v 0.907 h -0.91 m 1.817,-0.907 h 0.906 v 0.907 h -0.906 m 1.812,-0.907 h 0.907 v 0.907 h -0.907 m 1.813,-0.907 h 0.906 v 0.907 h -0.906 m 1.812,-0.907 h 0.906 v 0.907 h -0.906 m 1.813,-0.907 h 0.906 v 0.907 h -0.906 m 1.812,-0.907 h 0.907 v 0.907 h -0.907 m 1.813,-0.907 H 274 v 0.907 h -0.906 m 1.812,-0.907 h 0.906 v 0.907 h -0.906 m 1.813,-0.907 h 0.91 v 0.907 h -0.91 m 1.816,-0.907 h 0.906 v 0.907 h -0.906 m 1.813,-0.907 h 0.906 v 0.907 h -0.906 m 1.812,-0.907 h 0.906 v 0.907 h -0.906 m 1.813,-0.907 h 0.906 v 0.907 h -0.906 m 1.812,-0.907 h 0.906 v 0.907 h -0.906 m 1.813,-0.907 h 0.906 v 0.907 h -0.906 m 1.812,-0.907 h 0.906 v 0.907 h -0.906 m 1.813,-0.907 h 0.906 v 0.907 h -0.906 m 1.812,-0.907 h 0.91 v 0.907 h -0.91 m 1.817,-0.907 h 0.906 v 0.907 h -0.906 m 1.812,-0.907 h 0.906 v 0.907 h -0.906 m 1.813,-0.907 h 0.906 v 0.907 h -0.906 m 1.812,-0.907 h 0.906 v 0.907 h -0.906 m 1.813,-0.907 h 0.906 v 0.907 h -0.906 m 1.812,-0.907 h 0.906 v 0.907 h -0.906 m 1.813,-0.907 h 0.906 v 0.907 h -0.906 m 1.812,-0.907 h 0.906 v 0.907 h -0.906 m 1.813,-0.907 h 0.906 v 0.907 h -0.906 m 1.816,-0.907 h 0.906 v 0.907 h -0.906 m 1.812,-0.907 h 0.907 v 0.907 h -0.907 m 1.813,-0.907 h 0.906 v 0.907 h -0.906 m 1.812,-0.907 h 0.907 v 0.907 h -0.907 m 1.813,-0.907 h 0.906 v 0.907 h -0.906 m 1.812,-0.907 h 0.907 v 0.907 h -0.907 m 1.813,-0.907 h 0.906 v 0.907 h -0.906 m 1.812,-0.907 h 0.907 v 0.907 h -0.907 m 1.813,-0.907 h 0.906 v 0.907 h -0.906 m 1.816,-0.907 h 0.907 v 0.907 h -0.907 m 1.813,-0.907 h 0.906 v 0.907 h -0.906 m 1.812,-0.907 h 0.907 v 0.907 h -0.907 m 1.813,-0.907 h 0.906 v 0.907 h -0.906 m 1.812,-0.907 h 0.907 v 0.907 h -0.907 m 1.813,-0.907 h 0.906 v 0.907 h -0.906 m 1.812,-0.907 h 0.907 v 0.907 h -0.907 m 1.813,-0.907 h 0.906 v 0.907 h -0.906 m 1.812,-0.907 h 0.907 v 0.907 h -0.907 m 1.817,-0.907 h 0.906 v 0.907 h -0.906 m 1.812,-0.907 h 0.907 v 0.907 h -0.907 m 1.813,-0.907 h 0.906 v 0.907 h -0.906 m 1.812,-0.907 h 0.907 v 0.907 h -0.907 m 1.813,-0.907 h 0.906 v 0.907 h -0.906 m 1.812,-0.907 h 0.907 v 0.907 h -0.907 m 1.813,-0.907 h 0.906 v 0.907 h -0.906 m 1.812,-0.907 h 0.907 v 0.907 h -0.907 m 1.813,-0.907 h 0.906 v 0.907 h -0.906 m 1.816,-0.907 h 0.906 v 0.907 h -0.906 m 1.813,-0.907 h 0.906 v 0.907 h -0.906 m 1.812,-0.907 h 0.906 v 0.907 h -0.906 m 1.813,-0.907 h 0.906 v 0.907 h -0.906 m 1.812,-0.907 h 0.906 v 0.907 h -0.906 m 1.813,-0.907 h 0.906 v 0.907 h -0.906 m 1.812,-0.907 h 0.906 v 0.907 h -0.906 m 1.813,-0.907 h 0.906 v 0.907 h -0.906 m 1.812,-0.907 h 0.906 v 0.907 h -0.906 m 1.817,-0.907 h 0.906 v 0.907 h -0.906 m 1.812,-0.907 h 0.906 v 0.907 h -0.906 m 1.813,-0.907 h 0.906 v 0.907 h -0.906 m 1.812,-0.907 h 0.906 v 0.907 h -0.906 m 1.813,-0.907 h 0.906 v 0.907 h -0.906 m 1.812,-0.907 h 0.906 v 0.907 h -0.906 m 1.813,-0.907 h 0.906 v 0.907 h -0.906 m 1.812,-0.907 h 0.906 v 0.907 h -0.906 m 1.813,-0.907 h 0.906 v 0.907 h -0.906 m 1.816,-0.907 h 0.906 v 0.907 h -0.906 m 1.812,-0.907 h 0.907 v 0.907 h -0.907 m 1.813,-0.907 h 0.906 v 0.907 h -0.906 m 1.813,-0.907 h 0.906 v 0.907 h -0.906 M 400,59.441 h 0.906 v 0.907 H 400 m 1.812,-0.907 h 0.907 v 0.907 h -0.907 m 1.813,-0.907 h 0.906 v 0.907 h -0.906 m 1.813,-0.907 h 0.906 v 0.907 h -0.906 m 1.812,-0.907 h 0.906 v 0.907 h -0.906 m 1.816,-0.907 h 0.907 v 0.907 h -0.907 m 1.813,-0.907 h 0.906 v 0.907 h -0.906 m 1.812,-0.907 h 0.907 v 0.907 h -0.907 m 1.813,-0.907 h 0.906 v 0.907 h -0.906 m 1.812,-0.907 h 0.907 v 0.907 h -0.907 m 1.813,-0.907 h 0.906 v 0.907 h -0.906 m 1.812,-0.907 h 0.907 v 0.907 h -0.907 m 1.813,-0.907 h 0.906 v 0.907 h -0.906"
                 style="fill:#d4d4d4;fill-opacity:1;fill-rule:nonzero;stroke:none"
                 id="path5892" />
              <path
                 d="m 423.34,59.895 v 0.906 h -0.906 v -0.906 m 0.906,1.812 v 0.906 h -0.906 v -0.906 m 0.906,1.813 v 0.906 h -0.906 V 63.52 m 0.906,1.812 v 0.906 h -0.906 v -0.906 m 0.906,1.813 v 0.906 h -0.906 v -0.906 m 0.906,1.812 v 0.906 h -0.906 v -0.906 m 0.906,1.813 v 0.91 h -0.906 v -0.91 m 0.906,1.816 v 0.906 h -0.906 v -0.906 m 0.906,1.812 v 0.907 h -0.906 v -0.907 m 0.906,1.813 v 0.906 h -0.906 v -0.906 m 0.906,1.812 v 0.907 h -0.906 v -0.907 m 0.906,1.813 v 0.906 h -0.906 v -0.906 m 0.906,1.812 v 0.907 h -0.906 v -0.907 m 0.906,1.813 v 0.906 h -0.906 v -0.906 m 0.906,1.812 v 0.907 h -0.906 v -0.907 m 0.906,1.813 v 0.906 h -0.906 v -0.906 m 0.906,1.816 v 0.907 h -0.906 v -0.907 m 0.906,1.813 v 0.906 h -0.906 v -0.906 m 0.906,1.812 v 0.907 h -0.906 v -0.907 m 0.906,1.813 v 0.906 h -0.906 V 94.34 m 0.906,1.812 v 0.907 h -0.906 v -0.907 m 0.906,1.813 v 0.906 h -0.906 v -0.906 m 0.906,1.812 v 0.907 h -0.906 v -0.907 m 0.906,1.813 v 0.906 h -0.906 v -0.906 m 0.906,1.812 v 0.907 h -0.906 v -0.907 m 0.906,1.813 v 0.91 h -0.906 v -0.91 m 0.906,1.816 v 0.907 h -0.906 v -0.907 m 0.906,1.813 v 0.906 h -0.906 v -0.906 m 0.906,1.812 v 0.906 h -0.906 v -0.906 m 0.906,1.813 v 0.906 h -0.906 v -0.906 m 0.906,1.812 v 0.907 h -0.906 v -0.907 m 0.906,1.813 V 117 h -0.906 v -0.906 m 0.906,1.812 v 0.906 h -0.906 v -0.906 m 0.906,1.813 v 0.906 h -0.906 v -0.906 m 0.906,1.812 v 0.907 h -0.906 v -0.907 m 0.906,1.817 v 0.453 h -0.906 v -0.453"
                 style="fill:#d4d4d4;fill-opacity:1;fill-rule:nonzero;stroke:none"
                 id="path5894" />
              <path
                 d="m 160.691,123.348 h 0.907 v 0.906 h -0.907 m 1.813,-0.906 h 0.91 v 0.906 h -0.91 m 1.816,-0.906 h 0.907 v 0.906 h -0.907 m 1.813,-0.906 h 0.906 v 0.906 h -0.906 m 1.812,-0.906 h 0.907 v 0.906 h -0.907 m 1.813,-0.906 h 0.906 v 0.906 h -0.906 m 1.812,-0.906 h 0.907 v 0.906 h -0.907 m 1.813,-0.906 h 0.906 v 0.906 h -0.906 m 1.812,-0.906 h 0.907 v 0.906 h -0.907 m 1.813,-0.906 h 0.906 v 0.906 h -0.906 m 1.812,-0.906 h 0.91 v 0.906 h -0.91 m 1.817,-0.906 h 0.906 v 0.906 h -0.906 m 1.812,-0.906 h 0.906 v 0.906 h -0.906 m 1.813,-0.906 h 0.906 v 0.906 h -0.906 m 1.812,-0.906 h 0.906 v 0.906 h -0.906 m 1.813,-0.906 h 0.906 v 0.906 h -0.906 m 1.812,-0.906 h 0.906 v 0.906 h -0.906 m 1.813,-0.906 h 0.906 v 0.906 h -0.906 m 1.812,-0.906 h 0.906 v 0.906 h -0.906 m 1.813,-0.906 h 0.91 v 0.906 h -0.91 m 1.816,-0.906 h 0.906 v 0.906 h -0.906 m 1.813,-0.906 h 0.906 v 0.906 h -0.906 m 1.812,-0.906 h 0.906 v 0.906 h -0.906 m 1.813,-0.906 h 0.906 v 0.906 h -0.906 m 1.812,-0.906 h 0.906 v 0.906 h -0.906 m 1.813,-0.906 h 0.906 v 0.906 h -0.906 m 1.812,-0.906 h 0.906 v 0.906 h -0.906 m 1.813,-0.906 h 0.906 v 0.906 h -0.906 m 1.812,-0.906 h 0.91 v 0.906 h -0.91 m 1.817,-0.906 h 0.906 v 0.906 h -0.906 m 1.812,-0.906 h 0.906 v 0.906 h -0.906 m 1.813,-0.906 h 0.906 v 0.906 h -0.906 m 1.812,-0.906 h 0.906 v 0.906 h -0.906 m 1.813,-0.906 h 0.906 v 0.906 h -0.906 m 1.812,-0.906 h 0.906 v 0.906 h -0.906 m 1.813,-0.906 h 0.906 v 0.906 h -0.906 m 1.812,-0.906 h 0.906 v 0.906 h -0.906 m 1.813,-0.906 h 0.91 v 0.906 h -0.91 m 1.816,-0.906 h 0.906 v 0.906 h -0.906 m 1.812,-0.906 h 0.907 v 0.906 h -0.907 m 1.813,-0.906 h 0.906 v 0.906 h -0.906 m 1.812,-0.906 h 0.907 v 0.906 h -0.907 m 1.813,-0.906 h 0.906 v 0.906 h -0.906 m 1.812,-0.906 h 0.907 v 0.906 h -0.907 m 1.813,-0.906 h 0.906 v 0.906 h -0.906 m 1.812,-0.906 h 0.907 v 0.906 h -0.907 m 1.813,-0.906 h 0.91 v 0.906 h -0.91 m 1.816,-0.906 h 0.907 v 0.906 h -0.907 m 1.813,-0.906 h 0.906 v 0.906 h -0.906 m 1.812,-0.906 h 0.907 v 0.906 h -0.907 m 1.813,-0.906 h 0.906 v 0.906 h -0.906 m 1.812,-0.906 h 0.907 v 0.906 h -0.907 m 1.813,-0.906 h 0.906 v 0.906 h -0.906 m 1.812,-0.906 h 0.907 v 0.906 h -0.907 m 1.813,-0.906 h 0.906 v 0.906 h -0.906 m 1.812,-0.906 h 0.91 v 0.906 h -0.91 m 1.817,-0.906 h 0.906 v 0.906 h -0.906 m 1.812,-0.906 h 0.907 v 0.906 h -0.907 m 1.813,-0.906 h 0.906 v 0.906 h -0.906 m 1.812,-0.906 h 0.906 v 0.906 h -0.906 m 1.813,-0.906 h 0.906 v 0.906 h -0.906 m 1.812,-0.906 h 0.907 v 0.906 h -0.907 m 1.813,-0.906 H 274 v 0.906 h -0.906 m 1.812,-0.906 h 0.906 v 0.906 h -0.906 m 1.813,-0.906 h 0.91 v 0.906 h -0.91 m 1.816,-0.906 h 0.906 v 0.906 h -0.906 m 1.813,-0.906 h 0.906 v 0.906 h -0.906 m 1.812,-0.906 h 0.906 v 0.906 h -0.906 m 1.813,-0.906 h 0.906 v 0.906 h -0.906 m 1.812,-0.906 h 0.906 v 0.906 h -0.906 m 1.813,-0.906 h 0.906 v 0.906 h -0.906 m 1.812,-0.906 h 0.906 v 0.906 h -0.906 m 1.813,-0.906 h 0.906 v 0.906 h -0.906 m 1.812,-0.906 h 0.91 v 0.906 h -0.91 m 1.817,-0.906 h 0.906 v 0.906 h -0.906 m 1.812,-0.906 h 0.906 v 0.906 h -0.906 m 1.813,-0.906 h 0.906 v 0.906 h -0.906 m 1.812,-0.906 h 0.906 v 0.906 h -0.906 m 1.813,-0.906 h 0.906 v 0.906 h -0.906 m 1.812,-0.906 h 0.906 v 0.906 h -0.906 m 1.813,-0.906 h 0.906 v 0.906 h -0.906 m 1.812,-0.906 h 0.906 v 0.906 h -0.906 m 1.813,-0.906 h 0.906 v 0.906 h -0.906 m 1.816,-0.906 h 0.906 v 0.906 h -0.906 m 1.812,-0.906 h 0.907 v 0.906 h -0.907 m 1.813,-0.906 h 0.906 v 0.906 h -0.906 m 1.812,-0.906 h 0.907 v 0.906 h -0.907 m 1.813,-0.906 h 0.906 v 0.906 h -0.906 m 1.812,-0.906 h 0.907 v 0.906 h -0.907 m 1.813,-0.906 h 0.906 v 0.906 h -0.906 m 1.812,-0.906 h 0.907 v 0.906 h -0.907 m 1.813,-0.906 h 0.906 v 0.906 h -0.906 m 1.816,-0.906 h 0.907 v 0.906 h -0.907 m 1.813,-0.906 h 0.906 v 0.906 h -0.906 m 1.812,-0.906 h 0.907 v 0.906 h -0.907 m 1.813,-0.906 h 0.906 v 0.906 h -0.906 m 1.812,-0.906 h 0.907 v 0.906 h -0.907 m 1.813,-0.906 h 0.906 v 0.906 h -0.906 m 1.812,-0.906 h 0.907 v 0.906 h -0.907 m 1.813,-0.906 h 0.906 v 0.906 h -0.906 m 1.812,-0.906 h 0.907 v 0.906 h -0.907 m 1.817,-0.906 h 0.906 v 0.906 h -0.906 m 1.812,-0.906 h 0.907 v 0.906 h -0.907 m 1.813,-0.906 h 0.906 v 0.906 h -0.906 m 1.812,-0.906 h 0.907 v 0.906 h -0.907 m 1.813,-0.906 h 0.906 v 0.906 h -0.906 m 1.812,-0.906 h 0.907 v 0.906 h -0.907 m 1.813,-0.906 h 0.906 v 0.906 h -0.906 m 1.812,-0.906 h 0.907 v 0.906 h -0.907 m 1.813,-0.906 h 0.906 v 0.906 h -0.906 m 1.816,-0.906 h 0.906 v 0.906 h -0.906 m 1.813,-0.906 h 0.906 v 0.906 h -0.906 m 1.812,-0.906 h 0.906 v 0.906 h -0.906 m 1.813,-0.906 h 0.906 v 0.906 h -0.906 m 1.812,-0.906 h 0.906 v 0.906 h -0.906 m 1.813,-0.906 h 0.906 v 0.906 h -0.906 m 1.812,-0.906 h 0.906 v 0.906 h -0.906 m 1.813,-0.906 h 0.906 v 0.906 h -0.906 m 1.812,-0.906 h 0.906 v 0.906 h -0.906 m 1.817,-0.906 h 0.906 v 0.906 h -0.906 m 1.812,-0.906 h 0.906 v 0.906 h -0.906 m 1.813,-0.906 h 0.906 v 0.906 h -0.906 m 1.812,-0.906 h 0.906 v 0.906 h -0.906 m 1.813,-0.906 h 0.906 v 0.906 h -0.906 m 1.812,-0.906 h 0.906 v 0.906 h -0.906 m 1.813,-0.906 h 0.906 v 0.906 h -0.906 m 1.812,-0.906 h 0.906 v 0.906 h -0.906 m 1.813,-0.906 h 0.906 v 0.906 h -0.906 m 1.816,-0.906 h 0.906 v 0.906 h -0.906 m 1.812,-0.906 h 0.907 v 0.906 h -0.907 m 1.813,-0.906 h 0.906 v 0.906 h -0.906 m 1.813,-0.906 h 0.906 v 0.906 h -0.906 M 400,123.348 h 0.906 v 0.906 H 400 m 1.812,-0.906 h 0.907 v 0.906 h -0.907 m 1.813,-0.906 h 0.906 v 0.906 h -0.906 m 1.813,-0.906 h 0.906 v 0.906 h -0.906 m 1.812,-0.906 h 0.906 v 0.906 h -0.906 m 1.816,-0.906 h 0.907 v 0.906 h -0.907 m 1.813,-0.906 h 0.906 v 0.906 h -0.906 m 1.812,-0.906 h 0.907 v 0.906 h -0.907 m 1.813,-0.906 h 0.906 v 0.906 h -0.906 m 1.812,-0.906 h 0.907 v 0.906 h -0.907 m 1.813,-0.906 h 0.906 v 0.906 h -0.906 m 1.812,-0.906 h 0.907 v 0.906 h -0.907 m 1.813,-0.906 h 0.906 v 0.906 h -0.906"
                 style="fill:#d4d4d4;fill-opacity:1;fill-rule:nonzero;stroke:none"
                 id="path5896" />
              <path
                 d="m 161.145,59.895 v 0.906 h -0.907 v -0.906 m 0.907,1.812 v 0.906 h -0.907 v -0.906 m 0.907,1.813 v 0.906 h -0.907 V 63.52 m 0.907,1.812 v 0.906 h -0.907 v -0.906 m 0.907,1.813 v 0.906 h -0.907 v -0.906 m 0.907,1.812 v 0.906 h -0.907 v -0.906 m 0.907,1.813 v 0.91 h -0.907 v -0.91 m 0.907,1.816 v 0.906 h -0.907 v -0.906 m 0.907,1.812 v 0.907 h -0.907 v -0.907 m 0.907,1.813 v 0.906 h -0.907 v -0.906 m 0.907,1.812 v 0.907 h -0.907 v -0.907 m 0.907,1.813 v 0.906 h -0.907 v -0.906 m 0.907,1.812 v 0.907 h -0.907 v -0.907 m 0.907,1.813 v 0.906 h -0.907 v -0.906 m 0.907,1.812 v 0.907 h -0.907 v -0.907 m 0.907,1.813 v 0.906 h -0.907 v -0.906 m 0.907,1.816 v 0.907 h -0.907 v -0.907 m 0.907,1.813 v 0.906 h -0.907 v -0.906 m 0.907,1.812 v 0.907 h -0.907 v -0.907 m 0.907,1.813 v 0.906 h -0.907 V 94.34 m 0.907,1.812 v 0.907 h -0.907 v -0.907 m 0.907,1.813 v 0.906 h -0.907 v -0.906 m 0.907,1.812 v 0.907 h -0.907 v -0.907 m 0.907,1.813 v 0.906 h -0.907 v -0.906 m 0.907,1.812 v 0.907 h -0.907 v -0.907 m 0.907,1.813 v 0.91 h -0.907 v -0.91 m 0.907,1.816 v 0.907 h -0.907 v -0.907 m 0.907,1.813 v 0.906 h -0.907 v -0.906 m 0.907,1.812 v 0.906 h -0.907 v -0.906 m 0.907,1.813 v 0.906 h -0.907 v -0.906 m 0.907,1.812 v 0.907 h -0.907 v -0.907 m 0.907,1.813 V 117 h -0.907 v -0.906 m 0.907,1.812 v 0.906 h -0.907 v -0.906 m 0.907,1.813 v 0.906 h -0.907 v -0.906 m 0.907,1.812 v 0.907 h -0.907 v -0.907 m 0.907,1.817 v 0.453 h -0.907 v -0.453"
                 style="fill:#d4d4d4;fill-opacity:1;fill-rule:nonzero;stroke:none"
                 id="path5898" />
              <g
                 id="g5900">
                <path
                   d="m 160.691,59.895 h 22.664 v 5.891 l -3.808,3.172 h -18.856 z"
                   style="fill:#eeeeee;fill-opacity:1;fill-rule:nonzero;stroke:#d4d4d4;stroke-width:0.464745;stroke-linecap:butt;stroke-linejoin:miter;stroke-miterlimit:10;stroke-dasharray:none;stroke-opacity:1"
                   id="path5902" />
              </g>
            </g>
          </g>
        </g>
      </g>
      <text
         xml:space="preserve"
         transform="matrix(1,0,0,0.99999186,164.27431,67.974529)"
         style="font-variant:normal;font-weight:normal;font-size:7.24844px;font-family:'DejaVu Sans';-inkscape-font-specification:DejaVuSans;writing-mode:lr-tb;fill:#333333;fill-opacity:1;fill-rule:nonzero;stroke:none"
         id="text5908"><tspan
           x="0 2.0138493 6.448565 10.883281"
           y="0"
           id="tspan5904">loop</tspan><tspan
           x="61.58844 64.416321 66.96814 71.402855 74.382927 76.686996 81.146492 85.588287 89.573509 94.167496 96.471565 100.45679 104.89151"
           y="0.068571277"
           id="tspan5906">[for each con</tspan></text>
      <text
         xml:space="preserve"
         transform="matrix(1,0,0,0.99999186,273.73806,68.0431)"
         style="font-variant:normal;font-weight:normal;font-size:7.24844px;font-family:'DejaVu Sans';-inkscape-font-specification:DejaVuSans;writing-mode:lr-tb;fill:#333333;fill-opacity:1;fill-rule:nonzero;stroke:none"
         id="text5912"><tspan
           x="0"
           y="0"
           id="tspan5910">ﬁ</tspan></text>
      <text
         xml:space="preserve"
         transform="matrix(1,0,0,0.99999186,278.30372,68.0431)"
         style="font-variant:normal;font-weight:normal;font-size:7.24844px;font-family:'DejaVu Sans';-inkscape-font-specification:DejaVuSans;writing-mode:lr-tb;fill:#333333;fill-opacity:1;fill-rule:nonzero;stroke:none"
         id="text5916"><tspan
           x="0 4.6010618 9.1808882 13.774871 16.616911 19.596985 23.886589 26.19066 28.20451 32.798492 35.102562 39.703625 44.163116 48.757099 52.742325 57.314564 64.375427 68.817215 71.797287 75.994873 81.056046 85.490761"
           y="0"
           id="tspan5914">gEntry in benchmarkCon</tspan></text>
      <text
         xml:space="preserve"
         transform="matrix(1,0,0,0.99999186,368.38847,68.0431)"
         style="font-variant:normal;font-weight:normal;font-size:7.24844px;font-family:'DejaVu Sans';-inkscape-font-specification:DejaVuSans;writing-mode:lr-tb;fill:#333333;fill-opacity:1;fill-rule:nonzero;stroke:none"
         id="text5920"><tspan
           x="0"
           y="0"
           id="tspan5918">ﬁ</tspan></text>
      <text
         xml:space="preserve"
         transform="matrix(1,0,0,0.99999186,372.95414,68.0431)"
         style="font-variant:normal;font-weight:normal;font-size:7.24844px;font-family:'DejaVu Sans';-inkscape-font-specification:DejaVuSans;writing-mode:lr-tb;fill:#333333;fill-opacity:1;fill-rule:nonzero;stroke:none"
         id="text5924"><tspan
           x="0 4.6010618"
           y="0"
           id="tspan5922">g]</tspan></text>
      <g
         id="g5926">
        <g
           id="g5928">
          <g
             id="g5930"
             clip-path="url(#clipPath5934)">
            <g
               id="g5936">
              <g
                 id="g5938">
                <path
                   d="m 311.621,146.462 h 4.531 v 20.848 h -4.531 z"
                   style="fill:#f4f4f4;fill-opacity:1;fill-rule:nonzero;stroke:#666666;stroke-width:0.464745;stroke-linecap:butt;stroke-linejoin:miter;stroke-miterlimit:10;stroke-dasharray:none;stroke-opacity:1"
                   id="path5940" />
              </g>
              <g
                 id="g5942">
                <path
                   d="m 508.324,246.174 h 4.531 v 21.754 h -4.531 z"
                   style="fill:#f4f4f4;fill-opacity:1;fill-rule:nonzero;stroke:#666666;stroke-width:0.464745;stroke-linecap:butt;stroke-linejoin:miter;stroke-miterlimit:10;stroke-dasharray:none;stroke-opacity:1"
                   id="path5944" />
              </g>
            </g>
          </g>
        </g>
      </g>
      <text
         xml:space="preserve"
         transform="matrix(1,0,0,0.99999186,68.937367,49.848999)"
         style="font-variant:normal;font-weight:normal;font-size:7.24844px;font-family:'DejaVu Sans';-inkscape-font-specification:DejaVuSans;writing-mode:lr-tb;fill:#333333;fill-opacity:1;fill-rule:nonzero;stroke:none"
         id="text5948"><tspan
           x="0 2.9800723 7.5740557 12.168039 14.995922 19.596985 24.056475 28.650457 32.635685 37.229668 44.290527 48.710579 51.690651 55.888233 60.949402 65.384117"
           y="0"
           id="tspan5946">run(benchmarkCon</tspan></text>
      <text
         xml:space="preserve"
         transform="matrix(1,0,0,0.99999186,138.91547,49.848999)"
         style="font-variant:normal;font-weight:normal;font-size:7.24844px;font-family:'DejaVu Sans';-inkscape-font-specification:DejaVuSans;writing-mode:lr-tb;fill:#333333;fill-opacity:1;fill-rule:nonzero;stroke:none"
         id="text5952"><tspan
           x="0"
           y="0"
           id="tspan5950">ﬁ</tspan></text>
      <text
         xml:space="preserve"
         transform="matrix(1,0,0,0.99999186,143.48114,49.848999)"
         style="font-variant:normal;font-weight:normal;font-size:7.24844px;font-family:'DejaVu Sans';-inkscape-font-specification:DejaVuSans;writing-mode:lr-tb;fill:#333333;fill-opacity:1;fill-rule:nonzero;stroke:none"
         id="text5956"><tspan
           x="0 4.6010618"
           y="0"
           id="tspan5954">g)</tspan></text>
      <g
         id="g5958">
        <g
           id="g5960">
          <g
             id="g5962"
             clip-path="url(#clipPath5966)">
            <g
               id="g5968">
              <g
                 id="g5970">
                <path
                   d="M 54.184,55.364 H 165.68"
                   style="fill:none;stroke:#333333;stroke-width:0.464745;stroke-linecap:butt;stroke-linejoin:miter;stroke-miterlimit:10;stroke-dasharray:none;stroke-opacity:1"
                   id="path5972" />
              </g>
            </g>
          </g>
        </g>
      </g>
    </g>
    <g
       id="g5974">
      <g
         id="g5976"
         clip-path="url(#clipPath5980)">
        <g
           id="g5982">
          <g
             id="g5984">
            <g
               id="g5986"
               clip-path="url(#clipPath5990)">
              <g
                 id="g5992">
                <g
                   id="g5994">
                  <path
                     d="m 161.645,53.094 4.984,2.27 -4.531,2.265 z"
                     style="fill:#333333;fill-opacity:1;fill-rule:nonzero;stroke:#333333;stroke-width:0.464745;stroke-linecap:butt;stroke-linejoin:miter;stroke-miterlimit:10;stroke-dasharray:none;stroke-opacity:1"
                     id="path5996" />
                </g>
              </g>
            </g>
          </g>
        </g>
      </g>
    </g>
    <g
       id="g5998">
      <g
         id="g6000">
        <g
           id="g6002">
          <g
             id="g6004"
             clip-path="url(#clipPath6008)">
            <g
               id="g6010">
              <text
                 xml:space="preserve"
                 transform="matrix(1,0,0,0.99999186,241.39414,91.997139)"
                 style="font-variant:normal;font-weight:normal;font-size:7.24844px;font-family:'DejaVu Sans';-inkscape-font-specification:DejaVuSans;writing-mode:lr-tb;fill:#333333;fill-opacity:1;fill-rule:nonzero;stroke:none"
                 id="text6014"><tspan
                   x="0 4.2896051 8.7313995 10.745249 12.759098 17.360161 21.801954 24.643995 29.103485 34.062016 38.655998 43.257061 48.85215 53.311638 56.153679 58.981564 62.966789 67.401505"
                   y="0"
                   id="tspan6012">validateAndGet(con</tspan></text>
              <text
                 xml:space="preserve"
                 transform="matrix(1,0,0,0.99999186,313.38963,91.997139)"
                 style="font-variant:normal;font-weight:normal;font-size:7.24844px;font-family:'DejaVu Sans';-inkscape-font-specification:DejaVuSans;writing-mode:lr-tb;fill:#333333;fill-opacity:1;fill-rule:nonzero;stroke:none"
                 id="text6018"><tspan
                   x="0"
                   y="0"
                   id="tspan6016">ﬁ</tspan></text>
              <text
                 xml:space="preserve"
                 transform="matrix(1,0,0,0.99999186,317.9553,91.997139)"
                 style="font-variant:normal;font-weight:normal;font-size:7.24844px;font-family:'DejaVu Sans';-inkscape-font-specification:DejaVuSans;writing-mode:lr-tb;fill:#333333;fill-opacity:1;fill-rule:nonzero;stroke:none"
                 id="text6022"><tspan
                   x="0 4.6010618 9.1808882 13.774871 16.616911 19.596985 23.886589"
                   y="0"
                   id="tspan6020">gEntry)</tspan></text>
              <g
                 id="g6024">
                <path
                   d="M 169.758,97.512 H 416.09"
                   style="fill:none;stroke:#333333;stroke-width:0.464745;stroke-linecap:butt;stroke-linejoin:miter;stroke-miterlimit:10;stroke-dasharray:none;stroke-opacity:1"
                   id="path6026" />
              </g>
            </g>
          </g>
        </g>
      </g>
    </g>
    <g
       id="g6028">
      <g
         id="g6030"
         clip-path="url(#clipPath6034)">
        <g
           id="g6036">
          <g
             id="g6038">
            <g
               id="g6040"
               clip-path="url(#clipPath6044)">
              <g
                 id="g6046">
                <g
                   id="g6048">
                  <path
                     d="m 412.055,95.247 4.988,2.265 -4.535,2.266 z"
                     style="fill:#333333;fill-opacity:1;fill-rule:nonzero;stroke:#333333;stroke-width:0.464745;stroke-linecap:butt;stroke-linejoin:miter;stroke-miterlimit:10;stroke-dasharray:none;stroke-opacity:1"
                     id="path6050" />
                </g>
              </g>
            </g>
          </g>
        </g>
      </g>
    </g>
    <g
       id="g6052">
      <g
         id="g6054">
        <g
           id="g6056">
          <g
             id="g6058"
             clip-path="url(#clipPath6062)">
            <g
               id="g6064">
              <text
                 xml:space="preserve"
                 transform="matrix(1,0,0,0.99999186,252.83412,113.74549)"
                 style="font-variant:normal;font-weight:normal;font-size:7.24844px;font-family:'DejaVu Sans';-inkscape-font-specification:DejaVuSans;writing-mode:lr-tb;fill:#333333;fill-opacity:1;fill-rule:nonzero;stroke:none"
                 id="text6068"><tspan
                   x="0 3.9852273 8.4199429"
                   y="0"
                   id="tspan6066">con</tspan></text>
              <text
                 xml:space="preserve"
                 transform="matrix(1,0,0,0.99999186,265.84804,113.74549)"
                 style="font-variant:normal;font-weight:normal;font-size:7.24844px;font-family:'DejaVu Sans';-inkscape-font-specification:DejaVuSans;writing-mode:lr-tb;fill:#333333;fill-opacity:1;fill-rule:nonzero;stroke:none"
                 id="text6072"><tspan
                   x="0"
                   y="0"
                   id="tspan6070">ﬁ</tspan></text>
              <text
                 xml:space="preserve"
                 transform="matrix(1,0,0,0.99999186,270.41371,113.74549)"
                 style="font-variant:normal;font-weight:normal;font-size:7.24844px;font-family:'DejaVu Sans';-inkscape-font-specification:DejaVuSans;writing-mode:lr-tb;fill:#333333;fill-opacity:1;fill-rule:nonzero;stroke:none"
                 id="text6076"><tspan
                   x="0 4.6010618 9.1808882 13.774871 16.616911 19.596985 23.886589 26.19066 29.018543 33.286404 37.728199 39.742046 41.755898 46.356956 50.798752 53.640793 58.100285 62.701344"
                   y="0"
                   id="tspan6074">gEntry (validated)</tspan></text>
              <path
                 d="m 417.449,119.605 h -1.359 v -0.679 h 1.359 m -2.719,0.679 h -1.359 v -0.679 h 1.359 m -2.718,0.679 h -1.36 v -0.679 h 1.36 m -2.719,0.679 h -1.363 v -0.679 h 1.363 m -2.723,0.679 h -1.359 v -0.679 h 1.359 m -2.718,0.679 h -1.36 v -0.679 h 1.36 m -2.719,0.679 h -1.36 v -0.679 h 1.36 m -2.719,0.679 h -1.359 v -0.679 h 1.359 m -2.719,0.679 h -1.359 v -0.679 h 1.359 m -2.718,0.679 h -1.364 v -0.679 h 1.364 m -2.723,0.679 h -1.359 v -0.679 h 1.359 m -2.719,0.679 h -1.359 v -0.679 h 1.359 m -2.719,0.679 h -1.359 v -0.679 h 1.359 m -2.718,0.679 h -1.36 v -0.679 h 1.36 m -2.719,0.679 h -1.359 v -0.679 h 1.359 m -2.719,0.679 h -1.363 v -0.679 h 1.363 m -2.722,0.679 h -1.36 v -0.679 h 1.36 m -2.719,0.679 h -1.36 v -0.679 h 1.36 m -2.719,0.679 h -1.359 v -0.679 h 1.359 m -2.719,0.679 h -1.359 v -0.679 h 1.359 m -2.719,0.679 h -1.359 v -0.679 h 1.359 m -2.718,0.679 h -1.364 v -0.679 h 1.364 m -2.723,0.679 h -1.359 v -0.679 h 1.359 m -2.719,0.679 h -1.359 v -0.679 h 1.359 m -2.718,0.679 h -1.36 v -0.679 h 1.36 m -2.719,0.679 h -1.36 v -0.679 h 1.36 m -2.719,0.679 h -1.359 v -0.679 h 1.359 m -2.719,0.679 h -1.363 v -0.679 h 1.363 m -2.722,0.679 h -1.36 v -0.679 h 1.36 m -2.719,0.679 h -1.359 v -0.679 h 1.359 m -2.719,0.679 h -1.359 v -0.679 h 1.359 m -2.719,0.679 h -1.359 v -0.679 h 1.359 m -2.718,0.679 h -1.36 v -0.679 h 1.36 m -2.719,0.679 h -1.363 v -0.679 h 1.363 m -2.723,0.679 h -1.359 v -0.679 h 1.359 m -2.718,0.679 h -1.36 v -0.679 h 1.36 m -2.719,0.679 h -1.36 v -0.679 h 1.36 m -2.719,0.679 h -1.359 v -0.679 h 1.359 m -2.719,0.679 h -1.359 v -0.679 h 1.359 m -2.718,0.679 h -1.364 v -0.679 h 1.364 m -2.723,0.679 h -1.36 v -0.679 h 1.36 m -2.719,0.679 h -1.359 v -0.679 h 1.359 m -2.719,0.679 h -1.359 v -0.679 h 1.359 m -2.718,0.679 h -1.36 v -0.679 h 1.36 m -2.719,0.679 h -1.359 v -0.679 h 1.359 m -2.719,0.679 h -1.363 v -0.679 h 1.363 m -2.723,0.679 h -1.359 v -0.679 h 1.359 m -2.718,0.679 h -1.36 v -0.679 h 1.36 m -2.719,0.679 h -1.359 v -0.679 h 1.359 m -2.719,0.679 h -1.359 v -0.679 h 1.359 m -2.719,0.679 h -1.359 v -0.679 h 1.359 m -2.718,0.679 h -1.364 v -0.679 h 1.364 m -2.723,0.679 h -1.359 v -0.679 h 1.359 m -2.719,0.679 h -1.359 v -0.679 h 1.359 m -2.718,0.679 h -1.36 v -0.679 h 1.36 m -2.719,0.679 h -1.36 v -0.679 h 1.36 m -2.719,0.679 h -1.359 v -0.679 h 1.359 m -2.719,0.679 h -1.359 v -0.679 h 1.359 m -2.722,0.679 h -1.36 v -0.679 h 1.36 m -2.719,0.679 h -1.359 v -0.679 h 1.359 m -2.719,0.679 h -1.359 v -0.679 h 1.359 m -2.719,0.679 h -1.359 v -0.679 h 1.359 m -2.718,0.679 h -1.36 v -0.679 h 1.36 m -2.719,0.679 h -1.359 v -0.679 h 1.359 m -2.723,0.679 h -1.359 v -0.679 h 1.359 m -2.718,0.679 h -1.36 v -0.679 h 1.36 m -2.719,0.679 h -1.36 v -0.679 h 1.36 m -2.719,0.679 h -1.359 v -0.679 h 1.359 m -2.719,0.679 h -1.359 v -0.679 h 1.359 m -2.719,0.679 h -1.359 v -0.679 h 1.359 m -2.722,0.679 h -1.36 v -0.679 h 1.36 m -2.719,0.679 h -1.359 v -0.679 h 1.359 m -2.719,0.679 h -1.359 v -0.679 h 1.359 m -2.718,0.679 h -1.36 v -0.679 h 1.36 m -2.719,0.679 h -1.36 v -0.679 h 1.36 m -2.719,0.679 h -1.359 v -0.679 h 1.359 m -2.723,0.679 h -1.359 v -0.679 h 1.359 m -2.718,0.679 h -1.36 v -0.679 h 1.36 m -2.719,0.679 h -1.359 v -0.679 h 1.359 m -2.719,0.679 h -1.359 v -0.679 h 1.359 m -2.719,0.679 h -1.359 v -0.679 h 1.359 m -2.718,0.679 h -1.36 v -0.679 h 1.36 m -2.723,0.679 h -1.359 v -0.679 h 1.359 m -2.719,0.679 h -1.359 v -0.679 h 1.359 m -2.718,0.679 h -1.36 v -0.679 h 1.36 m -2.719,0.679 h -1.36 v -0.679 h 1.36 m -2.719,0.679 h -1.359 v -0.679 h 1.359 m -2.719,0.679 h -1.359 v -0.679 h 1.359 m -2.722,0.679 h -1.36 v -0.679 h 1.36 m -2.719,0.679 h -1.36 v -0.679 h 1.36 m -2.719,0.679 h -1.359 v -0.679 h 1.359"
                 style="fill:#333333;fill-opacity:1;fill-rule:nonzero;stroke:none"
                 id="path6078" />
            </g>
          </g>
        </g>
      </g>
      <g
         id="g6080">
        <g
           id="g6082">
          <g
             id="g6084"
             clip-path="url(#clipPath6088)">
            <g
               id="g6090">
              <g
                 id="g6092">
                <g
                   id="g6094">
                  <g
                     id="g6096"
                     clip-path="url(#clipPath6100)">
                    <g
                       id="g6102" />
                    <g
                       id="g6104">
                      <g
                         id="g6106"
                         clip-path="url(#clipPath6110)">
                        <g
                           id="g6112">
                          <g
                             id="g6114">
                            <g
                               id="g6116"
                               clip-path="url(#clipPath6120)">
                              <g
                                 id="g6122">
                                <g
                                   id="g6124"
                                   transform="scale(-1)">
                                <path
                                   d="m -175.152,-121.532 4.988,2.265 -4.535,2.266 z"
                                   style="fill:#333333;fill-opacity:1;fill-rule:nonzero;stroke:#333333;stroke-width:0.464745;stroke-linecap:butt;stroke-linejoin:miter;stroke-miterlimit:10;stroke-dasharray:none;stroke-opacity:1"
                                   id="path6126" />
                                </g>
                              </g>
                            </g>
                          </g>
                        </g>
                      </g>
                    </g>
                  </g>
                </g>
              </g>
            </g>
          </g>
        </g>
      </g>
      <g
         id="g6128">
        <g
           id="g6130">
          <g
             id="g6132"
             clip-path="url(#clipPath6136)">
            <g
               id="g6138">
              <text
                 xml:space="preserve"
                 transform="matrix(1,0,0,0.99999186,183.55426,140.04237)"
                 style="font-variant:normal;font-weight:normal;font-size:7.24844px;font-family:'DejaVu Sans';-inkscape-font-specification:DejaVuSans;writing-mode:lr-tb;fill:#333333;fill-opacity:1;fill-rule:nonzero;stroke:none"
                 id="text6142"><tspan
                   x="0 3.9852273 6.8058338 11.265325 15.707119 18.54916 23.00865 28.590092 33.031887 35.873928 40.31572 43.143604 47.744667 52.164715 55.006756 59.448551 62.74543 67.035034 71.636101 76.095589 78.399658 80.703728 85.304787 89.746582 92.588623 97.030418 101.63148 103.64533 107.45006 111.8878"
                   y="0"
                   id="tspan6140">createData(dataType, dataSize)</tspan></text>
              <g
                 id="g6144">
                <path
                   d="M 169.758,145.556 H 312.074"
                   style="fill:none;stroke:#333333;stroke-width:0.464745;stroke-linecap:butt;stroke-linejoin:miter;stroke-miterlimit:10;stroke-dasharray:none;stroke-opacity:1"
                   id="path6146" />
              </g>
            </g>
          </g>
        </g>
      </g>
    </g>
    <g
       id="g6148">
      <g
         id="g6150"
         clip-path="url(#clipPath6154)">
        <g
           id="g6156">
          <g
             id="g6158">
            <g
               id="g6160"
               clip-path="url(#clipPath6164)">
              <g
                 id="g6166">
                <g
                   id="g6168">
                  <path
                     d="m 308.039,143.29 4.984,2.266 -4.531,2.265 z"
                     style="fill:#333333;fill-opacity:1;fill-rule:nonzero;stroke:#333333;stroke-width:0.464745;stroke-linecap:butt;stroke-linejoin:miter;stroke-miterlimit:10;stroke-dasharray:none;stroke-opacity:1"
                     id="path6170" />
                </g>
              </g>
            </g>
          </g>
        </g>
      </g>
    </g>
    <g
       id="g6172">
      <g
         id="g6174">
        <g
           id="g6176">
          <g
             id="g6178"
             clip-path="url(#clipPath6182)">
            <g
               id="g6184">
              <text
                 xml:space="preserve"
                 transform="matrix(1,0,0,0.99999186,204.61708,161.79072)"
                 style="font-variant:normal;font-weight:normal;font-size:7.24844px;font-family:'DejaVu Sans';-inkscape-font-specification:DejaVuSans;writing-mode:lr-tb;fill:#333333;fill-opacity:1;fill-rule:nonzero;stroke:none"
                 id="text6188"><tspan
                   x="0 4.6010618 9.0605526 13.654535 17.639763 22.233746 29.294607 33.736401 36.716473 40.914059 46.495499 50.915546 53.757587 58.199383 64.453285 68.895081"
                   y="0"
                   id="tspan6186">benchmarkDataMap</tspan></text>
              <path
                 d="m 311.621,167.648 h -1.363 v -0.679 h 1.363 m -2.723,0.679 h -1.359 v -0.679 h 1.359 m -2.718,0.679 h -1.36 v -0.679 h 1.36 m -2.719,0.679 h -1.359 v -0.679 h 1.359 m -2.719,0.679 h -1.359 v -0.679 h 1.359 m -2.719,0.679 h -1.359 v -0.679 h 1.359 m -2.718,0.679 h -1.36 v -0.679 h 1.36 m -2.723,0.679 h -1.359 v -0.679 h 1.359 m -2.719,0.679 h -1.359 v -0.679 h 1.359 m -2.718,0.679 h -1.36 v -0.679 h 1.36 m -2.719,0.679 h -1.36 v -0.679 h 1.36 m -2.719,0.679 h -1.359 v -0.679 h 1.359 m -2.719,0.679 h -1.359 v -0.679 h 1.359 m -2.722,0.679 h -1.36 v -0.679 h 1.36 m -2.719,0.679 h -1.359 v -0.679 h 1.359 m -2.719,0.679 h -1.359 v -0.679 h 1.359 m -2.719,0.679 h -1.359 v -0.679 h 1.359 m -2.718,0.679 h -1.36 v -0.679 h 1.36 m -2.719,0.679 h -1.36 v -0.679 h 1.36 m -2.723,0.679 h -1.359 v -0.679 h 1.359 m -2.719,0.679 h -1.359 v -0.679 h 1.359 m -2.718,0.679 h -1.36 v -0.679 h 1.36 m -2.719,0.679 h -1.359 v -0.679 h 1.359 m -2.719,0.679 h -1.359 v -0.679 h 1.359 m -2.719,0.679 h -1.359 v -0.679 h 1.359 m -2.722,0.679 h -1.36 v -0.679 h 1.36 m -2.719,0.679 h -1.359 v -0.679 h 1.359 m -2.719,0.679 h -1.359 v -0.679 h 1.359 m -2.718,0.679 h -1.36 v -0.679 h 1.36 m -2.719,0.679 h -1.36 v -0.679 h 1.36 m -2.719,0.679 h -1.359 v -0.679 h 1.359 m -2.723,0.679 h -1.359 v -0.679 h 1.359 m -2.718,0.679 h -1.36 v -0.679 h 1.36 m -2.719,0.679 h -1.359 v -0.679 h 1.359 m -2.719,0.679 h -1.359 v -0.679 h 1.359 m -2.719,0.679 h -1.359 v -0.679 h 1.359 m -2.718,0.679 h -1.36 v -0.679 h 1.36 M 211,167.648 h -1.359 v -0.679 H 211 m -2.719,0.679 h -1.359 v -0.679 h 1.359 m -2.719,0.679 h -1.359 v -0.679 h 1.359 m -2.718,0.679 h -1.36 v -0.679 h 1.36 m -2.719,0.679 h -1.359 v -0.679 h 1.359 m -2.719,0.679 h -1.359 v -0.679 h 1.359 m -2.722,0.679 h -1.36 v -0.679 h 1.36 m -2.719,0.679 h -1.36 v -0.679 h 1.36 m -2.719,0.679 h -1.359 v -0.679 h 1.359 m -2.719,0.679 h -1.359 v -0.679 h 1.359 m -2.718,0.679 h -1.36 v -0.679 h 1.36 m -2.719,0.679 h -1.36 v -0.679 h 1.36 m -2.723,0.679 h -1.359 v -0.679 h 1.359 m -2.719,0.679 h -1.359 v -0.679 h 1.359 m -2.718,0.679 h -1.36 v -0.679 h 1.36"
                 style="fill:#333333;fill-opacity:1;fill-rule:nonzero;stroke:none"
                 id="path6190" />
            </g>
          </g>
        </g>
      </g>
      <g
         id="g6192">
        <g
           id="g6194">
          <g
             id="g6196"
             clip-path="url(#clipPath6200)">
            <g
               id="g6202">
              <g
                 id="g6204">
                <g
                   id="g6206">
                  <g
                     id="g6208"
                     clip-path="url(#clipPath6212)">
                    <g
                       id="g6214" />
                    <g
                       id="g6216">
                      <g
                         id="g6218"
                         clip-path="url(#clipPath6222)">
                        <g
                           id="g6224">
                          <g
                             id="g6226">
                            <g
                               id="g6228"
                               clip-path="url(#clipPath6232)">
                              <g
                                 id="g6234">
                                <g
                                   id="g6236"
                                   transform="scale(-1)">
                                <path
                                   d="m -175.152,-169.576 4.988,2.266 -4.535,2.266 z"
                                   style="fill:#333333;fill-opacity:1;fill-rule:nonzero;stroke:#333333;stroke-width:0.464745;stroke-linecap:butt;stroke-linejoin:miter;stroke-miterlimit:10;stroke-dasharray:none;stroke-opacity:1"
                                   id="path6238" />
                                </g>
                              </g>
                            </g>
                          </g>
                        </g>
                      </g>
                    </g>
                  </g>
                </g>
              </g>
            </g>
          </g>
        </g>
      </g>
      <g
         id="g6240">
        <g
           id="g6242">
          <g
             id="g6244"
             clip-path="url(#clipPath6248)">
            <g
               id="g6250">
              <text
                 xml:space="preserve"
                 transform="matrix(1,0,0,0.99999186,86.445901,183.5505)"
                 style="font-variant:normal;font-weight:normal;font-size:7.24844px;font-family:'DejaVu Sans';-inkscape-font-specification:DejaVuSans;writing-mode:lr-tb;fill:#333333;fill-opacity:1;fill-rule:nonzero;stroke:none"
                 id="text6254"><tspan
                   x="0 2.9800723 7.5740557 12.168039 14.305763 17.147804 21.607294 24.587366 29.029161 31.871201 33.885052 38.319767 42.91375 46.690159 49.496296 53.272709 56.11475 59.094822 63.536613 66.378654 70.838142 75.439209 77.453056 81.912544 85.688957 87.993027 90.297096 94.898163 99.357651 103.95164 107.91512 112.5091 119.56996 124.01176 126.99183 131.18941 136.77086 141.21265 144.05469 148.49648 154.75038 159.19218 163.7715"
                   y="0"
                   id="tspan6252">runIterations(strategies, benchmarkDataMap)</tspan></text>
              <g
                 id="g6256">
                <path
                   d="m 169.758,189.064 c 27.195,-4.531 27.195,13.598 0,9.066"
                   style="fill:none;stroke:#333333;stroke-width:0.464745;stroke-linecap:butt;stroke-linejoin:miter;stroke-miterlimit:10;stroke-dasharray:none;stroke-opacity:1"
                   id="path6258" />
              </g>
            </g>
          </g>
        </g>
      </g>
      <g
         id="g6260">
        <g
           id="g6262">
          <g
             id="g6264"
             clip-path="url(#clipPath6268)">
            <g
               id="g6270">
              <g
                 id="g6272">
                <g
                   id="g6274">
                  <g
                     id="g6276"
                     clip-path="url(#clipPath6280)">
                    <g
                       id="g6282" />
                    <g
                       id="g6284">
                      <g
                         id="g6286"
                         clip-path="url(#clipPath6290)">
                        <g
                           id="g6292"
                           clip-path="url(#clipPath6296)">
                          <g
                             id="g6298">
                            <g
                               id="g6300">
                              <g
                                 id="g6302"
                                 clip-path="url(#clipPath6306)">
                                <g
                                   id="g6308">
                                <g
                                   id="g6310"
                                   transform="matrix(-1,-0.166665,0.166667,-0.999992,0,0)">
                                <path
                                   d="m -201.277,-167.483 4.915,2.236 -4.467,2.236 z"
                                   style="fill:#333333;fill-opacity:1;fill-rule:nonzero;stroke:#333333;stroke-width:0.458422;stroke-linecap:butt;stroke-linejoin:miter;stroke-miterlimit:10;stroke-dasharray:none;stroke-opacity:1"
                                   id="path6312" />
                                </g>
                                </g>
                              </g>
                            </g>
                          </g>
                        </g>
                      </g>
                    </g>
                  </g>
                </g>
              </g>
            </g>
          </g>
        </g>
      </g>
      <g
         id="g6314">
        <g
           id="g6316">
          <g
             id="g6318"
             clip-path="url(#clipPath6322)">
            <g
               id="g6324">
              <text
                 xml:space="preserve"
                 transform="matrix(1,0,0,0.99999186,76.845921,218.89872)"
                 style="font-variant:normal;font-weight:normal;font-size:7.24844px;font-family:'DejaVu Sans';-inkscape-font-specification:DejaVuSans;writing-mode:lr-tb;fill:#333333;fill-opacity:1;fill-rule:nonzero;stroke:none"
                 id="text6328"><tspan
                   x="0 4.6010618 9.0605526 13.654535 17.639763 22.233746 29.294607 33.736401 36.716473 40.914059 45.609776 50.069263 53.845673 58.439659 60.453506 63.295547"
                   y="0"
                   id="tspan6326">benchmarkResults</tspan></text>
              <path
                 d="m 165.227,224.758 h -1.36 v -0.684 h 1.36 m -2.723,0.684 h -1.359 v -0.684 h 1.359 m -2.719,0.684 h -1.359 v -0.684 h 1.359 m -2.719,0.684 h -1.359 v -0.684 h 1.359 m -2.718,0.684 h -1.36 v -0.684 h 1.36 m -2.719,0.684 h -1.359 v -0.684 h 1.359 m -2.719,0.684 h -1.359 v -0.684 h 1.359 m -2.722,0.684 h -1.36 v -0.684 h 1.36 m -2.719,0.684 h -1.36 v -0.684 h 1.36 m -2.719,0.684 h -1.359 v -0.684 h 1.359 m -2.719,0.684 h -1.359 v -0.684 h 1.359 m -2.719,0.684 h -1.359 v -0.684 h 1.359 m -2.718,0.684 h -1.36 v -0.684 h 1.36 m -2.719,0.684 h -1.363 v -0.684 h 1.363 m -2.723,0.684 h -1.359 v -0.684 h 1.359 m -2.718,0.684 h -1.36 v -0.684 h 1.36 m -2.719,0.684 h -1.36 v -0.684 h 1.36 m -2.719,0.684 h -1.359 v -0.684 h 1.359 m -2.719,0.684 h -1.359 v -0.684 h 1.359 m -2.718,0.684 h -1.364 v -0.684 h 1.364 m -2.723,0.684 h -1.359 v -0.684 h 1.359 m -2.719,0.684 h -1.359 v -0.684 h 1.359 m -2.719,0.684 h -1.359 v -0.684 h 1.359 m -2.718,0.684 h -1.36 v -0.684 h 1.36 m -2.719,0.684 h -1.359 v -0.684 h 1.359 m -2.719,0.684 h -1.363 v -0.684 h 1.363 m -2.722,0.684 h -1.36 v -0.684 h 1.36 m -2.719,0.684 h -1.36 v -0.684 h 1.36 m -2.719,0.684 h -1.359 v -0.684 h 1.359 m -2.719,0.684 h -1.359 v -0.684 h 1.359 m -2.718,0.684 h -1.36 v -0.684 h 1.36 m -2.719,0.684 h -1.364 v -0.684 h 1.364 m -2.723,0.684 h -1.359 v -0.684 h 1.359 m -2.719,0.684 h -1.359 v -0.684 h 1.359 m -2.718,0.684 h -1.36 v -0.684 h 1.36 m -2.719,0.684 h -1.359 v -0.684 h 1.359 m -2.719,0.684 h -1.359 v -0.684 h 1.359 m -2.719,0.684 h -1.363 v -0.684 h 1.363 m -2.722,0.684 h -1.36 v -0.684 h 1.36 m -2.719,0.684 h -1.359 v -0.684 h 1.359 m -2.719,0.684 h -0.906 v -0.684 h 0.906"
                 style="fill:#333333;fill-opacity:1;fill-rule:nonzero;stroke:none"
                 id="path6330" />
            </g>
          </g>
        </g>
      </g>
      <g
         id="g6332">
        <g
           id="g6334">
          <g
             id="g6336"
             clip-path="url(#clipPath6340)">
            <g
               id="g6342">
              <g
                 id="g6344">
                <g
                   id="g6346">
                  <g
                     id="g6348"
                     clip-path="url(#clipPath6352)">
                    <g
                       id="g6354" />
                    <g
                       id="g6356">
                      <g
                         id="g6358"
                         clip-path="url(#clipPath6362)">
                        <g
                           id="g6364">
                          <g
                             id="g6366">
                            <g
                               id="g6368"
                               clip-path="url(#clipPath6372)">
                              <g
                                 id="g6374">
                                <g
                                   id="g6376"
                                   transform="scale(-1)">
                                <path
                                   d="m -59.578,-226.685 4.988,2.265 -4.535,2.27 z"
                                   style="fill:#333333;fill-opacity:1;fill-rule:nonzero;stroke:#333333;stroke-width:0.464745;stroke-linecap:butt;stroke-linejoin:miter;stroke-miterlimit:10;stroke-dasharray:none;stroke-opacity:1"
                                   id="path6378" />
                                </g>
                              </g>
                            </g>
                          </g>
                        </g>
                      </g>
                    </g>
                  </g>
                </g>
              </g>
            </g>
          </g>
        </g>
      </g>
      <g
         id="g6380">
        <g
           id="g6382">
          <g
             id="g6384"
             clip-path="url(#clipPath6388)">
            <g
               id="g6390">
              <text
                 xml:space="preserve"
                 transform="matrix(1,0,0,0.99999186,231.41702,240.6585)"
                 style="font-variant:normal;font-weight:normal;font-size:7.24844px;font-family:'DejaVu Sans';-inkscape-font-specification:DejaVuSans;writing-mode:lr-tb;fill:#333333;fill-opacity:1;fill-rule:nonzero;stroke:none"
                 id="text6394"><tspan
                   x="0 4.6010618 7.4216685 11.856384 15.841612 20.301102 24.077513 27.853922 30.681805 35.282867 39.742359 44.336342 48.299824 52.893806 59.954666 64.396461 67.376534 71.57412 76.277084 80.736572 84.512985 89.106964 91.120819 93.962852 97.739265"
                   y="0"
                   id="tspan6392">process(benchmarkResults)</tspan></text>
              <g
                 id="g6396">
                <path
                   d="M 54.184,246.174 H 508.777"
                   style="fill:none;stroke:#333333;stroke-width:0.464745;stroke-linecap:butt;stroke-linejoin:miter;stroke-miterlimit:10;stroke-dasharray:none;stroke-opacity:1"
                   id="path6398" />
              </g>
            </g>
          </g>
        </g>
      </g>
    </g>
    <g
       id="g6400">
      <g
         id="g6402"
         clip-path="url(#clipPath6406)">
        <g
           id="g6408">
          <g
             id="g6410">
            <g
               id="g6412"
               clip-path="url(#clipPath6416)">
              <g
                 id="g6418">
                <g
                   id="g6420">
                  <path
                     d="m 504.742,243.908 4.985,2.266 -4.532,2.265 z"
                     style="fill:#333333;fill-opacity:1;fill-rule:nonzero;stroke:#333333;stroke-width:0.464745;stroke-linecap:butt;stroke-linejoin:miter;stroke-miterlimit:10;stroke-dasharray:none;stroke-opacity:1"
                     id="path6422" />
                </g>
              </g>
            </g>
          </g>
        </g>
      </g>
    </g>
    <g
       id="g6424">
      <g
         id="g6426">
        <g
           id="g6428">
          <g
             id="g6430"
             clip-path="url(#clipPath6434)">
            <g
               id="g6436">
              <text
                 xml:space="preserve"
                 transform="matrix(1,0,0,0.99999186,248.13699,262.40684)"
                 style="font-variant:normal;font-weight:normal;font-size:7.24844px;font-family:'DejaVu Sans';-inkscape-font-specification:DejaVuSans;writing-mode:lr-tb;fill:#333333;fill-opacity:1;fill-rule:nonzero;stroke:none"
                 id="text6440"><tspan
                   x="0 4.4417944 9.0428562 13.643918 16.457275 20.916767 25.517828 29.959623 32.801662 37.261154 41.862217 46.565182 51.02467 54.801083 59.395065 61.408913 64.250954"
                   y="0"
                   id="tspan6438">aggregatedResults</tspan></text>
              <path
                 d="m 508.324,268.266 h -1.363 v -0.68 h 1.363 m -2.722,0.68 h -1.36 v -0.68 h 1.36 m -2.719,0.68 h -1.36 v -0.68 h 1.36 m -2.719,0.68 h -1.359 v -0.68 h 1.359 m -2.719,0.68 h -1.359 v -0.68 h 1.359 m -2.718,0.68 h -1.36 v -0.68 h 1.36 m -2.719,0.68 h -1.363 v -0.68 h 1.363 m -2.723,0.68 h -1.359 v -0.68 h 1.359 m -2.719,0.68 h -1.359 v -0.68 h 1.359 m -2.718,0.68 h -1.36 v -0.68 h 1.36 m -2.719,0.68 h -1.359 v -0.68 h 1.359 m -2.719,0.68 h -1.359 v -0.68 h 1.359 m -2.719,0.68 h -1.363 v -0.68 h 1.363 m -2.722,0.68 h -1.36 v -0.68 h 1.36 m -2.719,0.68 h -1.359 v -0.68 h 1.359 m -2.719,0.68 h -1.359 v -0.68 h 1.359 m -2.719,0.68 h -1.359 v -0.68 h 1.359 m -2.718,0.68 h -1.36 v -0.68 h 1.36 m -2.719,0.68 h -1.359 v -0.68 h 1.359 m -2.723,0.68 h -1.359 v -0.68 h 1.359 m -2.718,0.68 h -1.36 v -0.68 h 1.36 m -2.719,0.68 h -1.36 v -0.68 h 1.36 m -2.719,0.68 h -1.359 v -0.68 h 1.359 m -2.719,0.68 h -1.359 v -0.68 h 1.359 m -2.718,0.68 h -1.36 v -0.68 h 1.36 m -2.723,0.68 h -1.359 v -0.68 h 1.359 m -2.719,0.68 h -1.359 v -0.68 h 1.359 m -2.719,0.68 h -1.359 v -0.68 h 1.359 m -2.718,0.68 h -1.36 v -0.68 h 1.36 m -2.719,0.68 h -1.359 v -0.68 h 1.359 m -2.719,0.68 h -1.359 v -0.68 h 1.359 m -2.722,0.68 h -1.36 v -0.68 h 1.36 m -2.719,0.68 h -1.36 v -0.68 h 1.36 m -2.719,0.68 h -1.359 v -0.68 h 1.359 m -2.719,0.68 h -1.359 v -0.68 h 1.359 m -2.718,0.68 h -1.36 v -0.68 h 1.36 m -2.719,0.68 h -1.36 v -0.68 h 1.36 m -2.723,0.68 h -1.359 v -0.68 h 1.359 m -2.719,0.68 h -1.359 v -0.68 h 1.359 m -2.718,0.68 h -1.36 v -0.68 h 1.36 m -2.719,0.68 h -1.359 v -0.68 h 1.359 m -2.719,0.68 h -1.359 v -0.68 h 1.359 m -2.719,0.68 h -1.359 v -0.68 h 1.359 m -2.722,0.68 h -1.36 v -0.68 h 1.36 m -2.719,0.68 h -1.359 v -0.68 h 1.359 m -2.719,0.68 h -1.359 v -0.68 h 1.359 m -2.719,0.68 h -1.359 v -0.68 h 1.359 m -2.718,0.68 h -1.36 v -0.68 h 1.36 m -2.719,0.68 h -1.359 v -0.68 h 1.359 m -2.723,0.68 h -1.359 v -0.68 h 1.359 m -2.718,0.68 h -1.36 v -0.68 h 1.36 m -2.719,0.68 h -1.36 v -0.68 h 1.36 m -2.719,0.68 h -1.359 v -0.68 h 1.359 m -2.719,0.68 h -1.359 v -0.68 h 1.359 m -2.718,0.68 h -1.36 v -0.68 h 1.36 m -2.723,0.68 h -1.359 v -0.68 h 1.359 m -2.719,0.68 h -1.359 v -0.68 h 1.359 m -2.719,0.68 h -1.359 v -0.68 h 1.359 m -2.718,0.68 h -1.36 v -0.68 h 1.36 m -2.719,0.68 h -1.359 v -0.68 h 1.359 m -2.719,0.68 h -1.359 v -0.68 h 1.359 m -2.722,0.68 h -1.36 v -0.68 h 1.36 m -2.719,0.68 h -1.36 v -0.68 h 1.36 m -2.719,0.68 h -1.359 v -0.68 H 337 m -2.719,0.68 h -1.359 v -0.68 h 1.359 m -2.719,0.68 h -1.359 v -0.68 h 1.359 m -2.718,0.68 h -1.36 v -0.68 h 1.36 m -2.723,0.68 h -1.359 v -0.68 h 1.359 m -2.719,0.68 h -1.359 v -0.68 h 1.359 m -2.718,0.68 h -1.36 v -0.68 h 1.36 m -2.719,0.68 h -1.36 v -0.68 h 1.36 m -2.719,0.68 h -1.359 v -0.68 h 1.359 m -2.719,0.68 h -1.359 v -0.68 h 1.359 m -2.722,0.68 h -1.36 v -0.68 h 1.36 m -2.719,0.68 h -1.359 v -0.68 h 1.359 m -2.719,0.68 h -1.359 v -0.68 h 1.359 m -2.719,0.68 h -1.359 v -0.68 h 1.359 m -2.718,0.68 h -1.36 v -0.68 h 1.36 m -2.719,0.68 h -1.359 v -0.68 h 1.359 m -2.723,0.68 h -1.359 v -0.68 h 1.359 m -2.718,0.68 h -1.36 v -0.68 h 1.36 m -2.719,0.68 h -1.36 v -0.68 h 1.36 m -2.719,0.68 h -1.359 v -0.68 h 1.359 m -2.719,0.68 h -1.359 v -0.68 h 1.359 m -2.718,0.68 h -1.36 v -0.68 h 1.36 m -2.723,0.68 h -1.36 v -0.68 h 1.36 m -2.719,0.68 h -1.359 v -0.68 h 1.359 m -2.719,0.68 h -1.359 v -0.68 h 1.359 m -2.718,0.68 h -1.36 v -0.68 h 1.36 m -2.719,0.68 h -1.359 v -0.68 h 1.359 m -2.719,0.68 h -1.359 v -0.68 h 1.359 m -2.723,0.68 h -1.359 v -0.68 h 1.359 m -2.718,0.68 h -1.36 v -0.68 h 1.36 m -2.719,0.68 h -1.359 v -0.68 h 1.359 m -2.719,0.68 h -1.359 v -0.68 h 1.359 m -2.719,0.68 h -1.359 v -0.68 h 1.359 m -2.718,0.68 h -1.36 v -0.68 h 1.36 m -2.723,0.68 h -1.359 v -0.68 h 1.359 m -2.719,0.68 h -1.359 v -0.68 h 1.359 m -2.718,0.68 h -1.36 v -0.68 h 1.36 m -2.719,0.68 h -1.36 v -0.68 h 1.36 m -2.719,0.68 h -1.359 v -0.68 h 1.359 m -2.719,0.68 h -1.359 v -0.68 h 1.359 m -2.722,0.68 h -1.36 v -0.68 h 1.36 m -2.719,0.68 h -1.359 v -0.68 h 1.359 m -2.719,0.68 h -1.359 v -0.68 h 1.359 m -2.719,0.68 h -1.359 v -0.68 h 1.359 m -2.718,0.68 h -1.36 v -0.68 h 1.36 m -2.719,0.68 h -1.359 v -0.68 h 1.359 m -2.719,0.68 h -1.363 v -0.68 h 1.363 m -2.722,0.68 h -1.36 v -0.68 h 1.36 m -2.719,0.68 h -1.36 v -0.68 h 1.36 m -2.719,0.68 h -1.359 v -0.68 h 1.359 m -2.719,0.68 h -1.359 v -0.68 h 1.359 m -2.719,0.68 h -1.359 v -0.68 h 1.359 m -2.718,0.68 h -1.364 v -0.68 h 1.364 m -2.723,0.68 h -1.359 v -0.68 h 1.359 m -2.719,0.68 h -1.359 v -0.68 h 1.359 m -2.718,0.68 h -1.36 v -0.68 h 1.36 m -2.719,0.68 h -1.36 v -0.68 h 1.36 m -2.719,0.68 h -1.359 v -0.68 h 1.359 m -2.719,0.68 h -1.363 v -0.68 h 1.363 m -2.722,0.68 h -1.36 v -0.68 h 1.36 m -2.719,0.68 h -1.359 v -0.68 h 1.359 m -2.719,0.68 h -1.359 v -0.68 h 1.359 m -2.719,0.68 h -1.359 v -0.68 h 1.359 m -2.718,0.68 h -1.36 v -0.68 h 1.36 m -2.719,0.68 h -1.363 v -0.68 h 1.363 m -2.723,0.68 h -1.359 v -0.68 h 1.359 m -2.718,0.68 h -1.36 v -0.68 h 1.36 m -2.719,0.68 h -1.36 v -0.68 h 1.36 m -2.719,0.68 h -1.359 v -0.68 h 1.359 m -2.719,0.68 h -1.359 v -0.68 h 1.359 m -2.718,0.68 h -1.364 v -0.68 h 1.364 m -2.723,0.68 h -1.36 v -0.68 h 1.36 m -2.719,0.68 h -1.359 v -0.68 h 1.359 m -2.719,0.68 h -1.359 v -0.68 h 1.359 m -2.718,0.68 h -1.36 v -0.68 h 1.36 m -2.719,0.68 h -1.359 v -0.68 h 1.359 m -2.719,0.68 h -1.363 v -0.68 h 1.363 m -2.723,0.68 h -1.359 v -0.68 h 1.359 m -2.718,0.68 h -1.36 v -0.68 h 1.36 m -2.719,0.68 h -1.359 v -0.68 h 1.359 m -2.719,0.68 h -1.359 v -0.68 h 1.359 m -2.719,0.68 h -1.359 v -0.68 h 1.359 m -2.718,0.68 h -1.364 v -0.68 h 1.364 m -2.723,0.68 h -1.359 v -0.68 h 1.359 m -2.719,0.68 h -1.359 v -0.68 h 1.359 m -2.718,0.68 h -1.36 v -0.68 h 1.36 m -2.719,0.68 h -1.36 v -0.68 h 1.36 m -2.719,0.68 h -1.359 v -0.68 h 1.359 m -2.719,0.68 h -1.363 v -0.68 h 1.363 m -2.722,0.68 h -1.36 v -0.68 h 1.36 m -2.719,0.68 h -1.359 v -0.68 h 1.359 m -2.719,0.68 h -1.359 v -0.68 h 1.359 m -2.719,0.68 h -1.359 v -0.68 h 1.359 m -2.718,0.68 h -1.36 v -0.68 h 1.36 m -2.719,0.68 h -1.363 v -0.68 h 1.363 m -2.723,0.68 h -1.359 v -0.68 h 1.359 m -2.718,0.68 h -1.36 v -0.68 h 1.36 m -2.719,0.68 h -1.36 v -0.68 h 1.36 m -2.719,0.68 h -1.359 v -0.68 H 70.5 m -2.719,0.68 h -1.359 v -0.68 h 1.359 m -2.719,0.68 h -1.363 v -0.68 h 1.363 m -2.722,0.68 h -1.36 v -0.68 h 1.36 m -2.719,0.68 h -1.359 v -0.68 h 1.359 m -2.719,0.68 h -1.359 v -0.68 h 1.359"
                 style="fill:#333333;fill-opacity:1;fill-rule:nonzero;stroke:none"
                 id="path6442" />
            </g>
          </g>
        </g>
      </g>
      <g
         id="g6444">
        <g
           id="g6446">
          <g
             id="g6448"
             clip-path="url(#clipPath6452)">
            <g
               id="g6454">
              <g
                 id="g6456">
                <g
                   id="g6458">
                  <g
                     id="g6460"
                     clip-path="url(#clipPath6464)">
                    <g
                       id="g6466" />
                    <g
                       id="g6468">
                      <g
                         id="g6470"
                         clip-path="url(#clipPath6474)">
                        <g
                           id="g6476">
                          <g
                             id="g6478">
                            <g
                               id="g6480"
                               clip-path="url(#clipPath6484)">
                              <g
                                 id="g6486">
                                <g
                                   id="g6488"
                                   transform="scale(-1)">
                                <path
                                   d="m -59.578,-270.194 4.988,2.266 -4.535,2.266 z"
                                   style="fill:#333333;fill-opacity:1;fill-rule:nonzero;stroke:#333333;stroke-width:0.464745;stroke-linecap:butt;stroke-linejoin:miter;stroke-miterlimit:10;stroke-dasharray:none;stroke-opacity:1"
                                   id="path6490" />
                                </g>
                              </g>
                            </g>
                          </g>
                        </g>
                      </g>
                    </g>
                  </g>
                </g>
              </g>
            </g>
          </g>
        </g>
      </g>
      <g
         id="g6492">
        <g
           id="g6494">
          <g
             id="g6496"
             clip-path="url(#clipPath6500)">
            <g
               id="g6502">
              <text
                 xml:space="preserve"
                 transform="matrix(1,0,0,0.99999186,6.446072,284.16662)"
                 style="font-variant:normal;font-weight:normal;font-size:7.24844px;font-family:'DejaVu Sans';-inkscape-font-specification:DejaVuSans;writing-mode:lr-tb;fill:#333333;fill-opacity:1;fill-rule:nonzero;stroke:none"
                 id="text6506"><tspan
                   x="0 5.7053165 10.2993 13.14134 17.742403 22.336386 25.178427 27.482496 31.92429 36.525352 41.126415 43.932526 48.392014 52.993076 57.434872 60.276913 64.736404 69.337463 74.03318 78.492668 82.269081 86.86306 88.876915 91.718956"
                   y="0"
                   id="tspan6504">Output aggregatedResults</tspan></text>
              <g
                 id="g6508">
                <path
                   d="m 54.184,289.682 c 27.195,-4.531 27.195,13.598 0,9.066"
                   style="fill:none;stroke:#333333;stroke-width:0.464745;stroke-linecap:butt;stroke-linejoin:miter;stroke-miterlimit:10;stroke-dasharray:none;stroke-opacity:1"
                   id="path6510" />
              </g>
            </g>
          </g>
        </g>
      </g>
      <g
         id="g6512">
        <g
           id="g6514">
          <g
             id="g6516"
             clip-path="url(#clipPath6520)">
            <g
               id="g6522">
              <g
                 id="g6524">
                <g
                   id="g6526">
                  <g
                     id="g6528"
                     clip-path="url(#clipPath6532)">
                    <g
                       id="g6534" />
                    <g
                       id="g6536">
                      <g
                         id="g6538"
                         clip-path="url(#clipPath6542)">
                        <g
                           id="g6544"
                           clip-path="url(#clipPath6548)">
                          <g
                             id="g6550">
                            <g
                               id="g6552">
                              <g
                                 id="g6554"
                                 clip-path="url(#clipPath6558)">
                                <g
                                   id="g6560">
                                <g
                                   id="g6562"
                                   transform="matrix(-1,-0.166665,0.166667,-0.999992,0,0)">
                                <path
                                   d="m -105.143,-284.123 4.916,2.235 -4.467,2.237 z"
                                   style="fill:#333333;fill-opacity:1;fill-rule:nonzero;stroke:#333333;stroke-width:0.458422;stroke-linecap:butt;stroke-linejoin:miter;stroke-miterlimit:10;stroke-dasharray:none;stroke-opacity:1"
                                   id="path6564" />
                                </g>
                                </g>
                              </g>
                            </g>
                          </g>
                        </g>
                      </g>
                    </g>
                  </g>
                </g>
              </g>
            </g>
          </g>
        </g>
      </g>
    </g>
  </g>
</svg>
